<?xml version="1.0" encoding="utf-8"?>
<svg xmlns="http://www.w3.org/2000/svg" fill="none" height="28" viewBox="0 0 105 28" width="105">
<g clip-path="url(#clip0_61_389)">
<path d="M55.3963 1.50488V26.4511H49.2013V1.50488H55.3963Z" fill="#F7F5FF"/>
<path d="M70.8225 0.708984C78.2425 0.708984 84.2188 6.45773 84.2188 13.9302C84.2188 21.429 78.1987 27.2915 70.7612 27.2915C63.3237 27.2915 57.3038 21.5077 57.3038 14.0265C57.295 6.55398 63.4025 0.708984 70.8225 0.708984ZM70.77 21.2015C74.7075 21.2015 77.595 17.7977 77.595 13.974C77.595 10.1502 74.69 6.78148 70.77 6.78148C66.8325 6.78148 63.9275 10.1502 63.9275 13.974C63.9275 17.7977 66.8412 21.2015 70.77 21.2015Z" fill="#F7F5FF"/>
<path d="M84.9275 18.9089L90.6062 17.5614C91.0175 20.5626 93.1963 21.6389 95.4888 21.6389C97.7638 21.6389 98.595 20.2914 98.595 19.2414C98.595 18.3926 98.105 17.5614 96.4425 17.2289L92.9775 16.5551C88.83 15.7589 85.8988 13.1514 85.8988 9.14389C85.8988 4.37514 90.2475 1.01514 95.1562 1.01514C101.483 1.01514 104.09 4.97014 104.545 8.27764L98.9712 9.84389C98.6737 7.80514 97.4137 6.32639 95.13 6.32639C93.1525 6.32639 92.2075 7.64764 92.2075 8.64514C92.2075 9.47639 92.6012 10.4301 94.0712 10.7189L97.685 11.4101C102.41 12.3201 105 15.2076 105 18.9614C105 23.0389 101.483 26.9676 95.4538 26.9676C89.145 26.9764 85.7587 23.6689 84.9275 18.9089Z" fill="#F7F5FF"/>
<path d="M6.6675 26.4511H0L11.0075 1.50488H17.6925L6.6675 26.4511Z" fill="#F7F5FF"/>
<path d="M39.4013 13.7028L47.6788 1.49658H40.11L35.6388 8.88158L31.2813 1.49658H23.6075L31.99 13.7028L26.5738 21.6391L17.6925 1.50533H11.0075L22.0588 26.4516H30.4238L35.6388 18.5503L40.8013 26.4516H47.6438L39.4013 13.7028Z" fill="#F7F5FF"/>
</g>
<defs>
<clipPath id="clip0_61_389">
<rect fill="white" height="26.5825" transform="translate(0 0.708984)" width="105"/>
</clipPath>
</defs>
</svg>