<?xml version="1.0" encoding="utf-8"?>
<svg xmlns="http://www.w3.org/2000/svg" fill="none" height="26" viewBox="0 0 169 26" width="169">
<path clip-rule="evenodd" d="M80.2628 6.81493C80.2628 10.1935 79.9253 20.6667 79.9253 20.6667C79.9253 22.6935 80.6002 23.5941 82.5152 23.5941V24.4947H74.9702V23.5941C76.8842 23.5941 77.8976 22.6935 77.8976 20.6667L78.5735 3.54915C78.0104 2.19734 77.4473 1.74705 75.9836 1.6352V0.847427H81.7264L87.8077 16.8388L94.0018 0.847427H99.1815V1.6352C97.7178 1.6352 96.9301 2.3111 96.9301 3.88758L97.606 20.4421C97.606 22.9201 98.0563 23.595 100.084 23.595V24.4956H91.4129V23.595C93.1012 23.595 93.8909 23.0319 93.7771 20.4421C93.7771 20.4421 93.4387 8.84265 93.3268 6.81588L89.1614 18.3025C88.5358 19.9207 88.009 21.5755 87.584 23.2576L86.2341 23.3704C85.8957 22.1314 84.9951 19.8799 84.9951 19.8799C84.9951 19.8799 81.5008 10.0807 80.2628 6.81493ZM73.1681 24.6075C72.7178 24.4947 72.2676 24.4947 71.8163 24.4947C70.9157 24.4947 69.3383 24.9449 67.4243 24.9449C60.1041 24.9449 54.6987 20.553 54.6987 12.4449C54.6987 5.57592 59.7666 0.283377 67.5362 0.283377C69.3373 0.283377 71.3651 0.621807 73.0544 1.29676C73.3918 0.958327 73.5046 0.73366 73.8421 0.396184H74.518C74.4052 1.63519 73.9549 5.68873 73.9549 5.68873H73.279C72.8287 3.32449 71.5897 1.74705 67.648 1.74705C62.9186 1.74705 58.6394 5.46311 58.6394 12.3331C58.6394 20.1036 63.0314 23.4813 67.8737 23.4813C71.0276 23.4813 72.9415 21.6801 74.1806 19.4277L74.9693 19.7662L73.1681 24.6075ZM51.8832 5.23844H51.0955C50.9827 3.09886 50.3068 2.42296 48.6175 2.42296H45.3517V20.1037C45.3517 23.031 45.9148 23.5941 47.8297 23.5941V24.4947H39.3832V23.5941C41.2981 23.5941 41.8612 23.031 41.8612 19.9899V2.42296H38.5955C36.4559 2.42296 36.1175 2.98605 35.5544 5.23844H34.7666L35.3297 0.170563L35.8928 0.283377C36.1175 0.846475 36.5687 0.846472 37.9196 0.846472H48.8431C50.8708 0.846472 51.3211 0.846471 51.7714 0.170563H52.4473L51.8832 5.23844Z" fill="white" fill-rule="evenodd"/>
<path clip-rule="evenodd" d="M28.0094 25.0578C26.4329 25.0578 25.1939 24.8331 24.2934 24.4947C23.3928 24.27 22.7169 23.9316 22.3794 23.7069C21.9291 24.1572 21.5907 24.7203 21.5907 24.7203L20.9148 24.4956L21.4779 19.2031L22.2666 19.3159C22.7169 21.7929 24.4062 23.595 27.8976 23.595C30.6002 23.595 32.4023 21.3436 32.4023 18.8656C32.4023 16.8388 31.6136 15.8245 28.9109 13.7977C28.0104 13.2346 27.2217 12.7843 26.5457 12.2212C24.0687 10.6457 22.4913 8.84362 22.4913 5.91532C22.4913 2.53674 25.3067 0.284347 29.0228 0.284347C31.1624 0.284347 32.5142 0.960256 32.9645 1.18492L33.7522 0.284347L34.3153 0.397154L33.7522 5.23941L32.9645 5.12661C32.9645 2.87517 31.6127 1.86083 29.3603 1.86083C27.2207 1.86083 25.6442 2.98703 25.6442 5.12661C25.6442 7.04152 27.1079 8.27957 28.7972 9.40672C29.6978 9.96981 30.3737 10.4201 31.0486 10.8704C34.9903 13.6849 35.8909 15.487 35.8909 18.1897C35.8928 22.1304 32.8517 25.0578 28.0094 25.0578ZM15.1719 5.23846H14.2714C14.2714 3.21073 13.3708 2.42297 11.5687 2.42297H6.50082V11.3197H9.76659C11.4559 11.3197 11.7943 10.4191 12.019 8.95452H12.8067V15.2614H12.019C11.7943 13.5721 11.4559 12.8962 9.65378 12.8962H6.50082V20.4421C6.50082 23.2566 7.17673 23.595 8.97883 23.595V24.4956H0.419556V23.595C2.55913 23.595 2.89661 23.032 2.89661 20.4421V3.88664C2.89661 2.31016 2.2207 1.63425 0.419556 1.63425V0.846486H12.1308C14.1576 0.846486 14.6079 0.733678 14.9463 0.0577698H15.735L15.1719 5.23846ZM136.682 6.58932V20.1027C136.682 23.03 137.356 23.5931 139.159 23.5931V24.4937H125.872V23.5931C126.886 23.5931 127.786 23.2547 127.786 22.5798C127.786 22.1285 127.674 21.3407 127.447 20.552L126.433 17.2863H119.002C118.888 17.7375 117.538 21.4526 117.538 22.4669C117.538 23.3675 118.552 23.5931 119.226 23.5931V24.4937H113.032V23.5931C114.159 23.5931 115.06 23.4803 115.848 21.1161L121.592 2.75949C121.253 1.97172 120.804 1.7461 120.016 1.63329V0.84553H125.084L131.163 20.1027C131.727 22.1295 132.29 23.1438 133.191 23.5931C134.543 23.1429 134.881 22.6926 134.881 20.1027V3.88664C133.867 2.53482 133.753 1.63425 131.839 1.63425V0.846486H137.583L147.043 16.9497V4.67536C147.043 2.19735 146.481 1.63425 144.565 1.63425V0.846486H157.178V1.63425C156.39 1.63425 155.714 1.97268 155.714 2.76044C155.714 3.32354 155.94 3.88664 156.164 4.56255L159.768 12.3331L163.26 4.78817C163.822 3.77479 163.936 3.21169 163.936 2.64859C163.936 1.97268 163.484 1.63425 162.472 1.63425V0.846486H168.44V1.63425C166.976 1.63425 166.073 2.98607 165.399 4.56159L160.782 14.0214V20.2155C160.782 22.9191 161.458 23.5941 163.26 23.5941V24.4947H154.701V23.5941C156.503 23.5941 157.179 22.9191 157.179 20.2155V14.923L152.223 4.44974C151.323 2.42297 150.985 1.97269 150.42 1.63425C149.294 2.08454 148.957 2.87326 148.957 4.67536V22.0176C148.957 22.0176 149.071 23.3694 149.182 24.945L147.719 25.0578L136.682 6.58932ZM122.606 5.46312L119.452 15.7117H125.984L122.606 5.46312Z" fill="white" fill-rule="evenodd"/>
<path clip-rule="evenodd" d="M108.64 15.7117H106.952V20.553C106.952 23.031 107.626 23.5941 109.542 23.5941V24.4947H100.871V23.5941C102.673 23.5941 103.349 22.9191 103.349 20.4411V4.56255C103.349 2.08549 102.673 1.63521 100.871 1.63521V0.847443H107.402C113.708 0.847443 117.423 2.76141 117.423 7.94114C117.424 13.3465 112.921 15.7117 108.64 15.7117ZM107.514 2.42297H106.952V14.0214H107.964C111.682 14.0214 113.596 12.3321 113.596 8.05299C113.596 3.77383 111.906 2.42297 107.514 2.42297ZM69.3383 19.9899C65.0591 19.9899 62.1308 16.9488 62.1308 12.5578C62.1308 8.39142 65.1719 5.12564 69.3383 5.12564C73.3928 5.12564 76.4329 8.27861 76.4329 12.5578C76.4339 16.7241 73.28 19.9899 69.3383 19.9899ZM69.3383 6.47651C66.411 6.47651 65.3966 9.29199 65.3966 12.5578C65.3966 15.5989 66.2981 18.639 69.3383 18.639C72.2666 18.639 73.1672 15.5979 73.1672 12.445C73.1681 9.40481 72.0419 6.47651 69.3383 6.47651ZM19.7895 18.639V17.8503C20.9157 17.8503 21.1414 17.5128 21.1414 17.1754C21.1414 16.7241 21.0285 16.3866 20.9157 16.0492C20.9157 16.0492 20.6901 15.1476 20.4654 14.4727H16.0735L15.6232 15.9364C15.5113 16.2748 15.3985 16.6123 15.3985 17.0625C15.3985 17.5138 15.8488 17.8503 16.5247 17.8503V18.639H12.1328V17.8503C13.2589 17.8503 13.7092 17.5128 14.1595 16.2748L17.5381 6.13903C17.4253 5.68779 17.0869 5.35031 16.4119 5.35031V4.56159H20.0142C21.2431 8.16885 22.4818 11.7727 23.7303 15.3733C24.2934 17.2872 24.8565 17.8503 25.757 17.8503V18.639H19.7895ZM18.2121 7.71552L16.5228 13.2337H20.0142L18.2121 7.71552Z" fill="white" fill-rule="evenodd"/>
</svg>