<?xml version="1.0" encoding="utf-8"?>
<svg xmlns="http://www.w3.org/2000/svg" fill="none" height="32" viewBox="0 0 115 32" width="115">
<path d="M65.1475 10.9479C65.1475 7.61832 65.205 4.51832 65.3775 1.64795L56.58 3.31276V4.11647L57.4425 4.23128C58.075 4.28869 58.4775 4.51832 58.7075 4.86276C58.9375 5.26462 59.11 5.83869 59.225 6.6998C59.34 8.36462 59.455 12.1535 59.3975 18.1239C59.3975 24.0368 59.34 27.7683 59.225 29.2035C62.3875 29.8924 64.86 30.1794 66.7 30.1794C70.15 30.1794 72.8525 29.2035 74.8075 27.1942C76.7625 25.2424 77.7975 22.4868 77.7975 19.0998C77.7975 16.4017 77.05 14.1628 75.555 12.3831C74.06 10.6035 72.1625 9.74239 69.92 9.74239C68.425 9.74239 66.8725 10.1442 65.1475 10.9479ZM65.32 28.6294C65.205 26.7924 65.09 21.2813 65.09 12.2683C65.6075 12.0961 66.2975 11.9813 67.16 11.9813C68.54 11.9813 69.6325 12.6702 70.4375 14.1054C71.2425 15.5405 71.645 17.2628 71.645 19.4442C71.645 22.1424 71.185 24.3239 70.265 26.1609C69.345 27.9405 68.195 28.8591 66.7575 28.8591C66.2975 28.7442 65.8375 28.6868 65.32 28.6294ZM23.575 2.22202H0.575012V3.37017L1.78251 3.48499C2.70251 3.65721 3.33501 4.00165 3.73751 4.51832C4.14001 5.09239 4.37001 6.01091 4.42751 7.27387C4.88751 13.4739 4.88751 19.272 4.42751 24.6109C4.31251 25.8739 4.08251 26.7924 3.73751 27.3665C3.33501 27.9405 2.70251 28.285 1.78251 28.3998L0.575012 28.572V29.7202H15.41V28.572L13.8575 28.4572C12.9375 28.3424 12.305 27.9405 11.9025 27.4239C11.5 26.8498 11.27 25.9313 11.2125 24.6683C11.04 22.372 10.925 19.7313 10.925 16.8035L14.03 16.8609C15.6975 16.9183 16.8475 18.1813 17.4225 20.7072H18.5725V11.3498H17.4225C16.8475 13.8183 15.755 15.0813 14.03 15.1387L10.925 15.1961C10.925 10.0294 11.04 6.35536 11.2125 4.11647H15.755C18.975 4.11647 21.16 6.18313 22.425 10.3165L23.805 9.91461L23.575 2.22202ZM20.8725 19.9035C20.8725 22.8887 21.735 25.3572 23.4025 27.3091C25.07 29.2609 27.5425 30.1794 30.6475 30.1794C33.7525 30.1794 36.2825 29.2035 38.1225 27.1942C39.9625 25.2424 40.825 22.7739 40.825 19.7887C40.825 16.8035 39.9625 14.335 38.295 12.3831C36.6275 10.4313 34.155 9.51276 31.05 9.51276C27.945 9.51276 25.415 10.4887 23.575 12.4979C21.735 14.4498 20.8725 16.9183 20.8725 19.9035ZM33.695 13.3591C34.385 15.0239 34.6725 17.2054 34.6725 19.8461C34.6725 25.9313 33.4075 28.9165 30.935 28.9165C29.67 28.9165 28.6925 28.0554 28.0025 26.3331C27.3125 24.6109 27.025 22.4294 27.025 19.8461C27.025 13.8183 28.29 10.8331 30.7625 10.8331C32.0275 10.7757 33.005 11.6368 33.695 13.3591ZM82.2825 27.3091C84.18 29.2035 86.595 30.1794 89.47 30.1794C91.2525 30.1794 92.805 29.835 94.185 29.0887C95.565 28.3998 96.6575 27.5387 97.405 26.5054L96.83 25.8165C95.565 26.7924 94.1275 27.2516 92.46 27.2516C90.16 27.2516 88.3775 26.5054 87.17 24.9554C85.905 23.4054 85.33 21.4535 85.445 18.9276H97.75C97.75 16.172 97.06 13.9331 95.6225 12.1535C94.185 10.4313 92.1725 9.57017 89.585 9.57017C86.365 9.57017 83.8925 10.6035 82.11 12.6128C80.3275 14.622 79.465 17.0905 79.465 20.0183C79.465 23.0035 80.385 25.4146 82.2825 27.3091ZM86.5375 12.8998C87.17 11.522 87.975 10.8331 89.0675 10.8331C90.7925 10.8331 91.655 13.0146 91.655 17.435L85.56 17.5498C85.6175 15.8276 85.905 14.2776 86.5375 12.8998ZM113.218 10.6035C111.665 9.91462 109.71 9.51276 107.353 9.51276C104.938 9.51276 103.04 10.1442 101.603 11.3498C100.165 12.5554 99.4175 14.0479 99.4175 15.8276C99.4175 17.3776 99.8775 18.5831 100.74 19.4442C101.603 20.3054 102.983 21.0517 104.765 21.6831C106.375 22.2572 107.525 22.8313 108.1 23.3479C108.675 23.922 109.02 24.5535 109.02 25.4146C109.02 26.2183 108.733 26.9646 108.1 27.5387C107.525 28.1702 106.72 28.4572 105.685 28.4572C103.155 28.4572 101.258 26.6202 99.935 22.9461L98.9575 23.2331L99.1875 28.9739C101.258 29.7776 103.558 30.1794 106.088 30.1794C108.733 30.1794 110.745 29.6054 112.24 28.3998C113.735 27.2516 114.483 25.5868 114.483 23.5202C114.483 22.1424 114.138 20.9942 113.39 20.1331C112.643 19.272 111.435 18.5257 109.71 17.8368C107.813 17.1479 106.49 16.5165 105.8 15.9424C105.11 15.3683 104.765 14.6794 104.765 13.8183C104.765 12.9572 104.995 12.2683 105.513 11.6942C106.03 11.1202 106.663 10.8905 107.468 10.8905C109.768 10.8905 111.435 12.5554 112.47 15.8276L113.448 15.5405L113.218 10.6035ZM57.9025 10.0868C57.0975 9.68499 56.235 9.51276 55.2575 9.51276C54.28 9.51276 53.3025 9.91461 52.21 10.7183C51.1175 11.522 50.3125 12.6128 49.68 14.1054L49.7375 9.51276L40.9975 11.235V12.0387L41.86 12.0961C42.9525 12.2109 43.585 13.072 43.7 14.622C44.045 18.1813 44.045 21.9702 43.7 25.9887C43.585 27.5387 42.9525 28.3424 41.86 28.5146L40.9975 28.6294V29.7202H53.1875V28.6294L51.635 28.5146C50.5425 28.3998 49.91 27.5387 49.795 25.9887C49.45 22.6591 49.3925 19.0998 49.68 15.4257C50.025 14.8517 50.7725 14.5072 51.9225 14.3924C53.0725 14.2776 54.395 14.622 55.775 15.4257L57.9025 10.0868Z" fill="#F7F5FF"/>
</svg>