<?xml version="1.0" encoding="utf-8"?>
<svg xmlns="http://www.w3.org/2000/svg" fill="none" height="27" viewBox="0 0 81 27" width="81">
<path d="M12.0146 0.452627C7.86202 0.879843 3.89749 3.56933 1.89666 7.31613C-0.257566 11.3508 0.0376917 16.9128 2.61749 20.9005C3.35645 22.0427 4.90944 23.6815 5.97006 24.4386C7.09914 25.2444 8.81872 26.0254 10.2315 26.3751C11.8917 26.7858 14.9391 26.7866 16.4443 26.3776C18.8517 25.7227 20.6472 24.7396 22.3049 23.1677C23.514 22.0205 24.6975 20.4122 25.2097 19.2205C26.0022 17.373 26.4765 14.592 26.3107 12.7619L26.2381 11.9586H13.7466V17.0233H19.0843L18.8608 17.4555C18.5424 18.0708 17.1074 19.4671 16.4468 19.8044C14.5697 20.7619 12.0492 20.6984 10.3016 19.6493C9.90986 19.4143 9.21295 18.8246 8.75357 18.3388C7.38615 16.8939 6.82037 15.4341 6.8179 13.3483C6.81542 11.3458 7.41254 9.89345 8.808 8.50294C10.0624 7.25428 11.5816 6.62665 13.3466 6.62665C15.0365 6.62665 16.3783 7.15778 17.9404 8.44685L18.8039 9.15943H25.6261L25.533 8.85922C25.3622 8.3083 24.5119 6.70252 23.9635 5.89345C23.6649 5.45386 22.9985 4.67118 22.4822 4.15489C19.6954 1.36809 15.9602 0.0476783 12.0138 0.452627H12.0146ZM28.408 13.4217V26.0848H34.2703L34.3049 17.8242L34.3395 9.56355L39.4365 26.0188L43.8167 26.0914L48.8666 9.77056L48.9012 17.9281L48.9358 26.0856H54.9309V0.76273L46.4674 0.764379L44.0781 8.42623C42.7643 12.6398 41.6542 16.0535 41.6121 16.0122C41.5701 15.971 40.4822 12.5376 39.1948 8.38335L36.8542 0.830359L28.408 0.760256V13.4233V13.4217ZM61.3969 12.7875C59.8193 17.0111 58.2363 21.2326 56.648 25.4522L56.4006 26.0856H63.001L64.2117 22.4205H72.4369L73.6476 26.0856H76.9499C78.7659 26.0856 80.2513 26.0708 80.2497 26.0526C80.248 26.0345 78.1259 20.3512 75.5338 13.4242L70.8204 0.829534L65.8975 0.756957L61.396 12.7883L61.3969 12.7875ZM69.5841 13.1776L70.7569 17.0885L68.356 17.1248C67.0348 17.1446 65.9354 17.1421 65.9123 17.119C65.876 17.0827 66.4393 15.1751 67.9222 10.3132C68.1193 9.66582 68.3107 9.1652 68.3461 9.20149C68.3816 9.23778 68.9391 11.0266 69.5841 13.1776Z" fill="white"/>
</svg>