<?xml version="1.0" encoding="utf-8"?>
<svg xmlns="http://www.w3.org/2000/svg" fill="none" height="22" viewBox="0 0 144 22" width="144">
<path clip-rule="evenodd" d="M0 0.524383H3.57101V21.482H0V0.524383ZM28.9323 13.9276L14.4252 0.201318V21.4815H17.8588V7.84734L32.3659 21.8055V0.524383H28.9323V13.9276ZM51.0022 9.80818L47.6037 8.57903C45.8523 7.96563 44.856 7.35036 44.856 5.81498C44.856 4.10849 46.4363 3.2889 48.5645 3.2889C51.0363 3.2889 52.9597 4.21041 54.7102 5.54194V1.88911C53.0285 0.797422 50.8652 0.182617 48.4957 0.182617C44.6157 0.182617 41.3883 2.19628 41.3883 5.88277C41.3883 9.32989 43.517 10.8321 46.3325 11.856L49.3883 12.9486C51.2766 13.6653 52.3412 14.3143 52.3412 15.952C52.3412 17.8292 50.6585 18.6829 48.255 18.6829C45.7836 18.6829 43.4824 17.796 41.5594 16.2592V19.9798C43.0364 21.0042 45.4395 21.8233 48.255 21.8233C52.5478 21.8233 55.8089 19.7063 55.8089 15.8838C55.8089 12.8462 54.2988 11.0027 51.0022 9.80818ZM63.8537 0.524383H67.4243V21.482H63.8537V0.524383ZM86.5426 0.524851H78.4562V21.482H86.5426C92.7575 21.482 96.775 17.3859 96.775 11.0027C96.775 4.62044 92.757 0.524851 86.5426 0.524851ZM86.4051 18.3084H82.0276V3.6648H86.4051C90.8331 3.6648 93.2031 6.49758 93.2031 11.0027C93.2031 15.4737 90.8336 18.3084 86.4051 18.3084ZM104.879 21.482H117.668V18.3084H108.381V11.8134H116.706V8.70714H108.381V3.66433H117.668V0.524383H104.879V21.482ZM136.201 12.8462C139.531 12.3343 141.102 10.3201 141.102 6.80428C141.102 2.70869 138.287 0.524383 133.926 0.524383H126.278V21.482H129.848V12.9827H132.389L139.729 21.482H143.78L136.201 12.8462ZM129.849 10.013V3.59607H133.857C136.226 3.59607 137.565 4.85888 137.565 6.80428C137.565 8.75015 136.226 10.013 133.857 10.013H129.849Z" fill="#F7F5FF" fill-rule="evenodd"/>
</svg>