<?xml version="1.0" encoding="utf-8"?>
<svg xmlns="http://www.w3.org/2000/svg" fill="none" height="26" viewBox="0 0 115 26" width="115">
<path d="M4.89377 25.0199H7.60415L11.6413 0.531614H12.6838V0.0577698H9.21522V0.531614H10.9779L7.8316 19.9403L4.98854 0.550569H6.54274V0.0767218H0.439636V0.550569H1.19779L4.89377 25.0199ZM13.1955 16.775L15.0719 5.15633L16.9673 16.775H13.1955ZM10.2198 24.546V25.0199H13.5746V24.546H11.8877L13.1007 17.3057H17.0621L18.2751 24.546H16.702V25.0199H22.8051V24.546H22.0469L18.0098 0.0577698H15.3373L11.2622 24.546H10.2198ZM23.3737 24.546V25.0199H26.4631V24.546H24.7952V2.63548L32.2061 25.0199H34.3479V0.550569H35.4472V0.0767218H32.0734V0.550569H33.7035V17.6469L27.8089 0.0767218H23.0325V0.550569H24.1318V24.546H23.3737ZM36.1485 24.546V25.0199H42.0431V24.546H41.0196V0.550569H42.0431V0.0767218H36.1485V0.550569H37.172V24.546H36.1485ZM45.8149 24.546V25.0199H51.9938V24.546H50.8187V0.550569H53.0742L54.5526 7.56346H55.0264V0.0577698H42.7823V7.56346H43.2562L44.7535 0.550569H46.9711V24.546H45.8149ZM58.6656 24.546V25.0199H64.8445V24.546H63.6694V13.3444L66.6072 0.550569H67.498V0.0767218H64.2569V0.550569H65.9628L63.3092 11.9797L59.9544 0.550569H61.5844V0.0767218H55.4434V0.550569H56.2016L59.8217 13.3444V24.546H58.6656ZM71.1182 24.546V25.0199H77.5246V24.546H75.9893V12.2829H78.3396L79.1356 15.4103H79.6095V8.53009H79.1356L78.3396 11.6954H75.9893V0.550569H79.7042L81.3153 6.59681H81.7891V0.0577698H71.0992V0.531614H72.1227V24.5271H71.1182V24.546ZM83.2296 16.775L85.1061 5.15633L87.0014 16.775H83.2296ZM80.2539 24.546V25.0199H83.6087V24.546H81.9218L83.1349 17.3057H87.0583L88.2713 24.546H86.6792V25.0199H92.8202V24.546H92.0621L88.0439 0.0577698H85.3714L81.2963 24.546H80.2539ZM93.4078 24.546V25.0199H99.3214V24.546H98.2789V0.550569H99.3214V0.0767218H93.4078V0.550569H94.4502V24.546H93.4078ZM105.481 0.569518C107.358 0.569518 108.741 1.49825 108.741 5.70599V7.69613C108.741 11.2026 107.775 12.5104 105.747 12.5104H104.951V0.569518H105.481ZM100.042 24.546V25.0199H106.448V24.546H104.913V13.0221H106.012L109.575 25.0578H114.162V24.5839H113.499L109.556 11.9418C110.333 11.5058 112.627 10.0843 112.627 6.57786C112.627 1.9721 109.575 0.0767218 105.5 0.0767218H100.042V0.550569H101.084V24.546H100.042Z" fill="white"/>
</svg>