<?xml version="1.0" encoding="utf-8"?>
<svg xmlns="http://www.w3.org/2000/svg" fill="none" height="50" viewBox="0 0 125 50" width="125">
<path d="M105.375 14.875V32.125H113.875C116.25 32.125 117.625 31.75 118.625 30.875C119.875 29.75 120.5 27.75 120.5 23.5C120.5 19.25 119.875 17.25 118.625 16.125C117.625 15.25 116.25 14.875 113.875 14.875H105.375ZM117 23.5C117 27.25 116.75 28.125 116 28.625C115.5 29 114.875 29.125 113.625 29.125H108.875V17.75H113.625C114.875 17.75 115.5 17.75 116 18.25C116.75 18.875 117 19.75 117 23.5ZM124.875 35.938H99.937V11H124.875V35.938ZM79.563 17.75V14.875H94.313V20.375H91.187V17.75H85.187V21.875H89.937V24.625H85.187V29.25H91.313V26.25H94.437V32.125H79.564V29.25H81.938V17.75H79.563ZM66.188 27.625C66.188 29.5 66.312 30.875 66.562 32H69.938C69.812 31.125 69.688 29.5 69.688 27.375C69.562 24.875 68.812 24.5 67.062 24.125C69.062 23.75 69.938 22.875 69.938 19.75C69.938 17.25 69.562 16.25 68.812 15.625C68.312 15.125 67.438 14.875 66.062 14.875H55.562V32.125H59.062V25.375H63.938C64.938 25.375 65.312 25.5 65.688 25.75C66.064 26 66.188 26.375 66.188 27.625ZM59.062 22.625V17.875H64.688C65.438 17.875 65.688 18 65.812 18.125C66.062 18.375 66.312 18.75 66.312 20.25C66.312 21.75 66.062 22.25 65.812 22.5C65.688 22.625 65.438 22.75 64.688 22.75L59.062 22.625ZM74.938 35.938H49.938V11H74.875V35.938H74.938ZM43.438 29.25V32.125H31.562V29.25H35.812V17.75H31.562V14.875H43.437V17.75H39.187V29.25H43.438ZM23.375 14.875H20.125L17.75 28.5L15 15.875C14.875 15 14.5 14.875 13.75 14.875H12C11.25 14.875 10.875 15.125 10.75 15.875L8 28.5L5.625 14.875H2.125L5.5 31.25C5.625 32 5.875 32.125 6.75 32.125H9.125C9.875 32.125 10.125 32 10.375 31.25L13 19.375L15.625 31.25C15.75 32 16 32.125 16.875 32.125H19.125C19.875 32.125 20.25 32 20.375 31.25L23.375 14.875ZM25.125 35.938H0.125V11H25.063V35.938H25.125Z" fill="#F7F5FF"/>
</svg>