<?xml version="1.0" encoding="utf-8"?>
<svg xmlns="http://www.w3.org/2000/svg" fill="none" height="64" viewBox="0 0 206 64" width="206">
<path d="M123.893 8.30266C123.688 8.84871 123.471 9.38819 123.28 9.93424C122.759 11.4013 122.264 12.875 121.73 14.3421C121.269 15.5987 120.768 16.8421 120.3 18.0987C119.904 19.1645 119.528 20.2369 119.133 21.3027C118.83 22.1119 118.493 22.9145 118.19 23.7237C117.894 24.5066 117.623 25.3027 117.34 26.0921C117.037 26.9211 116.727 27.7434 116.417 28.5658C115.843 30.0856 115.27 31.6053 114.696 33.125C114.564 33.4671 114.446 33.8092 114.32 34.1579C114.169 34.5856 113.879 34.7763 113.417 34.7698C112.112 34.7632 110.807 34.7698 109.501 34.7698C109.159 34.7698 108.816 34.7698 108.473 34.7698C107.886 34.7698 107.675 34.6316 107.504 34.0856C107.174 33.0527 106.864 32.0198 106.541 30.9803C106.001 29.25 105.454 27.5198 104.913 25.7895C104.498 24.4606 104.089 23.125 103.667 21.7961C103.627 21.6645 103.522 21.5592 103.443 21.4408C103.364 21.5592 103.245 21.6645 103.205 21.7961C102.882 22.829 102.573 23.8684 102.256 24.9013C101.861 26.1974 101.452 27.4869 101.05 28.7763C100.536 30.4277 100.021 32.0856 99.5005 33.7369C99.4412 33.9145 99.3885 34.0987 99.3291 34.2763C99.2368 34.5527 99.0522 34.6842 98.7424 34.6908C97.0415 34.7106 95.3407 34.7369 93.6398 34.7566C93.5739 34.7566 93.5014 34.7566 93.4354 34.7566C92.8685 34.7303 92.7828 34.6382 92.5982 34.1053C92.2554 33.1185 91.8928 32.1448 91.5302 31.1645C90.271 27.7763 89.0119 24.3882 87.7461 21C86.9616 18.9079 86.1705 16.8224 85.386 14.7237C84.9113 13.454 84.4631 12.1777 83.9752 10.9145C83.6324 10.0329 83.2369 9.17108 82.8611 8.29608C85.419 8.29608 87.9703 8.29608 90.5216 8.29608C90.3304 8.39477 90.3633 8.5395 90.4293 8.71056C90.7787 9.67766 91.1346 10.6448 91.4709 11.6119C92.6839 15.1579 93.8903 18.704 95.1033 22.25C95.2879 22.7895 95.4593 23.329 95.6505 23.8619C95.6835 23.9474 95.7758 24.0527 95.8549 24.0724C95.9999 24.1053 96.0658 23.9803 96.0988 23.8553C96.1449 23.6842 96.1779 23.5132 96.2306 23.3421C96.7712 21.6119 97.325 19.8882 97.8656 18.1579C98.7424 15.3553 99.6126 12.5527 100.476 9.75003C100.621 9.27634 100.714 8.78292 100.832 8.29608C102.559 8.29608 104.293 8.29608 106.027 8.29608C106.047 8.44082 106.047 8.59213 106.086 8.73029C106.166 9.00003 106.271 9.26977 106.357 9.5395C107.108 11.954 107.853 14.3685 108.605 16.7895C109.323 19.1119 110.049 21.4408 110.767 23.7632C110.787 23.829 110.8 23.8948 110.833 23.954C110.919 24.1119 111.09 24.125 111.196 23.9803C111.235 23.9277 111.255 23.8619 111.275 23.7961C111.585 22.8421 111.888 21.8882 112.211 20.9408C112.943 18.7763 113.674 16.6119 114.419 14.4474C115.059 12.5921 115.711 10.7435 116.351 8.88819C116.417 8.6974 116.443 8.49345 116.489 8.30266C118.962 8.30266 121.434 8.30266 123.906 8.30266H123.893Z" fill="#060419"/>
<path d="M136.003 8.30261C135.812 8.46051 135.885 8.63814 135.957 8.81577C136.438 10.0066 136.926 11.1973 137.388 12.4013C138.699 15.7697 139.998 19.1447 141.304 22.5131C141.785 23.75 142.279 24.9802 142.76 26.2171C143.525 28.1842 144.283 30.1579 145.055 32.125C145.285 32.7171 145.549 33.296 145.793 33.8881C145.833 33.9737 145.866 34.0658 145.898 34.1513C146.05 34.6052 145.971 34.6908 145.483 34.6974C144.382 34.7105 143.288 34.7434 142.187 34.7566C141.35 34.7631 140.512 34.7566 139.675 34.7566C139.55 34.7566 139.431 34.75 139.306 34.7368C139.049 34.7105 138.877 34.5789 138.792 34.3355C138.568 33.7105 138.343 33.0855 138.113 32.4671C137.816 31.6842 137.506 30.9013 137.223 30.1118C137.098 29.7631 136.887 29.625 136.517 29.6381C135.667 29.6776 134.817 29.6973 133.966 29.7105C133.544 29.7105 133.116 29.6776 132.694 29.671C131.059 29.6579 129.424 29.6513 127.789 29.6381C127.71 29.6381 127.624 29.6381 127.545 29.6381C127.341 29.6381 127.229 29.7171 127.156 29.921C126.629 31.3552 126.081 32.7829 125.547 34.2171C125.435 34.5131 125.264 34.6908 124.921 34.6974C124.552 34.6974 124.183 34.7566 123.814 34.7566C122.192 34.7566 120.57 34.7566 118.955 34.7566C118.236 34.7566 118.184 34.6513 118.447 33.9934C119.601 31.0855 120.755 28.1776 121.902 25.2697C122.818 22.9539 123.735 20.6316 124.638 18.3158C125.488 16.1447 126.325 13.9737 127.176 11.8092C127.571 10.8026 127.987 9.79603 128.395 8.79603C128.468 8.62498 128.521 8.46051 128.343 8.32235H136.003V8.30261ZM132.16 23.8618C132.885 23.8618 133.61 23.8618 134.342 23.8618C134.896 23.8618 134.948 23.7895 134.757 23.2697C134.586 22.8026 134.381 22.3421 134.21 21.875C133.729 20.5723 133.254 19.2566 132.773 17.9539C132.641 17.5987 132.489 17.25 132.344 16.9013C132.298 16.796 132.278 16.6184 132.12 16.671C132.028 16.6973 131.955 16.8355 131.916 16.9408C131.85 17.1052 131.837 17.2829 131.777 17.4473C131.072 19.3618 130.36 21.2763 129.655 23.1908C129.608 23.3158 129.556 23.4474 129.529 23.5724C129.49 23.7302 129.562 23.8355 129.734 23.8487C129.846 23.8552 129.951 23.8552 130.063 23.8552C130.762 23.8552 131.461 23.8552 132.16 23.8552V23.8618Z" fill="#060419"/>
<path d="M78.3189 8.30261C78.3584 8.47366 78.3848 8.64472 78.4507 8.80919C79.6703 11.921 80.8965 15.0329 82.1161 18.1513C82.9995 20.4079 83.8895 22.6645 84.7663 24.921C85.3926 26.5263 85.9925 28.1316 86.6188 29.7368C87.0671 30.8816 87.5352 32.0263 87.9835 33.171C88.1483 33.5987 88.2735 34.0395 88.412 34.4802C88.4581 34.6316 88.3988 34.6974 88.2274 34.6974C86.2364 34.7105 84.2455 34.7302 82.2612 34.75C82.2084 34.75 82.1491 34.75 82.0964 34.75C81.6876 34.7566 81.4305 34.5592 81.2921 34.1842C81.035 33.5 80.7779 32.8158 80.5208 32.1316C80.2439 31.4079 79.9604 30.6974 79.6835 29.9737C79.611 29.7895 79.5055 29.671 79.3078 29.6447C79.1561 29.625 79.0111 29.5987 78.8595 29.6052C77.9958 29.6381 77.1322 29.7105 76.2686 29.7105C74.6469 29.7105 73.0317 29.6645 71.4099 29.6316C71.054 29.625 70.698 29.5921 70.342 29.5855C69.9926 29.5855 69.7618 29.7105 69.6366 30.0723C69.2344 31.2368 68.8059 32.3881 68.384 33.546C68.2983 33.7763 68.206 34 68.1203 34.2302C67.9884 34.5789 67.7247 34.7368 67.3622 34.75C67.2369 34.75 67.1182 34.7566 66.993 34.7566C65.4701 34.7566 63.9473 34.7566 62.4178 34.7566C61.9827 34.7566 61.541 34.7237 61.1059 34.6842C60.7697 34.6513 60.684 34.5066 60.829 34.2302C61.4751 33 61.9036 31.6842 62.4244 30.4079C63.1627 28.5723 63.8747 26.7302 64.5933 24.8881C66.1228 20.9671 67.6456 17.0395 69.1817 13.1184C69.7355 11.6908 70.3156 10.2763 70.876 8.85524C70.9419 8.68419 70.9551 8.4934 70.9946 8.31577C73.4404 8.31577 75.8862 8.31577 78.3255 8.31577L78.3189 8.30261ZM74.6403 16.5723C74.5612 16.7039 74.5282 16.7368 74.515 16.7763C74.0931 17.9737 73.6778 19.1776 73.2558 20.375C73.1042 20.8092 72.946 21.2368 72.7746 21.671C72.5439 22.25 72.3065 22.8223 72.0758 23.4013C71.9439 23.7368 72.0165 23.8355 72.3856 23.8618C72.4977 23.8684 72.6032 23.8618 72.7153 23.8618C73.6052 23.8618 74.5018 23.8618 75.3918 23.8618C75.8599 23.8618 76.3279 23.8618 76.7894 23.8618C77.4025 23.8552 77.4619 23.7631 77.2311 23.1908C77.0927 22.8552 76.941 22.5197 76.8158 22.1776C76.2027 20.5263 75.6028 18.875 74.9897 17.2237C74.9106 17.0197 74.7787 16.8355 74.6337 16.5723H74.6403Z" fill="#060419"/>
<path d="M202.258 42.375C200.695 42.4079 199.133 42.4671 197.564 42.4671C134.751 42.4671 71.944 42.4671 9.13074 42.4671C8.00342 42.4671 6.87611 42.4671 5.75538 42.4473C5.33346 42.4473 4.90495 42.4013 4.48303 42.375C4.48303 41.9408 4.48303 41.5066 4.48303 41.0789C4.66762 41.2302 4.88517 41.2302 5.10932 41.2302C8.92637 41.2039 12.7434 41.1644 16.5605 41.1644C38.4937 41.1644 60.4203 41.1644 82.3535 41.1644C109.06 41.1644 135.772 41.1644 162.479 41.1644C174.563 41.1644 186.647 41.1644 198.731 41.171C199.72 41.171 200.708 41.2105 201.697 41.2368C201.889 41.2368 202.073 41.296 202.264 41.3289V42.3815L202.258 42.375Z" fill="#060419"/>
<path d="M157.402 22.1447C157.435 21.6184 157.435 21.0921 157.514 20.5724C157.633 19.8224 158.114 19.3553 158.833 19.0987C159.776 18.7632 161.008 19.4145 161.213 20.3947C161.364 21.125 161.457 21.8618 161.378 22.6118C161.325 23.125 161.239 23.625 161.153 24.1316C161.114 24.3947 160.982 24.625 160.738 24.7566C160.178 25.0592 159.584 25.2434 158.925 25.1184C158.167 24.9737 157.725 24.5 157.521 23.7961C157.455 23.5789 157.442 23.3421 157.429 23.1184C157.416 22.7961 157.429 22.4671 157.429 22.1447C157.416 22.1447 157.409 22.1447 157.396 22.1447H157.402ZM160.066 22.2171C160.066 21.8092 160.066 21.4079 160.066 21C160.066 20.7368 159.954 20.5329 159.749 20.3684C159.4 20.0855 158.978 20.1842 158.826 20.5987C158.747 20.8224 158.694 21.0658 158.681 21.3092C158.655 21.7237 158.662 22.1447 158.668 22.5658C158.668 22.8092 158.668 23.0526 158.701 23.2961C158.78 23.8553 158.971 23.9868 159.532 23.9013C159.545 23.9013 159.558 23.9013 159.571 23.8947C160.02 23.8158 160.053 23.7895 160.059 23.3553C160.066 22.9803 160.059 22.5987 160.059 22.2237L160.066 22.2171Z" fill="#060419"/>
<path d="M38.4608 25.0855C38.0059 25.0855 37.5576 25.0921 37.1027 25.0855C36.7269 25.079 36.6412 24.9803 36.6742 24.6119C36.694 24.3816 36.7335 24.1579 36.7731 23.9276C36.984 22.704 37.1884 21.4803 37.4125 20.2566C37.5312 19.625 37.696 19.5 38.3619 19.4869C39.1859 19.4737 40.01 19.4737 40.834 19.4737C41.3285 19.4737 41.4603 19.5658 41.4735 19.8553C41.4867 20.1645 41.1769 20.5066 40.8406 20.5526C40.722 20.5658 40.5967 20.5592 40.4715 20.5592C40.0891 20.5592 39.7001 20.5658 39.3178 20.5395C38.9288 20.5132 38.7047 20.6908 38.553 21.0197C38.2959 21.5592 38.3553 21.6842 38.9618 21.7237C39.3441 21.75 39.7265 21.7237 40.1155 21.7237C40.2275 21.7237 40.333 21.7105 40.4451 21.7237C40.7418 21.7697 40.8143 21.8684 40.7945 22.1645C40.7945 22.2434 40.7747 22.329 40.7615 22.4079C40.7022 22.704 40.6099 22.8026 40.2935 22.8158C39.9902 22.829 39.687 22.8158 39.3903 22.8158C39.1596 22.8158 38.9222 22.8092 38.6915 22.8092C38.5135 22.8092 38.3223 22.8092 38.2366 23.0132C38.1245 23.2566 37.9795 23.5132 38.0916 23.7829C38.1311 23.875 38.2762 23.954 38.3816 23.9737C38.5794 24.0066 38.7904 23.9934 38.9947 23.9869C39.4035 23.9803 39.8188 23.954 40.2275 23.954C40.4187 23.954 40.6297 23.9737 40.7154 24.1776C40.8143 24.4079 40.7154 24.5921 40.5572 24.7697C40.366 24.9869 40.1221 25.0855 39.832 25.0855C39.6013 25.0855 39.3639 25.0855 39.1332 25.0855C38.9156 25.0855 38.6915 25.0855 38.4739 25.0855H38.4608Z" fill="#060419"/>
<path d="M154.324 25.0987C153.941 25.0987 153.552 25.1053 153.17 25.0987C152.293 25.079 152.102 24.8224 152.405 24.0198C152.524 23.7105 152.709 23.4079 152.926 23.1579C153.341 22.6776 153.809 22.2369 154.251 21.7763C154.429 21.5921 154.594 21.3882 154.752 21.1908C154.924 20.9737 154.91 20.7369 154.792 20.5C154.601 20.1316 154.284 20.0921 154.014 20.3948C153.935 20.4869 153.869 20.5921 153.796 20.6908C153.717 20.7961 153.638 20.9145 153.546 21.0132C153.328 21.25 153.051 21.3355 152.854 21.2434C152.643 21.1448 152.498 20.8487 152.511 20.5526C152.537 20.1908 152.676 19.875 152.913 19.5987C153.566 18.8487 155.009 18.7961 155.695 19.5198C155.853 19.6908 155.978 19.9211 156.044 20.1448C156.236 20.829 156.17 21.4869 155.662 22.0395C155.273 22.4605 154.871 22.8619 154.475 23.2698C154.37 23.375 154.258 23.4803 154.179 23.6053C154.086 23.7434 154.139 23.8355 154.311 23.8553C154.489 23.875 154.667 23.8619 154.845 23.8619C155.161 23.8619 155.477 23.8487 155.794 23.875C156.09 23.8948 156.176 23.9934 156.209 24.2763C156.275 24.8421 156.097 25.0592 155.524 25.079C155.128 25.0921 154.726 25.079 154.33 25.079V25.0921L154.324 25.0987Z" fill="#060419"/>
<path d="M44.5785 19.4342C44.9214 19.5 45.3499 19.5329 45.7454 19.6645C46.2398 19.8355 46.3717 20.2632 46.141 20.7171C46.0355 20.9276 45.9366 20.9671 45.7059 20.8816C45.6267 20.8553 45.5542 20.8158 45.4817 20.7763C44.9741 20.4671 44.4335 20.5132 43.8863 20.6118C43.7347 20.6382 43.5831 20.6842 43.5567 20.8684C43.5237 21.0658 43.5435 21.2566 43.7281 21.375C43.8534 21.4539 43.9918 21.5197 44.1237 21.5855C44.4599 21.7434 44.8027 21.8881 45.1257 22.0592C46.1937 22.6316 46.2398 24.0526 45.1982 24.6776C44.2951 25.2171 43.3194 25.2303 42.3437 24.8947C41.9745 24.7697 41.691 24.3092 41.6976 23.9342C41.6976 23.7105 41.8624 23.5658 42.1195 23.6118C42.3569 23.6579 42.6074 23.7237 42.8183 23.8421C43.26 24.0855 43.7149 24.0526 44.183 24.0066C44.2885 24 44.394 23.9408 44.4862 23.8882C44.6972 23.7697 44.7631 23.6053 44.6181 23.421C44.4665 23.2237 44.2621 23.046 44.0511 22.9145C43.7215 22.7039 43.3392 22.5592 43.0161 22.3289C42.792 22.171 42.614 21.9276 42.4492 21.7039C42.3041 21.5132 42.2778 21.2763 42.3371 21.046C42.4162 20.7632 42.5019 20.4737 42.6206 20.2039C42.7722 19.8553 43.0755 19.6579 43.438 19.5789C43.7808 19.5066 44.1434 19.4868 44.5851 19.4342H44.5785Z" fill="#060419"/>
<path d="M165.274 21.579C165.274 22.1842 165.274 22.7961 165.274 23.4013C165.274 23.7763 165.327 23.8027 165.689 23.8619C165.926 23.9013 166.177 23.954 166.395 24.0592C166.599 24.1513 166.751 24.3356 166.711 24.579C166.671 24.8224 166.474 24.954 166.25 24.9869C165.9 25.0395 165.544 25.0856 165.188 25.079C164.516 25.079 163.843 25.0461 163.171 25.0198C163.118 25.0198 163.059 25.0198 163.006 25C162.703 24.9408 162.492 24.7237 162.505 24.4935C162.531 24.1579 162.775 23.875 163.079 23.8553C163.296 23.8421 163.52 23.8487 163.738 23.8487C163.922 23.8487 164.015 23.75 164.015 23.5724C164.015 22.75 164.015 21.9277 164.001 21.0987C164.001 21.0132 163.942 20.875 163.896 20.8619C163.804 20.8421 163.672 20.8816 163.606 20.9408C163.428 21.1053 163.276 21.3027 163.111 21.4803C163.046 21.5527 162.973 21.6184 162.901 21.6711C162.742 21.7895 162.67 21.7698 162.617 21.5724C162.498 21.1316 162.584 20.6974 162.828 20.329C163.27 19.6513 163.87 19.1513 164.667 18.9079C164.878 18.8421 165.03 18.8948 165.102 19.0856C165.182 19.2961 165.254 19.5198 165.267 19.7435C165.287 20.3487 165.274 20.9606 165.274 21.5658V21.579Z" fill="#060419"/>
<path d="M169.084 19.0066C169.526 19.0066 169.961 18.9934 170.403 19.0066C170.858 19.0263 171.009 19.1842 171.029 19.6382C171.036 19.8224 171.049 20.0263 170.99 20.1974C170.792 20.7829 170.587 21.3684 170.35 21.9408C170.047 22.6776 169.671 23.3882 169.401 24.1316C169.19 24.7105 168.827 25.0263 168.227 25.1118C167.845 25.1645 167.707 25.0132 167.812 24.6579C167.838 24.5658 167.878 24.4803 167.917 24.3947C168.412 23.2829 168.906 22.171 169.401 21.0592C169.467 20.9145 169.526 20.7566 169.559 20.5987C169.605 20.3553 169.513 20.2434 169.256 20.2368C168.873 20.2237 168.491 20.2368 168.102 20.2368C167.977 20.2368 167.858 20.2368 167.733 20.2303C167.311 20.2039 167.179 20.0789 167.166 19.6974C167.153 19.2697 167.337 19.0263 167.739 19.0066C168.188 18.9868 168.643 19.0066 169.098 19.0066H169.084Z" fill="#060419"/>
<path d="M49.602 19.4802C50.2349 19.4802 50.8678 19.4802 51.494 19.4802C51.6852 19.4802 51.8896 19.4671 51.9687 19.7039C52.0478 19.9342 51.9885 20.1315 51.8303 20.3026C51.6786 20.4737 51.4809 20.5592 51.2435 20.5592C50.9996 20.5592 50.7491 20.5592 50.5052 20.5592C50.1162 20.5723 49.9778 20.6776 49.9184 21.046C49.7404 22.0855 49.5624 23.125 49.391 24.1644C49.3383 24.4605 49.2658 24.7434 49.0548 24.9737C48.923 25.1184 48.7779 25.25 48.5604 25.1973C48.3494 25.1447 48.2374 24.9802 48.2044 24.7894C48.1714 24.5789 48.1451 24.3552 48.178 24.1513C48.3297 23.1776 48.5011 22.2039 48.6659 21.2302C48.6725 21.1908 48.6856 21.1513 48.6922 21.1118C48.7648 20.6776 48.6922 20.5789 48.2308 20.5658C47.9868 20.5592 47.7363 20.5658 47.4924 20.5658C47.1957 20.5526 47.0046 20.3815 46.9584 20.1052C46.9189 19.875 47.0771 19.6315 47.3474 19.5526C47.499 19.5065 47.6704 19.5 47.8352 19.4934C48.4285 19.4934 49.0153 19.4934 49.6086 19.4934L49.602 19.4802Z" fill="#060419"/>
<path d="M52.8456 24.4276C52.8522 24.75 52.5028 25.0987 52.16 25.1118C51.7974 25.1184 51.4678 24.7697 51.4546 24.3618C51.4414 23.9934 51.7051 23.7434 52.1006 23.7368C52.5226 23.7368 52.8324 24.0263 52.8456 24.4276Z" fill="#060419"/>
<path d="M108.895 52.6382C108.915 52.5658 108.948 52.4934 108.961 52.4145C109.145 51.5855 109.317 50.75 109.515 49.9211C109.719 49.0855 109.818 49.0197 110.695 49.0066C110.708 49.0066 110.721 49.0066 110.734 49.0066C111.453 49.0197 111.499 48.9803 111.334 49.75C111.136 50.6974 110.826 51.625 110.563 52.5658C110.358 53.3092 110.167 54.0526 109.95 54.7961C109.765 55.4079 109.449 55.6119 108.796 55.6119C108.453 55.6119 108.216 55.4671 108.084 55.1579C107.979 54.9079 107.873 54.6579 107.807 54.3948C107.629 53.7303 107.478 53.0592 107.313 52.3882C107.306 52.3487 107.306 52.3092 107.293 52.2697C107.24 52.0987 107.141 52.0592 107.042 52.1908C106.93 52.3355 106.831 52.5066 106.785 52.6842C106.614 53.3092 106.475 53.9408 106.317 54.5724C106.278 54.7171 106.232 54.8619 106.166 54.9869C105.823 55.6316 105.447 55.704 104.801 55.5461C104.511 55.4737 104.346 55.2632 104.267 54.9803C103.97 53.8882 103.674 52.7895 103.37 51.6974C103.206 51.0987 103.014 50.5066 102.843 49.9079C102.784 49.704 102.751 49.4869 102.724 49.2763C102.705 49.1184 102.797 49.0066 102.962 49.0198C103.344 49.0395 103.726 49.0592 104.109 49.1053C104.333 49.1316 104.412 49.3224 104.485 49.5C104.722 50.079 104.873 50.6776 104.959 51.2961C105.005 51.6184 105.071 51.9342 105.137 52.25C105.17 52.4211 105.282 52.454 105.388 52.3158C105.493 52.1842 105.585 52.0198 105.632 51.8553C105.816 51.2171 105.974 50.579 106.146 49.9342C106.172 49.8421 106.185 49.75 106.218 49.6579C106.363 49.204 106.535 49.0592 106.963 49.0263C107.372 49 107.702 49.125 107.873 49.5132C107.965 49.7237 108.044 49.9408 108.097 50.1645C108.249 50.7698 108.374 51.375 108.526 51.9803C108.585 52.2105 108.697 52.4211 108.783 52.6447C108.822 52.6447 108.862 52.6382 108.895 52.6316V52.6382Z" fill="#060419"/>
<path d="M66.7161 52.2961C66.7161 53.1448 66.7029 54 66.7161 54.8487C66.7293 55.3685 66.5184 55.6382 65.8525 55.579C65.424 55.5461 65.0746 55.3224 64.8241 54.9737C64.2242 54.1513 63.6177 53.329 63.0112 52.5132C62.9057 52.3684 62.8002 52.2303 62.6749 52.1053C62.5563 51.9803 62.4574 52.0198 62.431 52.1908C62.4112 52.3092 62.4178 52.4342 62.4178 52.5527C62.4178 53.3092 62.4244 54.0658 62.4244 54.8224C62.4244 54.954 62.4244 55.0921 62.3981 55.2237C62.3453 55.4869 62.2003 55.6448 61.93 55.6513C61.6465 55.6645 61.3564 55.6382 61.073 55.5856C60.8159 55.5395 60.6774 55.3553 60.6642 55.0921C60.6576 54.8487 60.651 54.6053 60.6576 54.3619C60.6642 52.8487 60.6708 51.3356 60.684 49.8224C60.684 49.0921 60.7763 49.0263 61.5081 48.9935C62.0223 48.9737 62.3981 49.1316 62.6947 49.5592C63.2353 50.3421 63.8154 51.0921 64.3758 51.8619C64.4088 51.9079 64.4351 51.954 64.4747 51.9869C64.5538 52.0527 64.6461 52.1645 64.7186 52.1579C64.8768 52.1382 64.8439 51.9803 64.8373 51.8619C64.8175 51.0921 64.7911 50.3224 64.7779 49.5527C64.7779 49.0724 64.8439 49.0132 65.3185 49C65.6086 48.9935 65.8921 48.9869 66.1821 49C66.5711 49.0132 66.6634 49.0987 66.6832 49.4869C66.703 49.7698 66.6898 50.0527 66.6898 50.3356C66.6898 50.9869 66.6898 51.6316 66.6898 52.2829L66.7161 52.2961Z" fill="#060419"/>
<path d="M177.865 52.1908C177.865 51.3421 177.865 50.4868 177.865 49.6381C177.865 49.125 177.964 49.0329 178.492 49.0131C179.5 48.9671 179.56 49.0066 180.146 49.8355C180.68 50.5921 181.221 51.3355 181.762 52.0855C181.814 52.1645 181.874 52.2434 181.94 52.3092C182.032 52.4013 182.131 52.375 182.164 52.2631C182.203 52.125 182.21 51.9737 182.203 51.8224C182.19 51.1316 182.164 50.4474 182.151 49.7566C182.151 49.6381 182.164 49.5131 182.177 49.3947C182.21 49.1776 182.342 49.046 182.559 49.0329C182.863 49.0131 183.166 49 183.463 49.0263C183.786 49.0526 183.884 49.1776 183.891 49.5066C183.898 50.0592 183.891 50.6118 183.891 51.171C183.891 52.3026 183.891 53.4408 183.891 54.5724C183.891 54.8158 183.858 55.0592 183.799 55.2895C183.726 55.5658 183.561 55.671 183.278 55.6381C182.757 55.5724 182.309 55.3816 181.992 54.9342C181.379 54.0658 180.76 53.2105 180.133 52.3552C180.021 52.1974 179.85 52.0789 179.705 51.9408C179.494 52.1052 179.593 52.3355 179.593 52.5395C179.586 53.296 179.599 54.0526 179.593 54.8092C179.593 55.4539 179.454 55.5789 178.788 55.6052C178.709 55.6052 178.624 55.6052 178.545 55.6052C178.103 55.5724 177.892 55.375 177.865 54.9474C177.852 54.6381 177.865 54.3289 177.859 54.0131C177.859 53.4079 177.859 52.796 177.859 52.1908H177.865Z" fill="#060419"/>
<path d="M157.093 52.2632C157.093 51.3421 157.093 50.4277 157.093 49.5066C157.093 49.0592 157.125 49.0132 157.587 49.0132C158.589 49.0132 159.591 49.0329 160.593 49.0198C161.747 49.0066 162.749 50.4934 162.584 51.3092C162.558 51.4408 162.558 51.579 162.545 51.7106C162.485 52.2632 162.241 52.7106 161.767 53.0263C161.404 53.2698 161.397 53.4671 161.648 53.8356C161.938 54.2566 162.241 54.6777 162.485 55.1316C162.729 55.5856 162.657 55.6711 162.142 55.6711C162.017 55.6711 161.892 55.6579 161.773 55.6711C161.233 55.7369 160.844 55.4869 160.534 55.0921C160.369 54.8816 160.244 54.6382 160.086 54.4145C159.901 54.1448 159.716 53.8816 159.519 53.625C159.459 53.5527 159.327 53.4671 159.268 53.4869C159.189 53.5198 159.11 53.6448 159.103 53.7369C159.07 54.0329 159.057 54.329 159.05 54.6184C159.05 54.7369 159.077 54.8619 159.077 54.9803C159.077 55.4342 158.958 55.5724 158.51 55.5921C158.22 55.6053 157.936 55.6053 157.646 55.5921C157.218 55.5724 157.093 55.4277 157.093 55.0066C157.093 54.2237 157.106 53.4408 157.106 52.6579C157.106 52.5198 157.106 52.3882 157.106 52.25H157.099L157.093 52.2632ZM159.69 51.9277C159.828 51.9145 159.954 51.9145 160.072 51.8948C160.712 51.8027 160.784 51.7106 160.725 51.0856C160.692 50.7829 160.62 50.6645 160.316 50.6184C159.98 50.5724 159.637 50.579 159.301 50.579C159.13 50.579 159.011 50.6842 159.018 50.8553C159.031 51.1184 159.051 51.3882 159.103 51.6513C159.123 51.7434 159.248 51.8421 159.347 51.8816C159.453 51.9277 159.584 51.9145 159.697 51.9211L159.69 51.9277Z" fill="#060419"/>
<path d="M46.8265 52.2368C46.8265 51.3421 46.8265 50.4539 46.8265 49.5592C46.8265 49.0789 46.8925 49 47.3671 49.0132C48.2571 49.0263 49.1537 49.0263 50.0437 49.0921C51.2897 49.1908 52.1269 49.9145 52.595 51C53.0103 51.9605 52.951 52.9474 52.4829 53.9079C52.0742 54.7434 51.349 55.171 50.5051 55.4408C50.1821 55.546 49.8327 55.5724 49.4899 55.5921C48.857 55.6316 48.2307 55.6382 47.5979 55.6579C47.0507 55.6776 46.8199 55.4671 46.8199 54.9145C46.8199 54.0197 46.8199 53.1316 46.8199 52.2368H46.8265ZM48.7515 52.1711C48.7515 52.5789 48.7384 52.9803 48.7515 53.3882C48.7713 53.9145 48.9625 54.0789 49.4767 53.9737C49.7272 53.9211 49.9712 53.8224 50.2151 53.7303C50.5447 53.5987 50.7359 53.3487 50.8216 53.0132C50.8611 52.8421 50.9139 52.6711 50.9139 52.4934C50.9139 51.9934 50.9007 51.4737 50.5051 51.0987C50.1228 50.7434 49.6481 50.5724 49.1207 50.5724C48.8109 50.5724 48.7581 50.6184 48.7515 50.9211C48.745 51.3421 48.7515 51.7566 48.7515 52.1776V52.1711Z" fill="#060419"/>
<path d="M144.989 49C145.496 49.0197 146.004 49.0197 146.505 49.0724C147.955 49.2171 148.793 50.1053 149.201 51.4013C149.61 52.6974 149.228 54.25 147.81 55.0987C147.283 55.4145 146.696 55.5592 146.09 55.5855C145.325 55.6184 144.554 55.625 143.789 55.6316C143.407 55.6316 143.242 55.4671 143.242 55.0855C143.242 53.2105 143.242 51.3355 143.255 49.4539C143.255 49.0724 143.294 49.0263 143.677 49.0197C144.112 49.0066 144.554 49.0197 144.995 49.0197C144.995 49.0197 144.995 49.0066 144.995 49H144.989ZM147.467 52.1776C147.428 51.9408 147.415 51.6908 147.336 51.4671C147.263 51.2697 147.158 51.046 146.993 50.9342C146.584 50.6513 146.109 50.5066 145.602 50.5329C145.233 50.5526 145.16 50.6447 145.16 51.0197C145.16 51.7763 145.16 52.5263 145.16 53.2829C145.16 53.4013 145.16 53.5263 145.193 53.6447C145.252 53.9145 145.404 54.0658 145.681 54.0329C146.307 53.9605 146.881 53.7566 147.204 53.1513C147.362 52.8487 147.454 52.5263 147.467 52.1776Z" fill="#060419"/>
<path d="M135.674 52.1908C135.674 51.3553 135.674 50.5132 135.674 49.6776C135.674 49.1119 135.759 49.0329 136.346 49.0132C136.458 49.0132 136.564 49.0132 136.676 49.0132C137.177 48.9934 137.533 49.204 137.81 49.6184C138.357 50.4276 138.917 51.2303 139.477 52.0329C139.55 52.1316 139.616 52.2303 139.702 52.3224C139.833 52.4803 139.926 52.4605 139.965 52.2566C140.005 52.0592 140.011 51.8553 140.005 51.6579C139.998 50.9803 139.965 50.3092 139.965 49.6316C139.965 49.1776 140.091 49.0658 140.559 49.0329C140.763 49.0198 140.974 49.0132 141.178 49.0329C141.6 49.0658 141.706 49.1711 141.706 49.5921C141.706 50.9276 141.706 52.2698 141.706 53.6053C141.706 53.9671 141.712 54.3355 141.706 54.6974C141.679 55.5526 141.264 55.8158 140.466 55.4934C140.203 55.3882 139.998 55.2171 139.833 54.9934C139.319 54.2763 138.805 53.5592 138.278 52.8487C138.067 52.5658 137.829 52.3026 137.599 52.0395C137.559 52 137.48 51.9869 137.421 51.9671C137.394 52.0263 137.355 52.0855 137.355 52.1448C137.348 52.2961 137.355 52.4408 137.355 52.5921C137.374 53.3224 137.407 54.0526 137.414 54.7763C137.414 55.4869 137.262 55.625 136.537 55.6184C136.438 55.6184 136.346 55.6184 136.247 55.5987C135.891 55.5395 135.713 55.3619 135.693 55C135.674 54.6908 135.68 54.3816 135.68 54.0658C135.68 53.4408 135.68 52.8224 135.68 52.1974L135.674 52.1908Z" fill="#060419"/>
<path d="M150.658 52.2632C150.658 51.3553 150.658 50.454 150.658 49.5461C150.658 49.0724 150.718 49.0132 151.212 49.0066C152.432 49.0066 153.658 49.0066 154.878 49.0132C154.957 49.0132 155.042 49.0198 155.121 49.0395C155.464 49.1053 155.537 49.1842 155.543 49.5197C155.543 49.7369 155.55 49.954 155.543 50.1711C155.53 50.5 155.491 50.5461 155.154 50.5526C154.568 50.5658 153.974 50.5526 153.381 50.5526C153.243 50.5526 153.104 50.5526 152.972 50.5724C152.88 50.5855 152.755 50.6184 152.722 50.6776C152.636 50.8224 152.544 51 152.557 51.1513C152.577 51.3421 152.788 51.3553 152.953 51.3619C153.546 51.3619 154.133 51.3619 154.726 51.3619C155.24 51.3619 155.319 51.4211 155.398 51.9079C155.425 52.079 155.444 52.2566 155.444 52.4342C155.438 52.8224 155.253 53 154.858 53.0066C154.376 53.0132 153.895 53.0066 153.414 53.0066C153.276 53.0066 153.137 53.0066 153.005 53.0066C152.794 53.0066 152.676 53.0987 152.616 53.2961C152.471 53.7829 152.623 53.9934 153.17 54.0066C153.691 54.0197 154.212 54.0198 154.732 54.0198C154.831 54.0198 154.924 54.0198 155.023 54.0198C155.418 54.0461 155.53 54.1513 155.543 54.5461C155.55 54.7763 155.557 55.0066 155.53 55.2369C155.51 55.4803 155.412 55.5592 155.161 55.5921C155.108 55.5987 155.049 55.5987 154.996 55.5987C153.73 55.5987 152.471 55.5987 151.205 55.5987C150.737 55.5987 150.652 55.5 150.652 55.0461C150.652 54.1119 150.652 53.1842 150.652 52.25L150.658 52.2632Z" fill="#060419"/>
<path d="M112.6 52.2434C112.6 51.375 112.6 50.5132 112.6 49.6448C112.6 49.125 112.692 49.0198 113.22 49.0132C114.426 49.0066 115.639 49.0066 116.845 49.0132C117.313 49.0132 117.419 49.1184 117.478 49.579C117.505 49.7632 117.518 49.9605 117.485 50.1382C117.432 50.4605 117.327 50.5461 116.984 50.5526C116.351 50.5592 115.718 50.5526 115.092 50.5526C114.967 50.5526 114.841 50.5395 114.723 50.5658C114.611 50.5987 114.485 50.6579 114.426 50.7434C114.175 51.0921 114.307 51.3487 114.742 51.3619C115.362 51.375 115.975 51.3619 116.595 51.3619C117.05 51.3619 117.109 51.4013 117.168 51.8487C117.195 52.0461 117.221 52.25 117.215 52.454C117.195 52.8619 116.951 53.0395 116.536 53.0263C115.962 53.0066 115.382 53 114.808 53.0066C114.472 53.0066 114.353 53.1776 114.353 53.5855C114.353 53.875 114.452 53.9934 114.782 54C115.395 54.0198 116.015 54.0132 116.628 54.0198C117.346 54.0263 117.465 53.9671 117.491 54.7829C117.491 54.875 117.518 54.9737 117.518 55.0658C117.518 55.3421 117.432 55.4605 117.149 55.5132C116.918 55.5592 116.687 55.579 116.456 55.579C115.415 55.5921 114.367 55.5921 113.325 55.5987C112.719 55.5987 112.613 55.5132 112.606 54.8948C112.6 54.1645 112.606 53.4342 112.606 52.704C112.606 52.5395 112.606 52.3816 112.606 52.2171L112.6 52.2434Z" fill="#060419"/>
<path d="M54.2564 52.25C54.2564 51.4145 54.2564 50.5724 54.2564 49.7369C54.2564 49.6316 54.2564 49.5198 54.2564 49.4145C54.2827 49.1382 54.3486 49.0658 54.6321 49.0329C54.7706 49.0132 54.909 49.0132 55.0409 49.0132C56.1682 49.0132 57.2889 49.0329 58.4162 49.0198C58.7327 49.0198 58.9304 49.1184 59.0623 49.4013C59.2139 49.7237 59.2403 50.0263 59.0293 50.3224C58.9766 50.4013 58.8579 50.4671 58.759 50.4869C58.5481 50.5329 58.3239 50.5592 58.1064 50.5592C57.5328 50.5724 56.9527 50.5592 56.3791 50.5658C56.2209 50.5658 56.0363 50.5461 55.9902 50.7763C55.9374 51.0461 56.0429 51.329 56.2605 51.3948C56.4121 51.4408 56.5835 51.4474 56.7483 51.4474C57.2823 51.4474 57.8163 51.4211 58.3503 51.4211C58.6601 51.4211 58.7063 51.454 58.7524 51.75C58.792 51.9737 58.8184 52.204 58.8315 52.4342C58.8579 52.8224 58.7129 52.9934 58.3173 53.0066C57.8493 53.0198 57.3812 53.0066 56.9197 53.0066C56.7153 53.0066 56.5044 53.0066 56.3 53.0198C56.0429 53.0395 56.0034 53.0987 55.9836 53.3487C55.944 53.8816 56.1286 54.0592 56.6758 54.0395C57.3153 54.0198 57.9613 54.0132 58.6008 54.0132C58.8513 54.0132 59.0161 54.1316 59.0689 54.3882C59.115 54.625 59.1414 54.8684 59.148 55.1119C59.148 55.329 59.0161 55.4671 58.8118 55.5132C58.581 55.5592 58.3503 55.5987 58.1195 55.5987C57.1702 55.6119 56.2275 55.6053 55.2782 55.5987C55.087 55.5987 54.8958 55.579 54.7046 55.5527C54.3552 55.5 54.2629 55.4013 54.2432 55.0527C54.23 54.875 54.2432 54.704 54.2432 54.5263C54.2432 53.7698 54.2432 53.0132 54.2432 52.2566L54.2564 52.25Z" fill="#060419"/>
<path d="M176.488 52.5921C176.685 54.2566 174.727 55.6908 173.27 55.6711C171.662 55.6513 170.047 54.4342 169.987 52.5658C169.961 51.7368 170.218 50.9079 170.844 50.3026C171.484 49.6842 172.268 49.2829 173.191 49.2632C174.965 49.2171 176.633 50.8618 176.488 52.5855V52.5921ZM174.569 52.4408C174.569 51.6908 174.503 51.4539 174.193 51.0855C173.64 50.4342 172.572 50.5066 172.183 51.2434C171.84 51.9013 171.82 52.5921 172.084 53.2829C172.268 53.7697 172.651 54.0329 173.185 54.0526C173.712 54.0724 174.101 53.8421 174.365 53.3882C174.556 53.0724 174.576 52.7237 174.563 52.4408H174.569Z" fill="#060419"/>
<path d="M79.9077 55.6316C79.6638 55.6053 79.4199 55.5724 79.176 55.5461C78.932 55.5198 78.7738 55.3882 78.7013 55.1579C78.4112 54.2763 78.1212 54.2895 77.396 54.2961C77.0796 54.2961 76.7631 54.2763 76.4533 54.2632C76.0709 54.2434 75.9325 54.3487 75.8534 54.7106C75.7083 55.4145 75.4974 55.5921 74.7656 55.5921C74.548 55.5921 74.3239 55.5592 74.1195 55.4934C73.8888 55.4211 73.8361 55.2763 73.8954 55.0461C73.9218 54.9408 73.9679 54.8421 74.0075 54.7434C74.3371 53.9145 74.6733 53.0856 74.9963 52.2566C75.3523 51.3356 75.7083 50.4145 76.0511 49.4869C76.15 49.2171 76.328 49.0527 76.6181 49.0395C77.0136 49.0198 77.4158 49.0132 77.8113 49.0132C78.0421 49.0132 78.1937 49.1448 78.2728 49.3553C78.3849 49.6448 78.4969 49.9342 78.609 50.2237C79.0177 51.3092 79.4265 52.4013 79.8418 53.4869C79.9803 53.8553 80.1583 54.204 80.3165 54.5658C80.3956 54.75 80.4879 54.9342 80.5604 55.125C80.7186 55.5461 80.6791 55.5987 80.2374 55.6053C80.1253 55.6053 80.0198 55.6053 79.9077 55.6053C79.9077 55.6053 79.9077 55.6184 79.9077 55.625V55.6316ZM77.752 52.4934C77.6729 52.1645 77.6004 51.8421 77.5015 51.5198C77.4817 51.4474 77.3696 51.3619 77.2971 51.3553C77.2312 51.3553 77.1323 51.4408 77.0993 51.5132C76.9543 51.8487 76.8093 52.1842 76.6972 52.5329C76.6642 52.6316 76.6774 52.7961 76.7433 52.8619C76.9213 53.0461 77.1719 53.0198 77.396 52.9474C77.6333 52.875 77.7322 52.7303 77.7586 52.4934H77.752Z" fill="#060419"/>
<path d="M29.7388 55.5789C29.2049 55.6118 28.6709 55.625 28.1567 55.4737C27.893 55.3947 27.7413 55.1842 27.6952 54.9408C27.5897 54.4276 27.2271 54.3289 26.7854 54.3158C26.3767 54.3092 25.9614 54.2895 25.5526 54.3026C25.1768 54.3158 25.1109 54.3881 25.0252 54.7368C24.8868 55.3158 24.5901 55.5658 23.9968 55.5987C23.8188 55.6053 23.6408 55.6118 23.4628 55.5987C23.1991 55.5724 23.0936 55.4605 23.1068 55.1974C23.1068 55.0658 23.1464 54.9276 23.1925 54.8026C23.8847 53.0395 24.5769 51.2763 25.2691 49.5066C25.3812 49.2237 25.5658 49.0526 25.8691 49.0395C26.1459 49.0263 26.4162 49.0263 26.6931 49.0329C27.115 49.0395 27.3853 49.2697 27.537 49.6316C27.6029 49.7895 27.6358 49.9671 27.7018 50.1316C28.2951 51.671 28.8818 53.2171 29.4883 54.7566C29.5872 55.0197 29.7784 55.2434 29.752 55.5789H29.7388ZM25.8295 52.4605C25.8295 52.5 25.8295 52.5395 25.8295 52.5789C25.8625 52.8881 26.0932 53.0724 26.4228 53.046C26.6865 53.0263 26.8316 52.8487 26.792 52.5263C26.7525 52.2237 26.6799 51.921 26.581 51.625C26.5019 51.3816 26.3569 51.3618 26.1987 51.546C25.9745 51.8092 25.8295 52.1053 25.8229 52.4605H25.8295Z" fill="#060419"/>
<path d="M133.716 55.6184C133.65 55.6184 133.524 55.6053 133.399 55.5987C132.872 55.5592 132.516 55.3158 132.417 54.7829C132.364 54.4868 132.166 54.3618 131.909 54.3487C131.309 54.3224 130.703 54.3158 130.103 54.3092C129.931 54.3092 129.826 54.4079 129.78 54.5658C129.727 54.7368 129.681 54.9013 129.628 55.0724C129.529 55.3684 129.332 55.5526 129.002 55.579C128.732 55.5987 128.455 55.6053 128.178 55.5987C127.934 55.5987 127.828 55.4803 127.842 55.2434C127.842 55.1118 127.888 54.9803 127.941 54.8553C128.587 53.1908 129.239 51.5329 129.879 49.8618C130.156 49.1447 130.261 49.0395 131.039 49.0329C132.127 49.0329 132.041 49.1316 132.338 49.8421C132.812 50.9737 133.234 52.1316 133.683 53.2829C133.894 53.8224 134.098 54.3684 134.302 54.9145C134.329 54.9803 134.355 55.0395 134.375 55.1053C134.48 55.4605 134.375 55.6053 133.986 55.625C133.92 55.625 133.847 55.625 133.722 55.625L133.716 55.6184ZM130.551 52.5197C130.611 52.6842 130.63 52.8355 130.709 52.9276C130.861 53.0921 131.079 53.0789 131.283 53.0197C131.474 52.9671 131.593 52.8553 131.613 52.6513C131.659 52.1908 131.441 51.8158 131.204 51.4474C131.125 51.3224 130.993 51.3618 130.947 51.4803C130.802 51.8224 130.676 52.1776 130.545 52.5132L130.551 52.5197Z" fill="#060419"/>
<path d="M120.794 55.6974C120.544 55.6448 120.049 55.5461 119.562 55.4342C119.219 55.3553 119.008 55.1382 118.942 54.8027C118.896 54.579 118.863 54.3487 118.863 54.125C118.863 53.7632 119.008 53.6842 119.37 53.7895C119.819 53.9211 120.26 54.0461 120.715 54.1579C120.913 54.204 121.131 54.2237 121.328 54.204C121.526 54.1777 121.73 54.1053 121.902 54.0066C122.106 53.8948 122.133 53.7303 121.961 53.5724C121.777 53.4013 121.559 53.25 121.328 53.1382C121.045 53.0066 120.728 52.9408 120.438 52.8224C120.135 52.6974 119.838 52.5527 119.555 52.3948C118.869 52.0132 118.553 51.1908 118.876 50.3092C119.074 49.7698 119.476 49.454 119.97 49.2171C120.933 48.7632 121.902 48.7961 122.884 49.1645C123.121 49.25 123.306 49.3948 123.339 49.6448C123.385 50.0132 123.425 50.3948 123.405 50.7698C123.392 51.0527 123.293 51.0724 123.042 50.9277C122.489 50.6053 121.922 50.3619 121.256 50.4079C121.157 50.4145 121.065 50.4211 120.972 50.4342C120.808 50.4671 120.643 50.5066 120.63 50.7171C120.616 50.9211 120.649 51.0987 120.867 51.1842C120.979 51.2303 121.091 51.2829 121.21 51.329C121.585 51.4671 121.961 51.5921 122.33 51.7303C122.535 51.8092 122.739 51.8882 122.93 52C124.42 52.8553 124.005 54.5592 122.884 55.204C122.33 55.5198 121.724 55.6842 120.821 55.6908L120.794 55.6974Z" fill="#060419"/>
<path d="M166.052 55.6974C165.452 55.6908 164.891 55.5197 164.331 55.3355C164.12 55.2631 163.975 55.125 163.949 54.9013C163.916 54.6184 163.863 54.3355 163.876 54.0592C163.896 53.671 164.015 53.6316 164.377 53.7697C164.76 53.9145 165.149 54.0658 165.544 54.1447C165.861 54.2105 166.197 54.2105 166.52 54.1776C166.724 54.1579 166.935 54.0395 167.113 53.9276C167.304 53.8158 167.311 53.671 167.126 53.5395C166.915 53.3881 166.685 53.2697 166.447 53.171C166.065 53.0197 165.669 52.9079 165.287 52.7566C164.503 52.4539 164.001 51.9079 163.87 51.0658C163.81 50.7039 163.87 50.3684 164.074 50.0592C164.325 49.671 164.661 49.3618 165.083 49.1908C165.735 48.921 166.414 48.7631 167.126 48.9408C167.39 49.0066 167.66 49.0658 167.917 49.1579C168.306 49.2895 168.517 49.5658 168.55 49.9737C168.563 50.1776 168.59 50.375 168.596 50.5789C168.616 50.9145 168.458 51.0263 168.135 50.9013C167.97 50.8355 167.812 50.75 167.654 50.6776C167.113 50.4342 166.546 50.3684 165.966 50.4342C165.814 50.4539 165.61 50.5197 165.551 50.6316C165.452 50.8223 165.61 51.0131 165.768 51.1052C166.052 51.2631 166.362 51.3816 166.665 51.5C167.021 51.6447 167.397 51.7368 167.733 51.9145C168.781 52.4605 169.124 53.4013 168.702 54.4802C168.544 54.8881 168.207 55.1316 167.832 55.296C167.265 55.546 166.678 55.7237 166.045 55.7039L166.052 55.6974Z" fill="#060419"/>
<path d="M35.5996 50.1776C35.5601 50.4803 35.5403 50.704 35.4876 50.9277C35.4546 51.0921 35.3425 51.1448 35.1777 51.0592C34.9602 50.9408 34.7426 50.8224 34.5185 50.7237C33.3516 50.204 32.2704 51.0987 32.3298 52.1053C32.3495 52.4276 32.3759 52.7566 32.4616 53.0592C32.5737 53.4408 32.8572 53.704 33.2527 53.8224C33.7867 53.9869 34.3207 54.0855 34.8481 53.7829C34.8942 53.7566 34.947 53.7369 34.9997 53.7237C35.4216 53.6053 35.593 53.6908 35.5667 54.1184C35.5535 54.3092 35.5667 54.4934 35.5667 54.6842C35.5733 55.0198 35.415 55.25 35.1052 55.3816C34.5382 55.6316 33.9581 55.7237 33.345 55.5921C32.7451 55.4605 32.1979 55.25 31.7035 54.8816C29.9433 53.5527 29.8971 51.0592 31.6244 49.704C32.5209 49 33.5362 48.7237 34.6701 49.0066C34.9668 49.079 35.2766 49.1842 35.415 49.4671C35.5271 49.6974 35.5469 49.9803 35.593 50.1776H35.5996Z" fill="#060419"/>
<path d="M41.8229 50.3289C41.8229 50.4671 41.8295 50.5987 41.8229 50.7368C41.8031 51.0329 41.7042 51.0921 41.4735 50.921C41.0318 50.6052 40.5505 50.5526 40.0297 50.6184C39.3375 50.7039 38.9222 51.1316 38.7574 51.7302C38.5662 52.4079 38.6321 53.0789 39.2386 53.5789C39.3705 53.6908 39.5287 53.796 39.6935 53.8421C40.3 54.0263 40.9065 54.0592 41.4866 53.75C41.6449 53.6645 41.7503 53.7434 41.7767 53.8618C41.8756 54.3289 41.9086 54.8026 41.6317 55.2302C41.5855 55.3026 41.4932 55.3684 41.4075 55.4013C40.8933 55.5987 40.3725 55.7368 39.8056 55.625C38.164 55.2829 37.129 54.3355 36.7401 52.7171C36.5621 51.9868 36.7532 51.3026 37.1158 50.6908C37.7685 49.5987 38.7837 48.9868 40.0627 48.8618C40.3791 48.8289 40.7219 48.8816 41.0384 48.9539C41.5526 49.0724 41.7701 49.3487 41.8163 49.8684C41.8295 50.0131 41.8163 50.1645 41.8163 50.3158C41.8163 50.3158 41.8163 50.3158 41.8229 50.3158V50.3289Z" fill="#060419"/>
<path d="M70.7639 49.0263C71.4495 49.0263 72.1351 49.0263 72.8208 49.0263C72.8999 49.0263 72.9856 49.0263 73.0647 49.0263C73.7173 49.0592 73.7965 49.1382 73.7965 49.7632C73.7965 49.8421 73.7965 49.9276 73.7965 50.0066C73.7965 50.5526 73.7833 50.5592 73.2097 50.5658C72.8933 50.5658 72.5768 50.5658 72.2604 50.5658C71.7066 50.5658 71.6407 50.625 71.6407 51.1645C71.6407 52.3684 71.6407 53.5658 71.6407 54.7697C71.6407 54.8092 71.6407 54.8487 71.6407 54.8882C71.6407 55.4803 71.5155 55.6118 70.9221 55.5987C70.6782 55.5987 70.4277 55.5987 70.1838 55.5592C69.8937 55.5131 69.7816 55.3882 69.7487 55.1053C69.7289 54.9737 69.7355 54.8355 69.7355 54.7039C69.7355 53.546 69.7355 52.3816 69.7355 51.2237C69.7355 51.1184 69.7355 51.0066 69.7355 50.9013C69.7157 50.6447 69.6696 50.5921 69.4124 50.5789C69.1553 50.5658 68.8916 50.5789 68.6279 50.5724C68.4895 50.5724 68.3511 50.5724 68.2192 50.5526C67.883 50.5066 67.7907 50.4079 67.7709 50.0855C67.7577 49.9079 67.7643 49.7368 67.7709 49.5592C67.7841 49.1842 67.8434 49.1118 68.2126 49.0526C68.3642 49.0329 68.5159 49.0263 68.6609 49.0263C69.3597 49.0263 70.0585 49.0263 70.7573 49.0263H70.7639Z" fill="#060419"/>
<path d="M95.6044 55.6118C95.4001 55.5921 95.1957 55.5658 94.9913 55.5592C94.7672 55.5592 94.6749 55.421 94.6485 55.2302C94.6353 55.1381 94.6353 55.0395 94.6353 54.9474C94.6353 54.7039 94.6156 54.4605 94.6419 54.2171C94.7342 53.3158 94.4573 52.5197 93.9893 51.7566C93.4883 50.9474 93.04 50.1184 92.5719 49.2895C92.5323 49.2171 92.4796 49.0921 92.5126 49.0395C92.5521 48.9802 92.6774 48.9605 92.7631 48.9605C93.0795 48.9671 93.3894 49 93.7058 49.0131C94.1145 49.0329 94.4046 49.2171 94.5892 49.5789C94.7145 49.8224 94.8265 50.0658 94.965 50.3026C95.143 50.6052 95.3342 50.9013 95.5385 51.1908C95.6836 51.4013 95.789 51.3881 95.9538 51.1908C95.9868 51.1513 96.0198 51.1052 96.0461 51.0592C96.3098 50.5592 96.5867 50.0592 96.8241 49.546C96.9823 49.2105 97.213 49.0329 97.5756 49.0263C97.8525 49.0197 98.1228 49.0066 98.3997 49.0131C98.815 49.0197 98.8941 49.1513 98.6897 49.5197C98.2348 50.3355 97.7668 51.1447 97.2987 51.9539C97.2262 52.0855 97.1537 52.2105 97.0746 52.3421C96.646 53.0197 96.4549 53.7434 96.5274 54.546C96.5472 54.75 96.5406 54.9539 96.5274 55.1513C96.5076 55.4539 96.4087 55.5526 96.0989 55.5855C95.9341 55.6052 95.7693 55.5855 95.6044 55.5855C95.6044 55.5921 95.6044 55.5987 95.6044 55.6052V55.6118Z" fill="#060419"/>
<path d="M87.7133 52.2894C87.7133 51.4934 87.7133 50.6973 87.7133 49.9013C87.7133 49.796 87.7133 49.6842 87.7199 49.5789C87.7528 49.1513 87.8649 49.0394 88.3066 49.0197C88.5901 49.0066 88.8867 49.0066 89.1702 49.046C89.5592 49.0921 89.6251 49.1776 89.6251 49.5723C89.6251 50.7631 89.6251 51.9473 89.6251 53.1381C89.6251 53.2565 89.6251 53.3816 89.6251 53.5C89.6515 53.9144 89.7635 54.0329 90.1789 54.0394C90.7788 54.0526 91.3853 54.0394 91.9852 54.0394C92.4203 54.0394 92.539 54.1381 92.5785 54.5658C92.5917 54.7566 92.5983 54.9408 92.5785 55.1316C92.5587 55.4868 92.4599 55.5855 92.1039 55.5987C91.7742 55.6118 91.4446 55.6052 91.115 55.6052C90.2118 55.6052 89.3086 55.6118 88.3989 55.6118C87.8319 55.6118 87.6935 55.4737 87.6935 54.921C87.6935 54.046 87.6935 53.1644 87.6935 52.2894C87.6935 52.2894 87.6935 52.2894 87.7001 52.2894H87.7133Z" fill="#060419"/>
<path d="M81.7799 52.2895C81.7799 51.4934 81.7799 50.6974 81.7799 49.9013C81.7799 49.8092 81.7799 49.7105 81.7799 49.6184C81.8063 49.1579 81.9183 49.0395 82.3732 49.0197C82.6765 49.0132 82.9797 49.0197 83.2764 49.0526C83.6258 49.0987 83.6851 49.1842 83.6851 49.5395C83.6851 50.204 83.6851 50.8619 83.6851 51.5263C83.6851 52.1579 83.6851 52.7961 83.6851 53.4276C83.6917 53.9276 83.8104 54.0395 84.3246 54.0461C84.9113 54.0461 85.5047 54.0461 86.0914 54.0461C86.5265 54.0461 86.6122 54.1382 86.632 54.5724C86.6452 54.75 86.6518 54.9211 86.6452 55.0987C86.6386 55.4013 86.5661 55.4803 86.2694 55.5263C86.0518 55.5592 85.8343 55.5855 85.6167 55.5855C84.5619 55.5987 83.5071 55.6053 82.4457 55.6053C81.9315 55.6053 81.7601 55.4342 81.7535 54.9145C81.7469 54.0395 81.7535 53.1579 81.7535 52.2829L81.7799 52.2895Z" fill="#060419"/>
<path d="M43.3788 52.3026C43.3788 51.4145 43.3788 50.5197 43.3788 49.6316C43.3788 49.125 43.5106 48.9869 44.0248 48.954C44.2688 48.9408 44.5193 48.9408 44.7632 48.9737C45.0994 49.0132 45.1917 49.1119 45.2049 49.4474C45.2379 50.3619 45.284 51.2763 45.284 52.1974C45.284 53.1513 45.2445 54.1119 45.2115 55.0658C45.1983 55.5263 45.0533 55.6579 44.5852 55.6776C44.3281 55.6842 44.0644 55.6776 43.8073 55.6776C43.5766 55.6776 43.4513 55.5592 43.4249 55.3355C43.4052 55.1776 43.392 55.0132 43.392 54.8553C43.392 54.0066 43.392 53.1579 43.392 52.3026H43.3788Z" fill="#060419"/>
</svg>