<?xml version="1.0" encoding="utf-8"?>
<svg xmlns="http://www.w3.org/2000/svg" fill="none" height="32" viewBox="0 0 205 32" width="205">
<g clip-path="url(#clip0_33_2)">
<path d="M24.1963 31.3367H30.0742V0H24.1963V31.3367Z" fill="#060419"/>
<path d="M48.1049 20.4642C48.1049 16.3545 45.4537 14.2785 42.5807 14.2785C39.7078 14.2785 37.0565 16.3545 37.0565 20.4642C37.0565 24.5318 39.7078 26.6517 42.5807 26.6517C45.4537 26.6517 48.1049 24.5757 48.1049 20.4642ZM53.9828 20.4642C53.9828 27.139 49.0778 32 42.5807 32C36.0836 32 31.1787 27.139 31.1787 20.4642C31.1787 13.7472 36.0836 8.93024 42.5807 8.93024C49.0778 8.93024 53.9828 13.7472 53.9828 20.4642Z" fill="#060419"/>
<path d="M60.3652 20.4642C60.3652 24.398 62.9285 26.6077 65.9334 26.6077C68.9383 26.6077 70.4425 24.6197 70.9281 22.9396L76.0987 24.6637C75.1258 28.2879 71.7233 32 65.9334 32C59.526 32 54.4874 27.139 54.4874 20.4642C54.4874 13.7472 59.4363 8.93024 65.7575 8.93024C71.6793 8.93024 75.0378 12.5984 75.9667 16.2665L70.7064 18.0346C70.1768 16.2226 68.8063 14.3665 65.8894 14.3665C62.8845 14.3665 60.3652 16.5322 60.3652 20.4642Z" fill="#060419"/>
<path d="M89.2667 18.7419L98.1495 31.3367H90.9468L85.201 23.0275L82.7713 25.5926V31.3367H76.8935V0H82.7713V17.681L90.2836 9.59349H97.9735" fill="#060419"/>
<path d="M115.668 9.59344L120.353 23.6028L124.375 9.59344H130.209L123.402 31.3367H117.524L112.442 16.4882L107.449 31.3367H101.481L94.5439 9.59344H100.73L104.752 23.5588L109.481 9.59344" fill="#060419"/>
<path d="M145.889 20.4642C145.889 16.3545 143.237 14.2785 140.364 14.2785C137.491 14.2785 134.84 16.3545 134.84 20.4642C134.84 24.5318 137.491 26.6517 140.364 26.6517C143.237 26.6517 145.889 24.5757 145.889 20.4642ZM151.766 20.4642C151.766 27.139 146.861 32 140.364 32C133.867 32 128.962 27.139 128.962 20.4642C128.962 13.7472 133.867 8.93024 140.364 8.93024C146.861 8.93024 151.766 13.7472 151.766 20.4642Z" fill="#060419"/>
<path d="M166.128 15.4273C165.465 15.2936 164.89 15.2496 164.36 15.2496C161.355 15.2496 158.746 16.7081 158.746 21.3931V31.3367H152.869V9.59346H158.57V12.82C159.897 9.94708 162.902 9.41577 164.758 9.41577C165.243 9.41577 165.685 9.45975 166.128 9.50374" fill="#060419"/>
<path d="M179.439 18.7419L188.323 31.3367H181.119L175.375 23.0275L172.944 25.5926V31.3367H167.066V0H172.944V17.681L180.456 9.59349H188.146" fill="#060419"/>
<path d="M191.768 24.1764C191.9 25.9005 193.181 27.4909 195.745 27.4909C197.69 27.4909 198.617 26.4758 198.617 25.327C198.617 24.3541 197.956 23.5589 196.276 23.2052L193.403 22.542C189.205 21.6148 187.303 19.0955 187.303 16.0449C187.303 12.1568 190.752 8.93024 195.437 8.93024C201.622 8.93024 203.7 12.864 203.966 15.2057L199.061 16.3105C198.883 15.0297 197.956 13.3936 195.481 13.3936C193.932 13.3936 192.696 14.3225 192.696 15.5593C192.696 16.6202 193.491 17.2834 194.684 17.5033L197.778 18.1666C202.066 19.0498 204.231 21.6588 204.231 24.8396C204.231 28.3758 201.49 32 195.789 32C189.249 32 186.995 27.7566 186.73 25.283" fill="#060419"/>
<path d="M0.889648 23.5184H8.72384V15.6842H0.889648V23.5184Z" fill="#060419"/>
<path d="M0.889648 31.3508H8.72384V23.5184H0.889648V31.3508Z" fill="#060419"/>
<path d="M0.889648 7.85176H8.72384V0.0175781H0.889648V7.85176Z" fill="#060419"/>
<path d="M0.889648 15.6842H8.72384V7.85175H0.889648V15.6842Z" fill="#060419"/>
<path d="M15.3597 0.0756353C15.1116 0.0316526 14.86 0.0175781 14.6085 0.0175781H8.72363V7.85H16.556V0.388791C16.169 0.253325 15.7696 0.147767 15.3597 0.0756353Z" fill="#060419"/>
<path d="M21.8388 7.85001C21.8388 7.83945 21.8406 7.82713 21.8406 7.81482C21.8406 4.37538 19.6309 1.45845 16.5556 0.388794V7.85001" fill="#060419"/>
<path d="M21.8388 7.85004H16.5556V15.2409C19.6203 14.1747 21.823 11.2736 21.8388 7.85004Z" fill="#060419"/>
<path d="M8.72363 7.85175V15.6842L13.9716 15.6525C15.0852 15.6525 15.745 15.5241 16.556 15.2408V7.85175" fill="#060419"/>
<path d="M15.5638 15.6842H15.5778C15.3403 15.6631 15.1011 15.6473 14.8583 15.6473C14.6155 15.6473 8.72363 15.6842 8.72363 15.6842V23.5184H16.556V15.8408C16.2323 15.7687 15.9016 15.7159 15.5638 15.6842Z" fill="#060419"/>
<path d="M16.5556 15.8408V23.5184H22.7132C22.7132 19.7605 20.0777 16.6219 16.5556 15.8408Z" fill="#060419"/>
<path d="M8.72363 23.5184V31.3508H15.5638C15.9016 31.3209 16.2323 31.2681 16.556 31.1942V23.5184" fill="#060419"/>
<path d="M16.5556 31.196C20.0777 30.4131 22.7132 27.2762 22.7132 23.5184H16.5556" fill="#060419"/>
<path d="M0.889648 23.5184H8.72384V15.6842H0.889648V23.5184Z" fill="#060419"/>
<path d="M0.889648 31.3508H8.72384V23.5184H0.889648V31.3508Z" fill="#060419"/>
<path d="M0.889648 7.85176H8.72384V0.0175781H0.889648V7.85176Z" fill="#060419"/>
<path d="M0.889648 15.6842H8.72384V7.85175H0.889648V15.6842Z" fill="#060419"/>
<path d="M15.3597 0.0756353C15.1116 0.0316526 14.86 0.0175781 14.6085 0.0175781H8.72363V7.85H16.556V0.388791C16.169 0.253325 15.7696 0.147767 15.3597 0.0756353Z" fill="#060419"/>
<path d="M21.8388 7.85001C21.8388 7.83945 21.8406 7.82713 21.8406 7.81482C21.8406 4.37538 19.6309 1.45845 16.5556 0.388794V7.85001" fill="#060419"/>
<path d="M21.8388 7.85004H16.5556V15.2409C19.6203 14.1747 21.823 11.2736 21.8388 7.85004Z" fill="#060419"/>
<path d="M8.72363 7.85175V15.6842L13.9716 15.6525C15.0852 15.6525 15.745 15.5241 16.556 15.2408V7.85175" fill="#060419"/>
<path d="M15.5638 15.6842H15.5778C15.3403 15.6631 15.1011 15.6472 14.8583 15.6472C14.6155 15.6472 8.72363 15.6842 8.72363 15.6842V23.5183H16.556V15.8407C16.2323 15.7686 15.9016 15.7158 15.5638 15.6842Z" fill="#060419"/>
<path d="M8.72363 23.5184V31.3508H15.5638C15.9016 31.3209 16.2323 31.2681 16.556 31.1942V23.5184" fill="#060419"/>
<path d="M16.5556 31.196C20.0777 30.4131 22.7132 27.2762 22.7132 23.5184H16.5556" fill="#060419"/>
</g>
<defs>
<clipPath id="clip0_33_2">
<rect fill="white" height="32" transform="translate(0.889648)" width="204"/>
</clipPath>
</defs>
</svg>