<?xml version="1.0" encoding="utf-8"?>
<svg xmlns="http://www.w3.org/2000/svg" fill="none" height="48" viewBox="0 0 44 48" width="44">
<path d="M26.0425 36.4491C26.0566 37.9879 25.7755 39.5152 25.2144 40.9482C24.6824 42.2991 23.8837 43.529 22.8659 44.5645C21.8378 45.6017 20.6124 46.4224 19.262 46.9785C17.8686 47.5642 16.3402 47.8568 14.6768 47.8563C11.4576 47.8563 8.57003 46.9564 6.01394 45.1566H5.7829L3.7499 47.8124H3.42693V20.402C3.13378 20.2265 2.72166 20.0034 2.19057 19.7329C1.65948 19.4624 1.12424 19.188 0.584869 18.9098V18.6448L8.90155 15.0011H9.29408L9.13259 30.9579L9.22534 31.0018C9.53786 30.3457 9.92942 29.7303 10.3913 29.1692C10.9088 28.5314 11.5067 27.9633 12.1701 27.479C12.8698 26.9653 13.6351 26.5475 14.4457 26.2369C15.2857 25.913 16.1788 25.749 17.0791 25.7533C18.5145 25.7533 19.7843 26.0497 20.8884 26.6427C21.9849 27.2249 22.9425 28.0374 23.6957 29.0243C24.475 30.0533 25.0654 31.2124 25.4397 32.4477C25.8422 33.7432 26.0455 35.0925 26.0425 36.4491ZM19.7357 37.5687C19.7396 36.5337 19.6195 35.502 19.3779 34.4956C19.1659 33.5784 18.7945 32.7056 18.2807 31.9169C17.7994 31.189 17.1545 30.5838 16.3976 30.1497C15.6357 29.7119 14.7309 29.493 13.683 29.493C12.9289 29.493 12.2744 29.5993 11.7196 29.8118C11.2266 29.9898 10.7631 30.2411 10.3449 30.5571C10.0225 30.7996 9.745 31.0967 9.52512 31.4349C9.34017 31.7347 9.24025 31.9798 9.22534 32.1703C9.20933 32.3458 9.19774 32.5799 9.19056 32.8725C9.18338 33.1651 9.17565 33.4798 9.16737 33.8165C9.15909 34.1528 9.15136 34.5 9.14418 34.8583C9.1359 35.2177 9.13259 35.5498 9.13259 35.857C9.13259 36.3848 9.14032 36.9774 9.15578 37.635C9.17124 38.2925 9.19442 38.8997 9.22534 39.4568C9.26257 39.9878 9.33561 40.5157 9.44396 41.0368C9.56327 41.6167 9.72547 42.1869 9.92923 42.7427C10.1358 43.3104 10.3869 43.8609 10.6803 44.389C10.9579 44.8966 11.2951 45.3692 11.6848 45.7968C12.0471 46.1952 12.4776 46.5258 12.956 46.7731C13.4312 47.0163 13.9583 47.1408 14.4921 47.1358C15.2745 47.142 16.0373 46.8912 16.6634 46.422C17.3104 45.9467 17.8625 45.2842 18.3196 44.4345C18.7767 43.5849 19.127 42.5752 19.3705 41.4053C19.6243 40.1416 19.7467 38.8551 19.7357 37.5662V37.5687Z" fill="#060419"/>
<path d="M4.07238 0.0124211C4.30912 0.0116399 4.5453 0.0355064 4.7771 0.0836371C4.97171 0.123276 5.15677 0.200338 5.32199 0.31054C5.47362 0.415041 5.59479 0.557926 5.67311 0.724594C5.76156 0.92517 5.80346 1.14316 5.79567 1.36223C5.80316 1.6034 5.73702 1.84113 5.60603 2.04377C5.4653 2.23868 5.27484 2.39226 5.05451 2.48846C5.35558 2.56327 5.61994 2.74333 5.79981 2.99609C5.94405 3.23144 6.02718 3.49911 6.04164 3.77476C6.0561 4.05042 6.00144 4.32531 5.88262 4.57447C5.77962 4.76855 5.63205 4.93543 5.45201 5.06139C5.26532 5.19039 5.05688 5.28465 4.83672 5.33964C4.60492 5.3993 4.36639 5.4288 4.12704 5.42741L1.50276 5.41499L1.52678 0L4.07238 0.0124211ZM3.90676 2.20359C4.09277 2.21208 4.27649 2.15975 4.43012 2.05453C4.56759 1.9535 4.6366 1.78954 4.63715 1.56264C4.64204 1.45489 4.61923 1.34769 4.5709 1.25127C4.5282 1.17297 4.46565 1.10729 4.38954 1.0608C4.30894 1.01302 4.22024 0.980453 4.12786 0.964744C4.02675 0.946414 3.92422 0.936993 3.82146 0.936589L2.70683 0.934934L2.70103 2.20194L3.90676 2.20359ZM3.96473 4.50159C4.07597 4.5026 4.18701 4.49178 4.29597 4.46929C4.39575 4.44958 4.49096 4.41139 4.5767 4.35667C4.65906 4.30291 4.72611 4.22873 4.7713 4.14136C4.82351 4.03276 4.84879 3.91317 4.845 3.79273C4.845 3.51531 4.76882 3.31574 4.61231 3.19649C4.4309 3.06938 4.21251 3.0059 3.99123 3.01596L2.69441 3.00934L2.68779 4.49993L3.96473 4.50159Z" fill="#060419"/>
<path d="M9.13644 1.7904C9.27851 1.46808 9.48185 1.17643 9.73516 0.931653C9.98828 0.691644 10.2906 0.509658 10.6212 0.398351C11.3628 0.167412 12.1653 0.235771 12.8571 0.588815C13.1627 0.755072 13.4285 0.985616 13.6364 1.26455C13.8451 1.54821 13.9962 1.87007 14.0811 2.21191C14.1729 2.58376 14.2009 2.9685 14.1639 3.34972C14.1348 3.72428 14.0412 4.09101 13.8873 4.43372C13.7461 4.75152 13.5431 5.03807 13.2902 5.27673C13.0373 5.51235 12.7364 5.69059 12.4083 5.79927C11.6663 6.02642 10.8653 5.95818 10.1724 5.6088C9.866 5.44718 9.59819 5.22118 9.38735 4.94632C9.17909 4.66775 9.02771 4.35091 8.94183 4.01387C8.84881 3.64983 8.81939 3.27246 8.85488 2.89841C8.88522 2.51578 8.98044 2.1411 9.13644 1.7904ZM10.0689 3.66606C10.1008 3.8764 10.1697 4.0794 10.2726 4.26561C10.3727 4.44669 10.5146 4.60116 10.6867 4.7161C10.8901 4.83653 11.1181 4.90957 11.3536 4.92978C11.5892 4.95 11.8262 4.91687 12.0472 4.83287C12.2372 4.74896 12.4044 4.62092 12.535 4.45939C12.6683 4.29339 12.7709 4.10494 12.8381 3.9029C12.9094 3.69108 12.955 3.47142 12.9739 3.24869C12.9941 3.01708 12.9871 2.78391 12.9532 2.55391C12.9226 2.33866 12.8539 2.13058 12.7503 1.93946C12.6499 1.75617 12.5064 1.60012 12.3321 1.48483C12.1287 1.36466 11.9008 1.29184 11.6654 1.27177C11.4301 1.2517 11.1932 1.28489 10.9723 1.36889C10.7813 1.45293 10.6136 1.58225 10.4838 1.74568C10.3494 1.9166 10.2464 2.11008 10.1799 2.31707C10.107 2.53799 10.0606 2.76677 10.0416 2.99861C10.0236 3.22138 10.0328 3.4455 10.0689 3.66606Z" fill="#060419"/>
<path d="M17.8102 5.64779C17.836 5.78108 17.8928 5.90645 17.9759 6.01381C18.0656 6.1232 18.1748 6.21501 18.298 6.2846C18.4309 6.36142 18.5731 6.42098 18.7212 6.46182C18.8315 6.49178 18.9439 6.51364 19.0574 6.52724C19.1757 6.54289 19.2958 6.54066 19.4134 6.52061C19.5258 6.50151 19.6323 6.45705 19.7248 6.3906C19.8217 6.31727 19.8899 6.21241 19.9178 6.09414C19.9382 6.03141 19.9453 5.96507 19.9384 5.89945C19.9316 5.83382 19.911 5.77036 19.878 5.71321C19.8021 5.58903 19.7025 5.48099 19.5849 5.39522C19.4412 5.28672 19.2895 5.18927 19.1311 5.10372C18.958 5.00766 18.7841 4.90746 18.6094 4.80064C18.4293 4.6987 18.2556 4.58587 18.0893 4.46277C17.9295 4.3462 17.7877 4.20668 17.6686 4.04871C17.5531 3.89507 17.4723 3.71821 17.4318 3.53032C17.3889 3.31468 17.4009 3.09172 17.4666 2.88191C17.528 2.63655 17.6545 2.41228 17.8326 2.23268C17.999 2.06878 18.1991 1.94304 18.4189 1.86417C18.6467 1.78372 18.887 1.74419 19.1286 1.7474C19.3746 1.74814 19.6194 1.78184 19.8565 1.84761C20.1213 1.92066 20.3765 2.02491 20.6167 2.15815C20.8403 2.28071 21.0389 2.44419 21.2022 2.6401C21.3587 2.82896 21.4679 3.05236 21.521 3.29182C21.5754 3.56385 21.5606 3.84518 21.4779 4.10999L20.3674 3.80111C20.4007 3.66542 20.4038 3.52408 20.3765 3.38706C20.352 3.27418 20.2983 3.1697 20.2209 3.08397C20.1404 2.99614 20.0444 2.92398 19.9376 2.87115C19.8159 2.80989 19.6883 2.76106 19.5567 2.7254C19.4634 2.69961 19.3676 2.68351 19.271 2.67737C19.1765 2.67036 19.0815 2.68132 18.9911 2.70966C18.9036 2.73621 18.8227 2.78078 18.7535 2.84051C18.6788 2.90904 18.6265 2.99851 18.6036 3.09722C18.5752 3.1828 18.5715 3.27462 18.5928 3.36221C18.6289 3.45783 18.6919 3.54095 18.7742 3.60154C18.9089 3.71122 19.0527 3.80929 19.2039 3.89469C19.3911 4.0051 19.6362 4.14699 19.9393 4.32034C20.0312 4.36671 20.1571 4.43958 20.3153 4.53895C20.4827 4.64553 20.6335 4.77642 20.7624 4.92733C20.9059 5.09457 21.0138 5.28927 21.0796 5.49956C21.1509 5.75261 21.146 6.02107 21.0655 6.27136C21.0034 6.50088 20.8927 6.71437 20.7409 6.8974C20.5894 7.07779 20.3972 7.21968 20.1803 7.31146C19.9343 7.41366 19.6707 7.46709 19.4043 7.4688C19.075 7.47146 18.7471 7.42513 18.4313 7.33133C18.1488 7.25357 17.8774 7.13973 17.6239 6.99263C17.3847 6.85629 17.1734 6.6759 17.0012 6.46099C16.8362 6.25209 16.7227 6.00726 16.6699 5.74633C16.6152 5.45219 16.6348 5.14902 16.7271 4.8644L17.8376 5.17411C17.7905 5.32751 17.7811 5.49 17.8102 5.64779Z" fill="#060419"/>
<path d="M24.3468 8.00674C24.3429 8.14283 24.3712 8.27793 24.4297 8.40092C24.4929 8.52775 24.5791 8.64175 24.6839 8.73713C24.7967 8.84099 24.9218 8.93055 25.0565 9.00378C25.1573 9.05762 25.2619 9.10384 25.3696 9.14208C25.4817 9.18394 25.5995 9.20851 25.719 9.21495C25.8323 9.2212 25.9456 9.20166 26.0503 9.15781C26.1613 9.10702 26.2512 9.01919 26.3045 8.90938C26.3382 8.8527 26.3597 8.78964 26.3676 8.7242C26.3756 8.65876 26.3699 8.59238 26.3509 8.52927C26.3041 8.39145 26.231 8.26404 26.1356 8.15414C26.019 8.017 25.8928 7.88832 25.7579 7.76907C25.6097 7.6374 25.4631 7.49994 25.3157 7.35502C25.1632 7.2155 25.0191 7.06701 24.8843 6.91033C24.7545 6.761 24.6471 6.59363 24.5655 6.41346C24.4795 6.22615 24.4402 6.02078 24.4511 5.81496C24.4619 5.60915 24.5224 5.40903 24.6276 5.23176C24.7409 5.00661 24.9125 4.8159 25.1244 4.67941C25.3233 4.55666 25.5466 4.47866 25.7786 4.45085C26.0187 4.42238 26.2618 4.43725 26.4966 4.49474C26.7362 4.55033 26.9673 4.63749 27.1839 4.75394C27.4258 4.88357 27.6513 5.04177 27.8555 5.22513C28.0466 5.39443 28.2042 5.59808 28.3201 5.82551C28.43 6.04471 28.4867 6.28669 28.4857 6.53188C28.4782 6.80921 28.4013 7.08025 28.2621 7.32024L27.2477 6.77203C27.3103 6.64686 27.3448 6.50949 27.3487 6.36957C27.3505 6.25382 27.322 6.13961 27.2659 6.03833C27.2064 5.93524 27.1287 5.84377 27.0365 5.76837C26.9314 5.68172 26.818 5.60572 26.6978 5.54147C26.6124 5.49566 26.5225 5.45876 26.4295 5.43133C26.3389 5.4038 26.2441 5.39313 26.1496 5.39986C26.0605 5.40818 25.9739 5.43467 25.8954 5.4777C25.8074 5.52817 25.7365 5.6037 25.6917 5.69467C25.6454 5.77195 25.6214 5.86049 25.6221 5.95055C25.6367 6.05185 25.6798 6.14691 25.7463 6.22466C25.8532 6.36142 25.9715 6.48885 26.0999 6.60558C26.2584 6.75464 26.466 6.94787 26.7227 7.18526C26.8055 7.25151 26.9082 7.35088 27.0407 7.48255C27.1788 7.62451 27.2951 7.78607 27.386 7.96202C27.4886 8.15705 27.5506 8.37088 27.5682 8.59056C27.5808 8.85181 27.5163 9.11101 27.3827 9.33585C27.2709 9.54567 27.1157 9.72919 26.9272 9.87412C26.7393 10.0161 26.5206 10.112 26.2888 10.154C26.0261 10.199 25.7572 10.1925 25.4971 10.135C25.1754 10.0641 24.8659 9.94609 24.5787 9.78469C24.3207 9.64591 24.0816 9.47446 23.8674 9.27457C23.6642 9.08861 23.4981 8.86577 23.378 8.61788C23.263 8.37745 23.2063 8.11334 23.2123 7.84692C23.223 7.54846 23.3084 7.25745 23.4608 7.00059L24.4752 7.5488C24.396 7.68881 24.3519 7.84595 24.3468 8.00674Z" fill="#060419"/>
<path d="M34.1522 10.0686C34.3232 10.2324 34.4767 10.4136 34.6101 10.6093C34.7227 10.773 34.8026 10.9569 34.8453 11.1509C34.8814 11.3317 34.8691 11.5188 34.8097 11.6933C34.7338 11.8989 34.6123 12.0846 34.4544 12.2366C34.2932 12.4167 34.0809 12.5432 33.8457 12.5993C33.6092 12.6416 33.3656 12.6199 33.1402 12.5363C33.3044 12.7994 33.3693 13.1124 33.3232 13.4191C33.2631 13.6883 33.1367 13.9382 32.9555 14.1462C32.7743 14.3541 32.544 14.5135 32.2856 14.6099C32.0766 14.6782 31.8543 14.6958 31.6372 14.6613C31.4134 14.6241 31.198 14.5473 31.0012 14.4344C30.7932 14.316 30.6012 14.1716 30.4298 14.0046L28.5459 12.1703L32.3262 8.29312L34.1522 10.0686ZM30.9606 13.227C31.0405 13.3057 31.1285 13.3756 31.2231 13.4357C31.3087 13.4911 31.4039 13.5298 31.5039 13.5499C31.6003 13.5679 31.6998 13.561 31.7929 13.5301C31.9057 13.488 32.0068 13.4196 32.0877 13.3305C32.2815 13.1309 32.3643 12.9338 32.3361 12.7392C32.2938 12.5218 32.1808 12.3244 32.0148 12.1778L31.084 11.2743L30.0472 12.3393L30.9606 13.227ZM32.5142 11.5335C32.6423 11.669 32.8113 11.7589 32.9953 11.7894C33.1609 11.8126 33.3265 11.7422 33.4855 11.579C33.563 11.5047 33.62 11.4118 33.6511 11.3091C33.6743 11.2228 33.6743 11.132 33.6511 11.0457C33.6256 10.9564 33.5844 10.8723 33.5294 10.7973C33.4691 10.7139 33.4018 10.6358 33.3282 10.5638L32.534 9.78371L31.6504 10.6946L32.5142 11.5335Z" fill="#060419"/>
<path d="M39.38 17.1839L35.4515 21.4254L34.8966 20.3207L35.7902 19.4098L34.8793 17.6004L33.6114 17.766L33.0732 16.6953L38.831 16.0924L39.38 17.1839ZM36.4427 18.7366L37.9118 17.2369L37.9052 17.2236L35.8125 17.4853L36.4427 18.7366Z" fill="#060419"/>
<path d="M42.2438 24.7114C42.2944 24.943 42.3205 25.1792 42.3216 25.4162C42.3244 25.6145 42.2884 25.8114 42.2156 25.9958C42.1451 26.1658 42.0308 26.3141 41.8844 26.4256C41.7071 26.5547 41.5026 26.6414 41.2865 26.679C41.0527 26.7376 40.8065 26.7235 40.581 26.6385C40.3608 26.5412 40.1705 26.3871 40.0294 26.1921C40.0191 26.5019 39.8987 26.7978 39.6899 27.0268C39.4898 27.2169 39.2454 27.354 38.9789 27.4256C38.7123 27.4971 38.4321 27.501 38.1637 27.4367C37.9523 27.3773 37.7581 27.2683 37.5973 27.1188C37.4322 26.963 37.2962 26.779 37.1957 26.5755C37.0889 26.3613 37.0101 26.1341 36.9613 25.8998L36.4205 23.3326L41.7204 22.218L42.2438 24.7114ZM37.8846 25.6513C37.9147 25.7594 37.9561 25.8641 38.008 25.9635C38.0543 26.0543 38.1169 26.1357 38.1927 26.2037C38.2674 26.2676 38.3572 26.3115 38.4535 26.3312C38.5722 26.352 38.6941 26.3438 38.8088 26.3072C39.0766 26.2316 39.2466 26.1024 39.3189 25.9197C39.3899 25.7099 39.3899 25.4826 39.3189 25.2729L38.9769 24.0283L37.5451 24.4291L37.8846 25.6513ZM40.08 24.9665C40.1224 25.1481 40.223 25.311 40.3665 25.4302C40.5006 25.5346 40.6778 25.5561 40.8965 25.4948C41.0014 25.4693 41.0982 25.4177 41.178 25.345C41.2417 25.2827 41.2877 25.2047 41.3113 25.1189C41.3348 25.0284 41.3418 24.9344 41.332 24.8415C41.3225 24.7389 41.3033 24.6374 41.2749 24.5384L40.9751 23.4618L39.7545 23.803L40.08 24.9665Z" fill="#060419"/>
<path d="M43.5849 34.2184L42.5837 34.2316L42.5464 31.3722L41.3871 31.3879L41.4219 34.0113L40.4969 34.0238L40.4604 31.3978L39.1354 31.4152L39.1735 34.3351L38.1724 34.3484L38.1169 30.2385L43.5319 30.1681L43.5849 34.2184Z" fill="#060419"/>
<path d="M30.1667 47.8852C31.8676 47.8852 33.2465 46.5063 33.2465 44.8054C33.2465 43.1046 31.8676 41.7257 30.1667 41.7257C28.4659 41.7257 27.087 43.1046 27.087 44.8054C27.087 46.5063 28.4659 47.8852 30.1667 47.8852Z" fill="#060419"/>
</svg>