<?xml version="1.0" encoding="utf-8"?>
<svg xmlns="http://www.w3.org/2000/svg" fill="none" height="46" viewBox="0 0 191 46" width="191">
<g clip-path="url(#clip0_28_6)">
<path clip-rule="evenodd" d="M31.2387 -0.0319214C31.3231 -0.0319214 31.4076 -0.0319214 31.492 -0.0319214C31.5253 0.0786275 31.5887 0.163812 31.682 0.223634C31.8903 0.561358 32.1224 0.880802 32.3787 1.18197C32.9388 2.0567 33.5299 2.90855 34.152 3.73752C34.2583 4.04711 34.4166 4.28136 34.627 4.4403C34.7765 4.74316 34.9559 5.02001 35.1654 5.27086C36.0878 6.68376 37.0273 8.08932 37.9837 9.48752C38.265 10.0766 38.5605 10.6516 38.8704 11.2125C39.2653 12.0384 39.2442 12.8476 38.807 13.6403C38.6989 13.7385 38.6039 13.845 38.522 13.9597C38.3954 14.0449 38.2898 14.1514 38.2054 14.2792C38.0137 14.4514 37.8237 14.6218 37.6354 14.7903C37.5258 14.8239 37.4413 14.8878 37.382 14.982C36.5584 15.5361 35.735 16.0899 34.912 16.6431C34.3853 16.9608 33.8576 17.2802 33.3287 17.6014C33.0842 17.7512 32.8309 17.8896 32.5687 18.0167C33.1071 18.3375 33.6348 18.6677 34.152 19.007C34.9422 19.608 35.7655 20.1618 36.622 20.6681C36.652 20.7579 36.7153 20.8005 36.812 20.7959C37.7259 21.4385 38.6547 22.0667 39.5987 22.6806C39.3964 22.8864 39.2697 23.1313 39.2187 23.4153C39.0565 23.7291 38.9721 24.0698 38.9654 24.4375C38.9196 24.4642 38.888 24.5068 38.8704 24.5653C38.8177 27.9835 38.8282 31.3909 38.902 34.7875C38.8382 34.8724 38.7538 34.9363 38.6487 34.9792C36.1476 35.7219 33.7832 36.7122 31.5554 37.95C31.0757 38.2753 30.5902 38.5841 30.0987 38.8764C30.002 38.8718 29.9386 38.9144 29.9087 39.0042C28.8214 39.6974 27.7659 40.4853 26.742 41.3681C26.6214 41.3833 26.537 41.4472 26.4887 41.5597C26.2 41.7795 25.9255 42.0137 25.6654 42.2625C25.551 42.3096 25.4455 42.3735 25.3487 42.4542C25.2069 42.3719 25.0591 42.308 24.9054 42.2625C24.5578 42.0125 24.1989 41.7783 23.8287 41.5597C23.3997 41.2896 22.9775 41.0021 22.562 40.6972C22.4412 40.6256 22.3146 40.5723 22.182 40.5375C20.0375 39.1262 17.7153 37.9869 15.2154 37.1195C14.6585 36.979 14.1096 36.8406 13.5687 36.7042C13.577 36.657 13.5664 36.6144 13.537 36.5764C13.3239 36.5108 13.1233 36.5108 12.9354 36.5764C10.6706 36.1702 8.47505 36.3512 6.34869 37.1195C3.90596 38.3327 3.02984 40.2813 3.72036 42.9653C3.77769 43.2424 3.87269 43.4979 4.00536 43.732C4.01081 43.8711 4.05304 43.9988 4.13203 44.1153C4.36426 44.5186 4.6176 44.902 4.89203 45.2653C4.95381 45.3493 5.01715 45.4345 5.08203 45.5209C5.00159 45.5712 4.93825 45.6351 4.89203 45.7125C4.8498 45.7125 4.82869 45.7338 4.82869 45.7764C4.78647 45.7764 4.76536 45.7977 4.76536 45.8403C4.70203 45.8616 4.6598 45.9042 4.63869 45.9681C4.57536 45.9681 4.51203 45.9681 4.44869 45.9681C4.30157 45.7877 4.14324 45.6173 3.97369 45.457C3.85072 45.229 3.71349 45.016 3.56203 44.8181C3.00828 43.8183 2.64939 42.7534 2.48536 41.6236C2.47557 40.8965 2.49668 40.1725 2.54869 39.4514C2.70086 38.1921 3.13363 37.0421 3.84703 36.0014C4.0401 35.7751 4.21955 35.5408 4.38536 35.2986C4.70203 34.9366 5.0398 34.5959 5.39869 34.2764C5.69578 34.0402 5.99134 33.8059 6.28536 33.5736C6.79853 33.2473 7.32631 32.9491 7.86869 32.6792C9.62087 31.9403 11.4786 31.5675 13.442 31.5611C14.0223 31.0395 14.5818 30.4965 15.1204 29.932C15.2983 29.7426 15.4355 29.5296 15.532 29.2931C15.7521 28.9351 15.9738 28.5731 16.197 28.207C16.3423 27.7912 16.4478 27.3653 16.5137 26.9292C16.6048 24.3751 16.6365 21.8195 16.6087 19.2625C16.6364 19.2667 16.6576 19.2561 16.672 19.2306C16.6307 18.7025 16.5884 18.1808 16.5454 17.6653C16.5348 16.6003 16.5454 15.5354 16.577 14.4709C16.7507 13.0827 17.1835 11.7836 17.8754 10.5736C17.9644 10.5434 18.0066 10.4795 18.002 10.382C18.3571 9.96976 18.7054 9.54381 19.047 9.10419C19.5324 8.70597 20.0074 8.30136 20.472 7.8903C20.8028 7.64938 21.1194 7.39382 21.422 7.12363C21.6296 7.04 21.8196 6.9229 21.992 6.77225C22.5935 6.3037 23.1846 5.82454 23.7654 5.33475C24.0402 5.12134 24.3146 4.90838 24.5887 4.69586C24.6983 4.66228 24.7827 4.59839 24.842 4.50419C25.625 3.98161 26.385 3.4279 27.122 2.84308C27.4579 2.63147 27.7746 2.39721 28.072 2.1403C28.6034 1.75869 29.1311 1.39665 29.6554 1.05419C29.9514 0.84105 30.247 0.628089 30.542 0.415301C30.6387 0.419963 30.7021 0.377371 30.732 0.287523C30.9349 0.231093 31.1039 0.124611 31.2387 -0.0319214ZM27.2487 4.69586C27.4816 5.03844 27.7137 5.37918 27.9454 5.71808C28.1374 5.94557 28.2957 6.20113 28.4204 6.48475C28.6518 6.68747 28.8313 6.96436 28.9587 7.3153C29.5571 8.15397 30.106 9.02714 30.6054 9.93475C30.7686 10.1996 30.9481 10.4552 31.1437 10.7014C31.315 10.9619 31.4523 11.2387 31.5554 11.532C32.1102 12.3783 32.6063 13.2301 33.0437 14.0875C33.3854 14.8915 33.3221 15.6582 32.8537 16.3875C32.5493 16.6946 32.2432 17.0034 31.9354 17.3139C31.1754 17.8463 30.4154 18.3787 29.6554 18.9111C29.1594 19.1894 28.6738 19.4769 28.1987 19.7736C27.6372 20.0945 27.0989 20.4566 26.5837 20.8597C26.4983 17.5118 26.5721 14.1683 26.8054 10.8292C26.4043 10.8292 26.0031 10.8292 25.602 10.8292C25.7531 12.337 25.8165 13.8491 25.792 15.3653C25.792 22.2227 25.792 29.0801 25.792 35.9375C25.452 35.7237 25.1142 35.5107 24.7787 35.2986C24.2397 35.0726 23.7331 34.7958 23.2587 34.4681C23.1959 34.4791 23.1537 34.4577 23.132 34.4042C22.224 33.9738 21.3057 33.5478 20.377 33.1264C19.0766 32.6457 17.7783 32.2517 16.482 31.9445C15.8529 31.8279 15.2195 31.7427 14.582 31.6889C14.9343 31.4155 15.3143 31.1919 15.722 31.0181C15.9749 30.8479 16.2282 30.6776 16.482 30.507C16.512 30.4171 16.5753 30.3745 16.672 30.3792C17.494 29.7935 18.2963 29.1759 19.0787 28.5264C19.2687 28.2921 19.4798 28.0792 19.712 27.8875C19.7079 27.9155 19.7184 27.9368 19.7437 27.9514C19.8387 27.8556 19.9337 27.7597 20.0287 27.6639C20.0143 27.6384 19.9931 27.6278 19.9654 27.632C20.2126 27.367 20.4449 27.0901 20.662 26.8014C20.9831 26.3497 21.2786 25.8812 21.5487 25.3959C22.0596 24.421 22.3446 23.3775 22.4037 22.2653C22.4248 18.4532 22.4459 14.6412 22.467 10.8292C22.6268 9.8023 22.9435 8.8227 23.417 7.8903C23.8792 7.19053 24.3858 6.53036 24.937 5.90975C25.5898 5.29394 26.2442 4.67634 26.9004 4.05697C27.0341 4.26314 27.1502 4.4761 27.2487 4.69586ZM28.0087 22.5847C28.5815 22.8246 29.1304 23.1228 29.6554 23.4792C29.7182 23.4682 29.7604 23.4895 29.782 23.5431C30.2892 23.8202 30.7959 24.097 31.302 24.3736C31.3649 24.3626 31.407 24.384 31.4287 24.4375C31.7591 24.5785 32.0758 24.7489 32.3787 24.9486C32.3998 25.0125 32.4209 25.0764 32.442 25.1403C32.3815 28.8457 32.3077 32.5513 32.2204 36.257C31.9057 36.4208 31.5996 36.5912 31.302 36.7681C30.7793 37.0402 30.2726 37.3384 29.782 37.6625C29.7521 37.7524 29.6887 37.795 29.592 37.7903C29.4875 37.8842 29.3713 37.9694 29.2437 38.0459C28.652 37.6713 28.0715 37.2879 27.502 36.8959C27.1835 36.7296 26.8774 36.538 26.5837 36.3209C26.5414 31.4653 26.5414 26.6097 26.5837 21.7542C27.053 22.0478 27.528 22.3247 28.0087 22.5847Z" fill="#060419" fill-rule="evenodd" opacity="0.983"/>
<path clip-rule="evenodd" d="M31.682 0.159729C31.7664 0.202322 31.7664 0.202322 31.682 0.159729Z" fill="black" fill-rule="evenodd" opacity="0.01"/>
<path clip-rule="evenodd" d="M30.732 0.287522C30.6898 0.202337 30.6898 0.202337 30.732 0.287522Z" fill="black" fill-rule="evenodd" opacity="0.01"/>
<path clip-rule="evenodd" d="M30.5421 0.415268C30.4998 0.330083 30.4998 0.330083 30.5421 0.415268Z" fill="black" fill-rule="evenodd" opacity="0.01"/>
<path clip-rule="evenodd" d="M18.9521 4.75974C16.0735 6.63781 14.3846 9.2892 13.8854 12.7139C13.803 13.3609 13.7502 14.0104 13.7271 14.6625C13.706 18.0912 13.6848 21.5199 13.6637 24.9486C13.458 26.051 13.0252 27.0519 12.3654 27.9514C12.1565 28.2261 11.9243 28.4817 11.6687 28.7181C11.6265 28.7181 11.6054 28.7393 11.6054 28.782C11.3269 29.0633 11.0314 29.3189 10.7187 29.5486C9.85367 30.1233 8.92483 30.5812 7.93208 30.9222C7.06173 31.1678 6.17506 31.285 5.27208 31.2736C5.27208 31.0607 5.27208 30.8477 5.27208 30.6347C5.58388 30.6995 5.87944 30.657 6.15874 30.507C6.46368 30.4065 6.73813 30.2575 6.98208 30.0597C7.48279 29.6915 7.83112 29.2018 8.02708 28.5903C8.59049 26.8785 8.791 25.1322 8.62874 23.3514C8.52823 23.1746 8.41214 23.0042 8.28041 22.8403C8.16787 22.694 8.03062 22.5875 7.86874 22.5208C7.44783 22.1061 6.94118 21.8399 6.34874 21.7222C5.34397 21.4828 4.35175 21.5254 3.37208 21.85C3.08429 21.9703 2.83095 22.1406 2.61208 22.3611C2.46705 22.4747 2.36149 22.6131 2.29541 22.7764C1.85779 23.5014 1.81557 24.2468 2.16874 25.0125C2.22239 25.1825 2.25406 25.3528 2.26374 25.5236C2.07083 25.7012 1.84916 25.797 1.59875 25.8111C1.21198 25.2552 0.95865 24.6482 0.838745 23.9903C0.838745 23.4366 0.838745 22.8829 0.838745 22.3292C0.933637 22.0411 1.01808 21.7429 1.09208 21.4347C1.2358 21.191 1.37302 20.9354 1.50375 20.6681C1.74698 20.4439 1.96864 20.1991 2.16874 19.9333C2.44 19.7663 2.69333 19.5746 2.92874 19.3583C3.19538 19.2555 3.44871 19.1384 3.68874 19.007C4.20591 18.8558 4.73368 18.7706 5.27208 18.7514C5.71059 18.7672 6.15392 18.7459 6.60208 18.6875C7.24029 18.7354 7.86304 18.8632 8.47041 19.0708C8.46807 17.4498 8.65807 15.8526 9.04041 14.2792C9.13889 13.9021 9.27614 13.5188 9.45208 13.1292C9.73537 12.5151 10.052 11.9188 10.4021 11.3403C11.3691 10.0879 12.4669 8.95915 13.6954 7.95418C13.9925 7.71798 14.2881 7.4837 14.5821 7.2514C14.6916 7.2178 14.7761 7.15391 14.8354 7.05974C15.0699 6.96237 15.281 6.82399 15.4687 6.64446C14.4368 6.41427 13.4024 6.21193 12.3654 6.03751C12.2251 5.98845 12.0774 5.94586 11.9221 5.90974C11.8434 5.94445 11.759 5.96575 11.6687 5.97362C10.0714 5.6826 8.46699 5.65065 6.85541 5.87779C6.16121 6.05457 5.50677 6.33141 4.89208 6.70835C4.60669 6.97495 4.3428 7.26245 4.10041 7.57085C3.99014 7.75031 3.91625 7.94198 3.87874 8.14585C3.79791 8.27759 3.74513 8.4267 3.72041 8.59307C3.62226 9.32044 3.7067 10.0232 3.97374 10.7014C4.18266 11.0272 4.38321 11.3573 4.57541 11.6917C4.43819 11.9153 4.25874 12.0963 4.03708 12.2347C3.8677 12.0108 3.68826 11.7979 3.49874 11.5958C2.93819 10.8898 2.62153 10.0805 2.54874 9.16807C2.48807 8.42594 2.46696 7.68054 2.48541 6.93196C2.66112 5.59856 3.17835 4.42726 4.03708 3.41807C4.29048 3.23694 4.51215 3.02398 4.70208 2.77918C5.14508 2.44912 5.60953 2.15098 6.09541 1.88474C6.15821 1.8957 6.20044 1.8744 6.22208 1.82085C7.76285 1.1552 9.37785 0.835756 11.0671 0.862513C12.0313 0.889027 12.9919 0.963566 13.9487 1.08612C15.7119 1.32599 17.4431 1.60284 19.1421 1.91668C20.4277 2.03153 21.7156 2.10607 23.0054 2.14029C23.0279 2.30427 23.0701 2.464 23.1321 2.61946C23.1229 2.66878 23.1018 2.71137 23.0687 2.74724C21.5969 3.23036 20.2246 3.90119 18.9521 4.75974Z" fill="#060419" fill-rule="evenodd" opacity="0.982"/>
<path clip-rule="evenodd" d="M29.6553 1.05418C29.6131 0.969 29.6131 0.969 29.6553 1.05418Z" fill="black" fill-rule="evenodd" opacity="0.01"/>
<path clip-rule="evenodd" d="M32.3787 1.11804C32.4631 1.16064 32.4631 1.16064 32.3787 1.11804Z" fill="black" fill-rule="evenodd" opacity="0.01"/>
<path clip-rule="evenodd" d="M6.22198 1.82085C6.17975 1.73566 6.17975 1.73566 6.22198 1.82085Z" fill="black" fill-rule="evenodd" opacity="0.01"/>
<path clip-rule="evenodd" d="M6.09539 1.88475C6.05316 1.79957 6.05316 1.79957 6.09539 1.88475Z" fill="black" fill-rule="evenodd" opacity="0.01"/>
<path clip-rule="evenodd" d="M28.0721 2.1403C28.0298 2.05512 28.0298 2.05512 28.0721 2.1403Z" fill="black" fill-rule="evenodd" opacity="0.01"/>
<path clip-rule="evenodd" d="M4.70208 2.77916C4.65985 2.69398 4.65985 2.69398 4.70208 2.77916Z" fill="black" fill-rule="evenodd" opacity="0.01"/>
<path clip-rule="evenodd" d="M27.122 2.84306C27.0798 2.75788 27.0798 2.75788 27.122 2.84306Z" fill="black" fill-rule="evenodd" opacity="0.01"/>
<path clip-rule="evenodd" d="M34.152 3.67358C34.2364 3.71618 34.2364 3.71618 34.152 3.67358Z" fill="black" fill-rule="evenodd" opacity="0.01"/>
<path clip-rule="evenodd" d="M24.842 4.50419C24.7997 4.41901 24.7997 4.41901 24.842 4.50419Z" fill="black" fill-rule="evenodd" opacity="0.01"/>
<path clip-rule="evenodd" d="M24.5887 4.69585C24.5464 4.61066 24.5464 4.61066 24.5887 4.69585Z" fill="black" fill-rule="evenodd" opacity="0.01"/>
<path clip-rule="evenodd" d="M18.952 4.7597C19.0364 4.8023 19.0364 4.8023 18.952 4.7597Z" fill="black" fill-rule="evenodd" opacity="0.01"/>
<path clip-rule="evenodd" d="M35.1654 5.20697C35.2498 5.24956 35.2498 5.24956 35.1654 5.20697Z" fill="black" fill-rule="evenodd" opacity="0.01"/>
<path clip-rule="evenodd" d="M23.7653 5.3347C23.7231 5.24952 23.7231 5.24952 23.7653 5.3347Z" fill="black" fill-rule="evenodd" opacity="0.01"/>
<path clip-rule="evenodd" d="M11.922 5.90973C12.0773 5.94585 12.225 5.98845 12.3653 6.03751C12.1824 6.0701 12.0347 6.02751 11.922 5.90973Z" fill="black" fill-rule="evenodd" opacity="0.056"/>
<path clip-rule="evenodd" d="M2.48533 6.93195C2.46688 7.68053 2.48799 8.42592 2.54866 9.16806C2.50956 9.16097 2.4779 9.13969 2.45366 9.10417C2.40136 8.36893 2.41191 7.64488 2.48533 6.93195Z" fill="black" fill-rule="evenodd" opacity="0.048"/>
<path clip-rule="evenodd" d="M14.8354 7.05972C14.7932 6.97456 14.7932 6.97456 14.8354 7.05972Z" fill="black" fill-rule="evenodd" opacity="0.01"/>
<path clip-rule="evenodd" d="M21.4221 7.12363C21.3798 7.03846 21.3798 7.03846 21.4221 7.12363Z" fill="black" fill-rule="evenodd" opacity="0.01"/>
<path clip-rule="evenodd" d="M14.582 7.25137C14.5397 7.16621 14.5397 7.16621 14.582 7.25137Z" fill="black" fill-rule="evenodd" opacity="0.01"/>
<path clip-rule="evenodd" d="M20.472 7.89029C20.4297 7.80513 20.4297 7.80513 20.472 7.89029Z" fill="black" fill-rule="evenodd" opacity="0.01"/>
<path clip-rule="evenodd" d="M13.6954 7.95419C13.6531 7.86903 13.6531 7.86903 13.6954 7.95419Z" fill="black" fill-rule="evenodd" opacity="0.01"/>
<path clip-rule="evenodd" d="M3.87866 8.14581C3.9631 8.18843 3.9631 8.18843 3.87866 8.14581Z" fill="black" fill-rule="evenodd" opacity="0.01"/>
<path clip-rule="evenodd" d="M18.002 10.3819C17.9598 10.2968 17.9598 10.2968 18.002 10.3819Z" fill="black" fill-rule="evenodd" opacity="0.01"/>
<path clip-rule="evenodd" d="M17.8753 10.5736C17.8331 10.4885 17.8331 10.4885 17.8753 10.5736Z" fill="black" fill-rule="evenodd" opacity="0.01"/>
<path clip-rule="evenodd" d="M10.402 11.3403C10.3598 11.2551 10.3598 11.2551 10.402 11.3403Z" fill="black" fill-rule="evenodd" opacity="0.01"/>
<path clip-rule="evenodd" d="M3.49871 11.5958C3.45648 11.6384 3.45648 11.6384 3.49871 11.5958Z" fill="black" fill-rule="evenodd" opacity="0.01"/>
<path clip-rule="evenodd" d="M9.45197 13.1292C9.40973 13.044 9.40973 13.044 9.45197 13.1292Z" fill="black" fill-rule="evenodd" opacity="0.01"/>
<path clip-rule="evenodd" d="M38.522 13.9597C38.6064 14.0023 38.6064 14.0023 38.522 13.9597Z" fill="black" fill-rule="evenodd" opacity="0.01"/>
<path clip-rule="evenodd" d="M38.2053 14.2792C38.2897 14.3218 38.2897 14.3218 38.2053 14.2792Z" fill="black" fill-rule="evenodd" opacity="0.01"/>
<path clip-rule="evenodd" d="M37.6354 14.7903C37.7198 14.8329 37.7198 14.8329 37.6354 14.7903Z" fill="black" fill-rule="evenodd" opacity="0.01"/>
<path clip-rule="evenodd" d="M37.3821 14.9819C37.4665 15.0245 37.4665 15.0245 37.3821 14.9819Z" fill="black" fill-rule="evenodd" opacity="0.01"/>
<path clip-rule="evenodd" d="M25.792 15.3653C25.8451 22.2794 25.8768 29.2006 25.887 36.1292C25.8545 36.0636 25.8228 35.9997 25.792 35.9375C25.792 29.0801 25.792 22.2227 25.792 15.3653Z" fill="black" fill-rule="evenodd" opacity="0.052"/>
<path clip-rule="evenodd" d="M34.912 16.6431C34.9964 16.6857 34.9964 16.6857 34.912 16.6431Z" fill="black" fill-rule="evenodd" opacity="0.01"/>
<path clip-rule="evenodd" d="M33.3287 17.6014C33.4132 17.644 33.4132 17.644 33.3287 17.6014Z" fill="black" fill-rule="evenodd" opacity="0.01"/>
<path clip-rule="evenodd" d="M16.5454 17.6653C16.5884 18.1807 16.6307 18.7025 16.672 19.2306C16.6576 19.2561 16.6365 19.2667 16.6087 19.2625C16.5458 18.7418 16.5247 18.2094 16.5454 17.6653Z" fill="black" fill-rule="evenodd" opacity="0.056"/>
<path clip-rule="evenodd" d="M6.60197 18.6875C6.15382 18.7459 5.71049 18.7672 5.27197 18.7514C5.46819 18.667 5.68986 18.6244 5.93697 18.6236C6.17025 18.6237 6.39191 18.645 6.60197 18.6875Z" fill="#010101" fill-rule="evenodd" opacity="0.124"/>
<path clip-rule="evenodd" d="M3.68865 19.0069C3.64643 18.9218 3.64643 18.9218 3.68865 19.0069Z" fill="black" fill-rule="evenodd" opacity="0.01"/>
<path clip-rule="evenodd" d="M34.152 18.9431C34.2364 18.9857 34.2364 18.9857 34.152 18.9431Z" fill="black" fill-rule="evenodd" opacity="0.01"/>
<path clip-rule="evenodd" d="M36.6221 20.6042C36.7065 20.6468 36.7065 20.6468 36.6221 20.6042Z" fill="black" fill-rule="evenodd" opacity="0.01"/>
<path clip-rule="evenodd" d="M36.812 20.7319C36.8964 20.7745 36.8964 20.7745 36.812 20.7319Z" fill="black" fill-rule="evenodd" opacity="0.01"/>
<path clip-rule="evenodd" d="M1.09197 21.4347C1.04975 21.3496 1.04975 21.3496 1.09197 21.4347Z" fill="black" fill-rule="evenodd" opacity="0.01"/>
<path clip-rule="evenodd" d="M7.86872 22.5208C7.82648 22.5634 7.82648 22.5634 7.86872 22.5208Z" fill="black" fill-rule="evenodd" opacity="0.01"/>
<path clip-rule="evenodd" d="M111.482 24.2458C111.631 24.5037 111.811 24.738 112.02 24.9486C112.236 25.3402 112.415 25.7448 112.559 26.1625C111.837 26.4764 111.098 26.7533 110.342 26.993C109.914 25.5831 108.964 24.7951 107.492 24.6292C107.042 24.7199 106.598 24.837 106.162 24.9805C105.989 25.0461 105.841 25.1419 105.719 25.268C105.676 25.268 105.655 25.2893 105.655 25.3319C105.448 25.5092 105.248 25.7008 105.054 25.9069C104.985 26.0077 104.931 26.1142 104.895 26.2264C104.598 26.7664 104.408 27.3414 104.325 27.9514C104.28 28.0611 104.237 28.1783 104.199 28.3028C104.277 28.623 104.277 28.9638 104.199 29.325C104.237 29.5073 104.28 29.6883 104.325 29.868C104.244 29.9589 104.266 30.0228 104.389 30.0597C104.918 32.4999 106.375 33.3837 108.759 32.7111C109.165 32.5156 109.481 32.2281 109.709 31.8486C110.077 31.4265 110.33 30.9367 110.469 30.3792C109.519 30.3153 108.569 30.294 107.619 30.3153C107.559 29.6081 107.538 28.9053 107.555 28.2069C107.598 28.2069 107.64 28.2069 107.682 28.2069C109.445 28.2601 111.218 28.292 113.002 28.3028C113.036 28.3486 113.079 28.3805 113.129 28.3986C113.214 29.9715 112.844 31.4196 112.02 32.743C111.773 32.9676 111.573 33.2232 111.419 33.5097C111.376 33.5097 111.355 33.531 111.355 33.5736C111.313 33.5736 111.292 33.5949 111.292 33.6375C109.203 35.4412 106.944 35.6861 104.515 34.3722C104.258 34.2216 104.026 34.0405 103.819 33.8292C102.066 31.9777 101.444 29.7842 101.95 27.2486C102.102 26.4117 102.408 25.645 102.869 24.9486C103.333 24.3523 103.861 23.8199 104.452 23.3514C106.105 22.3566 107.857 22.2182 109.709 22.9361C110.015 23.1439 110.331 23.3355 110.659 23.5111C110.944 23.7456 111.218 23.9905 111.482 24.2458Z" fill="#060419" fill-rule="evenodd" opacity="0.975"/>
<path clip-rule="evenodd" d="M2.29541 22.7764C2.37985 22.819 2.37985 22.819 2.29541 22.7764Z" fill="black" fill-rule="evenodd" opacity="0.01"/>
<path clip-rule="evenodd" d="M56.002 23.3514C56.2976 23.607 56.572 23.8838 56.8254 24.182C56.9277 24.4703 57.0543 24.7471 57.2054 25.0125C57.1921 25.05 57.171 25.0819 57.142 25.1083C57.294 25.5956 57.3045 26.0961 57.1737 26.6097C56.9118 27.4489 56.3734 28.0132 55.5587 28.3028C56.1253 28.4605 56.6109 28.748 57.0154 29.1653C57.4081 29.5958 57.6509 30.1069 57.7437 30.6986C58.038 32.361 57.4786 33.6175 56.0654 34.4681C55.5928 34.6351 55.1072 34.7523 54.6087 34.8195C52.4766 34.8514 50.3443 34.8621 48.212 34.8514C48.212 30.8264 48.212 26.8014 48.212 22.7764C50.2388 22.7657 52.2655 22.7764 54.292 22.8083C54.885 22.9048 55.455 23.0858 56.002 23.3514ZM50.6187 24.757C51.5695 24.7495 52.5195 24.7708 53.4687 24.8208C54.1598 24.8906 54.6137 25.2527 54.8304 25.907C54.872 26.1671 54.851 26.4227 54.767 26.6736C54.4913 27.1655 54.0797 27.453 53.532 27.5361C52.7932 27.569 52.0543 27.6009 51.3154 27.632C51.0506 27.6319 50.7972 27.6106 50.5554 27.5681C50.6184 26.6423 50.6395 25.7053 50.6187 24.757ZM50.5554 29.4847C51.6868 29.395 52.8268 29.4056 53.9754 29.5167C54.4905 29.6016 54.8705 29.8678 55.1154 30.3153C55.4413 30.9173 55.4518 31.5349 55.147 32.1681C54.8641 32.5291 54.4946 32.7314 54.0387 32.775C52.8667 32.828 51.7056 32.8173 50.5554 32.7431C50.6398 31.657 50.6398 30.5708 50.5554 29.4847Z" fill="#060419" fill-rule="evenodd" opacity="0.969"/>
<path clip-rule="evenodd" d="M114.459 22.7764C115.155 22.7764 115.852 22.7764 116.549 22.7764C116.549 26.8014 116.549 30.8264 116.549 34.8514C115.852 34.8514 115.155 34.8514 114.459 34.8514C114.459 30.8264 114.459 26.8014 114.459 22.7764Z" fill="#060419" fill-rule="evenodd" opacity="0.96"/>
<path clip-rule="evenodd" d="M134.092 26.7375C134.366 26.9718 134.62 27.2273 134.852 27.5041C135.645 28.7028 135.93 30.0232 135.707 31.4653C135.418 33.2561 134.436 34.4593 132.762 35.075C131.54 35.3908 130.516 35.0821 129.69 34.1486C129.659 34.3819 129.648 34.6161 129.659 34.8514C128.941 34.8514 128.223 34.8514 127.505 34.8514C127.505 30.8264 127.505 26.8014 127.505 22.7764C128.223 22.7764 128.941 22.7764 129.659 22.7764C129.648 24.1395 129.659 25.5024 129.69 26.8653C130.635 26.1081 131.701 25.8632 132.889 26.1305C133.309 26.2998 133.71 26.5022 134.092 26.7375ZM131.875 33.0625C131.685 33.0625 131.495 33.0625 131.305 33.0625C130.34 32.8654 129.801 32.269 129.69 31.2736C129.62 30.5835 129.663 29.902 129.817 29.2291C130.153 28.4688 130.733 28.0641 131.559 28.0153C132.879 28.2019 133.533 29.0006 133.522 30.4111C133.528 31.1021 133.369 31.7517 133.047 32.3597C132.742 32.7414 132.352 32.9757 131.875 33.0625Z" fill="#060419" fill-rule="evenodd" opacity="0.972"/>
<path clip-rule="evenodd" d="M153.599 30.8264C153.631 31.0854 153.684 31.3409 153.757 31.5931C154.514 28.6888 155.242 25.7712 155.942 22.8403C157.084 22.7986 158.203 22.8412 159.299 22.9681C159.235 26.9397 159.214 30.9221 159.235 34.9153C158.513 34.9352 157.794 34.9138 157.082 34.8514C157.103 32.0187 157.082 29.1863 157.019 26.3542C156.98 26.3621 156.959 26.3834 156.955 26.4181C156.806 27.1883 156.638 27.9549 156.449 28.7181C156.111 29.889 155.784 31.0603 155.467 32.232C155.256 33.1264 155.045 34.0209 154.834 34.9153C154.11 34.9784 153.382 34.9997 152.649 34.9792C151.956 32.1358 151.228 29.3034 150.464 26.482C150.432 29.2717 150.421 32.0615 150.432 34.8514C149.698 34.9139 148.959 34.9352 148.215 34.9153C148.215 30.8903 148.215 26.8653 148.215 22.8403C149.314 22.819 150.412 22.8403 151.509 22.9042C152.187 25.5334 152.884 28.1741 153.599 30.8264Z" fill="#060419" fill-rule="evenodd" opacity="0.976"/>
<path clip-rule="evenodd" d="M177.919 34.8514C177.227 34.9138 176.53 34.9351 175.829 34.9153C175.839 34.7012 175.829 34.4883 175.797 34.2764C175.667 34.4191 175.529 34.5469 175.385 34.6597C174.357 35.2855 173.27 35.392 172.124 34.9792C170.811 34.347 170.041 33.3035 169.812 31.8486C169.819 31.8092 169.84 31.7772 169.875 31.7528C169.836 31.5862 169.794 31.4265 169.749 31.2736C169.68 30.7929 169.69 30.3031 169.78 29.8042C169.916 29.3866 170.032 28.9606 170.129 28.5264C171.141 26.44 172.767 25.7052 175.005 26.3222C175.287 26.5 175.551 26.7024 175.797 26.9292C175.829 25.5663 175.839 24.2034 175.829 22.8403C176.525 22.8403 177.222 22.8403 177.919 22.8403C177.919 26.844 177.919 30.8477 177.919 34.8514ZM173.485 28.143C173.76 28.143 174.034 28.143 174.309 28.143C174.858 28.2565 175.249 28.5759 175.48 29.1014C175.934 30.1469 175.934 31.1904 175.48 32.2319C175.436 32.3651 175.363 32.4716 175.259 32.5514C175.263 32.5234 175.252 32.5021 175.227 32.4875C175.153 32.5621 175.079 32.6365 175.005 32.7111C175.02 32.7366 175.041 32.7472 175.069 32.743C174.886 32.9151 174.686 33.0642 174.467 33.1903C174.441 33.1611 174.409 33.1397 174.372 33.1264C173.994 33.2944 173.614 33.2838 173.232 33.0944C173.026 33.0231 172.857 32.906 172.725 32.743C172.193 32.1428 171.939 31.4294 171.965 30.6028C171.924 29.8414 172.155 29.1918 172.662 28.6542C172.699 28.7211 172.741 28.7104 172.789 28.6222C172.774 28.5967 172.753 28.5861 172.725 28.5903C172.754 28.5291 172.796 28.4758 172.852 28.4305C173.067 28.327 173.278 28.2312 173.485 28.143Z" fill="#060419" fill-rule="evenodd" opacity="0.971"/>
<path clip-rule="evenodd" d="M179.502 22.968C180.166 22.894 180.842 22.8834 181.529 22.9361C181.56 22.968 181.592 23 181.624 23.0319C181.676 23.7458 181.665 24.4486 181.592 25.1403C181.599 24.4719 181.588 23.7904 181.56 23.0958C181.529 23.0639 181.497 23.0319 181.465 23C180.811 22.968 180.157 22.9574 179.502 22.968Z" fill="black" fill-rule="evenodd" opacity="0.017"/>
<path clip-rule="evenodd" d="M159.299 22.9681C159.299 26.9718 159.299 30.9755 159.299 34.9792C158.527 35.0001 157.767 34.9789 157.019 34.9153C157.061 34.9153 157.082 34.894 157.082 34.8514C157.795 34.9138 158.513 34.9352 159.235 34.9153C159.214 30.9221 159.235 26.9397 159.299 22.9681Z" fill="black" fill-rule="evenodd" opacity="0.067"/>
<path clip-rule="evenodd" d="M179.502 22.968C180.157 22.9574 180.811 22.968 181.465 23C181.497 23.0319 181.529 23.0639 181.56 23.0958C181.588 23.7903 181.599 24.4718 181.592 25.1402C180.874 25.1402 180.156 25.1402 179.439 25.1402C179.418 24.4048 179.439 23.6806 179.502 22.968Z" fill="#060419" fill-rule="evenodd" opacity="0.901"/>
<path clip-rule="evenodd" d="M79.3721 23.2236C79.4563 23.2662 79.4563 23.2662 79.3721 23.2236Z" fill="black" fill-rule="evenodd" opacity="0.01"/>
<path clip-rule="evenodd" d="M56.0021 23.2875C56.0865 23.3301 56.0865 23.3301 56.0021 23.2875Z" fill="black" fill-rule="evenodd" opacity="0.01"/>
<path clip-rule="evenodd" d="M79.372 23.2875C79.3511 24.2996 79.372 25.3006 79.4354 26.2903C79.9845 26.2903 80.5329 26.2903 81.082 26.2903C81.0618 26.7706 81.0827 27.2391 81.1454 27.6958C81.1454 27.7597 81.1454 27.8236 81.1454 27.8875C80.5545 27.8875 79.9629 27.8875 79.372 27.8875C79.3613 29.3145 79.372 30.7413 79.4037 32.168C79.4157 32.3301 79.4474 32.4791 79.4987 32.6153C79.4816 32.7354 79.524 32.8205 79.6254 32.8708C79.8268 33.022 80.0592 33.0859 80.322 33.0625C80.583 33.0609 80.8363 33.0183 81.082 32.9347C81.1454 33.5508 81.1663 34.1684 81.1454 34.7875C80.937 34.8326 80.7261 34.8539 80.512 34.8514C79.9712 34.9093 79.4221 34.9306 78.8654 34.9153C78.5202 34.8348 78.1826 34.7283 77.852 34.5958C77.4993 34.2682 77.2776 33.8636 77.187 33.3819C77.1554 31.5505 77.1446 29.7191 77.1554 27.8875C76.7545 27.8875 76.3529 27.8875 75.952 27.8875C75.952 27.3338 75.952 26.7801 75.952 26.2264C76.3529 26.2264 76.7545 26.2264 77.1554 26.2264C77.1554 25.2468 77.1554 24.2671 77.1554 23.2875C77.8945 23.2875 78.6329 23.2875 79.372 23.2875Z" fill="#060419" fill-rule="evenodd" opacity="0.973"/>
<path clip-rule="evenodd" d="M104.452 23.3514C104.41 23.2662 104.41 23.2662 104.452 23.3514Z" fill="black" fill-rule="evenodd" opacity="0.01"/>
<path clip-rule="evenodd" d="M8.62873 23.3514C8.58649 23.394 8.58649 23.394 8.62873 23.3514Z" fill="black" fill-rule="evenodd" opacity="0.01"/>
<path clip-rule="evenodd" d="M39.2188 23.4153C39.3032 23.4579 39.3032 23.4579 39.2188 23.4153Z" fill="black" fill-rule="evenodd" opacity="0.01"/>
<path clip-rule="evenodd" d="M56.8253 24.118C56.9097 24.1607 56.9097 24.1607 56.8253 24.118Z" fill="black" fill-rule="evenodd" opacity="0.01"/>
<path clip-rule="evenodd" d="M111.482 24.1819C111.566 24.2246 111.566 24.2246 111.482 24.1819Z" fill="black" fill-rule="evenodd" opacity="0.01"/>
<path clip-rule="evenodd" d="M38.9653 24.4375C38.9028 27.8856 38.8817 31.3356 38.902 34.7875C38.8282 31.3908 38.8176 27.9835 38.8703 24.5653C38.8879 24.5068 38.9196 24.4642 38.9653 24.4375Z" fill="#040404" fill-rule="evenodd" opacity="0.202"/>
<path clip-rule="evenodd" d="M50.6187 24.7569C50.6395 25.7052 50.6184 26.6423 50.5554 27.5681C50.4818 26.6207 50.4713 25.6624 50.5237 24.6931C50.548 24.7286 50.5796 24.7499 50.6187 24.7569Z" fill="#010303" fill-rule="evenodd" opacity="0.174"/>
<path clip-rule="evenodd" d="M50.6187 24.7569C50.9769 24.7144 51.3464 24.6931 51.727 24.6931C52.321 24.6839 52.9015 24.7265 53.4687 24.8208C52.5195 24.7707 51.5695 24.7495 50.6187 24.7569Z" fill="black" fill-rule="evenodd" opacity="0.045"/>
<path clip-rule="evenodd" d="M102.869 24.9486C102.826 24.8635 102.826 24.8635 102.869 24.9486Z" fill="black" fill-rule="evenodd" opacity="0.01"/>
<path clip-rule="evenodd" d="M2.1687 24.9486C2.25314 24.9912 2.25314 24.9912 2.1687 24.9486Z" fill="black" fill-rule="evenodd" opacity="0.01"/>
<path clip-rule="evenodd" d="M105.719 25.2681C105.803 25.3107 105.803 25.3107 105.719 25.2681Z" fill="black" fill-rule="evenodd" opacity="0.01"/>
<path clip-rule="evenodd" d="M105.655 25.332C105.676 25.332 105.698 25.332 105.719 25.332C105.707 25.3748 105.686 25.3748 105.655 25.332Z" fill="black" fill-rule="evenodd" opacity="0.01"/>
<path clip-rule="evenodd" d="M65.3754 26.7375C65.7104 26.9692 66.0062 27.2461 66.2621 27.5681C67.0531 28.6679 67.359 29.9031 67.1804 31.2736C67.0835 32.1499 66.777 32.9379 66.2621 33.6375C65.979 33.9354 65.6838 34.2123 65.3754 34.4681C63.7047 35.413 62.0369 35.4024 60.3721 34.4361C58.6055 32.9869 58.0461 31.1448 58.6937 28.9097C59.6261 26.7511 61.2622 25.8034 63.6021 26.0667C63.9118 26.1262 64.2177 26.2007 64.5204 26.2903C64.7921 26.4701 65.0771 26.6191 65.3754 26.7375ZM64.2354 28.5903C64.896 29.3315 65.1392 30.2047 64.9637 31.2097C64.8915 31.7383 64.6699 32.1856 64.2987 32.5514C64.262 32.4845 64.2202 32.4952 64.1721 32.5833C64.1865 32.6088 64.2075 32.6194 64.2354 32.6153C63.8757 32.9531 63.4429 33.1235 62.9371 33.1264C62.2576 33.1137 61.6876 32.8581 61.2271 32.3597C61.156 32.2379 61.1032 32.1101 61.0687 31.9764C61.0156 31.9545 60.9945 31.912 61.0054 31.8486C60.8938 31.6568 60.8199 31.4438 60.7837 31.2097C60.6284 30.3184 60.7762 29.4879 61.2271 28.7181C61.6885 28.2621 62.2163 28.0065 62.8104 27.9514C63.1587 27.9748 63.486 28.0707 63.7921 28.2389C63.9672 28.3265 64.115 28.4436 64.2354 28.5903Z" fill="#060419" fill-rule="evenodd" opacity="0.972"/>
<path clip-rule="evenodd" d="M73.482 28.782C73.4668 28.6603 73.4035 28.5751 73.292 28.5264C72.5814 27.8371 71.7372 27.6135 70.7587 27.8556C70.1083 28.0802 69.9607 28.4849 70.3154 29.0695C70.5161 29.1797 70.7277 29.2648 70.9487 29.325C71.4972 29.4279 72.0463 29.5237 72.5954 29.6125C72.7398 29.7226 72.9089 29.7652 73.102 29.7403C73.5549 29.8499 73.9982 29.999 74.432 30.1875C75.3472 30.9446 75.6322 31.9029 75.287 33.0625C74.8462 34.0289 74.1179 34.6678 73.102 34.9792C71.292 35.4006 69.6029 35.1131 68.0354 34.1167C67.8422 33.9433 67.6731 33.7516 67.5287 33.5417C67.5946 33.4667 67.6579 33.3921 67.7187 33.3181C68.0075 33.0984 68.2817 32.8641 68.542 32.6153C68.7289 32.502 68.9081 32.3742 69.0804 32.232C69.2089 32.4572 69.3882 32.6276 69.6187 32.7431C70.5244 33.39 71.4953 33.5071 72.532 33.0945C72.9975 32.8698 73.1343 32.5184 72.9437 32.0403C72.8297 31.9242 72.6923 31.8497 72.532 31.8167C71.5193 31.6517 70.5269 31.4175 69.5554 31.1139C69.1868 30.96 68.8486 30.7577 68.542 30.507C67.8213 29.74 67.6522 28.8562 68.0354 27.8556C68.6408 26.8466 69.5275 26.2503 70.6954 26.0667C72.4598 25.7796 73.9482 26.2801 75.1604 27.5681C75.2028 27.632 75.2028 27.6959 75.1604 27.7598C74.6778 28.1935 74.2028 28.6407 73.7354 29.1014C73.6511 28.9927 73.5663 28.8862 73.482 28.782Z" fill="#060419" fill-rule="evenodd" opacity="0.972"/>
<path clip-rule="evenodd" d="M89.5687 27.5681C89.8017 27.9637 90.0234 28.3683 90.2337 28.782C90.658 30.2308 90.5845 31.6257 90.012 32.9667C89.8043 33.1832 89.6352 33.4281 89.5053 33.7014C89.4629 33.7014 89.442 33.7227 89.442 33.7653C88.1696 35.0472 86.6496 35.4625 84.882 35.0111C84.4279 34.8268 83.9846 34.6245 83.552 34.4042C83.3424 34.2144 83.1315 34.0227 82.9187 33.8292C81.8198 32.4304 81.493 30.8545 81.937 29.1014C82.2176 28.1732 82.735 27.4065 83.4887 26.8014C83.9732 26.5252 84.4798 26.3016 85.0087 26.1306C86.8111 25.7465 88.3311 26.2257 89.5687 27.5681ZM86.4653 33.1264C86.1683 33.1239 85.8725 33.1026 85.5787 33.0625C85.2557 32.9739 84.9808 32.8036 84.7553 32.5514C84.552 32.3771 84.3937 32.1642 84.2803 31.9125C83.7528 30.7835 83.8478 29.7187 84.5653 28.7181C84.5609 28.7461 84.5717 28.7674 84.597 28.782C84.6496 28.7288 84.7028 28.6755 84.7553 28.6223C84.7408 28.5968 84.7199 28.5862 84.692 28.5903C84.8839 28.3816 85.1056 28.2112 85.357 28.0792C85.3779 28.1005 85.3994 28.1218 85.4203 28.1431C85.7237 27.974 86.0511 27.9207 86.402 27.9834C87.1031 28.1379 87.6205 28.5319 87.9537 29.1653C88.1107 29.6458 88.2266 30.1355 88.302 30.6348C88.2646 31.3938 88.0113 32.0646 87.542 32.6473C87.2076 32.8803 86.8485 33.04 86.4653 33.1264Z" fill="#060419" fill-rule="evenodd" opacity="0.973"/>
<path clip-rule="evenodd" d="M97.992 26.5458C98.6006 27.0282 98.9281 27.6671 98.9737 28.4625C99.0053 30.592 99.0161 32.7216 99.0053 34.8514C98.3087 34.8514 97.612 34.8514 96.9153 34.8514C96.9261 33.0624 96.9153 31.2735 96.8837 29.4847C96.6398 28.3232 95.9533 27.9292 94.8253 28.3028C94.287 28.5491 93.9703 28.9643 93.8753 29.5486C93.8247 29.6414 93.793 29.7478 93.7803 29.8681C93.7487 31.529 93.7379 33.1901 93.7487 34.8514C93.0096 34.8514 92.2711 34.8514 91.532 34.8514C91.5111 31.9869 91.532 29.1331 91.5953 26.2903C92.3154 26.2732 93.033 26.2945 93.7487 26.3542C93.7379 26.5894 93.7487 26.8236 93.7803 27.0569C94.7924 26.0713 95.985 25.7838 97.3587 26.1944C97.5797 26.3018 97.7906 26.4189 97.992 26.5458Z" fill="#060419" fill-rule="evenodd" opacity="0.971"/>
<path clip-rule="evenodd" d="M124.275 26.5458C125.56 27.3264 126.289 28.4764 126.46 29.9958C126.593 31.1998 126.34 32.3072 125.7 33.318C124.956 34.3486 123.954 34.9448 122.692 35.1069C122.312 35.1069 121.932 35.1069 121.552 35.1069C121.25 35.0947 120.954 35.0414 120.665 34.9472C120.401 34.803 120.126 34.6752 119.842 34.5639C119.511 34.3863 119.215 34.1627 118.955 33.893C118.295 33.1988 117.904 32.3682 117.784 31.4014C117.487 29.4916 118.067 27.937 119.525 26.7375C119.622 26.7421 119.686 26.6995 119.715 26.6097C119.964 26.5266 120.197 26.4095 120.412 26.2583C121.544 25.9521 122.674 25.9628 123.8 26.2903C123.937 26.4179 124.095 26.5031 124.275 26.5458ZM123.959 31.8486C123.769 32.4886 123.347 32.8826 122.692 33.0305C121.984 33.1994 121.351 33.061 120.792 32.6153C120.82 32.6194 120.841 32.6088 120.855 32.5833C120.803 32.5301 120.75 32.4768 120.697 32.4236C120.672 32.4382 120.661 32.4595 120.665 32.4875C120.462 32.2178 120.283 31.9623 120.127 31.7208C119.744 30.5936 119.891 29.5501 120.57 28.5903C120.651 28.5019 120.746 28.438 120.855 28.3986C121.859 27.7501 122.777 27.8353 123.61 28.6541C124.111 29.384 124.301 30.1933 124.18 31.0819C124.164 31.3624 124.09 31.618 123.959 31.8486Z" fill="#060419" fill-rule="evenodd" opacity="0.977"/>
<path clip-rule="evenodd" d="M143.402 26.6736C143.432 26.7634 143.495 26.806 143.592 26.8014C143.873 27.0267 144.127 27.2823 144.352 27.568C144.783 28.2221 145.047 28.9462 145.144 29.7403C145.21 30.2066 145.241 30.6751 145.239 31.1458C143.17 31.1458 141.101 31.1458 139.032 31.1458C139.123 32.2592 139.713 32.8981 140.805 33.0625C140.848 33.1115 140.901 33.1541 140.964 33.1903C141.213 33.1495 141.456 33.107 141.692 33.0625C141.859 33.0096 142.028 32.9564 142.199 32.9028C142.29 32.8787 142.353 32.8255 142.389 32.743C142.485 32.7423 142.558 32.6998 142.61 32.6153C142.727 32.4218 142.843 32.2301 142.959 32.0403C143.698 32.1254 144.436 32.1254 145.175 32.0403C145.134 32.3246 145.06 32.6015 144.954 32.8708C144.747 33.2261 144.525 33.5669 144.289 33.893C144.004 34.1954 143.688 34.4509 143.339 34.6597C141.586 35.5128 139.897 35.3957 138.272 34.3083C138.114 34.0634 137.913 33.8611 137.67 33.7014C137.496 33.4518 137.337 33.1962 137.195 32.9347C136.672 31.6733 136.577 30.3742 136.91 29.0375C137.452 27.4044 138.561 26.4354 140.235 26.1305C140.893 26.077 141.547 26.0983 142.199 26.1944C142.607 26.3353 143.008 26.495 143.402 26.6736ZM139.412 28.718C139.947 27.9376 140.707 27.6714 141.692 27.9194C142.382 28.2108 142.825 28.7219 143.022 29.4528C141.713 29.506 140.404 29.4953 139.095 29.4208C139.166 29.1639 139.271 28.9296 139.412 28.718Z" fill="#060419" fill-rule="evenodd" opacity="0.97"/>
<path clip-rule="evenodd" d="M167.849 27.5042C167.973 27.7984 168.132 28.0752 168.324 28.3347C168.632 29.2457 168.79 30.1827 168.799 31.1458C166.73 31.1458 164.661 31.1458 162.592 31.1458C162.587 31.3555 162.629 31.5471 162.719 31.7208C162.945 32.513 163.474 32.9496 164.302 33.0306C165.299 33.251 166.038 32.9209 166.519 32.0403C167.266 32.102 168.004 32.1233 168.735 32.1042C168.6 32.6973 168.346 33.2297 167.975 33.7014C167.719 34.0234 167.424 34.3002 167.089 34.5319C166.759 34.6608 166.443 34.8205 166.139 35.0111C164.873 35.3752 163.648 35.2793 162.465 34.7236C161.18 33.9409 160.451 32.7909 160.28 31.2736C160.165 30.2225 160.323 29.2215 160.755 28.2708C161.403 27.0904 162.395 26.377 163.732 26.1306C165.371 25.8346 166.743 26.2925 167.849 27.5042ZM165.949 28.3986C165.882 28.4355 165.893 28.4781 165.98 28.5264C166.006 28.5118 166.016 28.4905 166.012 28.4625C166.265 28.7575 166.434 29.0983 166.519 29.4847C165.231 29.4847 163.943 29.4847 162.655 29.4847C162.666 29.2181 162.75 28.9838 162.909 28.7819C163.454 27.9628 164.214 27.6753 165.189 27.9194C165.476 28.032 165.73 28.1917 165.949 28.3986Z" fill="#060419" fill-rule="evenodd" opacity="0.969"/>
<path clip-rule="evenodd" d="M188.495 26.2264C188.626 26.3187 188.774 26.3826 188.939 26.418C189.208 26.4904 189.462 26.5969 189.699 26.7375C190.174 27.0771 190.437 27.5456 190.49 28.143C190.511 30.1449 190.533 32.1468 190.554 34.1486C190.583 34.3792 190.678 34.5709 190.839 34.7236C190.839 34.7875 190.839 34.8514 190.839 34.9153C190.031 34.9353 189.229 34.914 188.432 34.8514C188.386 34.6866 188.354 34.5162 188.337 34.3403C188.231 34.419 188.136 34.5043 188.052 34.5958C187.989 34.5848 187.947 34.6062 187.925 34.6597C186.864 35.2051 185.756 35.3116 184.6 34.9791C184.278 34.7794 183.951 34.5877 183.619 34.4041C182.743 33.4457 182.564 32.3596 183.08 31.1458C183.662 30.3594 184.412 29.8589 185.329 29.6444C186.333 29.4886 187.326 29.2757 188.305 29.0055C188.364 28.9807 188.406 28.9381 188.432 28.8778C188.274 28.1016 187.799 27.7289 187.007 27.7597C186.433 27.7388 185.947 27.9305 185.55 28.3347C185.415 28.5716 185.362 28.8272 185.392 29.1014C185.111 29.1186 184.837 29.0973 184.569 29.0375C184.195 28.9924 183.815 28.9498 183.429 28.9097C183.214 28.9917 183.13 28.9066 183.175 28.6541C183.31 27.784 183.733 27.1025 184.442 26.6097C184.73 26.5236 185.004 26.4064 185.265 26.2583C186.343 26.0585 187.419 26.0479 188.495 26.2264ZM188.369 30.7625C188.665 32.3519 188 33.2037 186.374 33.318C186.132 33.3116 185.911 33.2477 185.709 33.1264C185.156 32.96 184.977 32.5767 185.17 31.9764C185.213 31.8912 185.255 31.806 185.297 31.7208C185.428 31.6656 185.534 31.5805 185.614 31.4653C185.635 31.4865 185.656 31.5079 185.677 31.5291C185.734 31.4524 185.808 31.3991 185.899 31.3694C186.557 31.2623 187.212 31.1345 187.862 30.9861C188.051 30.9411 188.219 30.8666 188.369 30.7625Z" fill="#060419" fill-rule="evenodd" opacity="0.971"/>
<path clip-rule="evenodd" d="M79.4353 26.2903C79.9939 26.2268 80.5639 26.2055 81.1453 26.2264C81.1453 26.7162 81.1453 27.206 81.1453 27.6958C81.0826 27.2391 81.0617 26.7707 81.082 26.2903C80.5329 26.2903 79.9844 26.2903 79.4353 26.2903Z" fill="#020202" fill-rule="evenodd" opacity="0.104"/>
<path clip-rule="evenodd" d="M91.5953 26.2903C92.2812 26.2162 92.9779 26.2056 93.6853 26.2583C93.7208 26.2828 93.7417 26.3147 93.7487 26.3542C93.033 26.2945 92.3154 26.2732 91.5953 26.2903Z" fill="black" fill-rule="evenodd" opacity="0.035"/>
<path clip-rule="evenodd" d="M104.895 26.2264C104.98 26.269 104.98 26.269 104.895 26.2264Z" fill="black" fill-rule="evenodd" opacity="0.01"/>
<path clip-rule="evenodd" d="M188.495 26.2264C188.683 26.2241 188.83 26.288 188.939 26.418C188.774 26.3826 188.626 26.3187 188.495 26.2264Z" fill="black" fill-rule="evenodd" opacity="0.051"/>
<path clip-rule="evenodd" d="M179.502 26.3542C180.199 26.269 180.895 26.269 181.592 26.3542C180.897 26.438 180.201 26.438 179.502 26.3542Z" fill="#010202" fill-rule="evenodd" opacity="0.245"/>
<path clip-rule="evenodd" d="M179.502 26.3542C180.201 26.4381 180.897 26.4381 181.592 26.3542C181.603 29.1867 181.592 32.0191 181.56 34.8514C180.836 34.9319 180.128 34.9319 179.439 34.8514C179.418 32.0082 179.439 29.1758 179.502 26.3542Z" fill="#060419" fill-rule="evenodd" opacity="0.935"/>
<path clip-rule="evenodd" d="M181.592 26.3542C181.666 29.1971 181.676 32.0508 181.624 34.9153C181.259 34.9572 180.89 34.9785 180.515 34.9792C180.133 34.9789 179.774 34.9363 179.439 34.8514C180.128 34.9319 180.836 34.9319 181.56 34.8514C181.592 32.0191 181.603 29.1867 181.592 26.3542Z" fill="black" fill-rule="evenodd" opacity="0.018"/>
<path clip-rule="evenodd" d="M97.9921 26.4819C98.0763 26.5245 98.0763 26.5245 97.9921 26.4819Z" fill="black" fill-rule="evenodd" opacity="0.01"/>
<path clip-rule="evenodd" d="M124.275 26.4819C124.36 26.5245 124.36 26.5245 124.275 26.4819Z" fill="black" fill-rule="evenodd" opacity="0.01"/>
<path clip-rule="evenodd" d="M156.955 26.4181C156.959 26.3834 156.98 26.3621 157.019 26.3542C157.082 29.1863 157.103 32.0187 157.082 34.8514C157.082 34.894 157.061 34.9153 157.019 34.9153C157.04 32.0721 157.019 29.2397 156.955 26.4181Z" fill="#050606" fill-rule="evenodd" opacity="0.157"/>
<path clip-rule="evenodd" d="M119.715 26.6097C119.673 26.5245 119.673 26.5245 119.715 26.6097Z" fill="black" fill-rule="evenodd" opacity="0.01"/>
<path clip-rule="evenodd" d="M184.442 26.6097C184.4 26.5245 184.4 26.5245 184.442 26.6097Z" fill="black" fill-rule="evenodd" opacity="0.01"/>
<path clip-rule="evenodd" d="M143.402 26.6097C143.486 26.6524 143.486 26.6524 143.402 26.6097Z" fill="black" fill-rule="evenodd" opacity="0.01"/>
<path clip-rule="evenodd" d="M65.3754 26.6736C65.4596 26.7162 65.4596 26.7162 65.3754 26.6736Z" fill="black" fill-rule="evenodd" opacity="0.01"/>
<path clip-rule="evenodd" d="M119.525 26.7375C119.483 26.6524 119.483 26.6524 119.525 26.7375Z" fill="black" fill-rule="evenodd" opacity="0.01"/>
<path clip-rule="evenodd" d="M134.092 26.6736C134.176 26.7162 134.176 26.7162 134.092 26.6736Z" fill="black" fill-rule="evenodd" opacity="0.01"/>
<path clip-rule="evenodd" d="M189.699 26.6736C189.783 26.7162 189.783 26.7162 189.699 26.6736Z" fill="black" fill-rule="evenodd" opacity="0.01"/>
<path clip-rule="evenodd" d="M83.4887 26.8014C83.4463 26.7162 83.4463 26.7162 83.4887 26.8014Z" fill="black" fill-rule="evenodd" opacity="0.01"/>
<path clip-rule="evenodd" d="M143.592 26.7375C143.676 26.7801 143.676 26.7801 143.592 26.7375Z" fill="black" fill-rule="evenodd" opacity="0.01"/>
<path clip-rule="evenodd" d="M134.852 27.4403C134.936 27.4829 134.936 27.4829 134.852 27.4403Z" fill="black" fill-rule="evenodd" opacity="0.01"/>
<path clip-rule="evenodd" d="M167.849 27.4403C167.933 27.4829 167.933 27.4829 167.849 27.4403Z" fill="black" fill-rule="evenodd" opacity="0.01"/>
<path clip-rule="evenodd" d="M66.2621 27.5042C66.3463 27.5468 66.3463 27.5468 66.2621 27.5042Z" fill="black" fill-rule="evenodd" opacity="0.01"/>
<path clip-rule="evenodd" d="M89.5687 27.5042C89.653 27.5468 89.653 27.5468 89.5687 27.5042Z" fill="black" fill-rule="evenodd" opacity="0.01"/>
<path clip-rule="evenodd" d="M144.352 27.5042C144.436 27.5468 144.436 27.5468 144.352 27.5042Z" fill="black" fill-rule="evenodd" opacity="0.01"/>
<path clip-rule="evenodd" d="M75.952 27.8875C75.9096 27.9301 75.9096 27.9301 75.952 27.8875Z" fill="black" fill-rule="evenodd" opacity="0.01"/>
<path clip-rule="evenodd" d="M81.1454 27.8875C81.2296 27.9301 81.2296 27.9301 81.1454 27.8875Z" fill="black" fill-rule="evenodd" opacity="0.01"/>
<path clip-rule="evenodd" d="M12.3654 27.9514C12.4498 27.994 12.4498 27.994 12.3654 27.9514Z" fill="black" fill-rule="evenodd" opacity="0.01"/>
<path clip-rule="evenodd" d="M104.325 27.9514C104.312 28.6559 104.333 29.3587 104.389 30.0597C104.266 30.0228 104.244 29.9589 104.325 29.8681C104.28 29.6884 104.237 29.5074 104.199 29.325C104.277 28.9639 104.277 28.6231 104.199 28.3028C104.237 28.1783 104.28 28.0612 104.325 27.9514Z" fill="#000101" fill-rule="evenodd" opacity="0.09"/>
<path clip-rule="evenodd" d="M174.309 28.1431C174.034 28.1431 173.76 28.1431 173.485 28.1431C173.763 27.984 174.037 27.984 174.309 28.1431Z" fill="#010202" fill-rule="evenodd" opacity="0.185"/>
<path clip-rule="evenodd" d="M107.555 28.207C107.538 28.9053 107.559 29.6081 107.619 30.3153C107.534 29.9879 107.492 29.6365 107.492 29.2611C107.492 28.8984 107.513 28.5471 107.555 28.207Z" fill="black" fill-rule="evenodd" opacity="0.093"/>
<path clip-rule="evenodd" d="M107.682 28.207C109.498 28.207 111.313 28.207 113.129 28.207C113.129 28.2709 113.129 28.3347 113.129 28.3986C113.079 28.3806 113.036 28.3486 113.002 28.3028C111.218 28.2921 109.445 28.2601 107.682 28.207Z" fill="#050505" fill-rule="evenodd" opacity="0.157"/>
<path clip-rule="evenodd" d="M160.755 28.2708C160.713 28.1857 160.713 28.1857 160.755 28.2708Z" fill="black" fill-rule="evenodd" opacity="0.01"/>
<path clip-rule="evenodd" d="M170.129 28.5264C170.086 28.4412 170.086 28.4412 170.129 28.5264Z" fill="black" fill-rule="evenodd" opacity="0.01"/>
<path clip-rule="evenodd" d="M73.2921 28.5264C73.2496 28.569 73.2496 28.569 73.2921 28.5264Z" fill="black" fill-rule="evenodd" opacity="0.01"/>
<path clip-rule="evenodd" d="M11.6687 28.7181C11.7531 28.7607 11.7531 28.7607 11.6687 28.7181Z" fill="black" fill-rule="evenodd" opacity="0.01"/>
<path clip-rule="evenodd" d="M11.6053 28.7819C11.6264 28.7819 11.6476 28.7819 11.6687 28.7819C11.657 28.8247 11.6358 28.8247 11.6053 28.7819Z" fill="black" fill-rule="evenodd" opacity="0.01"/>
<path clip-rule="evenodd" d="M73.482 28.7819C73.4396 28.8245 73.4396 28.8245 73.482 28.7819Z" fill="black" fill-rule="evenodd" opacity="0.01"/>
<path clip-rule="evenodd" d="M183.429 28.9097C183.815 28.9499 184.195 28.9925 184.569 29.0375C184.161 29.0771 183.781 29.0345 183.429 28.9097Z" fill="black" fill-rule="evenodd" opacity="0.042"/>
<path clip-rule="evenodd" d="M57.0154 29.1014C57.0998 29.144 57.0998 29.144 57.0154 29.1014Z" fill="black" fill-rule="evenodd" opacity="0.01"/>
<path clip-rule="evenodd" d="M15.532 29.2931C15.4898 29.2079 15.4898 29.2079 15.532 29.2931Z" fill="black" fill-rule="evenodd" opacity="0.01"/>
<path clip-rule="evenodd" d="M50.5554 29.4847C50.6398 30.5709 50.6398 31.657 50.5554 32.7431C50.471 31.657 50.471 30.5709 50.5554 29.4847Z" fill="#010302" fill-rule="evenodd" opacity="0.173"/>
<path clip-rule="evenodd" d="M10.7188 29.5486C10.8032 29.5912 10.8032 29.5912 10.7188 29.5486Z" fill="black" fill-rule="evenodd" opacity="0.01"/>
<path clip-rule="evenodd" d="M93.8754 29.5486C93.9596 29.5912 93.9596 29.5912 93.8754 29.5486Z" fill="black" fill-rule="evenodd" opacity="0.01"/>
<path clip-rule="evenodd" d="M72.5953 29.6125C72.7771 29.6318 72.9462 29.6744 73.102 29.7403C72.9088 29.7651 72.7397 29.7226 72.5953 29.6125Z" fill="black" fill-rule="evenodd" opacity="0.05"/>
<path clip-rule="evenodd" d="M6.98199 30.0597C6.93976 29.9746 6.93976 29.9746 6.98199 30.0597Z" fill="black" fill-rule="evenodd" opacity="0.01"/>
<path clip-rule="evenodd" d="M74.432 30.1236C74.5162 30.1662 74.5162 30.1662 74.432 30.1236Z" fill="black" fill-rule="evenodd" opacity="0.01"/>
<path clip-rule="evenodd" d="M6.15864 30.507C5.87933 30.657 5.58378 30.6995 5.27197 30.6347C5.55665 30.5758 5.85221 30.5332 6.15864 30.507Z" fill="#010101" fill-rule="evenodd" opacity="0.11"/>
<path clip-rule="evenodd" d="M68.5421 30.507C68.4996 30.5496 68.4996 30.5496 68.5421 30.507Z" fill="black" fill-rule="evenodd" opacity="0.01"/>
<path clip-rule="evenodd" d="M153.599 30.7625C153.683 30.8051 153.683 30.8051 153.599 30.7625Z" fill="black" fill-rule="evenodd" opacity="0.01"/>
<path clip-rule="evenodd" d="M5.27202 31.2736C5.2298 31.3162 5.2298 31.3162 5.27202 31.2736Z" fill="black" fill-rule="evenodd" opacity="0.01"/>
<path clip-rule="evenodd" d="M169.749 31.2736C169.794 31.4265 169.836 31.5862 169.875 31.7528C169.84 31.7773 169.819 31.8092 169.812 31.8486C169.75 31.6706 169.729 31.4789 169.749 31.2736Z" fill="black" fill-rule="evenodd" opacity="0.05"/>
<path clip-rule="evenodd" d="M162.719 31.6569C162.803 31.6995 162.803 31.6995 162.719 31.6569Z" fill="black" fill-rule="evenodd" opacity="0.01"/>
<path clip-rule="evenodd" d="M109.709 31.8486C109.666 31.7634 109.666 31.7634 109.709 31.8486Z" fill="black" fill-rule="evenodd" opacity="0.01"/>
<path clip-rule="evenodd" d="M142.959 32.0403C143.698 31.9551 144.436 31.9551 145.175 32.0403C144.436 32.1254 143.698 32.1254 142.959 32.0403Z" fill="#010202" fill-rule="evenodd" opacity="0.265"/>
<path clip-rule="evenodd" d="M166.519 32.0403C166.877 31.9977 167.246 31.9764 167.627 31.9764C168.02 31.9766 168.39 32.0192 168.735 32.1042C168.004 32.1233 167.266 32.102 166.519 32.0403Z" fill="#010202" fill-rule="evenodd" opacity="0.262"/>
<path clip-rule="evenodd" d="M68.5421 32.6153C68.4996 32.5301 68.4996 32.5301 68.5421 32.6153Z" fill="black" fill-rule="evenodd" opacity="0.01"/>
<path clip-rule="evenodd" d="M79.4987 32.5514C79.5829 32.594 79.5829 32.594 79.4987 32.5514Z" fill="black" fill-rule="evenodd" opacity="0.01"/>
<path clip-rule="evenodd" d="M7.86872 32.6792C7.82648 32.594 7.82648 32.594 7.86872 32.6792Z" fill="black" fill-rule="evenodd" opacity="0.01"/>
<path clip-rule="evenodd" d="M69.6187 32.6792C69.7029 32.7218 69.7029 32.7218 69.6187 32.6792Z" fill="black" fill-rule="evenodd" opacity="0.01"/>
<path clip-rule="evenodd" d="M142.389 32.7431C142.346 32.6579 142.346 32.6579 142.389 32.7431Z" fill="black" fill-rule="evenodd" opacity="0.01"/>
<path clip-rule="evenodd" d="M79.6254 32.8069C79.7096 32.8496 79.7096 32.8496 79.6254 32.8069Z" fill="black" fill-rule="evenodd" opacity="0.01"/>
<path clip-rule="evenodd" d="M137.195 32.9348C137.153 32.9774 137.153 32.9774 137.195 32.9348Z" fill="black" fill-rule="evenodd" opacity="0.01"/>
<path clip-rule="evenodd" d="M85.5787 33.0625C85.8726 33.1026 86.1684 33.1238 86.4654 33.1264C86.423 33.1754 86.3698 33.218 86.3071 33.2542C86.0607 33.2395 85.8181 33.1756 85.5787 33.0625Z" fill="#000101" fill-rule="evenodd" opacity="0.126"/>
<path clip-rule="evenodd" d="M131.305 33.0625C131.495 33.0625 131.685 33.0625 131.875 33.0625C131.858 33.1129 131.826 33.1555 131.78 33.1903C131.615 33.1505 131.457 33.1079 131.305 33.0625Z" fill="black" fill-rule="evenodd" opacity="0.128"/>
<path clip-rule="evenodd" d="M140.805 33.0625C141.101 33.0625 141.396 33.0625 141.692 33.0625C141.456 33.107 141.213 33.1495 140.964 33.1903C140.901 33.1541 140.848 33.1115 140.805 33.0625Z" fill="black" fill-rule="evenodd" opacity="0.098"/>
<path clip-rule="evenodd" d="M67.7187 33.318C67.6763 33.2329 67.6763 33.2329 67.7187 33.318Z" fill="black" fill-rule="evenodd" opacity="0.01"/>
<path clip-rule="evenodd" d="M6.28533 33.5736C6.24311 33.4885 6.24311 33.4885 6.28533 33.5736Z" fill="black" fill-rule="evenodd" opacity="0.01"/>
<path clip-rule="evenodd" d="M111.419 33.5097C111.503 33.5523 111.503 33.5523 111.419 33.5097Z" fill="black" fill-rule="evenodd" opacity="0.01"/>
<path clip-rule="evenodd" d="M111.355 33.5736C111.376 33.5736 111.398 33.5736 111.419 33.5736C111.407 33.6164 111.386 33.6164 111.355 33.5736Z" fill="black" fill-rule="evenodd" opacity="0.01"/>
<path clip-rule="evenodd" d="M66.2621 33.6375C66.3463 33.6801 66.3463 33.6801 66.2621 33.6375Z" fill="black" fill-rule="evenodd" opacity="0.01"/>
<path clip-rule="evenodd" d="M111.292 33.6375C111.313 33.6375 111.334 33.6375 111.355 33.6375C111.343 33.6803 111.322 33.6803 111.292 33.6375Z" fill="black" fill-rule="evenodd" opacity="0.01"/>
<path clip-rule="evenodd" d="M89.5054 33.7014C89.5896 33.744 89.5896 33.744 89.5054 33.7014Z" fill="black" fill-rule="evenodd" opacity="0.01"/>
<path clip-rule="evenodd" d="M167.975 33.7014C168.06 33.744 168.06 33.744 167.975 33.7014Z" fill="black" fill-rule="evenodd" opacity="0.01"/>
<path clip-rule="evenodd" d="M89.442 33.7653C89.4629 33.7653 89.4844 33.7653 89.5053 33.7653C89.4933 33.8081 89.4724 33.8081 89.442 33.7653Z" fill="black" fill-rule="evenodd" opacity="0.01"/>
<path clip-rule="evenodd" d="M82.9187 33.8292C82.8762 33.8718 82.8762 33.8718 82.9187 33.8292Z" fill="black" fill-rule="evenodd" opacity="0.01"/>
<path clip-rule="evenodd" d="M103.819 33.8292C103.776 33.8718 103.776 33.8718 103.819 33.8292Z" fill="black" fill-rule="evenodd" opacity="0.01"/>
<path clip-rule="evenodd" d="M118.955 33.8931C118.913 33.9357 118.913 33.9357 118.955 33.8931Z" fill="black" fill-rule="evenodd" opacity="0.01"/>
<path clip-rule="evenodd" d="M144.289 33.8931C144.373 33.9357 144.373 33.9357 144.289 33.8931Z" fill="black" fill-rule="evenodd" opacity="0.01"/>
<path clip-rule="evenodd" d="M5.39873 34.2764C5.35651 34.1912 5.35651 34.1912 5.39873 34.2764Z" fill="black" fill-rule="evenodd" opacity="0.01"/>
<path clip-rule="evenodd" d="M83.5521 34.4042C83.5097 34.4468 83.5097 34.4468 83.5521 34.4042Z" fill="black" fill-rule="evenodd" opacity="0.01"/>
<path clip-rule="evenodd" d="M183.619 34.4042C183.576 34.4468 183.576 34.4468 183.619 34.4042Z" fill="black" fill-rule="evenodd" opacity="0.01"/>
<path clip-rule="evenodd" d="M56.0653 34.4681C56.1497 34.5107 56.1497 34.5107 56.0653 34.4681Z" fill="black" fill-rule="evenodd" opacity="0.01"/>
<path clip-rule="evenodd" d="M65.3754 34.4681C65.4596 34.5107 65.4596 34.5107 65.3754 34.4681Z" fill="black" fill-rule="evenodd" opacity="0.01"/>
<path clip-rule="evenodd" d="M167.089 34.5319C167.173 34.5745 167.173 34.5745 167.089 34.5319Z" fill="black" fill-rule="evenodd" opacity="0.01"/>
<path clip-rule="evenodd" d="M77.852 34.5958C77.8096 34.6384 77.8096 34.6384 77.852 34.5958Z" fill="black" fill-rule="evenodd" opacity="0.01"/>
<path clip-rule="evenodd" d="M188.052 34.5958C188.136 34.6384 188.136 34.6384 188.052 34.5958Z" fill="black" fill-rule="evenodd" opacity="0.01"/>
<path clip-rule="evenodd" d="M143.339 34.6597C143.423 34.7023 143.423 34.7023 143.339 34.6597Z" fill="black" fill-rule="evenodd" opacity="0.01"/>
<path clip-rule="evenodd" d="M175.385 34.6597C175.47 34.7023 175.47 34.7023 175.385 34.6597Z" fill="black" fill-rule="evenodd" opacity="0.01"/>
<path clip-rule="evenodd" d="M187.925 34.6597C188.01 34.7023 188.01 34.7023 187.925 34.6597Z" fill="black" fill-rule="evenodd" opacity="0.01"/>
<path clip-rule="evenodd" d="M162.465 34.7236C162.423 34.7662 162.423 34.7662 162.465 34.7236Z" fill="black" fill-rule="evenodd" opacity="0.01"/>
<path clip-rule="evenodd" d="M80.512 34.8514C80.5051 34.8908 80.4842 34.9227 80.4487 34.9472C79.9097 34.9998 79.3822 34.9892 78.8654 34.9153C79.4221 34.9306 79.9712 34.9093 80.512 34.8514Z" fill="#000101" fill-rule="evenodd" opacity="0.098"/>
<path clip-rule="evenodd" d="M150.432 34.8514C150.086 34.9363 149.717 34.9789 149.324 34.9792C148.943 34.9791 148.574 34.9578 148.215 34.9153C148.959 34.9351 149.698 34.9139 150.432 34.8514Z" fill="black" fill-rule="evenodd" opacity="0.039"/>
<path clip-rule="evenodd" d="M177.919 34.8514C177.594 34.9363 177.246 34.9788 176.874 34.9792C176.514 34.9791 176.166 34.9578 175.829 34.9153C176.53 34.9351 177.227 34.9138 177.919 34.8514Z" fill="black" fill-rule="evenodd" opacity="0.039"/>
<path clip-rule="evenodd" d="M188.432 34.8514C189.229 34.914 190.031 34.9353 190.839 34.9153C190.839 34.9365 190.839 34.9579 190.839 34.9792C190.013 35.0205 189.21 34.9779 188.432 34.8514Z" fill="black" fill-rule="evenodd" opacity="0.047"/>
<path clip-rule="evenodd" d="M121.552 35.1069C121.932 35.1069 122.312 35.1069 122.692 35.1069C122.312 35.1921 121.932 35.1921 121.552 35.1069Z" fill="#010202" fill-rule="evenodd" opacity="0.114"/>
<path clip-rule="evenodd" d="M4.38531 35.2986C4.34308 35.2135 4.34308 35.2135 4.38531 35.2986Z" fill="black" fill-rule="evenodd" opacity="0.01"/>
<path clip-rule="evenodd" d="M13.5686 36.7041C13.342 36.701 13.1309 36.6585 12.9353 36.5764C13.1233 36.5108 13.3239 36.5108 13.537 36.5764C13.5664 36.6143 13.5769 36.6569 13.5686 36.7041Z" fill="#010202" fill-rule="evenodd" opacity="0.23"/>
<path clip-rule="evenodd" d="M30.0988 38.8764C30.1832 38.919 30.1832 38.919 30.0988 38.8764Z" fill="black" fill-rule="evenodd" opacity="0.01"/>
<path clip-rule="evenodd" d="M29.9087 39.0042C29.9931 39.0468 29.9931 39.0468 29.9087 39.0042Z" fill="black" fill-rule="evenodd" opacity="0.01"/>
<path clip-rule="evenodd" d="M2.54865 39.4514C2.49664 40.1725 2.47553 40.8965 2.48532 41.6236C2.41192 40.932 2.40136 40.2292 2.45365 39.5153C2.47788 39.4798 2.50955 39.4585 2.54865 39.4514Z" fill="black" fill-rule="evenodd" opacity="0.082"/>
<path clip-rule="evenodd" d="M22.1821 40.5375C22.1398 40.5801 22.1398 40.5801 22.1821 40.5375Z" fill="black" fill-rule="evenodd" opacity="0.01"/>
<path clip-rule="evenodd" d="M26.7421 41.368C26.8265 41.4107 26.8265 41.4107 26.7421 41.368Z" fill="black" fill-rule="evenodd" opacity="0.01"/>
<path clip-rule="evenodd" d="M23.8287 41.5598C23.7864 41.6024 23.7864 41.6024 23.8287 41.5598Z" fill="black" fill-rule="evenodd" opacity="0.01"/>
<path clip-rule="evenodd" d="M26.4886 41.5598C26.5731 41.6024 26.5731 41.6024 26.4886 41.5598Z" fill="black" fill-rule="evenodd" opacity="0.01"/>
<path clip-rule="evenodd" d="M24.9053 42.2625C24.8631 42.3051 24.8631 42.3051 24.9053 42.2625Z" fill="black" fill-rule="evenodd" opacity="0.01"/>
<path clip-rule="evenodd" d="M25.6654 42.2625C25.7498 42.3051 25.7498 42.3051 25.6654 42.2625Z" fill="black" fill-rule="evenodd" opacity="0.01"/>
<path clip-rule="evenodd" d="M4.00537 43.668C4.08981 43.7106 4.08981 43.7106 4.00537 43.668Z" fill="black" fill-rule="evenodd" opacity="0.01"/>
<path clip-rule="evenodd" d="M3.56206 44.8181C3.51984 44.8607 3.51984 44.8607 3.56206 44.8181Z" fill="black" fill-rule="evenodd" opacity="0.01"/>
<path clip-rule="evenodd" d="M4.89197 45.2014C4.97641 45.244 4.97641 45.244 4.89197 45.2014Z" fill="black" fill-rule="evenodd" opacity="0.01"/>
<path clip-rule="evenodd" d="M4.89197 45.7125C4.97641 45.7551 4.97641 45.7551 4.89197 45.7125Z" fill="black" fill-rule="evenodd" opacity="0.01"/>
<path clip-rule="evenodd" d="M4.82874 45.7764C4.84984 45.7764 4.87096 45.7764 4.89207 45.7764C4.88033 45.8192 4.85922 45.8192 4.82874 45.7764Z" fill="black" fill-rule="evenodd" opacity="0.01"/>
<path clip-rule="evenodd" d="M4.76538 45.8403C4.78649 45.8403 4.80761 45.8403 4.82871 45.8403C4.81698 45.8831 4.79586 45.8831 4.76538 45.8403Z" fill="black" fill-rule="evenodd" opacity="0.01"/>
</g>
<defs>
<clipPath id="clip0_28_6">
<rect fill="white" height="46" transform="translate(0.870361)" width="190"/>
</clipPath>
</defs>
</svg>