<?xml version="1.0" encoding="utf-8"?>
<svg xmlns="http://www.w3.org/2000/svg" fill="none" height="34" viewBox="0 0 130 34" width="130">
<g clip-path="url(#clip0_1_451)">
<path d="M87.9313 7.4398C85.6516 7.4398 83.8938 8.22299 82.2627 9.85761V7.8207H77.7857V27.8639H82.6029V16.2392C82.6029 13.578 84.2466 11.8945 86.7408 11.8945C87.194 11.8945 87.5912 11.9485 87.8743 12.0025L91.2178 7.76571C89.9142 7.54878 88.7817 7.4398 87.9313 7.4398ZM129.474 7.8207H123.92L118.791 14.3582L113.662 7.81969H108.107L115.944 17.9197L108.107 27.8639H113.775L118.762 21.523L123.75 27.8639H129.474L121.585 17.936L129.474 7.8207ZM28.3082 3.31201C26.6645 5.4304 26.2672 6.13618 24.6805 6.13618H0.989746V33.2953H10.285C12.3819 33.2953 14.4219 32.3176 15.7254 30.688C17.4262 28.5157 17.6523 27.8639 19.2961 27.8639H43.0439V0.704773H33.6916C31.5947 0.704773 29.5548 1.68249 28.3072 3.31201H28.3082ZM35.6755 20.8569H25.757C23.603 20.8569 21.6201 21.7256 20.3166 23.4091C18.6158 25.5825 18.2756 26.2343 16.6889 26.2343H8.30108V13.1981H18.2196C20.3725 13.1981 22.3565 12.2204 23.6601 10.5909C25.3609 8.47251 25.8141 7.8207 27.3437 7.8207H35.6755V20.8569ZM71.2677 14.1759C73.3657 13.0352 74.8383 11.0248 74.8383 8.36354C74.8383 4.45268 71.722 0.704773 67.1879 0.704773H53.5857V27.8639H67.1879C72.1181 27.8639 75.5187 24.4958 75.5187 20.2591C75.5187 17.7608 74.3291 15.5874 71.2677 14.1759ZM58.4029 4.94154H66.7907C68.8876 4.94154 70.1342 6.84299 70.1342 8.52649C70.1342 10.5909 68.2644 12.0025 66.5076 12.0025H58.4029V4.94154ZM66.5076 23.6271H58.4029V16.2392H66.7907C68.9447 16.2392 70.7015 18.0317 70.7015 19.8792C70.7015 21.9426 68.4915 23.6271 66.5076 23.6271Z" fill="#060419"/>
<path d="M103.29 22.1055C102.497 23.3011 100.966 24.0069 99.2655 24.0069C96.6033 24.0069 94.3923 22.2684 94.3923 19.6072H108.788C109.015 18.7925 109.071 18.4126 109.071 17.7058C109.071 11.6225 105.16 7.43976 99.2665 7.43976C93.4848 7.43976 89.405 11.4056 89.405 17.8687C89.405 24.1699 93.3148 28.2437 99.3795 28.2437C103.63 28.2437 107.371 26.2343 108.448 22.1055H103.29ZM99.2655 11.6765C101.93 11.6765 103.971 13.306 103.914 15.7503H94.4483C94.4483 13.361 96.6033 11.6765 99.2655 11.6765Z" fill="#060419"/>
</g>
<defs>
<clipPath id="clip0_1_451">
<rect fill="white" height="32.5905" transform="translate(0.989746 0.704773)" width="128.881"/>
</clipPath>
</defs>
</svg>