<?xml version="1.0" encoding="utf-8"?>
<svg xmlns="http://www.w3.org/2000/svg" fill="none" height="33" viewBox="0 0 86 33" width="86">
<g clip-path="url(#clip0_81_2)">
<path d="M0.0581971 13.2687C0.0773075 13.281 0.112753 13.3205 0.113162 13.3603C0.126709 14.6822 0.42362 15.9468 0.890236 17.1752C1.32623 18.3229 1.94343 19.3692 2.70029 20.334C3.90986 21.8758 5.41579 23.0475 7.18666 23.8734C8.19775 24.345 9.25647 24.6905 10.3697 24.8144C11.1787 24.9044 11.9937 24.9773 12.8069 24.9862C14.9484 25.0097 17.0904 24.9805 19.232 24.9994C20.493 25.0105 21.697 25.3178 22.8597 25.8048C24.272 26.3962 25.4742 27.2834 26.4832 28.4192C27.4807 29.5419 28.1966 30.8357 28.6247 32.2819C28.654 32.381 28.6932 32.4771 28.7348 32.5953C19.1857 32.616 9.62954 32.616 0.058197 32.616C0.058197 26.176 0.058197 19.736 0.0581971 13.2687Z" fill="white"/>
<path d="M29.0909 32.616C28.9912 32.616 28.8914 32.616 28.7597 32.5953C28.6932 32.4771 28.654 32.381 28.6247 32.2819C28.1966 30.8358 27.4807 29.5419 26.4832 28.4192C25.4742 27.2834 24.272 26.3962 22.8597 25.8048C21.697 25.3178 20.493 25.0105 19.232 24.9994C17.0904 24.9805 14.9484 25.0097 12.8069 24.9862C11.9937 24.9773 11.1787 24.9044 10.3697 24.8144C9.25647 24.6905 8.19775 24.345 7.18666 23.8734C5.41579 23.0475 3.90986 21.8758 2.70029 20.334C1.94343 19.3692 1.32623 18.3229 0.890236 17.1752C0.42362 15.9468 0.126708 14.6822 0.113161 13.3603C0.112753 13.3205 0.0773074 13.2811 0.058197 13.2414C0.0581969 12.9492 0.0581969 12.6569 0.0799499 12.3249C0.117801 11.2872 0.296287 10.3167 0.57378 9.35956C0.978124 7.96486 1.62146 6.69589 2.48717 5.53007C3.15407 4.63198 3.92808 3.84887 4.80539 3.15791C5.68801 2.46276 6.64416 1.88734 7.69202 1.50017C8.49707 1.20271 9.34257 1.01155 10.1758 0.795032C10.5192 0.705789 10.8775 0.673928 11.2291 0.615967C32.4086 0.615967 53.5881 0.615967 74.8068 0.637403C74.9811 0.664433 75.1183 0.656952 75.251 0.677701C76.2565 0.834878 77.2482 1.04993 78.1948 1.43467C79.6678 2.03337 80.9935 2.86855 82.1484 3.96183C82.9441 4.71499 83.6158 5.57102 84.1827 6.51133C85.0644 7.97394 85.6238 9.54464 85.8199 11.2433C85.8499 11.503 85.896 11.7609 85.9346 12.0196C85.9346 12.5058 85.9346 12.9919 85.9129 13.5177C85.8459 14.0146 85.8337 14.4781 85.7491 14.928C85.5128 16.1852 85.1016 17.3809 84.4953 18.5161C84.0423 19.3642 83.5071 20.15 82.8723 20.861C81.6042 22.2812 80.0886 23.3668 78.3194 24.0889C76.8807 24.676 75.3788 24.9859 73.8324 24.9875C62.1767 24.9997 50.5209 24.9898 38.8653 25.0044C38.1243 25.0053 37.3658 25.0784 36.6458 25.2472C34.4741 25.7564 32.6457 26.8746 31.1932 28.5723C30.1826 29.7535 29.497 31.1148 29.0909 32.616ZM45.4183 11.495C46.2203 9.35099 44.8295 7.15672 42.5839 7.0858C41.0928 7.03871 39.599 7.06899 38.1065 7.07812C37.585 7.08131 37.2876 7.40408 37.2873 7.92946C37.2855 11.0309 37.2855 14.1324 37.2874 17.2339C37.2877 17.743 37.6697 18.082 38.2235 18.0786C38.6902 18.0757 38.9305 17.7965 38.9314 17.2487C38.9329 16.2311 38.9319 15.2134 38.9319 14.1957C38.9319 14.0937 38.9319 13.9918 38.9319 13.8869C40.1314 13.8869 41.285 13.8546 42.4356 13.8985C43.1766 13.9268 43.6467 14.4778 43.6872 15.2187C43.6951 15.3637 43.6889 15.5094 43.6951 15.6546C43.7184 16.2006 43.7952 16.7347 44.0591 17.2252C44.3808 17.8232 44.938 18.1535 45.4872 18.0802C45.7916 18.0395 45.9929 17.8654 46.0679 17.5837C46.1416 17.3073 46.098 17.0121 45.8349 16.8583C45.4445 16.63 45.3617 16.2737 45.3222 15.8782C45.2856 15.512 45.2594 15.1441 45.2044 14.7806C45.0928 14.0426 44.6615 13.5135 44.035 13.0955C44.6508 12.6993 45.1129 12.1924 45.4183 11.495ZM58.6495 8.09093C58.0131 7.40733 57.2231 7.07652 56.2939 7.0748C54.8693 7.07218 53.4447 7.07109 52.0201 7.07557C51.4199 7.07746 51.1217 7.36952 51.1209 7.96983C51.1166 11.0419 51.1172 14.1141 51.1204 17.1862C51.121 17.7501 51.4879 18.0854 52.071 18.0785C52.5331 18.0731 52.777 17.7776 52.7784 17.2096C52.7809 16.2114 52.7791 15.2132 52.7791 14.215C52.7791 14.1113 52.7791 14.0075 52.7791 13.9091C54.0114 13.9091 55.2122 13.8577 56.4059 13.9286C57.105 13.9702 57.5 14.5392 57.5322 15.2668C57.5399 15.4409 57.5334 15.6157 57.5421 15.7898C57.5688 16.3274 57.6542 16.8552 57.9535 17.3138C58.2437 17.7584 58.6132 18.1067 59.1981 18.0912C59.552 18.0818 59.8141 17.8954 59.9089 17.5942C60.0007 17.3025 59.8586 17.0114 59.5983 16.7808C59.4367 16.6376 59.2806 16.4327 59.2319 16.2292C59.1357 15.827 59.1 15.4078 59.0679 14.9935C59.0199 14.3721 58.7645 13.8603 58.3117 13.4423C58.1795 13.3203 58.0342 13.2123 57.892 13.0954C59.947 11.7305 59.8037 9.35292 58.6495 8.09093ZM32.5254 16.997C31.2269 13.8673 29.9283 10.7376 28.6298 7.60782C28.4635 7.20685 28.2032 7.01582 27.8224 7.01601C27.4546 7.01619 27.2199 7.19694 27.0504 7.60651C26.1471 9.78908 25.2432 11.9714 24.3397 14.1539C23.9288 15.1466 23.5171 16.1389 23.1091 17.1328C22.9952 17.4102 22.9982 17.6847 23.1933 17.9287C23.3813 18.1638 23.6465 18.176 23.911 18.1282C24.1946 18.0769 24.355 17.8713 24.4608 17.6175C24.7326 16.9652 25.012 16.316 25.2713 15.6587C25.35 15.459 25.4476 15.3863 25.6703 15.3882C27.0859 15.4003 28.5017 15.3996 29.9173 15.3888C30.1379 15.3871 30.2384 15.4604 30.3184 15.6602C30.5849 16.325 30.8677 16.9835 31.153 17.6406C31.2812 17.9359 31.4998 18.1304 31.839 18.1444C32.1375 18.1568 32.4045 18.0368 32.5018 17.7665C32.5804 17.5482 32.5317 17.2841 32.5254 16.997ZM12.8899 9.92962C13.2688 9.46019 13.7346 9.1026 14.2926 8.87574C15.5365 8.37009 16.7508 8.46643 17.9418 9.06417C18.4482 9.31827 18.8306 9.19765 19.0648 8.73716C19.2799 8.31438 19.1248 7.90973 18.6513 7.65928C17.8948 7.25909 17.0901 7.03311 16.2341 6.99853C14.4513 6.92649 12.898 7.46561 11.702 8.81783C10.3173 10.3834 10.0192 12.24 10.5148 14.2094C11.4867 18.0713 15.8761 19.1561 18.8159 17.492C19.0363 17.3672 19.1456 17.1712 19.1593 16.9206C19.1951 16.2652 18.5709 15.8573 17.9596 16.1596C17.4402 16.4165 16.905 16.6083 16.3279 16.6448C14.9134 16.7344 13.6702 16.3824 12.7936 15.1787C11.7463 13.7407 11.783 11.4358 12.8899 9.92962ZM65.6393 8.08058C65.4679 7.84575 65.3032 7.60568 65.1237 7.37726C64.8196 6.99035 64.422 6.92642 64.0219 7.1883C63.647 7.43373 63.5438 7.83698 63.7613 8.25489C63.8323 8.39127 63.9278 8.51601 64.0204 8.63984C65.0304 9.99007 66.0454 11.3366 67.0477 12.6925C67.1422 12.8204 67.2036 13.0053 67.205 13.1644C67.2173 14.5118 67.2087 15.8594 67.2138 17.207C67.2159 17.7459 67.5302 18.0779 68.015 18.0787C68.496 18.0794 68.7935 17.745 68.7941 17.196C68.7955 15.9163 68.7886 14.6365 68.8018 13.357C68.8035 13.187 68.865 12.992 68.9621 12.8527C69.9932 11.3747 71.0438 9.91022 72.0692 8.42837C72.2023 8.23611 72.2881 7.96529 72.2824 7.73364C72.2739 7.3856 72.0299 7.15897 71.691 7.06226C71.3762 6.97245 71.0919 7.08393 70.866 7.40412C70.1789 8.37786 69.4997 9.35713 68.8167 10.3337C68.574 10.6806 68.3292 11.026 68.0658 11.3999C67.2504 10.2841 66.4575 9.199 65.6393 8.08058ZM76.3462 7.266C76.346 7.68274 76.337 8.09982 76.3528 8.51596C76.3561 8.603 76.4511 8.68656 76.5039 8.77172C76.5475 8.68812 76.623 8.60665 76.6287 8.52053C76.6456 8.26751 76.6348 8.01264 76.6348 7.75849C76.7975 7.89075 76.8904 8.03547 76.983 8.18037C77.1091 8.37754 77.2326 8.36735 77.3587 8.17897C77.4501 8.04237 77.5458 7.90866 77.6396 7.77367C77.706 8.0421 77.6921 8.28405 77.7132 8.52292C77.721 8.61153 77.8109 8.69291 77.8633 8.77758C77.9165 8.69001 78.0118 8.60422 78.0156 8.51457C78.0323 8.11791 78.0286 7.72 78.0181 7.32291C78.0159 7.23841 77.9546 7.15546 77.9205 7.07181C77.8345 7.11752 77.7217 7.14257 77.6674 7.2128C77.4983 7.43122 77.3514 7.66676 77.1782 7.92167C77.0026 7.65416 76.8551 7.41593 76.6934 7.18766C76.5717 7.01576 76.4418 6.96298 76.3462 7.266ZM75.0308 7.97409C75.0309 8.14828 75.0113 8.32567 75.0387 8.49545C75.0547 8.59458 75.146 8.68154 75.2035 8.77398C75.2536 8.67753 75.3425 8.58286 75.347 8.48433C75.3641 8.11119 75.3539 7.73679 75.3539 7.34934C75.4793 7.34129 75.5697 7.35157 75.6485 7.32609C75.734 7.29844 75.8088 7.23749 75.8882 7.19107C75.8084 7.14433 75.7305 7.06149 75.6485 7.05726C75.3396 7.04136 75.0291 7.04249 74.7201 7.05735C74.646 7.06091 74.5756 7.14196 74.5035 7.18738C74.5735 7.23483 74.6489 7.32905 74.7126 7.32175C75.0109 7.2876 75.0569 7.44614 75.032 7.68459C75.024 7.76118 75.0308 7.8393 75.0308 7.97409Z" fill="#060419"/>
<path d="M29.1182 32.6159C29.4969 31.1148 30.1825 29.7535 31.1931 28.5723C32.6457 26.8746 34.4741 25.7564 36.6458 25.2472C37.3658 25.0783 38.1242 25.0053 38.8652 25.0044C50.5209 24.9898 62.1766 24.9997 73.8323 24.9875C75.3788 24.9859 76.8807 24.676 78.3193 24.0889C80.0886 23.3668 81.6041 22.2812 82.8723 20.8609C83.507 20.15 84.0423 19.3641 84.4953 18.5161C85.1016 17.3809 85.5128 16.1852 85.7491 14.928C85.8337 14.4781 85.8459 14.0146 85.9129 13.5448C85.9345 19.8914 85.9345 26.2505 85.9345 32.6159C67.0048 32.6159 48.0751 32.6159 29.1182 32.6159Z" fill="white"/>
<path d="M11.2018 0.615967C10.8776 0.673928 10.5192 0.705789 10.1758 0.795032C9.34258 1.01155 8.49707 1.20271 7.69202 1.50017C6.64416 1.88734 5.68801 2.46276 4.80539 3.15791C3.92808 3.84887 3.15407 4.63198 2.48717 5.53007C1.62146 6.69589 0.978124 7.96486 0.57378 9.35956C0.296287 10.3167 0.117801 11.2872 0.07995 12.2979C0.058197 8.41667 0.058197 4.52283 0.058197 0.615967C3.76365 0.615967 7.46911 0.615967 11.2018 0.615967Z" fill="white"/>
<path d="M85.9346 11.9923C85.896 11.7609 85.8499 11.503 85.8199 11.2433C85.6238 9.54464 85.0644 7.97394 84.1827 6.51133C83.6158 5.57102 82.9441 4.71499 82.1484 3.96183C80.9935 2.86855 79.6678 2.03337 78.1948 1.43467C77.2482 1.04993 76.2565 0.834878 75.251 0.677701C75.1183 0.656952 74.9811 0.664433 74.8339 0.637403C78.5219 0.615967 82.2219 0.615967 85.9346 0.615967C85.9346 4.39899 85.9346 8.18203 85.9346 11.9923Z" fill="white"/>
<path d="M45.4075 11.5144C45.1129 12.1924 44.6508 12.6993 44.035 13.0955C44.6615 13.5135 45.0928 14.0426 45.2044 14.7805C45.2594 15.144 45.2856 15.512 45.3222 15.8782C45.3617 16.2737 45.4445 16.63 45.8349 16.8582C46.098 17.0121 46.1416 17.3073 46.0679 17.5837C45.9929 17.8654 45.7916 18.0395 45.4872 18.0801C44.938 18.1535 44.3808 17.8231 44.0591 17.2252C43.7952 16.7347 43.7184 16.2006 43.6951 15.6546C43.6889 15.5094 43.6951 15.3637 43.6872 15.2187C43.6467 14.4778 43.1766 13.9268 42.4356 13.8985C41.285 13.8546 40.1314 13.8869 38.9319 13.8869C38.9319 13.9918 38.9319 14.0937 38.9319 14.1957C38.9319 15.2134 38.9329 16.231 38.9314 17.2487C38.9305 17.7965 38.6902 18.0757 38.2235 18.0786C37.6697 18.082 37.2877 17.743 37.2874 17.2339C37.2855 14.1324 37.2855 11.0309 37.2873 7.92944C37.2876 7.40406 37.585 7.0813 38.1065 7.07811C39.599 7.06897 41.0928 7.03869 42.5839 7.08578C44.8295 7.15671 46.2203 9.35097 45.4075 11.5144ZM39.256 8.59474C39.1539 8.59985 39.0518 8.60496 38.9582 8.60964C38.9582 9.91677 38.9582 11.189 38.9582 12.4739C40.1566 12.4739 41.3285 12.4833 42.5 12.4682C42.8553 12.4636 43.14 12.263 43.3678 11.9942C43.8635 11.4095 44.0219 10.7259 43.9063 9.98384C43.7933 9.258 43.1949 8.55341 42.2468 8.58704C41.2695 8.62171 40.29 8.59474 39.256 8.59474Z" fill="#FEFEFF"/>
<path d="M58.6633 8.10636C59.8037 9.35291 59.947 11.7305 57.8919 13.0953C58.0342 13.2122 58.1794 13.3202 58.3117 13.4423C58.7644 13.8602 59.0199 14.3721 59.0679 14.9934C59.0999 15.4078 59.1357 15.827 59.2319 16.2292C59.2806 16.4327 59.4367 16.6376 59.5983 16.7808C59.8586 17.0114 60.0006 17.3025 59.9089 17.5942C59.8141 17.8954 59.552 18.0817 59.198 18.0911C58.6132 18.1067 58.2436 17.7584 57.9534 17.3138C57.6541 16.8552 57.5688 16.3273 57.542 15.7898C57.5334 15.6157 57.5399 15.4409 57.5322 15.2668C57.5 14.5392 57.1049 13.9701 56.4058 13.9286C55.2122 13.8577 54.0113 13.9091 52.7791 13.9091C52.7791 14.0075 52.7791 14.1112 52.7791 14.215C52.7791 15.2132 52.7808 16.2114 52.7784 17.2096C52.7769 17.7776 52.533 18.0731 52.071 18.0785C51.4879 18.0854 51.1209 17.7501 51.1203 17.1862C51.1171 14.114 51.1166 11.0419 51.1208 7.96982C51.1217 7.36951 51.4199 7.07745 52.02 7.07556C53.4446 7.07108 54.8693 7.07217 56.2939 7.07479C57.2231 7.0765 58.013 7.40732 58.6633 8.10636ZM54.1382 8.59472C53.6955 8.59472 53.2529 8.59472 52.7999 8.59472C52.7999 9.9048 52.7999 11.1773 52.7999 12.4772C52.9158 12.4772 53.0107 12.4772 53.1056 12.4772C54.1135 12.4772 55.1215 12.4703 56.1294 12.4802C56.5931 12.4848 56.9582 12.304 57.241 11.9529C57.6981 11.3851 57.8497 10.7287 57.7503 10.0153C57.6527 9.31589 57.0701 8.53302 56.0569 8.58848C55.4384 8.62233 54.8166 8.59472 54.1382 8.59472Z" fill="#FEFEFF"/>
<path d="M32.5325 17.0186C32.5317 17.284 32.5804 17.5482 32.5018 17.7665C32.4045 18.0367 32.1375 18.1568 31.839 18.1444C31.4998 18.1304 31.2812 17.9359 31.153 17.6406C30.8677 16.9835 30.5849 16.325 30.3184 15.6602C30.2384 15.4604 30.1379 15.3871 29.9173 15.3888C28.5017 15.3996 27.0859 15.4003 25.6703 15.3882C25.4476 15.3863 25.35 15.459 25.2713 15.6587C25.012 16.3159 24.7326 16.9652 24.4608 17.6174C24.355 17.8713 24.1946 18.0769 23.911 18.1282C23.6465 18.176 23.3813 18.1638 23.1933 17.9287C22.9982 17.6846 22.9952 17.4102 23.1091 17.1328C23.5171 16.1389 23.9288 15.1465 24.3397 14.1539C25.2432 11.9714 26.1471 9.78907 27.0504 7.60649C27.2199 7.19693 27.4546 7.01617 27.8224 7.01599C28.2032 7.0158 28.4635 7.20684 28.6298 7.60781C29.9283 10.7375 31.2269 13.8672 32.5325 17.0186ZM26.7956 12.0209C26.5451 12.6247 26.2945 13.2284 26.032 13.861C27.2245 13.861 28.3641 13.861 29.5523 13.861C28.9613 12.4629 28.3821 11.0927 27.7793 9.66669C27.4397 10.4807 27.1268 11.2306 26.7956 12.0209Z" fill="#FEFEFE"/>
<path d="M12.8766 9.94559C11.783 11.4358 11.7463 13.7407 12.7935 15.1787C13.6702 16.3823 14.9134 16.7344 16.3278 16.6448C16.905 16.6083 17.4402 16.4165 17.9596 16.1596C18.5709 15.8572 19.1951 16.2652 19.1593 16.9206C19.1456 17.1712 19.0363 17.3672 18.8159 17.492C15.8761 19.1561 11.4867 18.0713 10.5148 14.2094C10.0192 12.24 10.3173 10.3833 11.702 8.81781C12.8979 7.46559 14.4513 6.92648 16.2341 6.99851C17.0901 7.0331 17.8948 7.25908 18.6513 7.65927C19.1248 7.90972 19.2799 8.31437 19.0648 8.73715C18.8306 9.19764 18.4482 9.31826 17.9418 9.06415C16.7508 8.46642 15.5365 8.37008 14.2926 8.87572C13.7346 9.10259 13.2688 9.46018 12.8766 9.94559Z" fill="#FEFEFE"/>
<path d="M65.6519 8.09723C66.4575 9.199 67.2504 10.2841 68.0657 11.3999C68.3292 11.026 68.574 10.6806 68.8166 10.3337C69.4997 9.35713 70.1789 8.37786 70.8659 7.40412C71.0919 7.08393 71.3761 6.97245 71.691 7.06226C72.0299 7.15897 72.2739 7.3856 72.2824 7.73364C72.2881 7.96529 72.2023 8.23611 72.0692 8.42837C71.0437 9.91022 69.9932 11.3747 68.9621 12.8527C68.865 12.992 68.8035 13.187 68.8018 13.357C68.7886 14.6365 68.7955 15.9163 68.7941 17.196C68.7935 17.745 68.496 18.0794 68.015 18.0787C67.5302 18.0779 67.2159 17.7459 67.2138 17.207C67.2087 15.8594 67.2173 14.5118 67.205 13.1644C67.2036 13.0053 67.1422 12.8204 67.0476 12.6925C66.0454 11.3366 65.0304 9.99007 64.0204 8.63984C63.9278 8.51601 63.8323 8.39127 63.7613 8.25489C63.5438 7.83698 63.6469 7.43373 64.0219 7.1883C64.422 6.92642 64.8196 6.99035 65.1237 7.37725C65.3032 7.60568 65.4679 7.84575 65.6519 8.09723Z" fill="#FDFEFE"/>
<path d="M76.3474 7.24203C76.4418 6.96296 76.5717 7.01573 76.6934 7.18763C76.855 7.4159 77.0026 7.65414 77.1782 7.92165C77.3514 7.66674 77.4983 7.43119 77.6674 7.21277C77.7217 7.14255 77.8345 7.1175 77.9205 7.07178C77.9546 7.15544 78.0159 7.23838 78.0181 7.32288C78.0286 7.71997 78.0323 8.11789 78.0156 8.51454C78.0118 8.6042 77.9165 8.68999 77.8633 8.77756C77.8108 8.69288 77.721 8.61151 77.7132 8.52289C77.6921 8.28403 77.7059 8.04208 77.6396 7.77364C77.5458 7.90864 77.4501 8.04234 77.3587 8.17894C77.2326 8.36733 77.1091 8.37751 76.983 8.18034C76.8903 8.03545 76.7974 7.89073 76.6347 7.75846C76.6347 8.01261 76.6456 8.26748 76.6287 8.52051C76.623 8.60663 76.5475 8.6881 76.5038 8.7717C76.4511 8.68654 76.3561 8.60298 76.3528 8.51593C76.337 8.0998 76.346 7.68272 76.3474 7.24203Z" fill="#F8FAFB"/>
<path d="M75.0308 7.94539C75.0308 7.83929 75.024 7.76116 75.032 7.68458C75.0569 7.44612 75.0109 7.28759 74.7126 7.32174C74.6489 7.32903 74.5735 7.23481 74.5035 7.18736C74.5756 7.14194 74.646 7.06089 74.7201 7.05733C75.029 7.04247 75.3396 7.04134 75.6485 7.05725C75.7305 7.06147 75.8084 7.14431 75.8882 7.19105C75.8088 7.23748 75.734 7.29842 75.6485 7.32607C75.5697 7.35155 75.4793 7.34127 75.3539 7.34932C75.3539 7.73678 75.3641 8.11117 75.347 8.48431C75.3425 8.58285 75.2536 8.67752 75.2034 8.77396C75.146 8.68152 75.0547 8.59456 75.0387 8.49543C75.0112 8.32566 75.0309 8.14827 75.0308 7.94539Z" fill="#FDFDFE"/>
<path d="M39.2838 8.59474C40.29 8.59473 41.2695 8.6217 42.2468 8.58703C43.1949 8.5534 43.7933 9.25799 43.9063 9.98384C44.0218 10.7259 43.8635 11.4095 43.3678 11.9942C43.1399 12.263 42.8552 12.4636 42.5 12.4682C41.3284 12.4833 40.1566 12.4739 38.9582 12.4739C38.9582 11.189 38.9582 9.91677 38.9582 8.60964C39.0518 8.60496 39.1539 8.59985 39.2838 8.59474Z" fill="#060419"/>
<path d="M54.1673 8.59473C54.8167 8.59473 55.4384 8.62233 56.0569 8.58848C57.0701 8.53302 57.6527 9.3159 57.7503 10.0153C57.8498 10.7287 57.6981 11.3851 57.241 11.9529C56.9582 12.304 56.5931 12.4848 56.1294 12.4802C55.1215 12.4703 54.1135 12.4772 53.1056 12.4772C53.0107 12.4772 52.9158 12.4772 52.7999 12.4772C52.7999 11.1773 52.7999 9.9048 52.7999 8.59473C53.2529 8.59473 53.6956 8.59473 54.1673 8.59473Z" fill="#060419"/>
<path d="M26.8048 12.0006C27.1268 11.2306 27.4397 10.4807 27.7793 9.66669C28.3821 11.0927 28.9613 12.4629 29.5523 13.861C28.3641 13.861 27.2245 13.861 26.032 13.861C26.2945 13.2284 26.545 12.6247 26.8048 12.0006Z" fill="#060419"/>
</g>
<defs>
<clipPath id="clip0_81_2">
<rect fill="white" height="32" transform="translate(0 0.55777)" width="85.8764"/>
</clipPath>
</defs>
</svg>