<?xml version="1.0" encoding="utf-8"?>
<svg xmlns="http://www.w3.org/2000/svg" fill="none" height="56" viewBox="0 0 198 56" width="198">
<path d="M105.6 27.9467C105.6 23.6121 105.6 19.2775 105.6 14.9428C105.6 14.4188 105.6 14.4276 106.144 14.4276C108.169 14.4276 110.202 14.4454 112.227 14.4276C112.619 14.4276 112.709 14.552 112.709 14.9162C112.7 18.0694 112.709 21.2227 112.709 24.3848C112.709 24.9089 112.709 24.9178 113.226 24.9178C116.277 24.9178 119.327 24.9178 122.378 24.9178C123.038 24.9178 123.038 24.9178 123.038 24.2516C123.038 21.125 123.038 17.9984 123.038 14.8718C123.038 14.5431 123.127 14.4188 123.475 14.4188C125.544 14.4365 127.622 14.4365 129.692 14.4188C130.031 14.4188 130.147 14.5254 130.147 14.854C130.129 18.9577 130.111 23.0702 130.111 27.1739C130.111 30.7536 130.129 34.3332 130.138 37.9128C130.138 38.952 130.138 39.9913 130.147 41.0216C130.147 41.3769 130.031 41.4835 129.674 41.4835C127.631 41.4746 125.589 41.4835 123.546 41.4835C123.073 41.4835 123.047 41.448 123.047 40.9595C123.047 37.6463 123.047 34.3332 123.047 31.0289C123.047 30.3361 123.127 30.3805 122.404 30.3894C119.372 30.3983 116.33 30.3894 113.297 30.3894C112.7 30.3894 112.7 30.3894 112.7 30.9667C112.7 34.3243 112.7 37.673 112.709 41.0305C112.709 41.3592 112.619 41.4835 112.272 41.4835C110.167 41.4835 108.07 41.4835 105.965 41.5013C105.546 41.5013 105.582 41.2792 105.582 41.0128C105.582 36.6515 105.582 32.2902 105.582 27.9201L105.6 27.9467Z" fill="#060419"/>
<path d="M103.905 41.4569C103.637 41.4746 103.504 41.4924 103.361 41.4924C100.712 41.4924 98.0625 41.4924 95.4223 41.5013C95.0209 41.5013 94.7533 41.3592 94.5125 41.0483C91.899 37.6907 89.2856 34.342 86.6632 30.9845C86.4313 30.6914 86.2172 30.3894 85.9942 30.1051C85.8961 29.9808 85.7712 29.8831 85.5661 29.6877C85.5393 29.963 85.5126 30.1051 85.5126 30.2561C85.5126 33.8535 85.5125 37.4509 85.5215 41.0394C85.5215 41.3769 85.4679 41.519 85.0844 41.5102C83.0418 41.4924 80.9992 41.4924 78.9566 41.5102C78.582 41.5102 78.466 41.4125 78.466 41.0305C78.4749 32.3346 78.466 23.6387 78.466 14.9428C78.466 14.4365 78.466 14.4365 78.9566 14.4365C81.017 14.4365 83.0686 14.4365 85.129 14.4365C85.4234 14.4365 85.5571 14.5253 85.5393 14.8185C85.5304 15.1027 85.5215 15.3869 85.5215 15.6712C85.5215 18.7978 85.5125 21.9244 85.5036 25.051C85.5036 25.202 85.5215 25.353 85.5304 25.6017C85.6999 25.4951 85.8247 25.4507 85.8872 25.3619C88.2331 22.3241 90.57 19.2774 92.907 16.2308C93.2816 15.7422 93.6205 15.2359 94.0219 14.7652C94.1557 14.6053 94.4233 14.4543 94.6285 14.4543C97.2776 14.4365 99.9267 14.4454 102.567 14.4543C102.665 14.4543 102.754 14.4898 102.933 14.5165C102.736 14.7563 102.594 14.9517 102.433 15.1382C99.561 18.5047 96.6889 21.8711 93.8168 25.2376C93.344 25.7883 92.8713 26.3479 92.3896 26.8986C92.1577 27.1562 92.1666 27.3516 92.3896 27.6269C94.9852 30.7269 97.563 33.8358 100.15 36.9357C101.283 38.2947 102.424 39.6537 103.557 41.0128C103.655 41.1282 103.735 41.2526 103.896 41.4569H103.905Z" fill="#060419"/>
<path d="M160.465 27.9112C160.589 35.9764 154.042 42.4517 145.97 42.5938C138.094 42.7359 131.092 36.465 131.074 27.9822C131.056 19.8193 137.871 13.2729 146.006 13.4151C153.971 13.5572 160.482 19.917 160.465 27.9112ZM159.082 29.0837C159.082 29.0837 158.993 29.057 158.957 29.0392C158.886 29.1458 158.797 29.2347 158.752 29.3501C158.565 29.7765 158.395 30.2206 158.208 30.647C156.709 34.0933 154.051 36.3051 150.582 37.6286C148.039 38.5967 145.453 38.7833 142.839 37.8506C138.629 36.3406 136.221 33.4183 135.766 29.0126C135.552 26.9519 135.989 24.9711 136.979 23.1235C138.924 19.5084 143.455 16.897 147.709 17.4921C150.662 17.9096 153.017 19.2242 154.72 21.6579C154.801 21.7734 154.899 21.8711 154.988 21.9688H155.113C155.157 21.8001 155.229 21.6402 155.238 21.4803C155.247 21.0095 155.211 20.5388 155.238 20.0769C155.273 19.2508 154.908 18.6557 154.248 18.1672C151.268 15.9821 147.906 15.0672 144.258 15.5912C139.762 16.2485 136.694 18.9044 134.74 22.8571C133.839 24.6691 133.572 26.6143 133.67 28.6573C133.768 30.6026 134.205 32.4146 135.151 34.1022C136.497 36.5094 138.415 38.348 140.939 39.5116C143.597 40.7374 146.363 40.8706 149.19 40.2311C152.481 39.4939 155.059 37.6996 156.995 34.9994C158.012 33.5782 158.627 31.9704 158.957 30.2739C159.037 29.8831 159.055 29.4834 159.1 29.0837H159.082ZM153.802 25.9037C153.802 25.9037 153.873 25.9037 153.909 25.9037C154.123 25.4152 154.346 24.9178 154.56 24.4293C154.694 24.1184 154.64 23.8341 154.479 23.5321C153.811 22.262 152.829 21.2938 151.67 20.4677C149.663 19.0554 147.486 18.3714 145.016 18.8245C139.477 19.837 136.212 25.1843 137.63 30.4338C139.04 35.6478 144.159 37.6019 148.575 36.8735C150.956 36.4827 152.972 35.2658 154.685 33.6492C156.843 31.6063 157.994 29.0126 158.476 26.1169C158.556 25.6462 158.538 25.1576 158.565 24.678C158.529 24.678 158.502 24.678 158.467 24.678C158.44 24.7579 158.422 24.829 158.395 24.9089C158.199 25.5929 158.047 26.2857 157.807 26.9519C157.066 28.986 155.853 30.718 154.194 32.1214C151.242 34.6174 147.897 35.6922 144.043 34.5996C142.242 34.0933 140.788 33.1163 139.976 31.3753C139.423 30.2028 139.28 28.9504 139.352 27.6802C139.432 26.3745 139.744 25.131 140.431 24.0029C142.313 20.9029 146.791 19.535 150.18 21.4625C151.804 22.3863 153.061 23.6121 153.579 25.4596C153.623 25.6195 153.712 25.7616 153.784 25.9126L153.802 25.9037ZM151.777 27.9556C151.777 27.9556 151.857 28.0089 151.902 28.0355C152.196 27.7779 152.473 27.5026 152.785 27.2628C153.106 27.014 153.168 26.6943 153.061 26.3479C152.374 24.0651 151.01 22.3863 148.593 21.7645C147.906 21.5869 147.139 21.5958 146.416 21.6402C145.096 21.7201 143.892 22.1909 142.866 23.0258C140.957 24.5625 140.146 26.561 140.422 28.9771C140.609 30.6026 141.341 31.9172 142.741 32.832C143.722 33.4716 144.802 33.8091 145.97 33.9157C148.004 34.1022 149.93 33.7736 151.697 32.7432C154.578 31.0644 156.362 28.5862 157.084 25.3619C157.262 24.5536 157.352 23.7276 157.477 22.9104C157.423 22.9015 157.369 22.8837 157.325 22.8748C157.271 23.0258 157.218 23.1768 157.173 23.3278C157.057 23.7364 156.941 24.145 156.825 24.5536C155.817 28.0444 153.516 30.3983 150.189 31.8106C148.887 32.3702 147.504 32.6277 146.104 32.3169C143.767 31.7928 141.814 29.6788 142.295 27.0496C142.563 25.5751 143.259 24.3404 144.579 23.5943C147.344 22.031 151.17 23.3811 151.661 26.8453C151.714 27.2095 151.741 27.5648 151.786 27.9289L151.777 27.9556ZM149.815 28.9415C150.519 29.0748 151.152 28.6484 151.17 27.9822C151.179 27.5026 151.135 27.0141 151.045 26.5522C150.733 24.9711 148.923 23.4255 146.844 23.6565C144.605 23.9052 143.214 25.5218 143.107 27.4937C143.036 28.9859 143.803 30.0785 145.016 30.8601C146.586 31.8727 148.298 31.7662 149.939 31.1355C153.329 29.8387 155.452 27.3782 156.326 23.8963C156.585 22.8748 156.745 21.8356 156.54 20.7786C156.469 20.4144 156.29 20.1124 155.907 19.8193C155.889 20.0858 155.88 20.2545 155.871 20.4144C155.844 21.0628 155.871 21.729 155.791 22.3685C155.443 24.9622 154.301 27.1295 152.107 28.6662C150.805 29.5811 149.36 30.1495 147.745 30.2028C146.238 30.2473 145.087 29.4034 145.123 27.7868C145.158 26.4189 146.041 25.4685 147.424 25.4507C148.923 25.433 149.904 26.3301 149.904 27.7335C149.904 28.1421 149.85 28.5418 149.815 28.9504V28.9415ZM147.932 29.4301C147.932 29.4301 147.932 29.3945 147.941 29.3768C148.013 29.3768 148.084 29.3768 148.155 29.3768C149.154 29.359 149.279 29.2347 149.377 28.2665C149.493 27.0673 148.86 25.886 147.308 26.0636C146.514 26.1525 145.979 26.6765 145.863 27.5559C145.756 28.3109 146.131 28.9682 146.844 29.1991C147.192 29.3146 147.567 29.3501 147.932 29.4301Z" fill="#060419"/>
<path d="M178.982 27.9556C178.982 23.6387 178.982 19.313 178.982 14.9961C178.982 14.4454 178.982 14.4365 179.526 14.4365C184.334 14.4365 189.141 14.4365 193.94 14.4365C194.475 14.4365 194.484 14.4543 194.484 14.9961C194.484 16.6305 194.475 18.2649 194.484 19.8992C194.484 20.2634 194.342 20.3522 194.003 20.3522C191.559 20.3433 189.115 20.3522 186.662 20.3522C186.002 20.3522 186.002 20.3522 186.002 21.0095C186.002 22.1021 186.002 23.1946 186.002 24.296C186.002 24.8911 186.019 24.9089 186.599 24.9089C188.901 24.9089 191.202 24.9178 193.503 24.9267C194.047 24.9267 194.047 24.9267 194.047 25.4685C194.047 27.0762 194.038 28.6839 194.038 30.2828C194.038 30.8779 194.038 30.8957 193.414 30.9045C192.147 30.9223 190.881 30.9223 189.614 30.9223C188.517 30.9223 187.429 30.9046 186.332 30.8957C186.1 30.8957 185.993 30.9667 185.993 31.2066C185.993 32.5567 185.993 33.9068 186.011 35.2569C186.011 35.3635 186.198 35.5412 186.314 35.5589C188.285 35.7632 190.256 35.8965 192.245 35.7277C192.87 35.6744 193.503 35.63 194.127 35.5678C194.395 35.5412 194.475 35.6655 194.475 35.9142C194.475 37.6641 194.475 39.4139 194.475 41.1549C194.475 41.3858 194.386 41.5013 194.145 41.4924C193.842 41.4924 193.539 41.4924 193.235 41.4924C188.731 41.4924 184.227 41.4924 179.722 41.4924C178.812 41.4924 178.955 41.4924 178.955 40.7374C178.955 36.4738 178.955 32.2103 178.955 27.9467L178.982 27.9556Z" fill="#060419"/>
<path d="M75.8347 32.7787C75.8347 33.0541 75.8347 33.3383 75.8347 33.6137C75.8347 35.9142 75.8347 38.2148 75.8347 40.5153C75.8347 40.7285 75.8793 40.9239 75.576 41.0216C73.9437 41.5279 72.3025 41.9898 70.5988 42.1763C68.7971 42.3629 67.0488 42.123 65.3362 41.5812C62.1162 40.5775 59.4314 38.801 57.4245 36.1008C56.256 34.5197 55.5246 32.7432 55.2035 30.7979C54.8378 28.5596 54.8289 26.3212 55.4711 24.1361C56.5682 20.3877 58.8249 17.5276 62.2946 15.6268C63.8734 14.7563 65.5325 14.1079 67.3432 13.868C69.582 13.566 71.7762 13.6993 73.9259 14.4365C74.4165 14.6053 74.8981 14.7918 75.3887 14.9339C75.7277 15.0227 75.8347 15.1826 75.8347 15.529C75.8169 17.7497 75.8347 19.9614 75.8347 22.182C75.8347 22.5728 75.8347 22.9636 75.8347 23.4699C73.9972 21.347 71.7406 20.3789 69.029 20.5654C67.1113 20.6897 65.5057 21.4892 64.1945 22.8837C61.3759 25.8771 61.9111 30.7624 64.0518 33.0541C65.6573 34.7595 67.6643 35.4612 69.9656 35.4257C72.2847 35.3813 74.1667 34.3864 75.7277 32.7165C75.7633 32.7432 75.799 32.7698 75.8347 32.7965V32.7787Z" fill="#060419"/>
<path d="M25.3137 32.8675C25.3137 33.0452 25.3137 33.2317 25.3137 33.4094C25.3137 35.7543 25.3047 38.0993 25.3137 40.4443C25.3137 40.844 25.1888 41.0305 24.7874 41.1193C23.3781 41.4302 21.9866 41.8299 20.5595 42.0964C18.8558 42.4073 17.1611 42.2207 15.4931 41.7677C11.6041 40.7018 8.48224 38.6056 6.35043 35.1859C5.26223 33.4449 4.74489 31.5085 4.54866 29.4656C4.36134 27.4581 4.54866 25.4951 5.18195 23.5854C6.07392 20.8851 7.62595 18.6201 9.9183 16.8792C11.6933 15.5202 13.6556 14.552 15.8499 14.0546C17.5357 13.6726 19.2394 13.646 20.943 13.868C22.2988 14.0457 23.6011 14.4543 24.8855 14.9162C25.2156 15.0316 25.3226 15.2093 25.3226 15.5379C25.3226 17.8118 25.3226 20.0857 25.3226 22.3596C25.3226 22.6616 25.3226 22.9636 25.2691 23.2834C23.4316 21.3115 21.1839 20.3788 18.508 20.5565C16.5813 20.6897 14.9936 21.5069 13.6824 22.9015C11.1046 25.6461 11.2919 30.5137 13.4594 32.912C15.0382 34.6618 17.0273 35.4257 19.3642 35.4168C21.7012 35.399 23.6011 34.4131 25.2156 32.7965L25.3137 32.8675Z" fill="#060419"/>
<path d="M27.9717 27.9734C27.9717 23.6387 27.9717 19.3041 27.9717 14.9695C27.9717 14.6083 28.156 14.4306 28.5247 14.4365C30.5138 14.4365 32.494 14.4365 34.483 14.4365C35.0807 14.4365 35.0807 14.4365 35.0807 15.005C35.0807 21.6668 35.0807 28.3287 35.0807 34.9994C35.0807 35.559 35.0807 35.5412 35.6426 35.5678C36.927 35.63 38.2115 35.7633 39.5048 35.7721C40.4146 35.781 41.3334 35.6389 42.2432 35.5767C42.5464 35.559 42.8497 35.5945 43.144 35.559C43.4919 35.5234 43.6079 35.6744 43.6079 35.9942C43.599 37.2555 43.59 38.5257 43.59 39.787C43.59 40.2311 43.59 40.6664 43.6257 41.1105C43.6436 41.3858 43.5365 41.5013 43.26 41.5013C42.7605 41.5013 42.2521 41.5102 41.7526 41.5102C37.3463 41.5102 32.9489 41.5102 28.5425 41.5102C28.1679 41.5102 27.9806 41.3325 27.9806 40.9772C27.9806 36.6426 27.9806 32.308 27.9806 27.9734H27.9717Z" fill="#060419"/>
<path d="M161.365 27.9467C161.365 23.6121 161.365 19.2774 161.365 14.9428C161.365 14.4543 161.374 14.4365 161.874 14.4365C163.872 14.4365 165.87 14.4365 167.877 14.4365C168.403 14.4365 168.403 14.4365 168.403 14.9517C168.403 21.6491 168.403 28.3375 168.403 35.0349C168.403 35.5589 168.403 35.5412 168.92 35.5678C170.134 35.63 171.347 35.7632 172.569 35.7721C173.469 35.781 174.37 35.6478 175.262 35.5856C175.717 35.5589 176.181 35.5678 176.645 35.5589C176.859 35.5589 176.957 35.6389 176.957 35.8609C176.957 37.6374 176.957 39.4139 176.957 41.1904C176.957 41.4125 176.841 41.4924 176.636 41.4924C176.279 41.4924 175.913 41.4924 175.557 41.4924C171.025 41.4924 166.494 41.4924 161.963 41.4924C161.374 41.4924 161.374 41.4924 161.374 40.8973C161.374 36.5804 161.374 32.2547 161.374 27.9378L161.365 27.9467Z" fill="#060419"/>
<path d="M45.6327 27.929C45.6327 23.6476 45.6327 19.3752 45.6327 15.0939C45.6327 15.0406 45.6327 14.9784 45.6327 14.9251C45.6148 14.4454 45.6148 14.4454 46.1232 14.4454C47.1758 14.4454 48.2283 14.4454 49.2719 14.4454C50.262 14.4454 51.261 14.4543 52.2511 14.4454C52.5989 14.4454 52.6881 14.5609 52.6881 14.8896C52.6881 23.621 52.6881 32.3435 52.6881 41.075C52.6881 41.4214 52.5722 41.5191 52.2421 41.5191C50.1728 41.5191 48.0945 41.5191 46.0251 41.5191C45.6951 41.5191 45.5613 41.4214 45.597 41.0661C45.6416 40.5864 45.6237 40.0979 45.6237 39.6182C45.6237 35.7277 45.6237 31.8283 45.6237 27.9378L45.6327 27.929Z" fill="#060419"/>
</svg>