<?xml version="1.0" encoding="utf-8"?>
<svg xmlns="http://www.w3.org/2000/svg" fill="none" height="28" viewBox="0 0 152 28" width="152">
<mask height="28" id="mask0_24_23" maskUnits="userSpaceOnUse" style="mask-type:luminance" width="152" x="0" y="0">
<path d="M151.102 0.844055H0.597717V27.0411H151.102V0.844055Z" fill="white"/>
</mask>
<g mask="url(#mask0_24_23)">
<path d="M141.755 25.7237C141.571 25.7237 141.389 25.7221 141.205 25.7237C141.079 25.7268 141.021 25.6608 141.074 25.5556C141.337 25.0448 141.134 24.5671 140.964 24.0989C140.568 23.013 139.966 22.0309 139.36 21.055C139.266 20.9026 139.209 20.7219 139.05 20.6135C139.049 20.5396 139.074 20.45 139.041 20.3935C138.827 20.0289 138.629 19.6533 138.37 19.317C138.298 19.2227 138.236 19.1725 138.139 19.3312C137.493 20.3762 137.077 21.506 136.91 22.716C136.762 23.7909 136.846 24.8264 137.768 25.6514C137.636 25.6514 137.546 25.6514 137.457 25.6514C136.055 25.6514 134.653 25.6467 133.253 25.6546C132.813 25.6561 132.372 25.6404 131.935 25.7253C131.602 25.7253 131.267 25.7253 130.934 25.7253C130.833 25.6263 130.684 25.7127 130.557 25.6341C130.917 25.4047 131.339 25.2963 131.573 24.9238C131.638 24.9301 131.68 24.8924 131.729 24.8594C132.274 24.476 132.804 24.0753 133.278 23.607C134.023 22.8731 134.752 22.1252 135.427 21.3222C136.181 20.4233 136.91 19.504 137.62 18.5706C137.708 18.4543 137.704 18.349 137.628 18.2296C137.231 17.59 136.836 16.9473 136.442 16.3046C135.67 15.0491 134.895 13.7935 134.129 12.5364C133.838 12.0587 133.502 11.6108 133.239 11.1158C133.291 10.921 133.128 10.8157 133.044 10.6821C132.633 10.03 132.229 9.36998 131.672 8.8247C131.473 8.62827 131.272 8.43184 130.987 8.28885C130.987 8.78384 130.994 9.24741 130.935 9.70783C130.697 11.5637 129.831 13.0455 128.281 14.1031C126.74 15.1559 124.988 15.6038 123.162 15.8128C122.569 15.8804 121.975 15.9259 121.333 15.9856C121.465 16.1098 121.562 16.2088 121.667 16.2999C122.508 17.0416 123.448 17.6451 124.383 18.2532C124.428 18.283 124.504 18.3569 124.573 18.2673C124.648 18.3742 124.779 18.393 124.882 18.4559C126.138 19.2086 127.439 19.8545 128.883 20.175C129.631 20.34 130.368 20.4327 131.097 20.0949C131.258 20.021 131.377 20.0635 131.413 20.2709C131.445 20.4547 131.423 20.6355 131.434 20.8177C131.363 20.9529 131.344 21.099 131.33 21.2467C131.228 22.2823 130.923 23.2471 130.337 24.1177C129.359 25.5681 127.712 26.2061 126.036 25.7755C124.975 25.5021 124.158 24.8704 123.452 24.0627C123.35 23.9464 123.314 23.7563 123.121 23.7264C122.613 23.0869 122.282 22.3514 121.944 21.6129C121.452 20.538 121.124 19.416 120.844 18.2768C120.75 17.8933 120.624 17.5146 120.608 17.1139C120.64 16.7839 120.531 16.4712 120.492 16.1491C120.478 16.0391 120.42 16.0013 120.305 16.0029C119.98 16.0061 119.653 16.0092 119.329 15.9872C119.122 15.9731 119.084 16.0548 119.084 16.2433C119.092 17.5696 119.084 18.8959 119.089 20.2206C119.093 21.3206 119.041 22.4237 119.158 23.5206C119.239 24.2906 119.304 25.0794 120.005 25.653C119.881 25.653 119.799 25.653 119.717 25.653C117.721 25.653 115.726 25.6514 113.73 25.6561C113.466 25.6561 113.197 25.6357 112.94 25.7268C112.639 25.7268 112.338 25.7268 112.038 25.7268C111.99 25.7268 111.932 25.741 111.904 25.686C111.871 25.62 111.913 25.5728 111.957 25.5336C112.617 24.9458 112.726 24.146 112.786 23.3383C112.965 20.901 112.877 18.4575 112.886 16.0171C112.899 12.6794 112.9 9.34169 112.88 6.00558C112.875 5.33301 112.88 4.65573 112.83 3.98474C112.773 3.25403 112.691 2.51704 112.324 1.85076C112.231 1.68105 112.072 1.59305 111.964 1.45005C111.929 1.40448 111.874 1.36519 111.901 1.29919C111.929 1.22691 112 1.25048 112.053 1.24891C112.496 1.24734 112.94 1.24891 113.381 1.24891C115.746 1.24891 118.11 1.23319 120.475 1.25519C122.123 1.27091 123.742 1.51919 125.321 2.00476C126.367 2.3269 127.353 2.77632 128.261 3.39075C128.31 3.42375 128.361 3.44732 128.38 3.5086C128.503 3.72703 128.726 3.8386 128.9 4.00203C130.066 5.08316 130.794 6.38743 130.948 7.98713C130.954 8.05942 130.953 8.15056 131.061 8.14742C131.374 8.14113 131.693 8.19142 131.995 8.05942C134.495 8.05942 136.993 8.05942 139.493 8.05942C139.797 8.05942 139.805 8.07199 139.693 8.34699C139.654 8.44599 139.605 8.54499 139.608 8.65499C139.476 8.8687 139.542 9.09184 139.589 9.30712C139.712 9.8634 139.944 10.3804 140.205 10.8833C140.826 12.0822 141.593 13.1948 142.275 14.3576C142.28 14.3655 142.302 14.3655 142.333 14.3718C142.43 14.1424 142.594 13.9365 142.58 13.6631C142.963 12.8711 143.229 12.043 143.389 11.1787C143.505 10.5501 143.502 9.9294 143.318 9.31341C143.361 9.15941 143.34 9.03055 143.174 8.96141C143.035 8.62041 142.693 8.42556 142.531 8.0987C142.619 8.03428 142.705 8.05942 142.784 8.05942C145.092 8.05785 147.401 8.05942 149.709 8.05942C149.752 8.05942 149.792 8.05628 149.835 8.05942C149.888 8.06413 149.961 8.04213 149.975 8.12542C149.986 8.19299 149.94 8.22913 149.884 8.25899C149.634 8.38785 149.384 8.51984 149.136 8.65027C149.008 8.6817 148.886 8.70998 148.766 8.78227C147.814 9.35427 147.008 10.1023 146.219 10.8723C144.965 12.0964 143.9 13.4808 142.793 14.8322C142.682 14.9674 142.688 15.0569 142.775 15.1968C143.871 16.9583 144.956 18.7278 146.057 20.4862C146.835 21.7292 147.517 23.0319 148.388 24.2167C148.705 24.6473 149.049 25.0574 149.497 25.3623C149.657 25.4707 149.838 25.5477 150.072 25.6718C149.972 25.6766 149.943 25.6797 149.915 25.6797C147.401 25.6341 144.886 25.6703 142.372 25.6624C142.168 25.6624 141.956 25.6357 141.759 25.7316L141.755 25.7237ZM120.212 15.1104C120.453 15.1135 120.691 15.1088 120.932 15.0664C121.84 14.9076 122.593 14.4896 123.163 13.7637C123.985 12.7202 124.254 11.4804 124.411 10.206C124.505 9.43755 124.474 8.66127 124.458 7.88813C124.45 7.47642 124.395 7.06471 124.339 6.65615C124.23 5.87829 124.028 5.12244 123.713 4.40116C123.806 4.21417 123.627 4.11831 123.562 3.99574C123.045 3.01046 122.246 2.38818 121.155 2.13518C120.611 2.00947 120.061 2.03461 119.513 2.03147C119.087 2.02833 119.085 2.03147 119.085 2.45104C119.085 6.35286 119.085 10.2547 119.085 14.1565C119.085 14.4566 119.09 14.7568 119.084 15.0569C119.081 15.1748 119.118 15.2188 119.239 15.2156C119.507 15.2078 119.774 15.2125 120.041 15.2156C120.124 15.2156 120.19 15.2046 120.214 15.1119L120.212 15.1104Z" fill="#060419"/>
<path d="M64.0709 9.90394C64.5314 9.4608 64.9902 9.01452 65.5465 8.68767C66.3322 8.22567 67.1761 7.97896 68.0859 7.8941C68.9376 7.81396 69.7516 7.93025 70.5546 8.1911C71.0323 8.34667 71.4613 8.5981 71.8746 8.87781C71.9202 8.90924 71.9484 8.96581 71.9846 9.00981C71.9877 9.18738 72.1669 9.20781 72.258 9.30523C72.8724 9.95894 73.3376 10.7022 73.633 11.5492C73.7603 11.9106 73.8593 12.2831 73.9834 12.6901C74.1076 12.3318 74.2129 12.0096 74.3339 11.6954C74.3826 11.5681 74.4187 11.4471 74.3889 11.3119C74.5947 10.9835 74.7833 10.6425 75.0096 10.3298C75.9351 9.05538 77.1545 8.22724 78.7212 7.95382C80.0711 7.7181 81.3597 7.89882 82.5696 8.55881C82.7991 8.68452 83.0316 8.81338 83.2139 9.00981C83.1982 9.08995 83.2564 9.13238 83.3066 9.17323C83.7702 9.55509 84.1112 10.0375 84.4051 10.5529C85.1389 11.8399 85.3903 13.2558 85.4123 14.7093C85.4453 16.9847 85.4265 19.2601 85.4359 21.5371C85.439 22.304 85.45 23.0708 85.571 23.8314C85.6543 24.3515 85.7565 24.867 86.0896 25.2991C86.176 25.4122 86.2798 25.5112 86.4023 25.6479C86.2562 25.6479 86.1556 25.6479 86.0566 25.6479C84.1442 25.6479 82.2334 25.6464 80.3209 25.6511C80.0491 25.6511 79.771 25.6369 79.5054 25.7249C79.2131 25.7249 78.9208 25.7249 78.6285 25.7249C78.5735 25.7249 78.5044 25.7485 78.4698 25.6841C78.429 25.6071 78.4902 25.5584 78.539 25.5144C79.1895 24.9282 79.3357 24.1331 79.3985 23.327C79.6232 20.3837 79.4598 17.4357 79.5022 14.4893C79.5132 13.7272 79.4331 12.9682 79.2964 12.2186C79.2492 11.9609 79.1377 11.7142 79.0544 11.4628C79.144 11.2946 78.9931 11.1878 78.9381 11.0668C78.583 10.2889 77.9465 9.89294 77.1545 9.95894C76.5087 10.0139 76.0608 10.4052 75.6978 10.8971C74.9027 11.9751 74.5004 13.2039 74.337 14.5208C74.2286 15.3992 74.1846 16.2792 74.1956 17.1655C74.2207 19.125 74.139 21.0861 74.2459 23.0425C74.2961 23.9728 74.3433 24.9251 75.1447 25.6479C75.0111 25.6479 74.92 25.6479 74.8289 25.6479C72.9243 25.6479 71.0213 25.6464 69.1168 25.6495C68.8355 25.6495 68.551 25.6354 68.276 25.7234C67.9759 25.7234 67.6742 25.7234 67.3741 25.7234C67.3191 25.7234 67.2499 25.7359 67.2311 25.6574C67.2153 25.5945 67.2452 25.5552 67.2971 25.5112C67.7795 25.1105 67.9539 24.548 68.0702 23.9665C68.1802 23.4134 68.21 22.8524 68.232 22.2867C68.331 19.6121 68.2603 16.9376 68.2666 14.263C68.2682 13.3469 68.1582 12.4308 67.8251 11.5586C67.8376 11.5288 67.8691 11.4911 67.8596 11.4706C67.6506 10.9976 67.4118 10.5435 66.9702 10.2339C66.4124 9.84423 65.5606 9.84423 65.0609 10.2717C64.3758 10.8578 63.8635 11.5712 63.5681 12.4292C63.3041 13.1961 63.1627 13.9912 63.0605 14.7942C62.9207 15.891 62.9552 16.9926 62.9631 18.0926C62.9757 19.8274 62.894 21.5638 63.0181 23.2955C63.0794 24.1441 63.1454 25.01 63.8871 25.6495C63.7661 25.6495 63.6844 25.6495 63.6011 25.6495C61.6714 25.6495 59.7417 25.6479 57.812 25.6511C57.5559 25.6511 57.295 25.6307 57.0451 25.7202C56.7529 25.7202 56.4606 25.7218 56.1683 25.7202C56.107 25.7202 56.0253 25.7438 56.0033 25.6511C55.986 25.5788 56.0143 25.5238 56.0756 25.4798C56.4292 25.2284 56.5784 24.8465 56.6869 24.4568C56.8361 23.921 56.9163 23.3725 56.8959 22.8131C56.9304 22.5695 56.9964 22.326 56.9933 22.0824C56.9807 21.127 57.0483 20.17 56.9461 19.2161C56.9147 17.1435 57.0011 15.0692 56.9021 12.9965C56.877 12.4716 56.8314 11.9546 56.679 11.4549C56.5816 11.1344 56.47 10.8059 56.1589 10.6095C56.1322 10.4712 56.2092 10.3424 56.3663 10.2607C56.3946 10.2465 56.4182 10.2245 56.4433 10.2057C56.8817 10.1915 57.2887 10.0312 57.6926 9.89451C59.4683 9.2958 61.1795 8.55567 62.7588 7.53425C62.8201 7.49496 62.8861 7.43211 62.9631 7.47139C63.0448 7.51382 63.0071 7.60496 63.0087 7.67568C63.0134 7.91767 63.0087 8.15967 63.0087 8.40167C62.9678 8.48495 62.9568 8.57295 62.9568 8.66724C62.9584 9.72323 62.9568 10.7808 62.9584 11.8368C62.9584 11.8776 62.9364 11.9311 62.9977 11.9704C63.2397 11.3025 63.5917 10.7038 64.0049 10.1412C64.0568 10.0689 64.0631 9.98723 64.0725 9.90551L64.0709 9.90394Z" fill="#060419"/>
<path d="M18.1269 10.3097C17.9053 10.5014 17.8535 10.2861 17.8016 10.1572C17.6947 9.89639 17.6146 9.6261 17.5235 9.36053C17.228 8.4884 16.8446 7.65555 16.3889 6.8557C16.3983 6.82113 16.4455 6.80227 16.4125 6.74884C16.0385 6.13442 15.6519 5.52785 15.1758 4.98571C13.4771 3.05287 11.4342 1.96388 8.77382 2.39445C7.83097 2.54688 7.01698 2.98216 6.3067 3.58873C5.60113 4.19215 5.16742 4.98729 4.90343 5.87671C4.44929 7.40569 4.52 8.94882 4.84843 10.4762C5.62942 14.1235 7.50569 17.0888 10.5087 19.3217C10.8402 19.5684 11.1749 19.8277 11.5757 19.9676C12.1209 20.2112 12.6379 20.5113 13.1958 20.7297C13.9391 21.022 14.7012 21.2341 15.4869 21.3693C16.227 21.4966 16.9735 21.5579 17.7199 21.5139C18.2589 21.4824 18.7963 21.4054 19.329 21.3049C20.3206 21.1179 21.2619 20.7831 22.1811 20.3793C22.2613 20.3447 22.354 20.2677 22.431 20.3589C22.4938 20.4327 22.431 20.5191 22.3917 20.5899C22.2644 20.8319 22.1324 21.0723 22.002 21.3143C21.9061 21.3929 21.815 21.4699 21.7411 21.5751C20.9209 22.7443 19.9104 23.7123 18.6674 24.4288C17.2186 25.2633 15.6535 25.7095 13.9909 25.8415C11.6967 26.0238 9.47781 25.7472 7.3674 24.784C5.76928 24.0548 4.41472 23.013 3.3053 21.6506C3.18273 21.5013 3.11987 21.2876 2.90773 21.2184C2.66887 20.9403 2.47716 20.6291 2.30588 20.3102C1.93817 19.6234 1.59088 18.9257 1.34731 18.1825C1.05503 17.2915 0.84603 16.3848 0.737604 15.4513C0.649604 14.6703 0.586748 13.8846 0.599319 13.0974C0.615033 12.1357 0.725032 11.1834 0.915173 10.2405C1.16817 8.98968 1.59088 7.80169 2.20845 6.68599C2.84959 5.52785 3.66829 4.51743 4.67243 3.64687C5.78027 2.68673 7.03426 1.99531 8.41554 1.53017C8.98439 1.33846 9.57367 1.21589 10.1661 1.09646C11.0524 0.91575 11.9355 0.859179 12.8281 0.845037C13.9783 0.829322 15.1082 1.00375 16.2239 1.26618C17.4245 1.54746 18.5952 1.94188 19.802 2.20117C20.6631 2.38502 21.5243 2.46674 22.3697 2.11474C22.4404 2.08488 22.5268 2.06917 22.5818 2.12888C22.6353 2.1886 22.5724 2.25617 22.5441 2.31274C22.4483 2.50445 22.3037 2.67102 22.255 2.8863C22.1403 2.89573 22.0916 2.97745 22.0381 3.06545C21.4143 4.08844 20.8627 5.15071 20.2781 6.1957C19.5852 7.43712 18.9063 8.6864 18.2227 9.93253C18.1599 10.0488 18.0986 10.1682 18.1269 10.3081V10.3097Z" fill="#060419"/>
<path d="M22.9035 20.9596C22.6364 20.2478 22.3865 19.5328 22.2828 18.7754C22.2325 18.4077 22.1602 18.0384 22.1602 17.6691C22.1602 16.8394 22.1068 16.0081 22.2482 15.18C22.4509 13.9826 22.8249 12.8574 23.4645 11.8156C24.0569 10.8491 24.8238 10.0509 25.7525 9.42073C26.7142 8.7686 27.7765 8.32703 28.9236 8.10232C29.4532 7.9986 29.9874 7.94989 30.5217 7.89018C31.1 7.82575 31.6673 7.8886 32.2377 7.91218C32.5269 7.92475 32.8223 8.00803 33.1098 8.04732C33.5294 8.10389 33.9411 8.18403 34.3387 8.30974C35.0993 8.5486 35.8378 8.84402 36.4962 9.30916C36.6911 9.44745 36.8938 9.57316 37.0918 9.70516C37.0997 9.89844 37.2819 9.93616 37.3919 10.0367C38.2562 10.8429 38.9665 11.7621 39.4364 12.848C40.3116 14.8704 40.4908 16.9761 40.0366 19.1148C39.1064 23.4959 35.8315 25.4617 32.2581 25.8876C31.3687 25.9929 30.4746 25.9127 29.5899 25.7792C27.3255 25.4366 25.4178 24.456 23.9909 22.6285C23.9579 22.586 23.9171 22.5625 23.8621 22.5719C23.6264 22.3425 23.4975 22.0376 23.3136 21.7721C23.2634 21.4578 23.1534 21.1733 22.9019 20.9596H22.9035ZM33.0313 10.0603C33.0438 10.0304 33.0753 9.9943 33.0674 9.9723C32.7908 9.23845 32.3603 8.63346 31.5274 8.51403C30.7873 8.40717 30.154 8.65388 29.7077 9.29031C29.4374 9.67687 29.2583 10.1059 29.1247 10.5553C28.7932 11.6726 28.669 12.8228 28.6062 13.981C28.4632 16.6241 28.4663 19.2641 28.8215 21.8931C28.933 22.7196 29.1169 23.5336 29.5192 24.2769C29.7706 24.7405 30.0896 25.1365 30.6317 25.2936C30.7276 25.3219 30.8046 25.3455 30.8863 25.2779C31.3687 25.4413 32.0413 25.2009 32.4467 24.7515C32.9213 24.2282 33.146 23.5886 33.3251 22.9333C33.6693 21.6746 33.762 20.3751 33.8186 19.0802C33.8531 18.2882 33.8673 17.4899 33.8374 16.6932C33.806 15.8384 33.8453 14.9804 33.7824 14.124C33.7761 14.0344 33.8186 13.9354 33.7966 13.8521C33.6614 13.332 33.674 12.793 33.586 12.265C33.4618 11.5139 33.3361 10.7643 33.0297 10.0603H33.0313Z" fill="#060419"/>
<path d="M41.0076 23.7294C40.6949 23.3727 40.4655 22.9657 40.3005 22.521C40.3005 22.4393 40.3162 22.3528 40.2973 22.2743C40.0302 21.168 40.2738 20.1764 40.9589 19.2792C41.0987 19.0953 41.27 18.9334 41.3596 18.7134C41.6283 18.5013 41.6487 18.5092 41.831 18.8172C41.9143 18.9586 42.0149 19.0874 42.1076 19.2226C42.0652 19.4347 42.2207 19.5636 42.3307 19.6987C43.1982 20.7751 44.2871 21.5876 45.461 22.2963C45.516 22.3293 45.5333 22.2821 45.5694 22.2727C46.066 22.5556 46.5704 22.8227 47.0827 23.0804C47.5305 23.3067 48.002 23.489 48.464 23.6697C48.8741 23.83 49.3251 23.9321 49.762 24.0453C50.6671 24.2794 51.5817 24.4318 52.5119 24.2684C53.2049 24.1474 53.9765 23.6854 53.8366 22.774C53.8461 22.7378 53.8759 22.7174 53.8633 22.664C53.7204 22.0904 53.3244 21.7258 52.8561 21.4131C51.8865 20.7673 50.7928 20.4027 49.707 20.0256C48.1088 19.4709 46.4856 18.99 44.9283 18.3222C43.7042 17.7973 42.5099 17.2253 41.5906 16.2165C41.5545 16.1772 41.5152 16.152 41.4602 16.163C41.3942 16.1505 41.3942 16.0263 41.2967 16.0656H41.2999C41.3235 16.02 41.3015 15.9886 41.2637 15.9635C41.2386 15.7058 41.0673 15.5156 40.9542 15.2988C40.5943 14.6121 40.4859 13.8641 40.4026 13.1082C40.4482 11.2917 41.2339 9.89781 42.7974 8.95967C43.2846 8.66739 43.8126 8.4741 44.3626 8.30125C45.1624 8.04825 45.9686 7.96968 46.7904 7.89268C47.6673 7.8094 48.5268 7.91311 49.3927 7.99482C50.9122 8.13939 52.3784 8.55896 53.8728 8.8371C54.4212 8.93924 54.9791 8.99424 55.5008 8.70039C55.5495 8.67367 55.6092 8.62653 55.6595 8.68153C55.7129 8.7381 55.6862 8.80567 55.6485 8.86382C55.5133 9.07281 55.3782 9.28024 55.2446 9.48924C55.1708 9.48924 55.1268 9.53324 55.0891 9.59295C54.2075 10.9695 53.3306 12.3492 52.4899 13.7509C52.4381 13.8373 52.4381 13.9206 52.4271 14.0086C52.3407 14.0071 52.2794 13.9882 52.2385 13.8908C52.1128 13.5922 51.9714 13.2999 51.8362 13.0045C51.8409 12.9684 51.8881 12.9542 51.8567 12.8976C50.587 10.6238 48.6871 9.28967 46.0707 9.02567C45.1357 8.93139 44.2384 9.03196 43.4339 9.56624C43.2249 9.70452 42.9954 9.83966 42.909 10.1021C42.7692 10.5248 42.9389 10.8642 43.2076 11.1738C43.4999 11.5101 43.9053 11.6798 44.2809 11.8904C44.2981 11.8998 44.339 11.8684 44.3689 11.8558C44.9691 12.0884 45.5584 12.3586 46.1728 12.5441C47.5997 12.9746 49.0328 13.3816 50.4282 13.9033C51.5989 14.3418 52.7461 14.8352 53.7408 15.6146C53.7832 15.7702 53.9325 15.8268 54.0393 15.9163C55.5903 17.2285 56.2126 18.9004 55.9738 20.9024C55.8339 22.0747 55.3138 23.0741 54.5296 23.9431C54.3363 24.1568 54.1981 24.4303 53.9341 24.5685C53.0132 25.051 52.0468 25.4171 51.0269 25.6198C49.0988 26.0032 47.1613 25.9875 45.2284 25.656C43.6994 25.3935 42.2836 24.8687 41.1412 23.764C41.1035 23.7278 41.0689 23.6933 41.0123 23.7231L41.0076 23.7294Z" fill="#060419"/>
<path d="M106.76 15.8142C106.685 15.8818 106.66 16.0373 106.525 15.998C106.415 15.9666 106.427 15.8393 106.408 15.7435C106.235 14.8462 105.828 14.0385 105.439 13.2245C105.426 13.1978 105.39 13.1805 105.365 13.1585C105.448 13.0736 105.37 13.0108 105.332 12.9464C105.23 12.7766 105.129 12.6069 105.018 12.4435C104.183 11.2382 103.212 10.1791 101.856 9.54739C101.381 9.32739 100.888 9.16553 100.357 9.3541C100.251 9.37453 100.138 9.37453 100.044 9.41696C99.7832 9.53324 99.494 9.62124 99.3573 9.91196V9.90881C99.2803 9.88838 99.2567 9.92924 99.2567 9.99838C98.9959 10.1775 98.834 10.4242 98.7335 10.7244C98.4867 11.4567 98.5716 12.1905 98.735 12.9165C99.0807 14.4581 99.7957 15.8346 100.693 17.12C101.831 18.748 103.203 20.1403 104.906 21.1837C104.997 21.2387 105.088 21.3691 105.23 21.2701C106.019 21.7777 106.878 22.1156 107.791 22.3167C108.319 22.433 108.853 22.4927 109.397 22.4707C110.081 22.4424 110.745 22.3214 111.383 22.07C111.437 22.0496 111.493 22.0323 111.547 22.0118C111.6 21.993 111.658 21.9443 111.705 22.0024C111.753 22.0606 111.734 22.1266 111.691 22.1847C111.548 22.378 111.408 22.5713 111.264 22.763C111.229 22.8086 111.179 22.8447 111.185 22.9107C111.023 22.9311 110.926 23.0506 110.821 23.1558C110.049 23.9274 109.194 24.5827 108.192 25.0337C106.169 25.9435 104.062 26.1101 101.906 25.6921C99.9042 25.3024 98.2117 24.3533 96.9106 22.7567C96.8698 22.7064 96.8289 22.6467 96.7456 22.6703C96.5052 22.3277 96.2679 21.9851 96.0621 21.6174C95.7226 21.0109 95.4696 20.3744 95.3046 19.7066C95.1365 19.0262 95.0029 18.3426 94.9841 17.6292C94.9715 17.1782 94.9243 16.7209 94.9511 16.2715C95.0689 14.3465 95.6048 12.5676 96.8383 11.0324C98.0185 9.5631 99.5459 8.66425 101.344 8.18969C101.977 8.02312 102.623 7.94612 103.28 7.89269C104.854 7.7654 106.364 8.07654 107.867 8.47725C108.465 8.63754 109.062 8.81668 109.678 8.89054C110.14 8.94554 110.61 8.92825 111.063 8.78839C111.151 8.76168 111.251 8.71297 111.314 8.80097C111.38 8.89368 111.287 8.96911 111.239 9.04453C111.138 9.19696 111.036 9.34782 110.934 9.49867C110.854 9.52539 110.8 9.57567 110.748 9.64796C110.293 10.264 109.887 10.9145 109.465 11.5525C108.594 12.8631 107.733 14.1799 106.866 15.4936C106.8 15.5942 106.757 15.6963 106.763 15.8158L106.76 15.8142Z" fill="#060419"/>
<path d="M86.8799 25.3217C87.2131 24.9681 87.3278 24.5171 87.4173 24.063C87.5383 23.4517 87.5745 22.8325 87.5729 22.2103C87.5682 19.3173 87.5729 16.4259 87.5698 13.5329C87.5698 12.8352 87.5195 12.1406 87.3136 11.4712C87.1989 11.1004 87.0528 10.7342 86.7071 10.5001C86.6552 10.4655 86.6112 10.4278 86.6301 10.3602C86.6489 10.2942 86.7149 10.2722 86.7668 10.2659C87.1801 10.2251 87.5808 10.1214 87.9783 10.0067C88.2235 9.93594 88.4655 9.84951 88.7138 9.78665C89.2968 9.63737 89.8357 9.36394 90.3936 9.1518C91.1196 8.87523 91.7843 8.43838 92.4836 8.08952C92.8261 7.91824 93.1326 7.69353 93.4594 7.50182C93.6166 7.41067 93.6904 7.43896 93.6873 7.62753C93.6841 7.86953 93.6873 8.11152 93.6873 8.35195C93.6071 8.60809 93.5961 8.87366 93.5961 9.13923C93.5961 13.3365 93.5946 17.5322 93.5977 21.7294C93.5977 22.2385 93.6009 22.7493 93.6511 23.2552C93.7329 24.1038 93.7737 24.976 94.4824 25.6139C94.3819 25.6674 94.2891 25.6438 94.2011 25.6438C92.2966 25.6454 90.392 25.6438 88.4875 25.6469C88.214 25.6469 87.9359 25.6297 87.6703 25.7208H87.0748C86.9663 25.6454 86.8265 25.6894 86.6913 25.6501C86.7683 25.5244 86.9098 25.4678 86.8815 25.3185L86.8799 25.3217Z" fill="#060419"/>
<path d="M86.8788 25.3236C86.9071 25.4729 86.7656 25.5294 86.6886 25.6552C86.8238 25.6929 86.9636 25.6489 87.0721 25.7259C87.2712 26.0013 87.4696 26.0013 87.6676 25.7259C87.9332 25.6347 88.2113 25.6536 88.4848 25.652C90.3893 25.6473 92.2939 25.6504 94.1984 25.6489C94.2864 25.6489 94.3792 25.6724 94.4797 25.619C93.771 24.981 93.7302 24.1089 93.6484 23.2603C93.5997 22.7543 93.5966 22.2436 93.595 21.7345C93.5919 17.5372 93.5934 13.3415 93.5934 9.1443C93.5934 8.87873 93.6044 8.61316 93.6846 8.35702C93.837 8.33659 93.9297 8.20931 94.0602 8.14488C94.5174 7.92174 94.7421 8.06945 94.7421 8.53616C94.739 13.5333 94.7311 18.5319 94.75 23.529C94.7531 24.2063 94.8113 24.893 95.0863 25.5373C95.1869 25.773 95.333 25.96 95.52 26.1203C95.6913 26.2664 95.6677 26.4471 95.6206 26.6184C95.5719 26.7944 95.4037 26.7787 95.2544 26.7787C89.9823 26.7787 84.7102 26.7787 79.4381 26.7787C79.3014 26.7787 79.16 26.7913 79.1003 26.6373C79.0296 26.455 79.0437 26.2743 79.1757 26.1219C79.2889 25.993 79.435 25.8924 79.501 25.7243C79.7666 25.6379 80.0431 25.6504 80.3166 25.6504C82.229 25.6457 84.1398 25.6473 86.0522 25.6473C86.1512 25.6473 86.2518 25.6473 86.3979 25.6473C86.2754 25.5106 86.1717 25.41 86.0852 25.2984C85.7521 24.8663 85.6515 24.3509 85.5667 23.8307C85.4441 23.0718 85.4347 22.3033 85.4315 21.5365C85.4221 19.2611 85.4394 16.9841 85.4079 14.7087C85.3875 13.2551 85.1345 11.8393 84.4007 10.5523C84.1084 10.0384 83.7674 9.55444 83.3022 9.17259C83.2535 9.13173 83.1938 9.0893 83.2095 9.00916C83.5678 9.12544 83.8664 9.34387 84.1571 9.5733C85.2791 10.458 85.8857 11.6507 86.2188 13.0084C86.4011 13.747 86.4938 14.495 86.5237 15.2571C86.6258 17.9301 86.5268 20.6031 86.5771 23.276C86.5897 23.9643 86.6556 24.6573 86.8772 25.322L86.8788 25.3236Z" fill="#9D9EAA"/>
<path d="M141.758 25.724C141.954 25.6298 142.165 25.6549 142.37 25.6549C144.885 25.6628 147.399 25.6266 149.913 25.6722C149.942 25.6722 149.97 25.669 150.07 25.6643C149.836 25.5402 149.656 25.4632 149.495 25.3548C149.047 25.0499 148.703 24.6413 148.386 24.2092C147.514 23.0244 146.833 21.7217 146.055 20.4787C144.955 18.7202 143.87 16.9508 142.773 15.1893C142.686 15.0494 142.68 14.9598 142.792 14.8247C143.896 13.4733 144.963 12.0889 146.217 10.8647C147.006 10.0947 147.812 9.34676 148.765 8.77476C148.884 8.70248 149.007 8.67419 149.134 8.64276C149.626 8.6459 150.119 8.66005 150.611 8.64433C150.828 8.63805 150.947 8.72133 150.971 8.91776C150.99 9.08119 150.944 9.22576 150.767 9.31218C150.323 9.52747 149.89 9.76161 149.491 10.0555C148.978 10.4342 148.472 10.8207 148.002 11.2529C147.654 11.5735 147.302 11.8893 146.981 12.2366C146.349 12.917 145.71 13.5911 145.135 14.3234C144.776 14.7791 144.405 15.2254 144.036 15.6717C143.943 15.7833 143.925 15.8571 144.014 16.0017C144.715 17.1127 145.4 18.2331 146.088 19.3535C146.755 20.4394 147.423 21.5237 148.081 22.6142C148.612 23.4926 149.123 24.3852 149.778 25.1772C150.085 25.5465 150.419 25.9158 150.889 26.0965C151.164 26.2033 151.108 26.4296 151.079 26.6182C151.056 26.7816 150.88 26.78 150.737 26.78C147.83 26.78 144.924 26.78 142.017 26.78C141.6 26.78 141.622 26.604 141.69 26.1782C141.714 26.0273 141.778 25.8828 141.759 25.724H141.758Z" fill="#9D9EAA"/>
<path d="M88.0159 5.75111C87.5838 5.32369 87.3528 4.80669 87.2648 4.20327C87.1705 3.55742 87.2522 2.94928 87.5382 2.371C87.7488 1.94514 88.0584 1.58843 88.4826 1.37472C88.9729 1.12801 89.4758 0.923725 90.0478 0.876583C90.7801 0.816869 91.4966 0.831012 92.1739 1.09972C92.5338 1.24272 92.9392 1.35429 93.189 1.70158C93.1796 1.75657 93.2079 1.79429 93.244 1.832C93.4357 2.03314 93.5709 2.272 93.6887 2.52185C94.2592 3.73184 93.915 5.17755 92.8685 5.9224C92.2399 6.37025 91.5139 6.50539 90.7596 6.51639C89.8042 6.5321 88.8975 6.38125 88.1401 5.73383C88.0819 5.68354 88.0537 5.71497 88.0175 5.74954L88.0159 5.75111Z" fill="#060419"/>
<path d="M40.3989 13.111C40.4822 13.8668 40.5891 14.6148 40.9505 15.3015C41.0636 15.5184 41.2349 15.7085 41.2601 15.9662C41.2506 16.0086 41.2444 16.0479 41.2962 16.0684H41.2931C41.3324 16.7645 41.4204 17.4575 41.4062 18.1568C41.4031 18.3453 41.3104 18.5229 41.3559 18.7146C41.2664 18.9346 41.0951 19.0965 40.9552 19.2803C40.2701 20.1776 40.0265 21.1676 40.2936 22.2755C40.3125 22.354 40.2968 22.4404 40.2968 22.5222C40.0438 22.9606 39.7719 23.388 39.4608 23.7887C38.9344 24.4676 38.3058 25.038 37.5861 25.5016C36.5537 26.1663 35.4285 26.6063 34.2138 26.8373C33.2411 27.0227 32.2621 27.0808 31.2832 27.0227C29.7825 26.9331 28.3415 26.5811 27.0199 25.83C26.2609 25.3994 25.5742 24.873 24.9849 24.2287C24.5622 23.7667 24.2055 23.256 23.8975 22.7092C23.8724 22.6652 23.8472 22.6259 23.8598 22.574C23.9148 22.5646 23.9556 22.5882 23.9886 22.6306C25.4171 24.4581 27.3248 25.4387 29.5876 25.7813C30.4723 25.9148 31.3664 25.995 32.2559 25.8897C35.8293 25.4654 39.1041 23.498 40.0344 19.1169C40.4885 16.9782 40.3094 14.8725 39.4341 12.8501C38.9642 11.7643 38.2524 10.8434 37.3897 10.0388C37.2812 9.9367 37.0974 9.90056 37.0895 9.70728C37.4604 9.8377 37.7668 10.075 38.0654 10.3138C38.4598 10.6297 38.8385 10.9628 39.1764 11.3494C39.6384 11.8774 40.0155 12.4525 40.3486 13.0638C40.3596 13.0827 40.3801 13.0968 40.3958 13.1125L40.3989 13.111Z" fill="#9D9EAA"/>
<path d="M68.2735 25.7249C68.5485 25.6369 68.8329 25.6511 69.1142 25.6511C71.0188 25.6464 72.9217 25.6495 74.8263 25.6495C74.9174 25.6495 75.0086 25.6495 75.1421 25.6495C74.3407 24.9266 74.2936 23.9744 74.2433 23.0441C74.1364 21.0861 74.2182 19.125 74.193 17.167C74.182 16.2823 74.226 15.4007 74.3344 14.5223C74.4979 13.2039 74.9001 11.9766 75.6953 10.8986C76.0583 10.4068 76.5061 10.0139 77.152 9.96049C77.944 9.89292 78.5804 10.2905 78.9355 11.0683C78.9905 11.1893 79.1398 11.2962 79.0518 11.4643C78.8931 11.4753 78.8475 11.315 78.7328 11.2522C78.1844 10.9521 77.6077 11.1045 77.1708 11.4675C76.316 12.1809 75.9624 13.1787 75.7 14.2096C75.5303 14.879 75.4391 15.5642 75.381 16.2556C75.3417 16.7129 75.348 17.1654 75.3464 17.6196C75.3386 19.488 75.3386 21.3548 75.3464 23.2232C75.3496 23.9508 75.4046 24.6721 75.6434 25.3698C75.744 25.6652 75.8839 25.9261 76.151 26.1115C76.3207 26.2309 76.3301 26.4242 76.283 26.6033C76.2374 26.7793 76.0803 26.7809 75.9279 26.7809C73.357 26.7793 70.7846 26.7809 68.2138 26.7809C68.0676 26.7809 67.9026 26.8013 67.8445 26.6238C67.7895 26.4541 67.7989 26.2828 67.9325 26.1413C68.0551 26.0109 68.2075 25.9025 68.2766 25.7265L68.2735 25.7249Z" fill="#9D9EAA"/>
<path d="M57.041 25.7253C57.2909 25.6357 57.5517 25.6561 57.8079 25.6561C59.7376 25.6514 61.6673 25.6546 63.597 25.6546C63.6787 25.6546 63.762 25.6546 63.883 25.6546C63.1413 25.015 63.0753 24.1507 63.014 23.3006C62.8898 21.5689 62.9716 19.8325 62.959 18.0976C62.9511 16.9977 62.915 15.8961 63.0564 14.7992C63.1586 13.9962 63.3 13.2011 63.564 12.4343C63.8594 11.5763 64.3717 10.8613 65.0568 10.2767C65.5565 9.84928 66.4082 9.84928 66.9661 10.239C67.4077 10.547 67.6449 11.0011 67.8555 11.4757C67.8649 11.4961 67.8335 11.5338 67.8209 11.5637C67.5711 11.3406 67.3071 11.1504 66.9567 11.1096C66.5025 11.0561 66.1458 11.2526 65.8252 11.5307C65.2957 11.9911 64.9908 12.5961 64.7504 13.2435C64.466 14.0057 64.3167 14.7945 64.2083 15.5975C64.0354 16.8672 64.0684 18.1401 64.0637 19.4145C64.0605 20.1483 64.0715 20.8822 64.0605 21.616C64.0495 22.3892 64.103 23.1592 64.1281 23.9292C64.147 24.5184 64.2051 25.1282 64.5115 25.6687C64.6074 25.8369 64.7033 25.9956 64.8682 26.1134C65.038 26.2329 65.0474 26.4261 65.0002 26.6053C64.9531 26.7813 64.7975 26.7829 64.6451 26.7829C62.0806 26.7813 59.5176 26.7829 56.953 26.7829C56.81 26.7829 56.6246 26.7907 56.6026 26.632C56.579 26.4591 56.5083 26.2501 56.7299 26.1009C56.8588 26.0144 56.9373 25.8541 57.0395 25.7284L57.041 25.7253Z" fill="#9D9EAA"/>
<path d="M41.0073 23.7276C41.0639 23.6978 41.1 23.7323 41.1361 23.7685C42.2786 24.8732 43.6944 25.398 45.2234 25.6605C47.1562 25.992 49.0922 26.0077 51.0219 25.6243C52.0418 25.4216 53.0082 25.0539 53.929 24.573C54.1915 24.4347 54.3313 24.1613 54.5246 23.9476C55.3087 23.0786 55.8289 22.0792 55.9687 20.9069C56.2076 18.9049 55.5853 17.233 54.0343 15.9208C53.9275 15.8313 53.7797 15.7747 53.7357 15.6191C53.9526 15.6505 54.105 15.7998 54.2795 15.9098C54.9253 16.32 55.5162 16.7977 55.9939 17.3964C56.426 17.9401 56.7309 18.5561 56.943 19.2177C57.0451 20.1715 56.9776 21.1285 56.9901 22.0839C56.9933 22.3275 56.9273 22.571 56.8927 22.8146C56.6963 23.4228 56.4072 23.9775 56.0127 24.4866C55.5822 25.0429 55.0573 25.4735 54.4602 25.8364C53.5472 26.3912 52.5399 26.6489 51.5012 26.8327C51.0235 26.9176 50.5426 26.9427 50.0618 26.9899C49.5621 27.0386 49.0671 27.0244 48.5705 27.0244C47.6921 27.0229 46.8215 26.9412 45.9525 26.7872C44.9688 26.6127 44.0165 26.3566 43.135 25.882C42.2817 25.4232 41.5431 24.8339 41.1063 23.9382C41.0733 23.869 40.9696 23.8282 41.0073 23.7276Z" fill="#9D9EAA"/>
<path d="M11.5756 19.9674C11.1748 19.8276 10.8401 19.5683 10.5086 19.3216C7.50559 17.0886 5.62932 14.1233 4.84832 10.4761C4.52147 8.9471 4.44919 7.40554 4.90332 5.87656C5.16732 4.98714 5.60103 4.192 6.3066 3.58858C7.01688 2.98201 7.83087 2.54673 8.77372 2.3943C11.4341 1.96373 13.477 3.05272 15.1757 4.98556C15.6518 5.5277 16.0384 6.13427 16.4124 6.74869C16.4454 6.80212 16.3982 6.82098 16.3888 6.85555C15.9378 6.28355 15.4789 5.71941 14.9352 5.22913C14.0128 4.39628 12.971 3.79757 11.7374 3.53986C11.3744 3.46286 11.002 3.40944 10.6468 3.41572C9.561 3.43615 8.53486 3.68286 7.6533 4.38214C6.63345 5.19299 6.10703 6.27412 5.86189 7.52026C5.77546 7.96182 5.69689 8.40653 5.7126 8.85753C5.76917 10.4242 6.04103 11.9454 6.63031 13.4099C7.10331 14.5822 7.68787 15.6885 8.42015 16.7162C8.72343 17.142 9.05186 17.549 9.40857 17.9324C9.75114 18.3017 10.089 18.671 10.4724 19.001C10.8181 19.2996 11.1654 19.5966 11.5331 19.8669C11.5803 19.9014 11.5693 19.9313 11.5724 19.9674H11.5756Z" fill="#9D9EAA"/>
<path d="M22.9039 20.9598C23.1569 21.1719 23.2654 21.4564 23.3156 21.7722C22.8631 22.6161 22.3225 23.3986 21.6327 24.0649C20.7621 24.9056 19.7674 25.5641 18.6532 26.0559C17.7607 26.4503 16.8273 26.6908 15.8781 26.8683C15.4947 26.9406 15.0971 26.961 14.7027 26.9893C14.2879 27.0192 13.8761 27.027 13.4613 27.0302C12.6866 27.0333 11.9213 26.9579 11.1545 26.8416C10.4552 26.7348 9.77633 26.5635 9.11005 26.3435C7.89849 25.9443 6.78121 25.3598 5.77393 24.5693C5.31979 24.2126 4.8688 23.8528 4.48223 23.4238C3.92752 22.8062 3.39795 22.1682 3.00981 21.4297C2.97524 21.3637 2.86367 21.3291 2.90924 21.2238C3.12138 21.2929 3.18424 21.5051 3.30681 21.6559C4.41623 23.0184 5.77079 24.0602 7.36892 24.7893C9.47933 25.7526 11.6982 26.0292 13.9924 25.8469C15.655 25.7149 17.2201 25.2686 18.669 24.4342C19.912 23.7176 20.9224 22.7512 21.7426 21.5805C21.8165 21.4752 21.9076 21.3967 22.0035 21.3197C22.3036 21.2018 22.6038 21.0839 22.9039 20.9645V20.9598Z" fill="#9D9EAA"/>
<path d="M112.937 25.7251C113.195 25.6339 113.463 25.6559 113.727 25.6544C115.723 25.6496 117.719 25.6528 119.714 25.6512C119.796 25.6512 119.878 25.6512 120.002 25.6512C119.299 25.0777 119.237 24.2888 119.155 23.5188C119.039 22.422 119.09 21.3188 119.086 20.2188C119.079 18.8926 119.087 17.5663 119.081 16.2416C119.081 16.0546 119.117 15.9729 119.326 15.9854C119.651 16.0059 119.977 16.0043 120.302 16.0012C120.417 16.0012 120.475 16.0373 120.489 16.1473C120.528 16.4694 120.638 16.7822 120.605 17.1121C120.339 17.1205 120.206 17.2556 120.206 17.5176C120.206 19.4347 120.187 21.3534 120.216 23.2705C120.227 23.9824 120.269 24.7037 120.503 25.3935C120.601 25.6779 120.733 25.9294 120.976 26.1148C121.138 26.2389 121.171 26.3945 121.113 26.5956C121.053 26.7968 120.912 26.7795 120.762 26.7795C118.141 26.7795 115.52 26.7795 112.899 26.7795C112.753 26.7795 112.594 26.8125 112.533 26.6145C112.475 26.4259 112.484 26.2562 112.629 26.1054C112.742 25.9875 112.879 25.8885 112.937 25.7266V25.7251Z" fill="#9D9EAA"/>
<path d="M96.7449 22.6705C96.8266 22.6469 96.8691 22.7082 96.9099 22.7569C98.2111 24.3535 99.9035 25.3042 101.905 25.6923C104.061 26.1119 106.169 25.9453 108.191 25.0339C109.194 24.5829 110.047 23.9276 110.82 23.156C110.925 23.0508 111.023 22.9313 111.185 22.9109C111.556 22.8339 111.908 22.6972 112.266 22.5809C112.414 22.5338 112.607 22.5259 112.7 22.6689C112.786 22.8025 112.762 22.98 112.7 23.1403C112.608 23.3729 112.439 23.5536 112.288 23.739C111.453 24.7589 110.443 25.5666 109.244 26.1197C108.422 26.4984 107.556 26.7436 106.656 26.885C105.776 27.0249 104.893 27.0626 104.011 27.017C103.251 26.9777 102.495 26.852 101.761 26.6257C100.791 26.3287 99.8705 25.9312 99.0533 25.323C98.1152 24.6269 97.3326 23.7878 96.7638 22.7616C96.7496 22.7349 96.7512 22.7003 96.7449 22.6689V22.6705Z" fill="#9D9EAA"/>
<path d="M131.935 25.7249C132.372 25.64 132.814 25.6573 133.254 25.6542C134.656 25.6479 136.057 25.651 137.457 25.651C137.547 25.651 137.635 25.651 137.769 25.651C136.846 24.8245 136.763 23.7905 136.911 22.7156C137.077 21.5057 137.494 20.3758 138.139 19.3308C138.237 19.1721 138.298 19.2224 138.37 19.3167C138.63 19.653 138.829 20.0285 139.041 20.3931C139.074 20.4497 139.049 20.5392 139.051 20.6131C138.633 21.3689 138.364 22.1814 138.154 23.0142C138.033 23.4935 137.967 23.9822 138.006 24.4741C138.056 25.0901 138.221 25.6589 138.729 26.0753C138.891 26.2089 138.922 26.388 138.859 26.597C138.795 26.8123 138.631 26.7762 138.479 26.7762C136.152 26.7762 133.823 26.7762 131.495 26.7762C131.335 26.7762 131.143 26.8123 131.085 26.6033C131.01 26.333 131.085 26.2026 131.337 26.0706C131.541 25.9622 131.766 25.8883 131.937 25.7233L131.935 25.7249Z" fill="#9D9EAA"/>
<path d="M131.575 24.9242C131.341 25.2982 130.918 25.405 130.558 25.6344C130.686 25.7114 130.835 25.625 130.935 25.7256C130.316 26.4233 129.548 26.8476 128.621 26.9796C127.84 27.0911 127.074 27.0503 126.323 26.7831C125.442 26.4689 124.728 25.9377 124.125 25.2259C123.782 24.8204 123.484 24.3899 123.203 23.9436C123.16 23.876 123.108 23.8132 123.119 23.7252C123.313 23.755 123.349 23.9452 123.451 24.0615C124.158 24.8676 124.974 25.5009 126.034 25.7743C127.711 26.2049 129.358 25.5669 130.335 24.1165C130.921 23.2459 131.226 22.281 131.328 21.2455C131.342 21.0962 131.361 20.95 131.432 20.8165C131.669 20.7002 131.918 20.6546 132.185 20.6625C132.336 20.6672 132.411 20.7442 132.424 20.8542C132.441 21.0066 132.493 21.1528 132.493 21.3115C132.491 21.7468 132.453 22.1758 132.392 22.6079C132.274 23.4376 132.012 24.2107 131.575 24.9257V24.9242Z" fill="#9D9EAA"/>
<path d="M105.228 21.2729C105.087 21.3719 104.996 21.2415 104.905 21.1865C103.201 20.1415 101.828 18.7508 100.692 17.1228C99.7945 15.8374 99.0795 14.4608 98.7338 12.9193C98.5704 12.1933 98.4856 11.4594 98.7323 10.7272C98.8328 10.427 98.9947 10.1819 99.2555 10.0012C99.3074 9.99331 99.3325 9.95246 99.3561 9.9116V9.91474C99.6893 9.72932 100.022 9.54389 100.356 9.35689C100.888 9.16832 101.382 9.32861 101.855 9.55018C103.212 10.1819 104.183 11.241 105.016 12.4463C105.129 12.6081 105.23 12.7794 105.331 12.9491C105.368 13.012 105.448 13.0764 105.364 13.1613C104.949 12.6867 104.557 12.1886 104.086 11.7659C103.436 11.1844 102.736 10.6863 101.877 10.4537C101.13 10.251 100.411 10.5952 100.065 11.1939C99.7678 11.7077 99.672 12.2609 99.738 12.8737C99.8747 14.1576 100.395 15.2937 100.981 16.4094C101.399 17.2061 101.929 17.9321 102.49 18.6377C102.823 19.0588 103.192 19.4454 103.563 19.8272C104.052 20.3317 104.576 20.8062 105.167 21.1991C105.192 21.2164 105.208 21.2494 105.228 21.2761V21.2729Z" fill="#9D9EAA"/>
<path d="M18.1277 10.3086C18.0979 10.1672 18.1591 10.0478 18.2236 9.93305C18.9071 8.68692 19.5844 7.43764 20.279 6.19623C20.862 5.15124 21.4151 4.08896 22.039 3.06597C22.094 2.9764 22.1427 2.89626 22.2558 2.88683C22.4884 2.90726 22.7068 2.84283 22.9174 2.7564C23.018 2.71554 23.117 2.69983 23.2238 2.68883C23.6449 2.64797 23.6732 2.8664 23.5711 3.20268C23.447 3.61282 23.1798 3.95696 22.985 4.33567C22.6942 4.90138 22.3658 5.44666 22.0562 6.00294C21.4937 7.00708 20.928 8.01121 20.3685 9.01849C19.9898 9.70048 19.6158 10.3872 19.2497 11.077C19.0548 11.4432 18.8663 11.5013 18.6101 11.4212C18.497 11.3866 18.4719 11.3238 18.4436 11.2468C18.3351 10.9356 18.233 10.6229 18.1293 10.3102L18.1277 10.3086Z" fill="#9D9EAA"/>
<path d="M106.76 15.8143C106.754 15.6933 106.796 15.5912 106.862 15.4922C107.73 14.1785 108.591 12.8616 109.461 11.5511C109.886 10.9131 110.289 10.2625 110.745 9.64651C110.799 9.57579 110.85 9.52394 110.931 9.49722C111.259 9.44851 111.586 9.37936 111.917 9.35894C112.343 9.33065 112.496 9.56793 112.28 9.95293C112.048 10.3678 111.773 10.7591 111.51 11.1566C110.266 13.0345 109.018 14.9123 107.772 16.7902C107.635 16.996 107.418 17.084 107.181 17.0164C107.005 16.9662 107 16.7839 106.978 16.6582C106.925 16.3706 106.846 16.094 106.76 15.8175V15.8143Z" fill="#9D9EAA"/>
<path d="M88.0154 5.75051C88.0532 5.71594 88.0799 5.68451 88.138 5.7348C88.8954 6.38065 89.8021 6.5315 90.7576 6.51736C91.5118 6.50479 92.2378 6.37122 92.8664 5.92337C93.913 5.17694 94.2571 3.73281 93.6867 2.52282C93.5688 2.27297 93.4337 2.03569 93.242 1.83297C93.2058 1.79526 93.1775 1.75754 93.187 1.70255C93.5091 1.7764 93.7747 1.9634 94.0245 2.1614C94.6625 2.66425 94.9548 3.33839 95.0554 4.14138C95.1339 4.77938 95.0617 5.3828 94.8071 5.94851C94.4802 6.67922 93.8815 7.13964 93.1257 7.40678C92.4154 7.65664 91.6768 7.70221 90.943 7.64564C90.1824 7.58749 89.4423 7.41621 88.8279 6.90707C88.4507 6.59436 88.1427 6.23765 88.0154 5.75208V5.75051Z" fill="#9D9EAA"/>
<path d="M52.4227 14.0108C52.4337 13.9228 52.4337 13.8395 52.4855 13.7531C53.3262 12.3514 54.2046 10.9717 55.0846 9.59512C55.1239 9.5354 55.1663 9.4914 55.2402 9.4914C55.5231 9.52598 55.7933 9.48198 56.0432 9.34841C56.2019 9.26355 56.3685 9.29969 56.5272 9.30912C56.6435 9.31541 56.689 9.41755 56.6953 9.54326C56.7079 9.80569 56.5539 9.9974 56.4376 10.2064C56.4125 10.2253 56.3889 10.2473 56.3606 10.2614C56.2035 10.3431 56.1265 10.472 56.1532 10.6103C55.93 11.0502 55.6441 11.451 55.3848 11.869C54.7751 12.8574 54.1528 13.8379 53.5462 14.8279C53.4284 15.0196 53.2649 15.0196 53.0826 15.0118C52.9129 15.0039 52.8344 14.8986 52.7715 14.7494C52.6647 14.4979 52.5374 14.2559 52.4179 14.0092L52.4227 14.0108Z" fill="#9D9EAA"/>
<path d="M142.578 13.6617C142.592 13.9351 142.428 14.141 142.331 14.3704C142.3 14.3625 142.278 14.3641 142.273 14.3563C141.591 13.1934 140.824 12.0809 140.203 10.8819C139.942 10.379 139.71 9.86201 139.587 9.30573C139.54 9.08888 139.474 8.86731 139.606 8.65359C139.906 8.65359 140.205 8.65831 140.505 8.65517C140.679 8.65359 140.769 8.72588 140.763 8.90502C140.76 8.99616 140.789 9.09988 140.758 9.17688C140.502 9.80544 140.811 10.346 141.031 10.8897C141.421 11.8561 142.003 12.7188 142.565 13.5894C142.578 13.6083 142.575 13.6381 142.579 13.6617H142.578Z" fill="#9D9EAA"/>
<path d="M131.99 8.05527C131.688 8.18727 131.369 8.13699 131.056 8.14327C130.948 8.14641 130.951 8.0537 130.943 7.98299C130.789 6.38329 130.06 5.07901 128.895 3.99788C128.721 3.83602 128.498 3.72288 128.375 3.50446C128.779 3.62074 129.1 3.88474 129.425 4.12674C130.354 4.81344 131.091 5.66829 131.57 6.72428C131.762 7.14857 131.881 7.60113 131.988 8.05527H131.99Z" fill="#9D9EAA"/>
<path d="M64.071 9.90397C64.0615 9.98725 64.0568 10.069 64.0034 10.1397C63.5901 10.7038 63.2381 11.301 62.9961 11.9688C62.9348 11.9279 62.9568 11.8761 62.9568 11.8352C62.9568 10.7792 62.9568 9.72168 62.9552 8.66569C62.9552 8.57141 62.9662 8.48498 63.0071 8.40012C63.2412 8.2697 63.4298 8.04813 63.7315 8.04813C63.95 8.04813 64.082 8.12355 64.071 8.37969C64.049 8.88726 64.0694 9.39483 64.071 9.9024V9.90397Z" fill="#9D9EAA"/>
<path d="M74.3849 11.3118C74.4148 11.4469 74.3802 11.5679 74.3299 11.6952C74.2089 12.0095 74.1052 12.3316 73.9795 12.6899C73.8554 12.2829 73.7548 11.912 73.6291 11.5491C73.3336 10.7036 72.8685 9.95878 72.2541 9.30507C72.1629 9.20764 71.9838 9.18721 71.9807 9.00964C72.3326 9.09921 72.6092 9.32078 72.8889 9.5345C73.5191 10.0153 73.9968 10.6251 74.3833 11.3118H74.3849Z" fill="#9D9EAA"/>
<path d="M133.24 11.1103C132.967 10.8133 132.764 10.4629 132.492 10.1628C132.389 10.048 132.271 9.9459 132.158 9.78876C132.055 10.3938 132.051 10.9767 131.892 11.5377C131.644 12.4162 131.285 13.2286 130.691 13.9357C130.094 14.6476 129.395 15.2149 128.573 15.6454C127.508 16.2017 126.383 16.5616 125.199 16.769C124.467 16.8963 123.735 17 122.946 17.0283C123.477 17.495 124.022 17.8815 124.572 18.2634C124.503 18.3545 124.428 18.2791 124.382 18.2493C123.447 17.6411 122.507 17.0377 121.667 16.296C121.563 16.2033 121.464 16.1058 121.332 15.9817C121.975 15.922 122.569 15.878 123.161 15.8088C124.987 15.5998 126.739 15.152 128.281 14.0991C129.83 13.04 130.696 11.5582 130.935 9.7039C130.995 9.2419 130.988 8.77991 130.987 8.28491C131.271 8.42791 131.472 8.62434 131.672 8.82076C132.23 9.36605 132.634 10.026 133.044 10.6782C133.127 10.8102 133.289 10.9155 133.239 11.1119L133.24 11.1103Z" fill="#9D9EAA"/>
<path d="M123.715 4.40136C123.39 4.12793 123.113 3.80108 122.726 3.59836C122.107 3.27151 121.454 3.12537 120.754 3.1458C120.207 3.16151 120.207 3.14894 120.207 3.70365C120.207 7.41376 120.207 11.1239 120.207 14.8356C120.207 14.9267 120.212 15.0194 120.214 15.1105C120.192 15.2033 120.124 15.2143 120.041 15.2143C119.774 15.2111 119.507 15.208 119.239 15.2143C119.118 15.2174 119.081 15.1734 119.084 15.0555C119.09 14.7554 119.085 14.4553 119.085 14.1551C119.085 10.2533 119.085 6.35148 119.085 2.44966C119.085 2.03009 119.085 2.02695 119.513 2.03009C120.063 2.03481 120.611 2.00809 121.155 2.1338C122.246 2.3868 123.047 3.01065 123.562 3.99436C123.627 4.11693 123.806 4.21279 123.713 4.39979L123.715 4.40136Z" fill="#9D9EAA"/>
<path d="M33.0332 10.0612C32.7676 9.83017 32.491 9.6306 32.1186 9.60703C31.545 9.57089 31.1475 9.88045 30.8348 10.2969C30.3633 10.9223 30.1685 11.6656 30.0286 12.4199C29.8998 13.1097 29.8291 13.8058 29.7662 14.5051C29.6138 16.1975 29.6829 17.89 29.6876 19.5824C29.6876 20.1308 29.7128 20.6855 29.7803 21.2324C29.9139 22.3151 29.9909 23.4103 30.4246 24.4333C30.5503 24.7319 30.6902 25.0195 30.8898 25.2772C30.808 25.3447 30.7311 25.3212 30.6352 25.2929C30.0946 25.1373 29.7741 24.7398 29.5226 24.2762C29.1204 23.5329 28.9365 22.7189 28.8249 21.8923C28.4698 19.2634 28.4666 16.6234 28.6096 13.9803C28.6725 12.8221 28.7966 11.6719 29.1282 10.5546C29.2602 10.1067 29.4409 9.67774 29.7112 9.2896C30.1575 8.65161 30.7908 8.40647 31.5309 8.51332C32.3638 8.63275 32.7927 9.23775 33.0709 9.9716C33.0787 9.9936 33.0473 10.0297 33.0347 10.0596L33.0332 10.0612Z" fill="#9D9EAA"/>
<path d="M53.8362 22.7751C53.3978 22.4875 52.9672 22.1889 52.4848 21.9737C51.4335 21.5054 50.3477 21.1282 49.254 20.7747C47.923 20.3441 46.5999 19.8947 45.3144 19.3431C44.5822 19.0288 43.8577 18.6847 43.2072 18.2164C42.4906 17.701 41.8793 17.085 41.4833 16.2804C41.4629 16.2396 41.4582 16.2066 41.4582 16.1657C41.5132 16.1547 41.5525 16.1799 41.5886 16.2191C42.5079 17.228 43.7022 17.8 44.9263 18.3248C46.4836 18.9927 48.1084 19.4735 49.705 20.0282C50.7908 20.4054 51.8845 20.77 52.8541 21.4158C53.3224 21.7269 53.7184 22.0931 53.8614 22.6667C53.8739 22.7201 53.8441 22.7405 53.8347 22.7767L53.8362 22.7751Z" fill="#9D9EAA"/>
<path d="M51.8311 13.0073C51.5356 12.6254 51.1946 12.2844 50.8442 11.9544C49.9469 11.1106 48.891 10.5747 47.6872 10.2966C47.1797 10.1787 46.6658 10.1363 46.1598 10.1253C45.5988 10.1127 45.0253 10.1976 44.5271 10.5103C44.3936 10.5936 44.2678 10.702 44.1657 10.8214C43.9127 11.1184 43.941 11.3196 44.26 11.725C44.2946 11.769 44.3307 11.8145 44.3653 11.8585C44.3354 11.8711 44.2946 11.9025 44.2773 11.8931C43.9017 11.681 43.4963 11.5128 43.204 11.1766C42.9353 10.867 42.7656 10.5276 42.9054 10.1048C42.9919 9.84085 43.2213 9.70728 43.4303 9.569C44.2333 9.03471 45.1321 8.93414 46.0671 9.02843C48.6835 9.29243 50.5834 10.625 51.8531 12.9004C51.8845 12.957 51.8374 12.9727 51.8326 13.0073H51.8311Z" fill="#9D9EAA"/>
<path d="M42.1067 19.2205C42.4917 19.0885 42.6174 19.1278 42.8437 19.4766C43.2491 20.1036 43.7064 20.6897 44.2626 21.1863C44.6618 21.5414 45.0405 21.9249 45.5119 22.192C45.5371 22.2062 45.5496 22.2439 45.5669 22.2706C45.5323 22.28 45.5135 22.3272 45.4585 22.2942C44.2846 21.5854 43.1956 20.773 42.3282 19.6966C42.2198 19.5615 42.0627 19.4326 42.1051 19.2205H42.1067Z" fill="#9D9EAA"/>
<path d="M41.2988 16.0694C41.2463 16.0488 41.2527 16.0074 41.2622 15.9661C41.3004 15.9916 41.3226 16.0218 41.2988 16.0694Z" fill="#060419"/>
<path d="M100.356 9.35486C100.023 9.54029 99.6897 9.72571 99.3565 9.91271C99.4948 9.622 99.7824 9.53557 100.043 9.41771C100.138 9.37529 100.251 9.37529 100.356 9.35486Z" fill="#060419"/>
<path d="M99.3588 9.90963C99.3334 9.95095 99.3096 9.99068 99.2571 10.0002C99.2571 9.93029 99.281 9.88897 99.3588 9.90963Z" fill="#060419"/>
<path d="M87.672 25.724C87.4726 25.9998 87.2739 25.9998 87.0756 25.724C87.2739 25.724 87.4737 25.724 87.672 25.724Z" fill="#060419"/>
</g>
</svg>