<?xml version="1.0" encoding="utf-8"?>
<svg xmlns="http://www.w3.org/2000/svg" fill="none" height="48" viewBox="0 0 201 48" width="201">
<path d="M21.9681 8.27692C21.9681 7.1947 21.9673 6.16485 21.9683 5.135C21.9692 4.25508 22.2968 3.80294 23.1152 3.51397C26.3774 2.36219 29.6381 1.20628 32.8997 0.0528733C32.9458 0.0365494 32.9964 0.0327038 33.1063 0.0108032C33.1063 0.236291 33.1063 0.438214 33.1063 0.640134C33.1063 8.98366 33.1034 17.3272 33.1109 25.6707C33.1117 26.4846 33.2146 27.2988 33.2048 28.1121C33.1602 31.8176 32.0028 35.1421 29.7395 38.0892C28.3516 39.8964 26.6399 41.3114 24.6497 42.4086C22.7323 43.4655 20.6927 44.1228 18.5055 44.3142C18.1464 44.3456 17.7898 44.4053 17.3796 44.4588C17.3652 44.2485 17.3461 44.0985 17.346 43.9484C17.3443 40.5622 17.3504 37.1758 17.3369 33.7896C17.3354 33.4027 17.4557 33.2731 17.8421 33.1897C20.2587 32.6676 22.0042 30.4028 21.9853 27.9661C21.9348 21.4209 21.9681 14.875 21.9681 8.27692Z" fill="#060419"/>
<path d="M70.3038 17.9138C70.3041 16.9536 70.3177 16.0456 70.2989 15.1382C70.29 14.7061 70.463 14.5563 70.8889 14.5572C75.3722 14.5663 79.856 14.523 84.3384 14.5832C86.1581 14.6077 87.9094 15.0642 89.4365 16.1391C91.4726 17.5721 92.606 19.5456 92.8824 21.9983C93.0827 23.7753 92.9069 25.5108 92.1016 27.144C91.3948 28.5773 90.3633 29.7135 88.9623 30.4938C88.5744 30.7099 88.5055 30.8928 88.723 31.3093C89.9353 33.6312 91.1103 35.9724 92.3015 38.3053C92.5131 38.7195 92.7411 39.1253 93.0099 39.625C92.732 39.6582 92.5526 39.698 92.3731 39.6983C89.8688 39.7023 87.3645 39.6932 84.8602 39.7081C84.4327 39.7107 84.1777 39.5653 84.0095 39.1739C83.0524 36.9453 82.0761 34.7248 81.1199 32.4958C80.7556 31.6468 80.7679 31.6368 79.8582 31.6361C79.4729 31.6358 79.086 31.6588 78.7028 31.6309C78.2093 31.5949 78.0698 31.8161 78.0731 32.2797C78.0886 34.4793 78.0803 36.679 78.0793 38.8787C78.0789 39.6986 78.0775 39.7004 77.2691 39.7008C75.2376 39.7019 73.2061 39.702 71.1746 39.7008C70.319 39.7003 70.3042 39.6853 70.3041 38.8109C70.3036 31.8627 70.3038 24.9145 70.3038 17.9138ZM81.8078 20.9514C80.7588 20.9517 79.7097 20.9638 78.661 20.9466C78.2323 20.9396 78.0676 21.1021 78.0748 21.5302C78.0924 22.5756 78.0924 23.6217 78.0748 24.6671C78.0676 25.0947 78.2315 25.2563 78.6605 25.2511C79.954 25.2354 81.2483 25.2643 82.5413 25.2354C82.9513 25.2263 83.3764 25.1405 83.7633 25.0025C84.6163 24.6983 85.1451 23.8838 85.1166 23.0222C85.0893 22.1983 84.5171 21.3982 83.6662 21.1697C83.1026 21.0184 82.4981 21.0189 81.8078 20.9514Z" fill="#060419"/>
<path d="M1.44248 34.4994C-0.111131 30.8764 -0.245002 27.205 0.725421 23.4553C1.4786 20.5449 2.99792 18.108 5.23335 16.1144C7.82362 13.8043 10.8086 12.218 14.2711 11.7875C16.2039 11.5471 18.1824 11.6734 20.1402 11.6315C20.6176 11.6213 20.6022 11.9491 20.6021 12.2755C20.6015 15.2249 20.6027 18.1743 20.6018 21.1236C20.6012 22.8792 20.7508 22.7198 18.9918 22.7363C17.9439 22.7462 16.8855 22.7122 15.8509 22.8449C13.4704 23.1502 11.5092 25.2569 11.346 27.4288C11.1053 30.6298 13.2533 32.6501 15.3195 33.156C15.8495 33.2857 15.9861 33.534 15.9843 34.0239C15.9725 37.27 15.9796 40.516 15.9768 43.7621C15.9763 44.3685 15.8643 44.4616 15.2625 44.4023C11.0362 43.9852 7.42814 42.2763 4.50845 39.1983C3.21608 37.8358 2.17304 36.2866 1.44248 34.4994Z" fill="#060419"/>
<path d="M114.332 36.1402C114.331 37.1699 114.318 38.1475 114.336 39.1246C114.344 39.5561 114.173 39.7063 113.747 39.7057C107.759 39.6979 101.771 39.6952 95.7835 39.7084C95.1912 39.7097 95.2046 39.3693 95.2049 38.9588C95.2085 32.9724 95.2073 26.986 95.2073 20.9996C95.2073 19.0798 95.2055 17.1599 95.2087 15.2401C95.2097 14.5983 95.2452 14.5631 95.8999 14.5629C101.818 14.5613 107.735 14.5658 113.653 14.5549C114.134 14.554 114.347 14.6811 114.34 15.2019C114.316 16.9119 114.318 18.6227 114.339 20.3328C114.345 20.8261 114.146 20.9595 113.684 20.9578C110.34 20.9454 106.996 20.9508 103.652 20.952C102.893 20.9523 102.881 20.9658 102.878 21.7061C102.877 22.2122 102.892 22.7188 102.875 23.2244C102.861 23.6268 103.025 23.789 103.432 23.7834C104.464 23.7692 105.497 23.7796 106.53 23.7797C108.824 23.78 111.117 23.7785 113.411 23.7808C114.089 23.7815 114.119 23.8121 114.12 24.4929C114.123 26.1509 114.123 27.809 114.12 29.467C114.119 30.1389 114.089 30.1681 113.4 30.1685C110.214 30.1703 107.027 30.1692 103.841 30.1695C102.878 30.1695 102.878 30.1699 102.878 31.1543C102.878 31.6256 102.876 32.0968 102.878 32.568C102.882 33.2892 102.9 33.3108 103.61 33.3111C106.849 33.3128 110.088 33.3119 113.327 33.312C113.484 33.312 113.642 33.3214 113.799 33.3119C114.177 33.289 114.34 33.455 114.334 33.8364C114.321 34.5867 114.331 35.3373 114.332 36.1402Z" fill="#060419"/>
<path d="M60.1539 31.8854C60.5098 31.4563 60.849 31.059 61.1581 30.6396C61.5689 30.0824 62.0744 29.9239 62.7132 30.2124C64.3863 30.9682 66.0494 31.7466 67.7306 32.484C68.1648 32.6745 68.2217 32.8689 68.0167 33.2762C66.1719 36.9412 63.2577 39.1944 59.1905 39.8897C55.8873 40.4544 52.683 40.0634 49.697 38.5271C45.8632 36.5545 43.5469 33.4182 42.9835 29.1231C42.5436 25.769 43.07 22.589 45.0526 19.7408C46.7921 17.2419 49.1768 15.6553 52.0649 14.7916C53.6314 14.3231 55.2466 14.0977 56.8826 14.1498C59.839 14.244 62.5954 14.9682 64.9069 16.9183C66.2739 18.0717 67.3415 19.4635 68.0726 21.1042C68.1985 21.3867 68.1534 21.5635 67.8708 21.6923C66.0889 22.5042 64.3142 23.3321 62.5239 24.1252C61.9986 24.3579 61.4819 24.1191 61.1077 23.5398C60.3065 22.2995 59.2211 21.4526 57.7781 21.0746C55.4879 20.4746 52.7254 21.6605 51.5671 23.7478C50.1119 26.3704 50.3642 29.3788 52.3724 31.5842C54.2909 33.6911 57.8914 34.039 60.1539 31.8854Z" fill="#060419"/>
<path d="M126.311 39.7013C125.575 39.7007 124.892 39.6904 124.21 39.7035C123.827 39.7108 123.674 39.5483 123.681 39.1713C123.694 38.4909 123.684 37.81 123.684 37.1294C123.684 29.8862 123.684 22.6431 123.684 15.3999C123.684 14.5636 123.685 14.5622 124.531 14.5621C127.717 14.5615 130.905 14.5138 134.09 14.5763C136.936 14.632 139.628 15.3066 142.019 16.9366C144.722 18.7792 146.301 21.3504 146.886 24.5264C147.35 27.0419 147.183 29.5262 146.264 31.9368C145.267 34.5531 143.535 36.5384 141.08 37.888C139.034 39.0129 136.834 39.5712 134.497 39.5986C131.786 39.6305 129.074 39.6669 126.311 39.7013ZM132.878 34.8834C133.628 34.8468 134.386 34.8692 135.126 34.7628C137.558 34.4129 139.465 33.2271 140.628 31.0319C141.485 29.4138 141.688 27.6688 141.453 25.8509C140.965 22.074 138.354 19.6498 134.559 19.3996C132.955 19.2939 131.339 19.3901 129.729 19.3755C129.3 19.3716 129.142 19.5321 129.143 19.9599C129.152 24.7406 129.152 29.5212 129.143 34.3019C129.142 34.7279 129.296 34.8957 129.727 34.8882C130.742 34.8705 131.758 34.883 132.878 34.8834Z" fill="#060419"/>
<path d="M186.848 41.9124C186.883 41.8078 186.896 41.735 186.932 41.6774C187.733 40.4122 187.409 39.2283 186.868 37.9322C184.685 32.6994 182.594 27.4285 180.471 22.1712C180.4 21.9952 180.343 21.8135 180.251 21.5568C180.475 21.5254 180.652 21.4798 180.83 21.479C182.178 21.473 183.526 21.4884 184.873 21.4684C185.291 21.4623 185.5 21.6186 185.645 22.0051C186.889 25.32 188.15 28.6287 189.406 31.9392C189.639 32.5538 189.874 33.1679 190.165 33.9307C190.61 32.7704 191.005 31.7534 191.391 30.7329C192.445 27.9426 193.498 25.1515 194.546 22.3589C194.744 21.8311 195.104 21.4958 195.67 21.4881C197.07 21.469 198.47 21.4844 199.871 21.4889C199.919 21.489 199.968 21.5197 200.11 21.5679C200.013 21.8411 199.929 22.112 199.823 22.3738C198.014 26.8171 196.205 31.2605 194.39 35.7012C192.805 39.5765 191.208 43.4467 189.63 47.3243C189.442 47.7863 189.186 48.0057 188.655 47.9883C187.501 47.9504 186.344 47.9812 185.189 47.9737C184.656 47.9703 184.595 47.8759 184.78 47.3841C185.463 45.5724 186.15 43.762 186.848 41.9124Z" fill="#060419"/>
<path d="M159.593 37.9993C157.273 39.9509 154.623 40.4509 151.786 39.7386C149.282 39.1099 147.914 37.4421 147.887 34.8718C147.863 32.6691 148.83 30.9461 151.286 29.8845C152.573 29.3282 153.942 29.1558 155.32 29.0176C156.728 28.8762 158.136 28.733 159.542 28.5768C160.082 28.5169 160.196 28.3448 160.124 27.8086C159.883 26.0251 158.789 25.0774 156.961 25.0344C155 24.9882 153.202 25.5593 151.401 26.4597C151.153 25.9261 150.903 25.3997 150.664 24.8678C150.45 24.3901 150.26 23.9015 150.039 23.4273C149.886 23.0987 149.92 22.8881 150.281 22.72C152.25 21.8005 154.286 21.1364 156.487 21.1707C157.532 21.187 158.598 21.1952 159.616 21.3988C162.944 22.0648 164.785 24.3514 164.856 27.7181C164.935 31.4523 164.875 35.1894 164.874 38.9253C164.874 39.6871 164.861 39.6995 164.122 39.701C163.159 39.703 162.196 39.691 161.233 39.7054C160.834 39.7113 160.668 39.5648 160.664 39.1554C160.66 38.6341 160.604 38.1126 160.556 37.5926C160.541 37.431 160.479 37.2738 160.416 37.0265C160.106 37.3954 159.863 37.6844 159.593 37.9993ZM156.925 31.9422C155.855 32.0835 154.75 32.078 153.771 32.6205C153.086 33.0007 152.64 33.5541 152.695 34.3891C152.753 35.2663 153.247 35.8958 154.084 36.163C155.127 36.4959 156.167 36.4214 157.165 36.0207C158.924 35.3147 159.909 33.9949 160.135 32.1163C160.182 31.7269 160.087 31.5358 159.616 31.6128C158.756 31.7535 157.885 31.8298 156.925 31.9422Z" fill="#060419"/>
<path d="M178.744 28.703C178.744 32.1568 178.745 35.5581 178.744 38.9595C178.743 39.6794 178.723 39.699 178.012 39.7005C176.839 39.7028 175.667 39.7047 174.495 39.6992C173.873 39.6962 173.808 39.6306 173.807 38.9972C173.805 31.0608 173.809 23.1242 173.799 15.1878C173.798 14.7053 173.973 14.5462 174.445 14.5548C175.652 14.577 176.86 14.5594 178.067 14.5632C178.707 14.5651 178.743 14.6008 178.743 15.2545C178.745 19.7199 178.744 24.1853 178.744 28.703Z" fill="#060419"/>
<path d="M166.976 23.7805C166.976 22.2086 166.976 22.2085 168.506 22.2086C169.416 22.2086 170.328 22.2272 171.237 22.2014C171.722 22.1876 171.923 22.3343 171.922 22.8515C171.908 28.2459 171.909 33.6404 171.92 39.0348C171.921 39.5349 171.734 39.7164 171.239 39.7075C170.066 39.6864 168.892 39.7027 167.719 39.7005C166.997 39.6992 166.977 39.6805 166.976 38.9686C166.975 33.9233 166.976 28.878 166.976 23.7805Z" fill="#060419"/>
<path d="M171.914 16.8705C171.914 17.8988 171.898 18.8756 171.92 19.8516C171.931 20.3373 171.764 20.5477 171.254 20.5386C170.03 20.5166 168.805 20.5186 167.581 20.5383C167.125 20.5457 166.963 20.3746 166.97 19.9245C166.989 18.6868 166.989 17.4483 166.969 16.2106C166.962 15.754 167.138 15.5957 167.587 15.6033C168.741 15.6227 169.896 15.6084 171.05 15.6097C171.89 15.6107 171.91 15.632 171.914 16.4526C171.914 16.5747 171.914 16.6967 171.914 16.8705Z" fill="#060419"/>
</svg>