<?xml version="1.0" encoding="utf-8"?>
<svg xmlns="http://www.w3.org/2000/svg" fill="none" height="38" viewBox="0 0 167 38" width="167">
<path d="M124.7 12.385C124.66 12.475 124.61 12.565 124.58 12.655C122.87 18.625 120.71 24.445 118.77 30.345C118.68 30.605 118.54 30.675 118.31 30.675C117.44 30.675 116.58 30.655 115.71 30.675C115.43 30.675 115.38 30.505 115.32 30.305C114.74 28.455 114.13 26.615 113.58 24.765C112.58 21.385 111.61 17.995 110.64 14.605C110.44 13.905 110.3 13.195 110.03 12.485C110.01 12.635 109.99 12.795 109.99 12.945C109.91 15.125 109.85 17.295 109.75 19.475C109.62 22.245 109.46 25.015 109.31 27.795C109.26 28.725 109.2 29.655 109.16 30.575C109.15 30.865 109.03 30.965 108.74 30.955C107.7 30.945 106.66 30.935 105.62 30.955C105.3 30.955 105.23 30.825 105.25 30.555C105.33 29.335 105.41 28.115 105.49 26.895C105.64 24.585 105.8 22.285 105.95 19.975C106.18 16.585 106.41 13.195 106.64 9.79499C106.67 9.31499 106.64 8.84499 106.64 8.33499C106.78 8.32499 106.88 8.30499 106.98 8.30499C108.61 8.30499 110.23 8.30499 111.86 8.30499C112.12 8.30499 112.26 8.37499 112.35 8.64499C114.01 13.805 115.85 18.915 117.06 24.215C117.13 24.515 117.22 24.815 117.34 25.215C117.43 25.035 117.49 24.965 117.51 24.885C118.32 21.305 119.48 17.835 120.69 14.385C121.35 12.495 122.02 10.605 122.66 8.71499C122.76 8.41499 122.9 8.30499 123.23 8.31499C124.76 8.33499 126.29 8.33499 127.83 8.31499C128.14 8.31499 128.25 8.40499 128.27 8.71499C128.43 11.615 128.59 14.525 128.76 17.425C128.93 20.365 129.11 23.315 129.29 26.255C129.37 27.665 129.45 29.065 129.54 30.475C129.57 30.865 129.45 30.985 129.05 30.975C128.02 30.955 127 30.935 125.97 30.975C125.49 30.995 125.43 30.765 125.42 30.415C125.38 29.495 125.35 28.585 125.31 27.665C125.18 24.945 125.03 22.225 124.93 19.505C124.85 17.195 124.85 14.885 124.81 12.575C124.81 12.525 124.8 12.475 124.79 12.435L124.69 12.415L124.7 12.385Z" fill="#060419"/>
<path d="M21.9404 27.005C22.1004 27.765 22.2504 28.485 22.4004 29.215C22.4004 29.245 22.4004 29.265 22.4104 29.295C22.6104 30.295 22.6204 30.325 21.6504 30.605C19.1904 31.305 16.6904 31.445 14.1704 31.055C12.2804 30.765 10.5504 30.075 9.04042 28.895C7.12042 27.395 5.96042 25.405 5.43042 23.045C4.86042 20.485 4.91042 17.945 5.78042 15.465C6.94042 12.125 9.22042 9.845 12.5604 8.705C15.7704 7.605 19.0204 7.665 22.2504 8.705C22.8304 8.895 22.8104 8.925 22.6504 9.525C22.4004 10.415 22.1604 11.315 21.8904 12.255C21.7204 12.185 21.5904 12.135 21.4604 12.085C18.9804 11.205 16.4804 11.045 14.0004 12.005C11.7604 12.875 10.4004 14.605 9.80042 16.895C9.26042 18.955 9.28042 21.035 10.0104 23.055C10.9704 25.725 12.9404 27.265 15.7204 27.655C17.7504 27.945 19.7904 27.865 21.7304 27.045C21.7804 27.025 21.8304 27.025 21.9404 27.015V27.005Z" fill="#060419"/>
<path d="M76.7403 14.205C78.1703 14.135 79.5403 14.405 80.8203 15.025C82.7103 15.945 83.9903 17.425 84.6503 19.405C85.3703 21.565 85.3703 23.755 84.6403 25.895C83.5903 28.975 81.3103 30.625 78.1703 31.165C76.4503 31.455 74.7703 31.275 73.1603 30.585C70.6503 29.495 69.1803 27.535 68.6503 24.895C68.2403 22.845 68.3603 20.805 69.2303 18.885C70.6903 15.665 73.3503 14.325 76.7503 14.205H76.7403ZM80.7703 22.725C80.7703 22.435 80.7903 22.135 80.7703 21.845C80.6703 20.495 80.2803 19.255 79.3303 18.265C77.6603 16.515 74.7503 16.985 73.5803 19.245C72.4003 21.505 72.4303 23.865 73.5303 26.145C74.3503 27.855 76.0303 28.615 77.7403 28.145C79.0203 27.795 79.7803 26.845 80.2803 25.685C80.6903 24.745 80.8503 23.755 80.7703 22.725Z" fill="#060419"/>
<path d="M39.5104 14.525C39.5104 14.745 39.5104 14.895 39.5104 15.055C39.5104 18.825 39.5004 22.605 39.5104 26.375C39.5104 27.795 39.6004 29.215 39.6504 30.635C39.6504 30.835 39.6104 30.935 39.3904 30.935C38.2604 30.935 37.1304 30.935 35.9604 30.935C35.8904 30.095 35.8204 29.285 35.7504 28.525C35.2604 29.025 34.8104 29.565 34.2804 30.005C32.3604 31.565 29.2804 31.725 27.2004 30.375C25.9304 29.555 25.2704 28.295 24.9704 26.865C24.7804 25.975 24.6804 25.055 24.6604 24.145C24.6204 21.065 24.6404 17.975 24.6304 14.895C24.6304 14.605 24.7104 14.505 25.0204 14.505C26.1704 14.525 27.3104 14.525 28.4604 14.505C28.7804 14.505 28.8604 14.615 28.8604 14.925C28.8504 17.685 28.8304 20.455 28.8604 23.215C28.8604 24.035 28.9404 24.865 29.1304 25.655C29.7804 28.345 32.7504 28.405 34.2404 26.925C34.9604 26.205 35.3304 25.325 35.3304 24.315C35.3304 21.235 35.3104 18.155 35.2804 15.065C35.2804 14.515 35.2604 14.515 35.8004 14.515C37.0104 14.515 38.2204 14.515 39.5004 14.515L39.5104 14.525Z" fill="#060419"/>
<path d="M133.88 18.265C133.69 17.635 133.5 16.995 133.3 16.355C133.07 15.595 133.06 15.585 133.78 15.265C136.18 14.215 138.68 13.895 141.23 14.435C143.76 14.965 145.32 16.705 145.69 19.275C145.79 19.955 145.83 20.645 145.84 21.335C145.86 23.685 145.84 26.035 145.87 28.385C145.87 29.215 145.98 30.045 146.04 30.925C145.43 30.925 144.84 30.925 144.24 30.925C143.75 30.925 143.25 30.925 142.76 30.925C142.3 30.925 142.22 30.835 142.18 30.365C142.15 29.955 142.1 29.555 142.04 29.045C141.9 29.195 141.83 29.265 141.77 29.335C140.13 31.145 136.99 31.805 134.74 30.795C132.92 29.985 131.83 28.215 131.9 26.205C131.97 24.115 132.95 22.585 134.79 21.585C136.42 20.695 138.19 20.395 140.01 20.255C140.43 20.225 140.86 20.175 141.29 20.185C141.69 20.205 141.72 20.015 141.68 19.705C141.49 18.125 140.49 17.215 138.8 17.125C137.21 17.045 135.71 17.385 134.29 18.105C134.2 18.155 134.1 18.205 134 18.245C133.98 18.245 133.95 18.245 133.87 18.245L133.88 18.265ZM141.71 22.975C140.47 22.915 139.28 22.955 138.14 23.375C136.6 23.935 136.07 24.705 136.11 26.335C136.13 27.135 136.52 27.715 137.25 28.065C137.88 28.365 138.54 28.355 139.2 28.215C140.45 27.955 141.62 26.835 141.7 25.725C141.76 24.825 141.71 23.925 141.71 22.975Z" fill="#060419"/>
<path d="M97.0403 10.265C96.5203 10.185 96.0303 10.075 95.5303 10.045C94.0603 9.94503 93.0503 10.635 92.7003 12.065C92.5303 12.775 92.5503 13.535 92.4903 14.275C92.4703 14.535 92.6503 14.535 92.8303 14.535C93.8003 14.535 94.7803 14.535 95.7503 14.535C95.8503 14.535 95.9603 14.545 96.1103 14.555C96.1103 15.285 96.1103 15.995 96.1103 16.715C96.1103 17.695 96.1103 17.695 95.1203 17.695C94.3603 17.695 93.6003 17.715 92.8403 17.695C92.5403 17.695 92.4903 17.805 92.4903 18.065C92.4903 22.205 92.4903 26.355 92.4903 30.495C92.4903 30.845 92.4003 30.945 92.0503 30.945C90.9603 30.925 89.8603 30.915 88.7703 30.945C88.3303 30.955 88.2703 30.795 88.2803 30.415C88.2903 26.535 88.2803 22.655 88.2803 18.775C88.2803 17.685 88.2803 17.695 87.2103 17.685C86.8303 17.685 86.3303 17.775 86.1103 17.575C85.9203 17.395 86.0503 16.875 86.0403 16.505C86.0403 15.965 86.0403 15.415 86.0303 14.875C86.0303 14.595 86.1203 14.495 86.4003 14.505C86.9103 14.525 87.4103 14.495 87.9203 14.525C88.2303 14.545 88.2903 14.435 88.2903 14.135C88.2903 12.775 88.4703 11.435 89.0103 10.165C89.8703 8.14503 91.4703 7.10503 93.5903 6.77503C94.6703 6.60503 95.7403 6.72503 96.8003 6.94503C97.1803 7.02503 97.3003 7.19503 97.2503 7.58503C97.1503 8.46503 97.0803 9.35503 97.0003 10.255L97.0403 10.265Z" fill="#060419"/>
<path d="M59.1502 27.765C59.1802 28.715 59.2202 29.6851 59.2302 30.6451C59.2302 30.7451 59.0802 30.905 58.9702 30.925C57.2502 31.325 55.5202 31.5051 53.8402 30.7551C52.5802 30.1951 51.9002 29.145 51.5902 27.835C51.2602 26.435 51.3402 25.005 51.3202 23.595C51.2902 21.765 51.2702 19.925 51.2802 18.095C51.2802 17.735 51.1602 17.675 50.8402 17.6851C50.3302 17.705 49.8302 17.6851 49.3202 17.6851C49.0602 17.6851 48.9302 17.615 48.9402 17.325C48.9602 16.505 48.9602 15.675 48.9402 14.855C48.9402 14.565 49.0402 14.485 49.3202 14.495C49.8502 14.515 50.3902 14.485 50.9202 14.495C51.2102 14.505 51.2802 14.405 51.2802 14.135C51.2802 13.155 51.3002 12.175 51.3102 11.185C51.3102 10.985 51.3202 10.825 51.5702 10.765C52.7602 10.495 53.9502 10.215 55.1502 9.94505C55.2302 9.92505 55.3102 9.93505 55.4202 9.92505C55.4202 10.145 55.4202 10.355 55.4202 10.565C55.4202 11.745 55.4202 12.925 55.4102 14.115C55.4102 14.415 55.5002 14.505 55.7902 14.505C56.8402 14.495 57.9002 14.505 58.9502 14.495C59.3102 14.495 59.4402 14.575 59.4302 14.965C59.4002 15.735 59.4202 16.505 59.4302 17.275C59.4302 17.575 59.3602 17.695 59.0302 17.695C57.9402 17.675 56.8502 17.6951 55.7502 17.6851C55.5302 17.6851 55.4102 17.715 55.4102 17.985C55.4202 20.415 55.4102 22.845 55.4302 25.275C55.4302 25.705 55.5302 26.145 55.6602 26.565C55.9102 27.405 56.4602 27.815 57.3402 27.835C57.9202 27.845 58.5002 27.795 59.1602 27.765H59.1502Z" fill="#060419"/>
<path d="M160.94 18.025C160.53 17.905 160.15 17.775 159.75 17.675C158.66 17.395 157.56 17.325 156.47 17.585C154.9 17.955 153.77 18.905 153.2 20.415C152.4 22.535 152.56 24.575 154.03 26.385C154.81 27.345 155.89 27.825 157.12 27.925C158.46 28.035 159.77 27.905 161.07 27.335C161.23 28.145 161.4 28.905 161.52 29.665C161.65 30.505 161.64 30.505 160.8 30.735C158.43 31.375 156.05 31.555 153.68 30.735C150.6 29.665 148.98 27.405 148.57 24.235C148.36 22.645 148.49 21.075 149.07 19.575C150.16 16.765 152.27 15.125 155.16 14.475C157.2 14.015 159.23 14.125 161.23 14.785C161.6 14.905 161.7 15.075 161.6 15.455C161.39 16.235 161.22 17.025 161.03 17.815C161.01 17.885 160.97 17.955 160.93 18.045L160.94 18.025Z" fill="#060419"/>
<path d="M42.5903 7.03501H46.8403V30.935C46.0603 30.935 45.2903 30.935 44.5303 30.935C44.0103 30.935 43.4903 30.915 42.9703 30.935C42.6503 30.955 42.5603 30.835 42.5603 30.525C42.5703 28.455 42.5603 26.385 42.5603 24.305C42.5603 18.675 42.5603 13.045 42.5603 7.40501C42.5603 7.28501 42.5703 7.17501 42.5803 7.01501L42.5903 7.03501Z" fill="#060419"/>
</svg>