<?xml version="1.0" encoding="utf-8"?>
<svg xmlns="http://www.w3.org/2000/svg" fill="none" height="42" viewBox="0 0 171 42" width="171">
<path d="M10.7904 31.42C9.60036 31.42 8.62036 31.4 7.64036 31.42C6.92036 31.44 6.37036 30.94 6.37036 30.18C6.39036 24.37 6.37036 18.55 6.37036 12.74V11.45C6.37036 10.95 6.85036 10.47 7.35036 10.47C9.41036 10.47 11.4704 10.47 13.5204 10.47C13.9704 10.47 14.4304 10.61 14.8804 10.71C15.6604 10.89 16.3804 11.24 17.0704 11.65C17.8504 12.11 18.4704 12.74 19.0304 13.43C19.3504 13.83 19.6604 14.25 19.8804 14.71C20.1404 15.24 20.3104 15.8 20.4904 16.36C20.6804 16.96 20.7204 17.59 20.7304 18.23C20.7304 19.96 20.7604 21.7 20.7504 23.43C20.7504 25.11 20.2704 26.65 19.2704 28.02C18.9704 28.44 18.6604 28.86 18.2904 29.22C17.1504 30.32 15.7804 30.99 14.2204 31.28C13.0104 31.5 11.7904 31.3 10.7904 31.39V31.41V31.42ZM8.91036 20.92V28.78C8.91036 28.98 8.97036 29.05 9.17036 29.05C10.4604 29.05 11.7604 29.05 13.0504 29.05C13.2304 29.05 13.4204 29.05 13.6004 29.01C15.2804 28.78 16.5204 27.88 17.4104 26.48C18.0004 25.57 18.2304 24.55 18.2204 23.48C18.2204 21.71 18.2004 19.94 18.1804 18.17C18.1804 17.84 18.1504 17.51 18.1004 17.19C17.9004 15.99 17.2804 15.01 16.3804 14.2C15.5304 13.44 14.5504 12.92 13.3904 12.88C11.9604 12.84 10.5304 12.85 9.10036 12.84C8.92036 12.84 8.90036 12.93 8.90036 13.08V20.92H8.91036Z" fill="#060419"/>
<path d="M93.9805 20.84V11.5C93.9805 10.92 94.3605 10.53 94.9305 10.49C95.2605 10.47 95.5905 10.49 95.9305 10.49C97.5605 10.49 99.1805 10.47 100.81 10.49C101.99 10.51 103.12 10.81 104.16 11.39C105.05 11.88 105.82 12.5 106.49 13.26C107.04 13.89 107.45 14.61 107.77 15.37C107.92 15.72 108.04 16.09 108.12 16.46C108.21 16.85 108.25 17.25 108.29 17.64C108.32 17.91 108.35 18.19 108.35 18.46C108.35 20.22 108.37 21.98 108.35 23.75C108.35 24.86 108.07 25.91 107.56 26.91C107.15 27.72 106.65 28.47 106.05 29.13C105.45 29.79 104.71 30.31 103.87 30.66C103.34 30.88 102.8 31.06 102.25 31.23C102.03 31.3 101.8 31.32 101.57 31.35C100.67 31.49 99.7605 31.38 98.8505 31.4C97.9205 31.42 97.0005 31.4 96.0705 31.4C95.6605 31.4 95.2605 31.47 94.8505 31.45C94.7205 31.45 94.5905 31.28 94.4705 31.19C94.0705 30.9 93.9905 30.49 93.9905 30.02V20.82V20.85L93.9805 20.84ZM96.4605 29.03H100.84C101.52 29.03 102.17 28.85 102.77 28.54C103.69 28.06 104.47 27.42 105.01 26.51C105.52 25.66 105.82 24.76 105.82 23.76V18.55C105.82 18.23 105.69 17.9 105.73 17.59C105.78 17.23 105.73 16.89 105.58 16.59C105.35 16.07 105.11 15.53 104.78 15.07C103.85 13.78 102.59 13 100.98 12.89C100.02 12.82 99.0605 12.86 98.1005 12.85H96.7505C96.6005 12.85 96.4705 12.85 96.5405 13.08C96.5705 13.15 96.5205 13.25 96.5205 13.33V27.98C96.5205 28.06 96.5205 28.14 96.5205 28.22C96.5005 28.49 96.4905 28.76 96.4705 29.03H96.4605Z" fill="#060419"/>
<path d="M122.56 21.83C122.56 21.83 122.47 21.79 122.45 21.78C122.32 21.87 122.23 21.97 122.12 22.01C121.63 22.2 121.14 22.38 120.63 22.57C120.86 22.93 121.09 23.29 121.32 23.66C121.89 24.58 122.49 25.49 123.03 26.42C123.28 26.85 123.55 27.26 123.88 27.64C124.04 27.83 124.1 28.11 124.23 28.33C124.47 28.71 124.74 29.08 124.97 29.46C125.21 29.85 125.43 30.24 125.63 30.64C125.8 30.98 125.57 31.38 125.18 31.4C124.61 31.43 124.03 31.43 123.46 31.4C123.32 31.4 123.15 31.23 123.07 31.1C122.71 30.55 122.39 29.98 122.04 29.43C121.66 28.81 121.27 28.2 120.89 27.58C120.47 26.89 120.03 26.21 119.62 25.52C119.43 25.2 119.28 24.85 119.1 24.53C119.01 24.37 118.85 24.25 118.75 24.1C118.46 23.67 118.2 23.23 117.91 22.8C117.85 22.71 117.71 22.62 117.61 22.62C116.98 22.6 116.35 22.62 115.72 22.62C115.55 22.62 115.51 22.7 115.51 22.85V30.69C115.51 31.27 115.35 31.43 114.76 31.43H113.57C113.1 31.43 112.98 31.31 112.98 30.83V28.28C112.98 22.74 112.98 17.21 112.98 11.67C112.98 10.88 113.46 10.48 114.16 10.48C116.01 10.48 117.86 10.48 119.72 10.48C120.65 10.48 121.53 10.75 122.35 11.21C124.02 12.14 125.04 13.55 125.38 15.41C125.57 16.43 125.53 17.48 125.18 18.48C124.79 19.59 124.13 20.51 123.26 21.29C123.06 21.47 122.83 21.62 122.58 21.81V21.83H122.56ZM115.49 16.53V20.02C115.49 20.24 115.58 20.27 115.76 20.27C116.71 20.27 117.67 20.3 118.62 20.27C119.14 20.27 119.68 20.27 120.16 20.14C121.47 19.78 122.36 18.93 122.73 17.61C122.91 16.95 122.86 16.28 122.73 15.6C122.54 14.51 121.32 13.02 119.77 12.9C118.59 12.81 117.4 12.86 116.21 12.85C116.02 12.85 115.83 12.83 115.65 12.85C115.58 12.85 115.48 12.98 115.48 13.05C115.48 14.2 115.48 15.36 115.48 16.51L115.49 16.53Z" fill="#060419"/>
<path d="M35.2304 25.8299H27.7404C27.5004 25.8299 27.4004 25.9 27.3304 26.1299C26.8704 27.58 26.3804 29.0199 25.9004 30.4699C25.8404 30.6399 25.7904 30.8099 25.7404 30.9799C25.6704 31.2199 25.4104 31.4099 25.0904 31.4199C24.7004 31.4199 24.3204 31.4199 23.9304 31.4199C23.7704 31.4199 23.6204 31.2499 23.4604 31.4199C23.3604 31.3099 23.1804 31.2099 23.1704 31.0999C23.1504 30.8899 23.2104 30.6699 23.2704 30.4699C23.4604 29.8699 23.6704 29.2699 23.8604 28.6699C24.8204 25.7599 25.7804 22.8399 26.7404 19.9299C27.3204 18.1599 27.9104 16.3899 28.4804 14.6199C28.6904 13.9799 28.8804 13.3199 29.0904 12.6799C29.2604 12.1299 29.4204 11.5699 29.6304 11.0399C29.7804 10.6599 29.8904 10.5199 30.3204 10.5099C30.9404 10.5099 31.5604 10.5099 32.1804 10.5099C32.3304 10.5099 32.4904 10.5799 32.6404 10.6099C32.8504 10.6599 32.8004 10.8399 32.8504 10.9799C33.0904 11.6799 33.3504 12.3599 33.6104 13.0499C33.7404 13.3899 33.8904 13.7299 34.0104 14.0799C34.1104 14.3699 34.1504 14.6899 34.2504 14.9799C34.3604 15.3099 34.5104 15.6299 34.6304 15.9599C34.7104 16.1999 34.7604 16.4399 34.8404 16.6799C35.0504 17.2999 35.2704 17.9099 35.4904 18.5299C35.5104 18.5999 35.5204 18.6699 35.5304 18.7499C35.5304 18.8099 35.5304 18.8799 35.5504 18.9299C35.8204 19.5599 35.9304 20.2399 36.1804 20.8699C36.3804 21.3799 36.5704 21.8999 36.6904 22.4299C36.7904 22.9199 37.0504 23.3499 37.1704 23.8199C37.3004 24.3199 37.4804 24.8099 37.6404 25.2999C37.8004 25.7799 37.9704 26.2599 38.1304 26.7399C38.3004 27.2699 38.4504 27.8099 38.6304 28.3499C38.8704 29.0699 39.1204 29.7799 39.3604 30.4899C39.3804 30.5499 39.4004 30.6099 39.4204 30.6699C39.5404 31.1699 39.3404 31.4299 38.8204 31.4299H37.4704C37.1104 31.4299 36.9804 31.3199 36.8704 30.9799C36.4504 29.6899 36.0304 28.41 35.6104 27.1199C35.4704 26.6999 35.3404 26.2699 35.2104 25.8299H35.2304ZM34.5004 23.5699C33.4504 20.2899 32.4004 17.0399 31.3504 13.7899C31.3304 13.7899 31.3104 13.8099 31.2904 13.8199C30.2404 17.0599 29.1904 20.2999 28.1404 23.5699H34.5004Z" fill="#060419"/>
<path d="M155.17 23.47V30.77C155.17 31.27 155.02 31.42 154.51 31.42H153.16C152.89 31.42 152.75 31.29 152.68 31.03C152.53 30.5 152.66 29.98 152.66 29.45C152.64 23.94 152.66 18.43 152.66 12.92C152.66 12.45 152.64 11.97 152.64 11.5C152.64 10.93 153.04 10.5 153.62 10.48C153.93 10.48 154.25 10.48 154.56 10.48H158.87C159.73 10.48 160.58 10.59 161.36 10.99C161.84 11.23 162.28 11.58 162.78 11.77C163.04 11.87 163.09 12.2 163.39 12.19C163.41 12.19 163.43 12.22 163.45 12.24C163.74 12.57 164.05 12.89 164.3 13.25C164.49 13.52 164.64 13.82 164.78 14.12C165.08 14.75 165.26 15.43 165.36 16.12C165.53 17.29 165.36 18.42 164.91 19.51C164.65 20.16 164.18 20.68 163.77 21.23C163.05 22.19 162.06 22.72 160.97 23.11C160.29 23.36 159.57 23.47 158.84 23.47H155.16H155.18H155.17ZM155.17 12.88V20.79C155.17 21.01 155.23 21.09 155.45 21.09H158.71C159.75 21.09 160.67 20.74 161.44 20.05C162.57 19.03 163.01 17.72 162.76 16.24C162.43 14.28 160.71 12.88 158.71 12.86H155.53C155.42 12.86 155.3 12.88 155.18 12.89L155.17 12.88Z" fill="#060419"/>
<path d="M146.33 23.98C146.28 24.09 146.26 24.16 146.22 24.22C144.88 26.51 143.54 28.8 142.19 31.09C141.92 31.54 141.66 32 141.38 32.44C140.88 33.2 140.18 33.68 139.3 33.9C138.94 33.99 138.57 34.08 138.21 34.09C137.63 34.09 137.12 33.8 136.62 33.54C136.16 33.3 135.72 33.02 135.28 32.77C134.38 32.25 133.48 31.73 132.58 31.21C132.27 31.03 131.94 30.87 131.65 30.66C131.27 30.39 130.87 30.15 130.49 29.89C130.01 29.56 129.62 29.17 129.24 28.76C128.58 28.05 128.18 27.21 128.08 26.23C128.02 25.6 128.21 25.06 128.53 24.52C128.97 23.8 129.64 23.35 130.33 22.91C130.92 22.53 131.57 22.26 132.22 22C132.52 21.88 132.81 21.72 133.12 21.61C133.46 21.5 133.82 21.43 134.17 21.35C134.67 21.24 135.16 21.1 135.66 21.03C136.43 20.92 137.2 20.87 137.97 20.8C138.45 20.75 138.94 20.72 139.42 20.66C139.57 20.64 139.66 20.52 139.61 20.34C139.34 19.34 139.08 18.34 138.81 17.34C138.7 16.94 138.59 16.54 138.49 16.15C138.49 16.11 138.49 16.02 138.51 16.02C138.56 16.02 138.63 16.02 138.67 16.02C139.03 16.19 139.26 16.47 139.47 16.8C140.25 18.04 141.06 19.26 141.85 20.49C141.96 20.65 142.09 20.67 142.26 20.67C143.72 20.67 145.19 20.67 146.65 20.72C146.94 20.72 147.25 20.85 147.51 20.98C148.06 21.27 148.06 21.87 147.54 22.2C147.18 22.43 146.78 22.56 146.36 22.56C145.16 22.56 143.95 22.56 142.75 22.53C141.75 22.5 142.02 22.4 141.48 23.16C140.71 24.23 139.96 25.33 139.19 26.4C139.05 26.59 138.87 26.77 138.68 26.91C138.57 26.99 138.39 26.99 138.24 27.04C138.69 25.61 139.13 24.23 139.56 22.85C139.58 22.8 139.59 22.75 139.6 22.7C139.66 22.42 139.6 22.36 139.32 22.38C138.9 22.41 138.48 22.46 138.06 22.47C136.94 22.52 135.85 22.72 134.76 22.96C133.58 23.22 132.42 23.58 131.37 24.21C130.8 24.55 130.26 24.94 129.91 25.53C129.37 26.46 129.48 27.41 130.39 28.14C130.72 28.41 131.07 28.67 131.43 28.89C132.04 29.25 132.67 29.56 133.29 29.91C134.51 30.6 135.72 31.3 136.94 32C137.37 32.25 137.79 32.5 138.31 32.5C139.17 32.5 139.83 32.11 140.26 31.38C140.55 30.9 140.78 30.39 141.06 29.9C141.34 29.41 141.67 28.95 141.96 28.46C142.32 27.86 142.67 27.26 143.02 26.65C143.45 25.91 143.87 25.17 144.29 24.43C144.33 24.37 144.36 24.3 144.38 24.24C144.43 24.04 144.57 23.98 144.76 23.98C145 23.98 145.27 24.05 145.48 23.96C145.77 23.84 146.01 24.01 146.31 23.96L146.33 23.98Z" fill="#060419"/>
<path d="M48.8303 12.7399V29.1399H51.6903C52.1203 29.1399 52.2303 29.2499 52.2303 29.6799V30.9399C52.2303 31.2199 52.1003 31.3699 51.8203 31.3999C51.6503 31.4199 51.4803 31.3999 51.3103 31.3999H43.4903C42.9303 31.3999 42.7603 31.2099 42.8003 30.6499C42.8203 30.2899 42.8003 29.9299 42.7903 29.5699C42.7903 29.4799 42.7303 29.3399 42.7703 29.3099C42.8903 29.2199 43.0303 29.1599 43.1703 29.1299C43.3103 29.0999 43.4603 29.1099 43.6003 29.1099H46.2503C46.2803 28.8299 46.3303 28.5599 46.3303 28.2799C46.3303 26.5399 46.3103 24.7999 46.3003 23.0599V13.0799C46.3003 12.8299 46.1703 12.6999 45.9103 12.6999C45.0803 12.6999 44.2603 12.6999 43.4303 12.6999C42.9003 12.6999 42.7903 12.5899 42.7903 12.0599V10.9599C42.7903 10.5499 43.1103 10.2999 43.5203 10.3999C43.6103 10.4199 43.7103 10.4399 43.8103 10.4399H51.5803C52.1303 10.4399 52.2403 10.5499 52.2403 11.0899V12.1899C52.2403 12.5799 52.1403 12.6999 51.7303 12.7099H48.8403V12.7299L48.8303 12.7399Z" fill="#060419"/>
<path d="M74.6405 18.7399C74.8605 18.3599 75.0505 18.0299 75.2405 17.6999C76.3105 15.9199 77.3905 14.1499 78.4505 12.3699C78.6105 12.0999 78.7105 11.8099 78.8705 11.5399C79.0605 11.2299 79.2605 10.9299 79.4905 10.6599C79.5805 10.5499 79.7805 10.4899 79.9405 10.4799C80.4805 10.4599 81.0205 10.4999 81.5605 10.4799C82.1505 10.4399 82.2505 10.9199 82.0305 11.3199C81.9205 11.5099 81.7905 11.6899 81.6705 11.8799C81.3805 12.3699 81.1005 12.8599 80.7905 13.3399C80.2605 14.1699 79.6905 14.9799 79.2005 15.8399C78.8605 16.4299 78.4605 16.9699 78.1305 17.5599C77.9105 17.9399 77.6705 18.3099 77.4305 18.6899C76.9305 19.4899 76.4305 20.2999 75.9405 21.0999C75.8905 21.1899 75.8505 21.2899 75.8505 21.3899C75.8505 23.6399 75.8705 25.8999 75.8805 28.1499C75.8805 28.7799 75.8605 29.4199 75.8505 30.0499V31.1899C75.6505 31.3799 75.3805 31.4399 75.0705 31.4199C74.7005 31.3999 74.3305 31.4199 73.9605 31.4199C73.5005 31.4199 73.3605 31.2799 73.3605 30.8199V26.9599C73.3605 25.15 73.3705 23.3499 73.3605 21.5399C73.3605 21.3199 73.2205 21.0899 73.1005 20.8899C72.0005 19.0799 70.8905 17.2799 69.7705 15.4699C68.9805 14.1899 68.1705 12.9099 67.3805 11.6199C67.2705 11.4499 67.1805 11.2599 67.1205 11.0599C67.0105 10.7199 67.2005 10.4799 67.5605 10.4699C68.1405 10.4699 68.7305 10.4499 69.3105 10.4699C69.4605 10.4699 69.6505 10.5899 69.7405 10.7199C70.0705 11.1999 70.3605 11.7099 70.6705 12.2099C71.9105 14.2399 73.1405 16.2699 74.3705 18.2999C74.4505 18.4299 74.5205 18.5599 74.6205 18.7199L74.6405 18.7499V18.7399Z" fill="#060419"/>
<path d="M59.4204 29.0399H66.7904C67.3104 29.0399 67.5804 29.4099 67.4804 29.9099C67.4204 30.1899 67.4504 30.49 67.4504 30.7899C67.4504 31.2499 67.2904 31.4099 66.8304 31.4099H58.0904C57.3404 31.4099 56.8804 30.9499 56.8804 30.1899V12.6199C56.8804 12.0799 56.8804 11.5499 56.8704 11.0099C56.8704 10.6099 57.0904 10.3999 57.5004 10.4199C57.9304 10.4399 58.3504 10.4599 58.7804 10.4599C59.2704 10.4599 59.4104 10.5999 59.4104 11.0799V29.0399H59.4204Z" fill="#060419"/>
<path d="M129.3 21.85C129.77 21.09 130.19 20.4 130.6 19.71C130.91 19.19 131.2 18.66 131.51 18.14C131.81 17.63 132.12 17.12 132.41 16.6C132.74 16.01 133.05 15.42 133.39 14.83C133.65 14.39 133.93 13.96 134.2 13.52C134.38 13.22 134.52 12.89 134.73 12.62C134.92 12.37 135.16 12.14 135.41 11.94C136.29 11.24 137.31 11.09 138.37 11.29C138.8 11.37 139.2 11.6 139.61 11.77C139.7 11.81 139.78 11.87 139.9 11.94C140.21 11.39 140.51 10.85 140.83 10.32C141.22 9.67997 141.48 8.93997 142.07 8.43997C142.45 8.11997 142.89 7.82997 143.41 7.79997C143.64 7.77997 143.91 7.79997 144.11 7.91997C145.17 8.49997 146.2 9.11997 147.26 9.69997C147.65 9.90997 147.93 10.25 148.1 10.6C148.41 11.24 148.42 11.94 148.07 12.59C147.77 13.15 147.42 13.69 147.11 14.25C146.98 14.49 146.88 14.74 146.75 14.98C146.66 15.14 146.55 15.29 146.44 15.44C146.31 15.61 146.4 15.71 146.54 15.79C148.08 16.6 148.66 17.91 148.59 19.58C148.59 19.64 148.57 19.7 148.56 19.76C148.54 19.83 148.51 19.89 148.5 19.91C148.11 19.73 147.73 19.54 147.33 19.4C147.11 19.32 147.01 19.21 147.03 19C147.09 18.31 146.73 17.8 146.23 17.42C145.65 16.98 145 16.63 144.37 16.26C143.42 15.7 142.47 15.14 141.51 14.59C140.54 14.04 139.54 13.51 138.57 12.96C137.64 12.43 136.56 12.8 136.01 13.54C135.6 14.09 135.27 14.69 134.92 15.28C134.61 15.8 134.32 16.32 134.02 16.84C133.36 17.97 132.7 19.1 132.05 20.24C131.91 20.49 131.71 20.63 131.45 20.75C130.83 21.05 130.22 21.38 129.61 21.69C129.53 21.73 129.45 21.78 129.3 21.87V21.85ZM147.26 11.74C147.2 11.29 147.12 10.89 146.78 10.68C145.89 10.12 144.98 9.57997 144.06 9.07997C143.45 8.74997 142.85 9.10997 142.59 9.49997C142.03 10.37 141.52 11.26 140.97 12.14C140.82 12.39 140.91 12.5 141.12 12.62C142.49 13.41 143.86 14.21 145.23 15.01C145.36 15.09 145.44 15.09 145.53 14.94C146.01 14.1 146.5 13.27 146.97 12.43C147.1 12.19 147.17 11.92 147.25 11.73L147.26 11.74Z" fill="#060419"/>
</svg>