<?xml version="1.0" encoding="utf-8"?>
<svg xmlns="http://www.w3.org/2000/svg" fill="none" height="74" viewBox="0 0 249 74" width="249">
<path d="M51.0383 65.2316L48.7406 64.1532C49.5325 62.478 50.2932 60.8552 51.0643 59.2324C53.362 54.3902 55.6492 49.5427 57.9729 44.7109C58.3167 43.999 58.15 43.7215 57.4883 43.3708C52.1167 40.5283 46.5628 38.1307 40.6702 36.6545C38.4715 36.1048 36.1739 35.9582 33.9179 35.6494C32.6936 35.4819 31.4588 35.3667 30.2292 35.1992C29.6092 35.1154 29.1872 35.2358 28.8537 35.8535C28.5411 36.4346 28.0409 36.9215 27.5512 37.5392C25.7694 36.1153 24.0448 34.7385 22.3151 33.3617C20.8198 34.9427 22.164 36.3142 22.5756 37.9422C21.6794 38.1569 20.8354 38.3558 20.0018 38.5704C19.8194 38.6175 19.611 38.6699 19.486 38.7903C18.022 40.2403 16.5683 41.6956 15.1304 43.1666C14.9063 43.397 14.7761 43.7111 14.4947 44.1613C14.9688 44.1613 15.2606 44.1194 15.5367 44.1665C16.5736 44.3497 17.6051 44.5591 18.6367 44.7685C18.9337 44.8313 19.2255 44.957 19.5277 44.9779C20.9865 45.0774 22.4505 45.1402 23.9094 45.2396C25.7641 45.3653 26.926 46.6374 28.2129 47.7L28.0774 48.0822C27.6971 47.9879 27.1552 48.0246 26.9625 47.7785C25.5088 45.9516 23.5759 45.8888 21.4762 45.9306C20.0695 45.9621 19.1317 46.0929 18.3189 47.5168C17.0946 49.6579 15.2294 49.9353 13.1036 48.6475C12.5409 48.3073 12.2023 48.302 11.7594 48.8151C11.1551 49.5218 10.4309 50.1238 9.83171 50.8305C9.6233 51.0765 9.5191 51.5319 9.57641 51.8565C9.71708 52.5946 9.98801 53.3118 10.2329 54.1389C9.58683 54.3588 8.98767 54.5786 8.37809 54.7723C7.84666 54.9451 7.6591 55.1597 8.11759 55.6518C9.22212 56.8506 10.4517 57.662 12.1762 57.7719C14.4478 57.9132 16.6986 58.353 18.9702 58.5362C20.1373 58.6304 21.3304 58.5362 22.4974 58.3791C24.3366 58.1279 26.1549 57.7143 27.9941 57.4526C28.5776 57.3688 29.2393 57.4526 29.7967 57.662C31.193 58.175 32.5581 58.7927 33.9231 59.3895C34.3347 59.5675 34.7984 59.7454 35.085 60.0648C36.8043 61.9598 38.4767 63.8967 40.2325 65.8964L38.2631 67.6292C37.2836 66.5037 36.1999 65.5195 35.4341 64.3364C33.8867 61.9389 31.4327 61.0646 28.9788 60.159C28.588 60.0124 28.0878 60.0805 27.6502 60.1485C25.785 60.4417 23.9198 60.7244 22.0754 61.096C20.1946 61.4729 18.3762 61.007 16.5371 60.8291C14.3228 60.6197 12.1189 60.3213 9.91507 60.0595C9.74834 60.0386 9.54515 60.0752 9.4149 59.9967C7.72683 58.9079 5.96582 57.8609 5.25725 55.8141C4.98112 55.0184 4.88733 54.1651 4.68935 53.3432C4.54347 52.736 4.68935 52.2701 5.14263 51.8199C6.75776 50.2075 8.31557 48.5324 9.95154 46.9357C10.8216 46.0877 11.4937 45.1559 11.8428 43.9885C12.2752 42.5489 13.0776 41.3711 14.1925 40.345C15.5211 39.1253 16.782 37.8271 17.9959 36.4922C18.4075 36.042 18.6524 35.4086 18.8608 34.8223C19.2776 33.6549 19.6215 32.4613 20.0018 31.2835C20.033 31.1788 20.1008 31.0793 20.1789 31.0008C20.5645 30.603 22.9038 30.3988 23.2998 30.7967C24.3887 31.896 25.7433 32.163 27.2021 32.3252C31.3962 32.7807 35.6112 33.1681 39.7688 33.8538C42.1655 34.2464 44.4683 35.1887 46.8233 35.8483C50.1577 36.7801 53.2369 38.3244 56.2744 39.9158C60.4164 42.0883 64.7981 43.5854 69.2162 45.0302C69.9665 45.2763 70.7167 45.5171 71.4566 45.7893C72.087 46.0196 72.5924 45.9045 73.0613 45.4124C73.9887 44.4282 74.9473 43.4703 75.8799 42.4913C76.8177 41.502 76.8282 41.2245 75.9633 40.1357C74.6764 38.5076 73.3635 36.8953 72.087 35.2568C71.8213 34.9165 71.5972 34.817 71.17 34.9741C68.8307 35.8169 67.3146 35.2725 66.2048 33.0529C65.7515 32.1473 65.2357 31.8279 64.2562 31.9483C63.4799 32.0426 62.6776 31.9902 61.8961 31.9274C60.5988 31.8227 59.5151 32.1996 58.6398 33.1838C58.4001 33.456 58.1292 33.7387 57.8114 33.8957C57.5092 34.0475 57.1288 34.037 56.785 34.0999L56.6756 33.8591C56.7902 33.6863 56.8736 33.4717 57.0246 33.346C58.3845 32.231 59.7495 31.1736 61.6564 31.1893C62.8651 31.1997 64.0739 31.0636 65.2774 30.9642C65.6317 30.9328 66.0068 30.8647 66.3246 30.7129C67.3771 30.2156 68.4556 30.0324 69.6122 30.1947C69.8519 30.2261 70.1124 30.09 70.3625 30.0324C70.2999 29.7759 70.3104 29.467 70.1645 29.2733C68.7525 27.4045 67.2989 25.567 65.8974 23.693C65.4441 23.0857 65.0325 23.2742 64.5272 23.5621C63.9853 23.8657 64.152 24.2374 64.3552 24.6352C64.6418 25.1849 64.9231 25.7398 65.2409 26.2737C65.5067 26.7239 65.3816 26.9857 64.9388 27.2108C62.9641 28.2106 63.3862 28.441 62.3337 26.4622C61.7919 25.4414 61.2604 24.4101 60.6821 23.4103C60.3799 22.892 60.4998 22.5936 61.0051 22.3424C62.7453 21.4838 64.4646 20.5782 66.2257 19.7511C67.2989 19.2486 68.0909 18.5261 68.5806 17.4425C68.9141 16.6992 69.3361 15.9872 69.6695 15.2439C69.8779 14.778 69.9977 14.2754 70.1541 13.7886L69.9196 13.642C69.6747 13.8357 69.3986 14.0032 69.1954 14.2336C68.1534 15.4271 66.8613 16.2542 65.4337 16.9033C63.3341 17.8613 61.2448 18.8507 59.1295 19.772C58.2282 20.1647 57.6499 20.6986 57.4988 21.7246C57.3789 22.5308 57.1288 23.3213 56.8527 24.0908C56.6235 24.7295 56.7693 25.2268 57.1236 25.7555C57.7957 26.7606 58.4314 27.7919 59.1608 28.9278C58.4939 29.3623 57.8791 29.7916 57.2278 30.1528C57.1184 30.2156 56.7641 30.0324 56.6547 29.8701C55.7846 28.5823 54.8989 27.305 54.1383 25.9544C53.9142 25.5566 53.9611 24.9179 54.0653 24.4311C54.3102 23.3003 54.6436 22.1905 54.9823 21.086C55.1959 20.395 54.9406 20.1385 54.2737 20.1385C52.6951 20.1385 51.1164 20.1018 49.543 20.149C49.0897 20.1647 48.6104 20.3636 48.204 20.5887C42.1707 23.939 36.1426 27.2998 30.1354 30.6972C29.4737 31.0741 29.1455 30.9956 28.8485 30.3255C28.6349 29.8387 28.3536 29.3833 28.0618 28.8336C28.7912 28.4096 29.4581 28.0065 30.1406 27.6243C35.8196 24.4468 41.4934 21.2587 47.1932 18.1231C47.8236 17.7776 48.6208 17.5891 49.345 17.5734C51.8198 17.5106 54.2998 17.5891 56.7798 17.5368C57.4623 17.5211 58.1813 17.3535 58.8065 17.0813C60.9218 16.1495 63.011 15.1654 65.0794 14.1446C65.6734 13.8514 66.2309 13.4379 66.7102 12.9772C69.211 10.543 71.6806 8.07736 74.1606 5.62221C74.2544 5.52799 74.3586 5.44946 74.6243 5.22437C74.2283 7.15079 73.8793 8.88353 73.5198 10.611C73.3062 11.6318 73.0196 12.6422 72.8737 13.6734C72.5194 16.2123 71.071 18.2801 69.9561 20.4788C69.7216 20.9447 69.0808 21.2483 68.565 21.51C67.9919 21.7979 67.9762 22.0597 68.3357 22.5361C69.8415 24.5462 71.3003 26.5878 72.832 28.5771C73.2905 29.1739 73.4364 29.7078 73.0456 30.3412C72.5559 31.1317 72.7383 31.7703 73.2957 32.4718C74.3638 33.8172 75.1453 35.4819 76.4218 36.555C78.0265 37.9004 78.5892 39.7849 79.6833 41.3763C80.0115 41.8579 79.949 42.1877 79.527 42.6117C77.5159 44.6272 75.5517 46.6897 73.5302 48.6946C73.3218 48.8988 72.8112 48.9721 72.509 48.8779C68.862 47.7105 65.2201 46.5274 61.5991 45.2868C60.8488 45.0303 60.5623 45.2239 60.2549 45.8835C57.3372 52.0868 54.3988 58.2797 51.4603 64.4778C51.3509 64.7029 51.2258 64.9227 51.0435 65.263L51.0383 65.2316Z" fill="#060419"/>
<path d="M230.802 43.486C231.062 43.1772 231.245 42.973 231.411 42.7636C233.662 39.9944 238.19 39.1254 241.154 40.9157C243.108 42.0988 243.962 43.9938 244.103 46.161C244.254 48.5534 244.213 50.9562 244.233 53.359C244.249 55.4477 244.218 57.5416 244.249 59.6303C244.259 60.248 244.098 60.4941 243.447 60.4627C242.493 60.4156 241.529 60.4103 240.576 60.4627C239.847 60.5046 239.602 60.2847 239.607 59.5204C239.643 55.9083 239.643 52.2911 239.607 48.6738C239.596 47.7786 239.497 46.8677 239.284 45.9988C239.018 44.8994 238.226 44.2346 237.122 43.9676C234.23 43.2662 231.682 45.2868 231.656 48.344C231.63 52.045 231.63 55.7461 231.667 59.4419C231.672 60.1905 231.505 60.5203 230.692 60.4574C229.796 60.3894 228.89 60.3999 227.994 60.4574C227.264 60.5046 227.019 60.2795 227.03 59.5152C227.066 55.8717 227.056 52.2282 227.03 48.5848C227.024 47.7995 226.962 46.9986 226.785 46.2396C226.488 44.9308 225.613 44.1613 224.284 43.9153C221.523 43.4023 219.126 45.3444 219.105 48.1869C219.074 51.9717 219.079 55.7565 219.105 59.5413C219.11 60.2323 218.933 60.4993 218.214 60.4574C217.261 60.3999 216.297 60.4051 215.343 60.4574C214.645 60.4941 214.427 60.2638 214.432 59.5518C214.458 54.809 214.447 50.061 214.447 45.3182C214.447 43.9362 214.468 42.549 214.447 41.167C214.437 40.633 214.598 40.4027 215.166 40.4184C216.266 40.4498 217.36 40.4393 218.459 40.4184C218.928 40.4132 219.121 40.5859 219.1 41.0675C219.074 41.7009 219.095 42.3396 219.178 43.0306C220.71 40.9785 222.726 39.9839 225.211 39.9891C227.728 39.9891 229.671 41.0152 230.791 43.4808L230.802 43.486Z" fill="#060419"/>
<path d="M189.58 40.633C188.074 40.633 186.698 40.654 185.328 40.6069C185.151 40.6016 184.901 40.2823 184.823 40.0624C183.661 36.6545 179.118 35.3092 176.221 37.4816C174.595 38.7014 174.252 42.3396 176.898 43.1929C178.706 43.7792 180.618 44.0357 182.473 44.4754C183.567 44.7319 184.672 44.978 185.724 45.3706C189.34 46.7212 190.585 49.2705 190.314 52.9507C190.028 56.8035 187.355 59.646 183.317 60.4993C180.571 61.0804 177.831 60.96 175.153 60.0544C171.907 58.955 169.557 56.1701 169.427 51.9665C170.933 51.9665 172.444 51.9456 173.949 51.9979C174.095 51.9979 174.304 52.4481 174.356 52.7099C174.731 54.631 175.663 56.1125 177.628 56.6308C179.962 57.2485 182.306 57.3741 184.25 55.5995C186.391 53.6417 185.781 50.3228 183.062 49.4014C181.316 48.8099 179.446 48.5952 177.633 48.2079C175.721 47.7995 173.835 47.297 172.313 45.9778C169.172 43.2557 169.437 37.6544 172.84 34.8904C175.137 33.0215 177.847 32.5609 180.712 32.7284C183.249 32.8802 185.615 33.4927 187.438 35.4243C188.767 36.8325 189.376 38.5548 189.585 40.6226L189.58 40.633Z" fill="#060419"/>
<path d="M86.0292 46.7211C86.0292 42.5123 86.0448 38.3087 86.0135 34.0999C86.0083 33.3618 86.2115 33.1314 86.9618 33.1367C91.9739 33.1681 96.9808 33.1733 101.993 33.1367C102.743 33.1367 102.998 33.367 102.941 34.0999C102.889 34.7438 102.884 35.4034 102.941 36.0473C103.009 36.822 102.681 36.9948 101.967 36.9895C98.6167 36.9581 95.2666 36.9948 91.9166 36.9634C91.1507 36.9581 90.8693 37.1885 90.8902 37.9789C90.9371 39.9263 90.9214 41.8737 90.8954 43.821C90.885 44.4859 91.1455 44.711 91.7915 44.7057C94.407 44.6796 97.0276 44.7162 99.6431 44.6796C100.352 44.6691 100.597 44.8994 100.544 45.5957C100.492 46.2395 100.498 46.8939 100.544 47.543C100.591 48.1921 100.326 48.3597 99.7108 48.3544C97.0954 48.3283 94.4747 48.3649 91.8592 48.3283C91.109 48.3178 90.8745 48.5795 90.8902 49.3072C90.9214 51.3959 90.9318 53.4846 90.8902 55.5733C90.8745 56.3847 91.2028 56.5732 91.9478 56.5679C95.4386 56.5417 98.9293 56.5575 102.42 56.5575C103.202 56.5575 103.592 56.9623 103.592 57.7719C103.592 58.3373 103.551 58.9027 103.603 59.4628C103.665 60.1747 103.384 60.3737 102.691 60.3737C98.1009 60.3475 93.516 60.3632 88.926 60.3632C88.2799 60.3632 87.6287 60.3213 86.9826 60.3737C86.248 60.4313 86.0135 60.1852 86.0239 59.4262C86.0604 55.1912 86.0396 50.9562 86.0396 46.7211H86.0292Z" fill="#060419"/>
<path d="M142.918 51.3226C142.496 51.3226 142.22 51.3226 141.944 51.3226C137.859 51.3226 133.78 51.3226 129.695 51.3226C128.455 51.3226 128.398 51.4011 128.58 52.6365C129.164 56.5575 132.941 58.6566 136.583 57.0652C137.521 56.6569 138.219 55.9973 138.594 55.0027C138.682 54.7671 138.974 54.453 139.188 54.4426C140.334 54.385 141.485 54.4164 142.705 54.4164C142.684 54.6886 142.705 54.8823 142.652 55.055C141.97 57.5625 140.548 59.3948 137.979 60.1538C135.463 60.8972 132.92 60.9966 130.409 60.1957C127.251 59.1854 125.183 57.0548 124.344 53.8144C123.516 50.6264 123.729 47.5168 125.402 44.6377C127.043 41.8161 129.617 40.4079 132.821 40.1357C134.702 39.9734 136.546 40.2037 138.26 41.0361C141.178 42.4443 142.267 45.0774 142.741 48.056C142.908 49.0978 142.861 50.1762 142.918 51.3226ZM133.634 48.4329C135.072 48.4329 136.505 48.4539 137.943 48.412C138.187 48.4068 138.615 48.145 138.641 47.9566C138.818 46.5275 137.63 44.4963 136.296 43.8158C133.04 42.1563 129.237 44.1351 128.648 47.7838C128.544 48.4225 128.903 48.4329 129.325 48.4329C130.763 48.4329 132.196 48.4329 133.634 48.4329Z" fill="#060419"/>
<path d="M206.132 57.7563C205.08 59.311 203.663 60.337 201.839 60.6459C199.244 61.0804 196.759 60.8972 194.831 58.7666C193.68 57.4945 193.201 55.9083 193.169 54.2489C193.091 49.8464 193.117 45.4386 193.091 41.0309C193.091 40.5126 193.352 40.4236 193.779 40.4289C194.821 40.4446 195.863 40.4655 196.905 40.4236C197.546 40.3975 197.718 40.6278 197.713 41.2507C197.687 44.8366 197.697 48.4225 197.702 52.0136C197.702 52.5214 197.718 53.0344 197.78 53.537C198.161 56.4737 200.266 57.8034 203.116 56.9291C205.2 56.2905 206.32 54.72 206.33 52.3015C206.351 48.6842 206.356 45.0722 206.315 41.4549C206.304 40.6278 206.549 40.366 207.362 40.4236C208.258 40.4917 209.164 40.476 210.061 40.4236C210.759 40.3818 210.967 40.6173 210.967 41.3293C210.936 46.8625 210.946 52.401 210.946 57.9395C210.946 58.531 210.931 59.1278 210.962 59.7193C210.988 60.2533 210.811 60.4889 210.238 60.4679C209.196 60.4313 208.154 60.4313 207.112 60.4679C206.533 60.4889 206.283 60.3109 206.325 59.7036C206.367 59.0911 206.335 58.4787 206.335 57.8662L206.132 57.7667V57.7563Z" fill="#060419"/>
<path d="M163.701 47.3755C162.346 47.3755 161.086 47.3912 159.83 47.3545C159.668 47.3545 159.418 47.0666 159.372 46.8729C158.871 44.8052 157.293 43.7006 155.084 43.6011C152.89 43.5017 150.905 44.6586 150.051 46.6478C148.972 49.1501 148.977 51.7099 149.973 54.2279C150.817 56.3742 152.786 57.4892 155.261 57.3688C157.475 57.2641 159.002 56.0078 159.721 53.7515C159.799 53.5107 160.064 53.1705 160.257 53.1652C161.403 53.1076 162.555 53.1391 163.816 53.1391C163.784 53.5003 163.79 53.7725 163.738 54.029C162.972 57.6306 160.726 59.7769 157.173 60.4679C153.5 61.1798 150.087 60.6197 147.336 57.8243C145.304 55.7617 144.663 53.1495 144.721 50.3593C144.815 46.0615 146.503 42.6275 150.629 40.9261C154.01 39.5337 157.433 39.7116 160.585 41.7114C162.565 42.9677 163.477 44.9256 163.691 47.3859L163.701 47.3755Z" fill="#060419"/>
<path d="M124.193 60.3475C122.437 60.3475 120.874 60.3736 119.306 60.3213C119.077 60.316 118.801 59.9915 118.644 59.7559C117.357 57.7981 116.097 55.8298 114.82 53.8615C114.69 53.6573 114.539 53.4636 114.304 53.1338C113.705 54.0185 113.163 54.7933 112.642 55.5837C111.741 56.95 110.829 58.3111 109.959 59.6931C109.657 60.1747 109.297 60.3893 108.719 60.3684C107.516 60.3317 106.312 60.3579 104.926 60.3579C105.458 59.5465 105.885 58.8712 106.333 58.2116C107.99 55.7565 109.641 53.3013 111.335 50.8671C111.684 50.3698 111.684 50.0086 111.345 49.5113C109.532 46.8206 107.745 44.1141 105.953 41.413C105.801 41.1826 105.656 40.9471 105.416 40.5649C107.13 40.5649 108.719 40.5387 110.303 40.5911C110.522 40.5963 110.777 40.9523 110.933 41.1983C111.996 42.8264 113.038 44.4701 114.096 46.1086C114.257 46.3599 114.445 46.5955 114.716 46.9671C115.539 45.6951 116.279 44.5434 117.029 43.4022C117.628 42.4861 118.056 41.2454 118.905 40.7534C119.718 40.2822 120.984 40.5911 122.046 40.5649C122.463 40.5544 122.88 40.5649 123.458 40.5649C122.88 41.4182 122.37 42.1773 121.854 42.9311C120.437 45.0041 119.035 47.0875 117.581 49.1344C117.206 49.6683 117.232 50.0348 117.587 50.553C119.764 53.7411 121.906 56.95 124.193 60.3422V60.3475Z" fill="#060419"/>
</svg>