<?xml version="1.0" encoding="utf-8"?>
<svg xmlns="http://www.w3.org/2000/svg" fill="none" height="62" viewBox="0 0 227 62" width="227">
<path d="M131.936 17.7773C131.94 17.0186 131.94 17.0149 132.686 16.9099C132.871 16.8838 133.06 16.8669 133.247 16.8652C134.802 16.8517 136.357 16.8423 137.912 16.8335C138.012 16.8329 138.112 16.8481 138.24 16.858C139.422 22.054 140.595 27.2359 141.006 32.5632C141.047 32.5614 141.088 32.5596 141.129 32.5578C141.214 31.8484 141.297 31.1387 141.385 30.4295C141.705 27.8371 142.075 25.2537 142.64 22.7022C142.982 21.156 143.303 19.6052 143.631 18.0556C143.807 17.2193 144.022 16.976 144.861 16.9341C146.394 16.8575 147.929 16.834 149.507 16.787C149.492 16.9445 149.496 17.0269 149.474 17.1017C149.197 18.0723 148.917 19.042 148.635 20.0114C148.582 20.195 148.53 20.3687 148.317 20.4472C146.988 20.9359 146.379 22.0356 146.024 23.3277C145.585 24.9209 145.201 26.5299 144.739 28.1159C143.917 30.9419 143.267 33.811 142.602 36.6771C142.158 38.5934 141.714 40.5099 141.274 42.4274C141.084 43.2573 140.844 44.0817 140.734 44.9232C140.47 46.9366 141.34 48.7874 143.45 49.5067C143.497 49.5226 143.539 49.5512 143.613 49.589C143.613 50.1014 143.635 50.6235 143.606 51.1426C143.582 51.5631 143.407 51.7299 143.005 51.8043C142.754 51.8508 142.498 51.8956 142.243 51.8999C140.962 51.9216 139.68 51.9302 138.398 51.9411C138.332 51.9416 138.266 51.9202 138.126 51.8967C138.126 47.821 138.126 43.7448 138.122 39.5777C138.106 39.3709 138.093 39.2552 138.081 39.1395C138.144 38.2473 138.072 37.3862 137.799 36.5154C136.038 30.9025 134.311 25.2782 132.573 19.6576C132.548 19.5762 132.523 19.4947 132.475 19.3384C132.305 19.9082 132.183 20.4166 131.999 20.9008C131.808 21.4055 131.511 21.8547 131.123 22.2589C130.239 21.8043 129.307 21.5267 128.34 21.3929C127.304 21.2496 126.263 21.2232 125.23 21.4426C125.03 21.4851 124.831 21.5393 124.639 21.6099C123.408 22.0616 122.944 22.7741 122.978 24.1064C123 24.9804 123.237 25.7859 123.638 26.5533C124.203 27.6374 124.933 28.6027 125.67 29.5653C127.102 31.434 128.54 33.2982 129.945 35.1873C131.075 36.706 131.904 38.3762 132.193 40.2879C132.565 42.7434 132.455 45.1679 131.599 47.5068C130.699 49.9677 128.993 51.5596 126.452 52.1396C124.474 52.5913 122.483 52.5612 120.498 52.1773C120.066 52.0937 119.637 51.9449 119.232 51.7664C118.83 51.5891 118.459 51.3367 118.038 51.0959C118.025 51.6971 117.645 51.8935 117.145 51.9521C116.959 51.974 116.773 52.0186 116.587 52.0182C115.356 52.0153 114.126 52.0055 112.895 51.9909C112.727 51.9889 112.56 51.9483 112.343 51.9188C111.805 49.2774 111.268 46.64 110.729 43.9913C108.534 43.9913 106.387 43.9913 104.197 43.9913C104.113 44.3739 104.025 44.7423 103.95 45.1133C103.563 47.0254 103.178 48.9381 102.794 50.8507C102.648 51.578 102.402 51.8409 101.695 51.9637C101.394 52.0161 101.083 52.0435 100.778 52.0352C99.5995 52.0033 98.4218 51.9544 97.2441 51.9059C97.1118 51.9004 96.9811 51.8568 96.812 51.8234C96.8467 51.6311 96.8682 51.464 96.9074 51.3013C98.1714 46.0557 99.437 40.8105 100.703 35.5653C101.94 30.4381 103.177 25.311 104.414 20.1837C104.593 19.4393 104.799 18.6996 104.938 17.9473C105.058 17.3011 105.458 16.9894 106.025 16.8436C106.304 16.7718 106.598 16.7252 106.885 16.7308C107.67 16.7459 108.455 16.7844 109.239 16.8338C109.786 16.8682 109.785 16.883 109.912 17.4146C110.555 20.1066 111.195 22.7994 111.841 25.4905C112.939 30.0605 114.042 34.6293 115.141 39.199C115.788 41.8901 116.432 44.5821 117.079 47.2733C117.094 47.3353 117.129 47.3923 117.191 47.5374C117.458 46.6335 117.691 45.8048 118.241 45.0861C118.41 45.2043 118.56 45.3131 118.714 45.4159C120.324 46.4935 122.076 46.9223 123.985 46.583C124.903 46.4197 125.576 45.9114 125.983 45.0372C126.433 44.0687 126.458 43.0511 126.352 42.0169C126.238 40.916 125.838 39.9149 125.221 39.0196C124.257 37.6221 123.258 36.2495 122.265 34.8731C121.374 33.6368 120.462 32.4154 119.574 31.1767C118.579 29.7902 117.712 28.3336 117.27 26.5693C117.192 26.1371 117.127 25.7819 117.073 25.4249C117.029 25.1382 116.999 24.8495 116.962 24.5618C117.01 23.8365 117 23.1011 117.119 22.3881C117.458 20.3483 118.516 18.7716 120.227 17.6067C120.241 17.5713 120.25 17.5803 120.25 17.5803C121.838 16.643 123.589 16.396 125.459 16.3179C125.584 16.3086 125.63 16.3013 125.677 16.2939C126.477 16.3331 127.282 16.3338 128.077 16.423C128.802 16.5042 129.523 16.6563 130.235 16.8238C130.86 16.9708 131.402 17.3056 131.905 17.7955C131.965 17.8242 131.988 17.8194 132.011 17.8145C131.986 17.8021 131.961 17.7897 131.936 17.7773ZM108.122 30.3874C108.101 30.3013 108.08 30.2153 108.065 30.0431C108.043 29.9017 108.022 29.7604 108.007 29.5325C107.911 28.7911 107.814 28.0497 107.728 27.2163C107.655 26.5231 107.583 25.8298 107.51 25.1366C107.171 27.4433 106.923 29.7487 106.55 32.0328C106.178 34.3122 105.68 36.5702 105.238 38.8361C105.862 38.977 109.246 38.9578 109.67 38.8142C109.654 38.701 109.643 38.5819 109.62 38.4652C109.309 36.9119 108.995 35.3593 108.685 33.8058C108.567 33.2107 108.458 32.6137 108.35 31.9486C108.34 31.9039 108.329 31.8592 108.332 31.7347C108.295 31.5517 108.257 31.3688 108.227 31.1147C108.215 31.0691 108.203 31.0234 108.204 30.9029C108.173 30.7535 108.142 30.604 108.122 30.3874Z" fill="#060419"/>
<path d="M184.868 32.3391C185.703 32.3337 186.489 32.305 187.273 32.3356C187.946 32.3618 188.577 32.5871 189.18 32.8957C189.838 33.2323 190.295 33.7731 190.592 34.4317C190.92 35.158 190.792 35.8506 190.294 36.484C189.622 37.3392 188.744 37.7815 187.693 37.8811C186.877 37.9586 186.058 38.0187 185.24 38.0658C183.653 38.1571 182.065 38.2334 180.477 38.3176C180.377 38.3229 180.278 38.3429 180.152 38.3596C179.949 39.2843 179.737 40.1993 179.549 41.1194C179.301 42.3316 179.062 43.5458 178.842 44.7633C178.783 45.0846 178.789 45.4217 178.797 45.7508C178.808 46.1862 178.655 46.5234 178.326 46.7995C177.619 47.3924 176.827 47.7666 175.905 47.8147C175.427 47.8397 174.948 47.8371 174.47 47.8552C173.872 47.8778 173.323 47.6677 172.798 47.4289C171.885 47.0132 171.465 46.215 171.352 45.2366C171.275 44.5738 171.339 43.924 171.509 43.2696C171.98 41.4491 172.414 39.6187 172.857 37.7907C173.935 33.3387 175.025 28.8897 176.074 24.4307C176.318 23.3936 176.687 22.4027 176.969 21.3815C177.31 20.1437 178.131 19.5454 179.357 19.4579C180.38 19.385 181.402 19.2907 182.425 19.2278C185.684 19.0276 188.943 18.833 192.202 18.6467C193.246 18.587 194.29 18.6233 195.317 18.843C196.094 19.0092 196.851 19.2494 197.369 19.9214C197.608 20.2301 197.792 20.5821 198.011 20.9297C198.042 20.86 198.092 20.7603 198.132 20.6563C198.236 20.3802 198.322 20.0957 198.441 19.826C198.819 18.9652 199.46 18.4148 200.384 18.3132C201.571 18.1826 202.765 18.1032 203.957 18.0264C205.083 17.9539 206.21 17.9129 207.337 17.859C207.935 17.8304 208.532 17.7815 209.13 17.7801C211.66 17.7742 214.19 17.775 216.719 17.7933C217.16 17.7965 217.603 17.8787 218.04 17.9533C219.012 18.1192 219.524 18.7937 219.717 19.7077C219.91 20.6228 219.59 21.4064 218.858 21.9673C218.149 22.5109 217.335 22.8228 216.447 22.9068C214.201 23.1191 211.954 23.331 209.707 23.5338C208.413 23.6505 207.117 23.7487 205.823 23.8568C205.705 23.8666 205.589 23.8875 205.436 23.9081C205.015 25.3462 204.597 26.7771 204.157 28.2809C204.359 28.291 204.52 28.3134 204.679 28.3049C207.274 28.1657 209.868 28.0203 212.463 27.8817C213.199 27.8425 213.934 27.8445 214.653 28.0444C215.752 28.3501 216.264 29.0694 216.203 30.235C216.183 30.6178 216.163 31.0037 216.099 31.3804C215.912 32.4804 215.266 33.1685 214.198 33.3767C213.361 33.54 212.508 33.6219 211.661 33.7362C210.086 33.9489 208.514 34.1958 206.933 34.359C205.456 34.5115 203.969 34.5737 202.487 34.677C202.437 34.6805 202.388 34.6996 202.285 34.7242C201.824 36.4422 201.386 38.1877 201.012 40.0151C201.495 39.9616 201.915 39.9195 202.334 39.8678C204.116 39.6477 205.896 39.4246 207.678 39.2032C207.779 39.1905 207.882 39.1834 207.984 39.1716C209.035 39.0505 210.091 38.9585 211.137 38.7989C212.145 38.6452 213.147 38.5742 214.139 38.834C214.562 38.9446 214.997 39.1016 215.357 39.3455C216.244 39.9477 216.481 41.0014 216.01 41.9778C215.659 42.7044 215.106 43.205 214.34 43.4193C213.764 43.5801 213.177 43.7024 212.592 43.8204C209.072 44.5289 205.552 45.2328 202.031 45.9347C201.026 46.1351 200.023 46.3505 199.011 46.5098C198.063 46.6591 197.103 46.6695 196.147 46.5674C194.556 46.3977 193.296 45.1054 193.101 43.4437C193.031 42.8502 193.059 42.2601 193.198 41.6762C193.602 39.9833 194.01 38.2918 194.4 36.5957C195.416 32.182 196.423 27.7663 197.432 23.3511C197.469 23.19 197.496 23.0267 197.5 22.8414C196.63 23.7864 195.48 24.0217 194.326 24.1463C192.832 24.3075 191.327 24.3808 189.826 24.4553C187.998 24.5459 186.177 24.676 184.37 24.9924C183.944 25.0669 183.713 25.2382 183.604 25.6743C183.185 27.3463 182.741 29.0115 182.304 30.6789C182.151 31.2656 181.994 31.8514 181.824 32.4965C182.85 32.4433 183.834 32.3924 184.868 32.3391Z" fill="#060419"/>
<path d="M69.5132 32.4406C69.9183 38.5741 69.7054 44.7161 69.7536 50.8545C69.7589 51.5354 69.5889 51.735 68.9434 51.8227C68.5382 51.8777 68.1275 51.9109 67.7189 51.9154C66.593 51.9277 65.4669 51.9196 64.2781 51.9196C64.2696 51.7219 64.2551 51.5384 64.255 51.355C64.2533 48.7551 64.2534 46.1553 64.2533 43.5555C64.253 35.1279 64.2524 26.7003 64.2542 18.2726C64.2542 18.0296 64.2578 17.7825 64.2993 17.5445C64.3754 17.1093 64.5922 16.9125 65.0144 16.8471C65.0817 16.8367 65.1507 16.834 65.2189 16.8338C66.6204 16.8297 68.0219 16.8262 69.4234 16.8243C69.473 16.8243 69.5227 16.8424 69.6265 16.8625C69.8012 17.3219 69.9827 17.8065 70.1695 18.289C71.6699 22.1643 73.183 26.0345 74.6684 29.9158C75.6896 32.584 76.405 35.3482 77.0542 38.1308C77.1597 38.5831 77.275 39.033 77.4539 39.4701C77.4203 39.0205 77.3823 38.5712 77.3539 38.1213C77.2322 36.1901 77.095 34.2597 77.0005 32.3272C76.9477 31.2476 76.9575 30.1642 76.956 29.0826C76.9511 25.4533 76.9538 21.824 76.9534 18.1947C76.9534 17.1269 77.0252 16.9926 78.0531 16.9342C79.4509 16.8548 80.8531 16.8572 82.2535 16.8272C82.301 16.8262 82.3491 16.8532 82.4572 16.8848C82.4572 17.0428 82.4572 17.2122 82.4572 17.3816C82.455 28.3915 82.453 39.4015 82.4495 50.4115C82.4494 50.6552 82.4511 50.9016 82.4187 51.1421C82.3451 51.6892 82.1105 51.9037 81.5782 51.9398C81.442 51.9491 81.3048 51.9449 81.1681 51.9449C80.0229 51.9453 78.8776 51.9452 77.7324 51.9452C77.563 51.9452 77.3937 51.9452 77.2079 51.9452C77.1262 51.7667 77.0472 51.615 76.9856 51.4563C75.3436 47.2248 73.691 42.9975 72.0678 38.7585C71.1334 36.3182 70.4707 33.7912 69.8749 31.2453C69.721 30.5875 69.5336 29.938 69.3695 29.2826C69.3448 29.1843 69.3636 29.0747 69.3614 28.8855C69.3139 28.5333 69.3016 28.2538 69.0567 28.0469C69.1085 28.3217 69.1603 28.5965 69.212 28.8712C69.2926 29.8222 69.3731 30.7733 69.4593 31.8134C69.481 32.0819 69.4971 32.2613 69.5132 32.4406Z" fill="#060419"/>
<path d="M48.7339 27.5124C49.5032 24.3058 50.2741 21.1443 51.0171 17.976C51.1805 17.2795 51.5889 16.9406 52.2423 16.8295C53.4521 16.6237 54.6521 16.7258 55.8757 16.9083C56.0214 17.5075 56.1622 18.08 56.2999 18.6533C57.1856 22.3425 58.0703 26.0319 58.9562 29.721C59.8583 33.4778 60.7609 37.2345 61.6645 40.991C62.4338 44.1891 63.2047 47.3867 63.975 50.5846C64.0076 50.7199 64.0453 50.8541 64.0724 50.9905C64.1622 51.4419 64.0054 51.7331 63.5732 51.8771C63.3798 51.9416 63.1729 51.9997 62.9722 51.9994C61.5718 51.9977 60.1713 51.981 58.7709 51.9653C58.6709 51.9641 58.5711 51.9331 58.4328 51.9095C57.8993 49.2853 57.3659 46.6612 56.8259 44.0048C54.6468 44.0048 52.486 44.0048 50.2829 44.0048C50.1504 44.6288 50.0119 45.2545 49.8853 45.8828C49.5583 47.5046 49.2369 49.1275 48.9121 50.7497C48.8848 50.8863 48.8587 51.0245 48.8155 51.1562C48.6814 51.5649 48.4313 51.8538 47.995 51.9269C47.7597 51.9664 47.5215 52.0238 47.2858 52.0188C45.9543 51.9901 44.6231 51.9474 43.292 51.9017C43.1645 51.8973 43.0388 51.8388 42.8833 51.7978C43.2142 50.423 43.5355 49.0891 43.8564 47.755C45.0448 42.8145 46.2322 37.8737 47.4218 32.9335C47.8537 31.14 48.2908 29.3478 48.7339 27.5124ZM54.3602 31.32C54.3276 31.1703 54.295 31.0206 54.2722 30.7976C54.2465 30.6801 54.2208 30.5626 54.2023 30.3622C54.1849 30.2533 54.1675 30.1444 54.1573 29.9643C54.1319 29.848 54.1065 29.7317 54.0907 29.5284C54.0686 29.3859 54.0466 29.2434 54.0337 29.0163C53.9777 28.6217 53.9216 28.2271 53.8769 27.7498C53.8601 27.6408 53.8433 27.5318 53.839 27.3552C53.8194 27.2681 53.7999 27.1811 53.7883 26.9994C53.7344 26.4113 53.6805 25.8232 53.6266 25.2351C53.5888 25.2331 53.551 25.2311 53.5133 25.2291C53.0881 29.8199 52.3103 34.3508 51.2931 38.8385C51.9977 38.9842 55.3717 38.957 55.7665 38.8117C55.7387 38.6442 55.7151 38.4731 55.6813 38.3042C55.3681 36.7354 55.0498 35.1677 54.74 33.5982C54.609 32.9345 54.4947 32.2674 54.3809 31.532C54.3701 31.4867 54.3594 31.4415 54.3602 31.32Z" fill="#060419"/>
<path d="M151.177 34.9118C150.318 37.4692 149.474 39.9883 148.601 42.5935C149.59 42.4724 150.507 42.3994 151.41 42.2406C152.824 41.9918 154.235 41.7445 155.668 41.616C156.532 41.5385 157.383 41.3185 158.245 41.2008C159.022 41.0948 159.77 41.1856 160.473 41.6048C160.803 41.802 161.02 42.0603 161.038 42.4172C161.075 43.1634 161.13 43.9227 161.038 44.6584C160.913 45.6605 159.954 46.5298 158.991 46.5639C155.746 46.6792 152.583 47.3319 149.434 48.0703C148.453 48.3002 147.484 48.5822 146.504 48.8182C145.718 49.0075 144.917 49.0925 144.112 48.9943C142.928 48.85 142.086 48.1909 141.6 47.0979C141.212 46.226 141.214 45.3055 141.431 44.3795C142.017 41.8712 142.617 39.3659 143.178 36.8514C144.011 33.1096 144.969 29.4025 146.051 25.7278C146.262 25.0118 146.412 24.2774 146.595 23.5528C146.957 22.125 147.735 21.1341 149.224 20.8046C150.897 20.4344 152.52 20.5926 154.114 21.1648C155.411 21.6302 155.743 22.5461 155.313 23.9325C155.162 24.4181 154.82 24.8417 154.567 25.2946C154.458 25.4901 154.323 25.6774 154.251 25.8868C153.226 28.8805 152.211 31.8774 151.177 34.9118Z" fill="#060419"/>
<path d="M35.2784 16.8563C36.098 16.8447 36.9177 16.8241 37.7373 16.823C40.7448 16.8189 43.7523 16.8213 46.7598 16.8213C46.9469 16.8213 47.1341 16.8213 47.3327 16.8213C47.3619 16.9051 47.4039 16.9681 47.4025 17.03C47.3749 18.2323 47.3434 19.4346 47.3085 20.6368C47.305 20.7577 47.2837 20.8804 47.2532 20.9976C47.1534 21.3814 46.9954 21.522 46.6128 21.5602C46.4432 21.577 46.2714 21.5721 46.1005 21.5722C44.3232 21.5729 42.5458 21.5727 40.7684 21.5727C40.5839 21.5727 40.3993 21.5727 40.1432 21.5727C40.112 24.5221 40.1294 27.4207 40.1253 30.382C42.1275 30.382 44.0672 30.382 46.0236 30.382C46.0462 30.5216 46.0727 30.6036 46.0707 30.685C46.0408 31.905 46.0087 33.125 45.9723 34.3448C45.9681 34.483 45.9463 34.6232 45.9127 34.7573C45.7757 35.3035 45.5599 35.4816 45.0103 35.4833C43.5918 35.4878 42.1734 35.4848 40.7549 35.4849C40.5704 35.4849 40.3859 35.4849 40.1315 35.4849C40.1315 35.733 40.1316 35.9358 40.1315 36.1387C40.1293 40.9362 40.1277 45.7337 40.1231 50.5312C40.1229 50.7567 40.1252 50.9889 40.0767 51.2064C39.9612 51.7249 39.694 51.9367 39.1691 51.9424C38.2122 51.9526 37.2552 51.9514 36.2062 51.953C35.6281 51.9411 35.1419 51.9309 34.6013 51.9197C34.6013 50.4545 34.6013 49.0494 34.6227 47.6055C34.6484 45.9667 34.6611 44.3667 34.6553 42.7667C34.6417 39.027 34.6193 35.2874 34.6037 31.5037C34.6015 30.5947 34.5962 29.7299 34.6013 28.8241C34.6271 28.6809 34.6563 28.5785 34.6558 28.4763C34.6384 25.1595 34.6181 21.8428 34.6035 18.4814C34.5651 17.792 34.7509 17.2487 35.2784 16.8563Z" fill="#060419"/>
<path d="M96.3373 22.0788C95.6904 22.0788 95.0948 22.0788 94.4493 22.0788C94.4387 22.3439 94.4222 22.565 94.4221 22.7862C94.4178 32.0178 94.415 41.2494 94.4118 50.4809C94.4117 50.6903 94.4187 50.9004 94.4051 51.1089C94.3777 51.5297 94.2322 51.7121 93.8323 51.7921C93.5481 51.849 93.2573 51.8949 92.9686 51.9004C91.738 51.9238 90.5071 51.931 89.2763 51.9416C89.1935 51.9424 89.1104 51.9226 88.9598 51.9039C88.9521 41.9785 88.9661 32.0605 88.9511 22.0869C86.9239 22.0869 84.9663 22.0869 82.981 22.0869C82.9606 21.9 82.9337 21.7654 82.9332 21.6307C82.9291 20.3917 82.9283 19.1526 82.9301 17.9136C82.9303 17.7749 82.9387 17.6332 82.9674 17.4983C83.0561 17.0818 83.2978 16.8688 83.7137 16.8376C83.8838 16.8249 84.0554 16.8328 84.2264 16.8328C88.2607 16.8326 92.2951 16.8335 96.3295 16.8321C97.5773 16.8316 98.8252 16.8251 100.073 16.8215C100.24 16.821 100.406 16.8214 100.604 16.8214C100.616 17.0248 100.634 17.1768 100.634 17.3288C100.635 18.5154 100.633 19.7021 100.631 20.8888C100.631 20.9586 100.633 21.0284 100.63 21.0982C100.606 21.8447 100.392 22.0705 99.6708 22.0756C98.5768 22.0833 97.4826 22.0783 96.3373 22.0788Z" fill="#060419"/>
<path d="M16.5176 17.8868C17.7956 17.6647 19.0725 17.4356 20.3518 17.222C22.0192 16.9437 23.6886 16.6776 25.4381 16.4145C25.6512 16.4913 25.8036 16.536 25.9118 16.6325C26.4541 17.1164 26.6692 17.7711 26.78 18.4691C26.8397 18.8449 26.8726 19.2252 26.9168 19.6036C27.0091 20.394 27.1146 21.1832 27.1886 21.9754C27.2466 22.5969 27.2657 23.2223 27.3014 23.846C27.3679 25.0063 27.4702 26.1661 27.4893 27.3272C27.5067 28.3862 27.4387 29.4469 27.3986 30.5065C27.3717 31.2178 27.3661 31.9331 27.2832 32.6383C27.1356 33.8938 26.9625 35.1518 26.5646 36.3544C26.2655 37.2587 25.9413 38.1694 25.0913 38.7439C25.1426 38.9662 25.2105 39.1812 25.2399 39.4016C25.4012 40.6106 25.7976 41.7315 26.4942 42.7219C26.9123 43.3163 27.4442 43.7805 28.2321 43.7462C28.4937 43.7348 28.6462 43.8917 28.777 44.0769C29.1546 44.6118 29.1291 45.4887 28.6897 46.0388C27.4271 46.2571 26.2062 46.4675 24.9835 46.6656C24.2307 46.7876 23.475 46.8907 22.6983 46.971C22.1408 46.4539 22.1044 45.8187 22.1827 45.1602C22.2131 44.9041 22.3743 44.7537 22.6235 44.6406C22.911 44.5103 23.2256 44.3361 23.4046 44.0879C23.6614 43.7319 23.8675 43.3096 23.9872 42.884C24.3329 41.6543 24.2698 40.4076 24.0241 39.1633C23.9897 38.9889 23.9081 38.9085 23.7616 38.8205C23.4122 38.6107 23.0561 38.3952 22.755 38.1221C21.9794 37.4185 21.4486 36.5202 20.9438 35.6081C20.0004 33.9035 19.3016 32.0889 18.6753 30.2458C17.618 27.1343 16.8545 23.9421 16.2226 20.7156C16.0317 19.7412 15.9878 18.7829 16.5176 17.8868Z" fill="#060419"/>
<path d="M163.942 32.538C164.555 29.7756 165.164 27.0573 165.76 24.3362C165.898 23.7079 165.971 23.0648 166.11 22.4368C166.48 20.7628 167.479 19.7059 169.129 19.3218C170.848 18.9218 172.304 19.5239 173.247 20.7551C173.766 21.4324 173.914 22.1948 173.737 23.0239C173.676 23.312 173.609 23.6096 173.481 23.8703C173.002 24.8457 172.767 25.8974 172.5 26.9415C171.244 31.8475 169.98 36.7514 168.725 41.6578C168.385 42.9896 168.055 44.3244 167.746 45.664C167.568 46.4333 167.181 47.0795 166.718 47.6892C166.508 47.9652 166.206 48.0966 165.873 48.1277C164.611 48.2455 163.426 48.068 162.392 47.2297C161.739 46.7011 161.461 45.9975 161.375 45.194C161.29 44.4059 161.392 43.6323 161.582 42.863C161.942 41.4108 162.286 39.9544 162.618 38.4954C163.066 36.5262 163.497 34.5528 163.942 32.538Z" fill="#060419"/>
<path d="M28.7307 46.0257C29.1291 45.4887 29.1546 44.6118 28.777 44.0769C28.6462 43.8917 28.4936 43.7348 28.2321 43.7462C27.4442 43.7805 26.9122 43.3163 26.4942 42.7219C25.7976 41.7315 25.4012 40.6106 25.2398 39.4016C25.2104 39.1812 25.1425 38.9662 25.0913 38.7439C25.9413 38.1694 26.2654 37.2587 26.5646 36.3544C26.9625 35.1518 27.1356 33.8938 27.2832 32.6383C27.3661 31.9331 27.3717 31.2178 27.3986 30.5065C27.4387 29.4469 27.5067 28.3862 27.4893 27.3272C27.4702 26.1661 27.3679 25.0063 27.3014 23.846C27.2657 23.2223 27.2466 22.5969 27.1886 21.9754C27.1146 21.1832 27.0091 20.394 26.9168 19.6036C26.8726 19.2252 26.8397 18.8449 26.78 18.4691C26.6692 17.7711 26.4541 17.1164 25.9117 16.6325C25.8036 16.536 25.6512 16.4913 25.4815 16.4184C26.1782 16.2819 26.9119 16.146 27.6471 16.0186C28.1666 15.9286 28.6879 15.8497 29.2086 15.767C30.6731 15.5345 31.5647 16.0592 32.0989 17.5299C32.1537 18.047 32.1826 18.4892 32.2234 18.9303C32.2452 19.1667 32.2873 19.4011 32.3147 19.6873C32.3128 19.9124 32.3149 20.0865 32.3201 20.2606C32.4023 23.018 32.3274 25.7655 31.8072 28.4832C31.5419 29.8689 31.217 31.2385 30.6507 32.5717C30.4092 33.3837 30.0412 34.0985 29.6519 34.8045C29.5372 35.0127 29.4491 35.2361 29.3223 35.4767C29.196 35.6182 29.0881 35.7294 28.9979 35.854C28.1644 37.0054 27.1828 37.9775 25.8788 38.5651C25.821 38.5912 25.7761 38.6471 25.737 38.6793C25.8678 41.804 28.3927 43.6081 30.8383 43.3331C31.0074 43.3141 31.179 43.2985 31.3485 43.3056C32.0249 43.3339 32.4803 43.869 32.4369 44.5527C32.4142 44.9109 32.209 45.16 32.0049 45.4144C32.0101 45.4159 32.005 45.4063 31.9807 45.4099C31.9565 45.4136 31.9181 45.4448 31.8807 45.4528C31.6487 45.5175 31.4568 45.5898 31.2587 45.6279C30.6573 45.7437 30.0534 45.8464 29.4101 45.9494C29.1566 45.9717 28.9437 45.9987 28.7307 46.0257Z" fill="#060419"/>
<path d="M22.3662 38.8316C21.5012 38.7048 20.7174 38.339 20.0248 37.8319C19.3903 37.3674 18.7062 37.1795 17.9607 37.0215C12.4984 35.8641 8.34175 32.8168 5.58439 27.8654C4.65068 26.1888 4.8191 24.4433 5.9141 22.8787C6.99015 21.3412 8.51846 20.7469 10.3539 20.9797C10.4844 20.9963 10.6146 21.015 10.757 21.0344C10.8007 20.7498 10.8209 20.4907 10.8822 20.2422C11.1122 19.3104 11.6918 18.7201 12.6097 18.5126C13.0918 18.4035 13.5873 18.3561 14.1131 18.3259C13.4765 19.067 13.322 19.9105 13.5021 20.8346C14.0255 23.5205 14.752 26.1482 15.7021 28.7099C16.5938 31.1139 17.6583 33.43 19.1598 35.5082C20.1299 36.8509 21.2259 38.0638 22.7499 38.7647C22.6051 38.804 22.4856 38.8178 22.3662 38.8316ZM11.6528 24.4779C11.5679 24.1763 11.4633 23.8788 11.4037 23.5721C11.3444 23.2662 11.1773 23.092 10.9112 22.9595C9.80307 22.4081 8.41299 22.6514 7.55434 23.5622C6.66818 24.5021 6.46092 25.9553 7.10902 27.0998C9.25144 30.8831 12.3396 33.4876 16.4355 34.8162C16.5124 34.8411 16.5946 34.8485 16.7861 34.886C14.3515 31.7432 12.7965 28.2612 11.6528 24.4779Z" fill="#060419"/>
<path d="M48.01 15.4547C47.0916 15.4547 46.2233 15.4547 45.3195 15.4547C45.3195 14.8431 45.3195 14.2753 45.3195 13.6691C45.507 13.6484 45.7048 13.6266 45.9151 13.6034C45.9151 11.8529 45.9151 10.1069 45.9151 8.36083C45.8777 8.35108 45.8402 8.34134 45.8028 8.33159C44.8813 10.662 43.9597 12.9923 43.035 15.3308C42.4294 15.3308 41.853 15.3308 41.2256 15.3308C40.2821 13.0365 39.3327 10.7275 38.3832 8.41847C38.3484 8.42264 38.3136 8.42682 38.2789 8.43099C38.2714 10.1522 38.268 11.8735 38.2735 13.6067C38.5203 13.6249 38.7213 13.6397 38.957 13.657C38.957 14.2489 38.957 14.8271 38.957 15.4258C37.7646 15.4258 36.5939 15.4258 35.3965 15.4258C35.3965 14.8289 35.3965 14.2606 35.3965 13.6545C35.6713 13.64 35.9362 13.6261 36.2267 13.6108C36.2267 11.538 36.2267 9.48644 36.2267 7.3936C35.9536 7.37076 35.6904 7.34876 35.3992 7.3244C35.3992 6.74003 35.3992 6.17125 35.3992 5.5708C36.6946 5.5708 37.9853 5.5708 39.3515 5.5708C40.2791 7.89395 41.2226 10.2566 42.204 12.7147C43.1183 10.2622 43.9952 7.90997 44.8716 5.55884C46.2176 5.55884 47.5297 5.55884 48.8775 5.55884C48.8775 6.14458 48.8775 6.71269 48.8775 7.33473C48.6227 7.34711 48.3556 7.36009 48.0478 7.37504C48.0478 9.44967 48.0478 11.5133 48.0478 13.608C48.3053 13.6243 48.5696 13.6411 48.8654 13.6598C48.8654 14.251 48.8654 14.8174 48.8654 15.4547C48.5932 15.4547 48.3266 15.4547 48.01 15.4547Z" fill="#060419"/>
<path d="M124.138 10.3608C123.722 12.0759 123.314 13.749 122.903 15.4338C121.988 15.4338 121.103 15.4338 120.151 15.4338C119.401 12.7648 118.647 10.0773 117.889 7.37775C117.565 7.36269 117.279 7.34943 116.966 7.33487C116.966 6.73836 116.966 6.17087 116.966 5.57134C118.31 5.57134 119.651 5.57134 121.028 5.57134C121.028 6.14137 121.028 6.708 121.028 7.3383C120.747 7.3383 120.451 7.3383 120.065 7.3383C120.534 9.12039 120.982 10.8207 121.43 12.5211C121.464 12.5216 121.498 12.5221 121.532 12.5226C122.094 10.2084 122.657 7.89421 123.224 5.56323C124.008 5.56323 124.772 5.56323 125.572 5.56323C126.127 7.881 126.68 10.1973 127.234 12.5136C127.803 10.8369 128.235 9.12979 128.695 7.36216C128.311 7.36216 127.992 7.36216 127.638 7.36216C127.638 6.74908 127.638 6.18339 127.638 5.57838C128.964 5.57838 130.304 5.57838 131.704 5.57838C131.763 6.14333 131.718 6.72317 131.735 7.32645C131.421 7.34803 131.154 7.36638 130.86 7.38664C130.114 10.0781 129.372 12.7555 128.629 15.4375C127.703 15.4375 126.817 15.4375 125.863 15.4375C125.391 13.4608 124.916 11.4702 124.441 9.47953C124.415 9.47619 124.39 9.47285 124.364 9.46952C124.292 9.75261 124.219 10.0357 124.138 10.3608Z" fill="#060419"/>
<path d="M99.4141 15.4544C98.512 15.4544 97.6609 15.4544 96.776 15.4544C96.776 14.8412 96.776 14.2736 96.776 13.6588C97.0796 13.6428 97.395 13.6261 97.7247 13.6087C97.7247 12.7723 97.7247 11.9607 97.7247 11.119C96.2649 11.119 94.8385 11.119 93.3826 11.119C93.3826 11.9453 93.3826 12.7569 93.3826 13.6122C93.6928 13.6268 94.0062 13.6415 94.3407 13.6572C94.3407 14.2643 94.3407 14.8304 94.3407 15.4255C92.9745 15.4255 91.6347 15.4255 90.2646 15.4255C90.2646 14.8367 90.2646 14.2684 90.2646 13.6515C90.5715 13.6515 90.8709 13.6515 91.1982 13.6515C91.1982 11.536 91.1982 9.46868 91.1982 7.36279C90.8883 7.36279 90.6027 7.36279 90.276 7.36279C90.276 6.7451 90.276 6.16476 90.276 5.5678C91.6271 5.5678 92.9678 5.5678 94.3378 5.5678C94.3378 6.16194 94.3378 6.72847 94.3378 7.34091C94.023 7.34091 93.7208 7.34091 93.3875 7.34091C93.3875 8.03669 93.3875 8.68711 93.3875 9.36514C94.8244 9.36514 96.2361 9.36514 97.7229 9.36514C97.7425 8.71842 97.7261 8.08342 97.7315 7.3911C97.4001 7.36907 97.0871 7.34827 96.7594 7.3265C96.7594 6.73314 96.7594 6.17704 96.7594 5.62112C97.1276 5.51532 99.5901 5.48046 100.854 5.56906C100.869 6.14198 100.86 6.72258 100.861 7.33394C100.521 7.34961 100.219 7.36354 99.8812 7.37908C99.8812 9.45044 99.8812 11.4996 99.8812 13.607C100.183 13.6224 100.497 13.6384 100.835 13.6556C100.835 14.2504 100.835 14.8187 100.835 15.4544C100.376 15.4544 99.9206 15.4544 99.4141 15.4544Z" fill="#060419"/>
<path d="M28.6895 46.0388C28.9435 45.9987 29.1565 45.9717 29.4258 45.9813C30.0877 46.6627 30.0451 47.4197 29.8479 48.1688C30.0868 48.2514 30.377 48.2697 30.5319 48.427C30.7105 48.6084 30.7764 48.9096 30.8763 49.1649C30.906 49.2408 30.8873 49.3372 30.8875 49.4242C30.8884 49.7478 30.8879 50.0715 30.8879 50.3313C31.1268 50.4924 31.4258 50.5981 31.5697 50.8124C31.8157 51.1786 31.9764 51.6077 31.8411 52.0842C31.7798 52.2999 31.7451 52.5233 31.6983 52.7432C30.9612 52.8651 30.2245 52.989 29.4869 53.1082C28.465 53.2735 27.442 53.4319 26.4205 53.5996C25.717 53.7151 25.0156 53.8442 24.3125 53.9621C23.5592 54.0884 22.8049 54.2086 22.0036 54.2916C21.833 53.9478 21.6784 53.6527 21.5925 53.3381C21.3769 52.5486 21.5761 52.1009 22.2388 51.8228C22.1089 51.603 21.9572 51.3955 21.8553 51.1651C21.5197 50.4058 21.7511 49.7194 22.4663 49.3926C21.8543 48.7561 21.8657 48.0017 22.1045 47.2101C22.3354 47.1378 22.5279 47.0701 22.7204 47.0023C23.4748 46.8907 24.2305 46.7876 24.9833 46.6656C26.206 46.4675 27.4269 46.2571 28.6895 46.0388Z" fill="#060419"/>
<path d="M186.326 12.8261C186.399 13.0828 186.461 13.2968 186.529 13.5282C186.783 13.5444 187.017 13.5594 187.287 13.5766C187.287 14.1875 187.287 14.7858 187.287 15.4198C186.378 15.4198 185.466 15.4198 184.513 15.4198C184.393 14.6996 184.275 13.9821 184.153 13.2652C184.115 13.0422 184.08 12.8176 184.023 12.5991C183.857 11.9527 183.439 11.5838 182.79 11.5254C182.438 11.4937 182.08 11.5197 181.695 11.5197C181.695 12.216 181.695 12.8862 181.695 13.5949C181.956 13.6137 182.22 13.6326 182.507 13.6531C182.507 14.2456 182.507 14.8145 182.507 15.4191C181.196 15.4191 179.892 15.4191 178.556 15.4191C178.556 14.8364 178.556 14.2693 178.556 13.661C178.865 13.6431 179.18 13.6248 179.514 13.6055C179.514 11.527 179.514 9.47606 179.514 7.38755C179.183 7.36605 178.868 7.34562 178.541 7.32439C178.541 6.73111 178.541 6.17607 178.541 5.5796C178.671 5.56613 178.8 5.54152 178.929 5.5413C180.484 5.53872 182.038 5.53451 183.592 5.54241C184.213 5.54556 184.814 5.65768 185.372 5.9571C186.628 6.63183 187.166 8.1625 186.615 9.4966C186.458 9.87535 186.214 10.1849 185.886 10.4214C185.705 10.5516 185.516 10.6696 185.281 10.8258C186.008 11.2798 186.161 12.0326 186.326 12.8261ZM184.502 8.44442C184.459 7.92807 184.164 7.62696 183.703 7.46719C183.291 7.32434 182.157 7.30559 181.689 7.4339C181.689 8.19098 181.689 8.94889 181.689 9.74298C181.884 9.74298 182.052 9.74446 182.22 9.74268C182.595 9.73868 182.972 9.754 183.346 9.72363C184.071 9.66474 184.437 9.27305 184.502 8.44442Z" fill="#060419"/>
<path d="M165.635 5.58357C167.381 5.54824 169.089 5.53181 170.797 5.54741C171.434 5.55322 172.048 5.71105 172.6 6.06363C173.989 6.95188 174.06 8.52922 173.634 9.55065C173.476 9.92867 173.214 10.2257 172.882 10.4566C172.713 10.5739 172.539 10.6829 172.329 10.8211C172.951 11.2362 173.185 11.858 173.301 12.546C173.316 12.6313 173.347 12.7136 173.368 12.7979C173.549 13.5247 173.549 13.5247 174.322 13.5838C174.322 14.1772 174.322 14.7763 174.322 15.4155C173.422 15.4155 172.511 15.4155 171.556 15.4155C171.446 14.7523 171.337 14.086 171.224 13.4205C171.177 13.1461 171.139 12.8681 171.064 12.6012C170.869 11.9075 170.484 11.5779 169.784 11.5193C169.448 11.4911 169.107 11.5144 168.733 11.5144C168.733 12.2134 168.733 12.8829 168.733 13.6032C168.99 13.6155 169.256 13.6281 169.552 13.6422C169.552 14.2342 169.552 14.8014 169.552 15.3718C169.214 15.4741 166.384 15.5052 165.577 15.4028C165.577 15.1265 165.577 14.8377 165.577 14.5489C165.577 14.2708 165.577 13.9927 165.577 13.6635C165.91 13.6447 166.224 13.627 166.564 13.6078C166.564 11.5373 166.564 9.48744 166.564 7.38562C166.243 7.36795 165.944 7.35148 165.598 7.33241C165.598 6.74795 165.598 6.18157 165.635 5.58357ZM170.926 7.53438C170.204 7.24272 169.463 7.38349 168.717 7.35581C168.717 8.18679 168.717 8.94355 168.717 9.7222C169.318 9.7222 169.896 9.75342 170.469 9.71313C171.006 9.67532 171.437 9.30682 171.522 8.86678C171.628 8.32495 171.497 7.86643 170.926 7.53438Z" fill="#060419"/>
<path d="M149.258 11.7465C149.555 13.4195 148.764 14.8607 147.318 15.3055C147.043 15.39 146.749 15.4449 146.462 15.4474C144.907 15.4609 143.351 15.4542 141.795 15.4527C141.73 15.4526 141.664 15.4353 141.573 15.4224C141.573 14.8425 141.573 14.273 141.573 13.6544C141.874 13.6544 142.172 13.6544 142.503 13.6544C142.503 11.5397 142.503 9.47376 142.503 7.37947C142.192 7.36518 141.906 7.35207 141.583 7.33723C141.583 6.74639 141.583 6.1645 141.583 5.53971C141.758 5.53971 141.925 5.53916 142.092 5.5398C143.408 5.54484 144.725 5.54669 146.041 5.55701C146.556 5.56104 147.063 5.61559 147.541 5.83846C148.867 6.45555 149.582 8.0078 149.123 9.41481C148.99 9.8235 148.671 10.169 148.426 10.5605C148.765 10.8331 149.11 11.1907 149.258 11.7465ZM147.051 13.0014C147.076 12.7454 147.144 12.4843 147.115 12.2348C147.063 11.7796 146.727 11.4326 146.317 11.411C145.779 11.3827 145.238 11.4041 144.678 11.4041C144.678 12.1639 144.678 12.8691 144.678 13.6342C145.136 13.6342 145.575 13.6179 146.012 13.6386C146.468 13.6603 146.81 13.5054 147.051 13.0014ZM146.7 9.34862C146.785 9.21972 146.892 9.1003 146.952 8.9603C147.232 8.31794 146.863 7.44232 146.25 7.37504C145.732 7.31825 145.204 7.36334 144.68 7.36334C144.68 8.12937 144.68 8.83696 144.68 9.59393C145.211 9.59393 145.718 9.60752 146.225 9.58513C146.365 9.57893 146.5 9.46585 146.7 9.34862Z" fill="#060419"/>
<path d="M22.6982 46.971C22.5281 47.0701 22.3355 47.1378 22.0562 47.1971C21.7698 47.2074 21.5701 47.2261 21.3405 47.2371C21.0026 47.2092 20.8193 46.9915 20.6596 46.7667C20.1958 46.114 20.4124 45.0264 21.2774 44.8497C22.3823 44.6239 23.0686 43.8118 23.4884 42.7771C23.9894 41.5418 24.0051 40.2747 23.6635 38.9824C23.3651 38.9007 23.0704 38.8199 22.7757 38.7392C21.2263 38.0638 20.1303 36.8509 19.1601 35.5082C17.6587 33.4301 16.5941 31.1139 15.7025 28.7099C14.7524 26.1482 14.0258 23.5205 13.5024 20.8347C13.3223 19.9106 13.4769 19.067 14.1582 18.3361C14.1667 18.3012 14.1649 18.3043 14.1959 18.3095C14.3056 18.2823 14.3841 18.2498 14.4627 18.2173C15.1196 18.1061 15.7764 17.995 16.4755 17.8854C15.9877 18.7829 16.0317 19.7412 16.2225 20.7156C16.8545 23.9422 17.618 27.1343 18.6753 30.2458C19.3016 32.0889 20.0004 33.9035 20.9438 35.6081C21.4486 36.5202 21.9794 37.4185 22.755 38.1221C23.0561 38.3953 23.4122 38.6107 23.7616 38.8205C23.9081 38.9085 23.9897 38.9889 24.0241 39.1633C24.2698 40.4076 24.3329 41.6543 23.9872 42.884C23.8675 43.3097 23.6614 43.7319 23.4046 44.088C23.2256 44.3361 22.911 44.5103 22.6235 44.6407C22.3743 44.7537 22.2131 44.9041 22.1826 45.1602C22.1043 45.8188 22.1408 46.454 22.6982 46.971Z" fill="#060419"/>
<path d="M108.656 12.7497C108.656 13.0587 108.656 13.3166 108.656 13.6038C109.496 13.6038 110.29 13.6038 111.131 13.6038C111.131 13.0634 111.131 12.531 111.131 11.9635C111.834 11.9635 112.492 11.9635 113.151 11.9635C113.246 12.3185 113.273 14.7081 113.183 15.4187C110.668 15.4187 108.147 15.4187 105.582 15.4187C105.582 14.8521 105.582 14.2726 105.582 13.6458C105.874 13.6458 106.174 13.6458 106.504 13.6458C106.504 11.5877 106.504 9.57611 106.504 7.52298C106.189 7.52298 105.905 7.52298 105.579 7.52298C105.579 6.84971 105.579 6.21684 105.579 5.56116C108.104 5.56116 110.628 5.56116 113.191 5.56116C113.191 6.66186 113.191 7.75329 113.191 8.8793C112.526 8.8793 111.852 8.8793 111.137 8.8793C111.137 8.42896 111.137 7.99924 111.137 7.54366C110.302 7.54366 109.507 7.54366 108.685 7.54366C108.685 8.17931 108.685 8.79816 108.685 9.46562C109.301 9.46562 109.909 9.46562 110.551 9.46562C110.551 10.1142 110.551 10.716 110.551 11.3693C109.954 11.3693 109.348 11.3693 108.674 11.3693C108.668 11.8431 108.662 12.2708 108.656 12.7497Z" fill="#060419"/>
<path d="M161.274 15.3325C161.149 15.405 161.036 15.4513 160.924 15.4515C158.583 15.4556 156.242 15.4547 153.901 15.4535C153.818 15.4535 153.735 15.4408 153.619 15.4313C153.619 14.845 153.619 14.2779 153.619 13.6596C153.92 13.6441 154.236 13.6278 154.58 13.6101C154.58 11.5988 154.58 9.59983 154.58 7.54455C154.267 7.52648 153.955 7.50843 153.614 7.4888C153.614 6.84285 153.614 6.22372 153.614 5.57184C156.154 5.57184 158.69 5.57184 161.257 5.57184C161.257 6.67593 161.257 7.76595 161.257 8.88457C160.593 8.88457 159.933 8.88457 159.228 8.88457C159.228 8.45114 159.228 8.02362 159.228 7.52431C158.393 7.50823 157.6 7.51706 156.737 7.51885C156.722 8.17154 156.723 8.80195 156.739 9.48402C157.385 9.48402 157.992 9.48402 158.616 9.48402C158.616 10.1372 158.616 10.7393 158.616 11.3964C157.989 11.3964 157.383 11.3964 156.753 11.3964C156.753 12.1572 156.753 12.8632 156.753 13.6025C157.563 13.6025 158.359 13.6025 159.2 13.6025C159.2 13.0741 159.2 12.5407 159.2 11.9379C159.899 11.9179 160.555 11.9326 161.264 11.9281C161.314 12.5082 161.283 13.0603 161.288 13.6102C161.293 14.1683 161.288 14.7265 161.274 15.3325Z" fill="#060419"/>
<path d="M213.798 13.5514C214.093 13.5818 214.35 13.622 214.603 13.6062C215.135 13.5728 215.476 13.2733 215.548 12.8158C215.626 12.315 215.445 11.9606 214.925 11.7538C214.305 11.5078 213.664 11.3191 213.037 11.0915C212.748 10.9869 212.456 10.8769 212.193 10.7209C211.146 10.1002 210.763 9.11998 210.842 7.9355C210.916 6.82828 211.469 6.02909 212.474 5.60062C213.666 5.09281 214.876 5.0742 216.045 5.65715C216.432 5.85023 216.807 6.14635 217.075 6.48747C217.321 6.79977 217.545 7.00697 217.977 6.94049C217.977 7.59216 217.977 8.21075 217.977 8.9079C217.25 8.91574 216.511 8.91352 215.736 8.90773C215.724 8.74851 215.708 8.61565 215.706 8.4825C215.694 7.92721 215.397 7.56578 214.928 7.35312C214.415 7.12033 213.888 7.11424 213.416 7.457C213.002 7.75691 212.993 8.40302 213.393 8.72894C213.562 8.86597 213.777 8.95553 213.983 9.02916C214.643 9.26466 215.307 9.49379 215.975 9.70479C217.011 10.0319 217.703 10.6925 217.88 11.8056C218.066 12.9792 217.814 14.0317 216.88 14.8265C215.614 15.9039 213.391 15.9592 212.1 14.9195C211.746 14.6345 211.477 14.2398 211.119 13.84C211.023 13.8316 210.839 13.8155 210.626 13.7968C210.626 13.1823 210.626 12.5784 210.626 11.921C211.353 11.921 212.093 11.921 212.888 11.921C212.855 12.6157 212.995 13.2592 213.798 13.5514Z" fill="#060419"/>
<path d="M53.0113 14.5331C53.0112 14.2253 53.0112 13.9658 53.0112 13.6691C53.2495 13.648 53.4636 13.629 53.7268 13.6056C54.6001 10.9471 55.4783 8.27412 56.3657 5.57275C57.1989 5.57275 58.0283 5.57275 58.9049 5.57275C59.7611 8.23131 60.6234 10.909 61.4909 13.6028C61.7225 13.6247 61.9372 13.6451 62.1761 13.6677C62.1761 14.2588 62.1761 14.8265 62.1761 15.4245C60.9862 15.4245 59.8147 15.4245 58.5845 15.4245C58.5845 14.8421 58.5845 14.2636 58.5845 13.6471C58.8599 13.632 59.1427 13.6165 59.4748 13.5983C59.3329 13.132 59.2026 12.7036 59.0671 12.2583C58.0775 12.2583 57.1075 12.2583 56.0753 12.2583C55.9447 12.6792 55.8084 13.1181 55.6591 13.5991C56.0176 13.6164 56.3177 13.6308 56.6412 13.6464C56.6412 14.2446 56.6412 14.8147 56.6412 15.4199C55.4375 15.4199 54.2518 15.4199 53.0114 15.4199C53.0114 15.1324 53.0114 14.8569 53.0113 14.5331ZM57.8105 10.5922C58.0376 10.5747 58.2647 10.5572 58.5343 10.5365C58.2097 9.49406 57.9374 8.4974 57.4986 7.54536C57.1993 8.53419 56.9 9.52303 56.5768 10.591C57.0006 10.591 57.3553 10.591 57.8105 10.5922Z" fill="#060419"/>
<path d="M194.62 12.9581C194.612 12.3841 194.711 11.8285 194.566 11.3489C194.428 10.8876 194.039 10.504 193.758 10.0881C193.244 9.32769 192.713 8.57856 192.22 7.80424C192.012 7.47783 191.789 7.28284 191.393 7.35413C191.314 7.36841 191.227 7.34053 191.107 7.32836C191.107 6.75075 191.107 6.18517 191.107 5.61663C191.464 5.51937 194.607 5.50055 195.185 5.59989C195.185 6.1601 195.185 6.72607 195.185 7.32616C194.963 7.34407 194.747 7.36148 194.447 7.38568C194.663 7.78261 194.853 8.13681 195.047 8.48917C195.247 8.85281 195.45 9.21466 195.695 9.65366C196.152 8.88411 196.577 8.16929 197.041 7.38919C196.725 7.36742 196.479 7.35054 196.199 7.33129C196.199 6.7486 196.199 6.18314 196.199 5.57824C197.524 5.57824 198.863 5.57824 200.269 5.57824C200.297 6.14545 200.281 6.72512 200.285 7.29779C199.542 7.4204 199.542 7.42032 199.087 8.05363C198.37 9.05196 197.66 10.0552 196.933 11.0453C196.758 11.2826 196.68 11.5189 196.689 11.8137C196.705 12.4021 196.694 12.9912 196.694 13.6386C197.104 13.6386 197.471 13.6386 197.851 13.6386C197.851 14.2647 197.851 14.8313 197.851 15.4245C196.418 15.4245 195.01 15.4245 193.58 15.4245C193.58 14.8255 193.58 14.2566 193.58 13.6499C193.919 13.6499 194.238 13.6499 194.62 13.6499C194.62 13.4122 194.62 13.2109 194.62 12.9581Z" fill="#060419"/>
<path d="M66.3715 8.55553C65.9131 8.55553 65.5042 8.55553 65.0508 8.55553C65.0508 7.54825 65.0508 6.56722 65.0508 5.56281C67.9469 5.56281 70.8415 5.56281 73.7669 5.56281C73.7669 6.55451 73.7669 7.52308 73.7669 8.52376C73.1053 8.52376 72.4487 8.52376 71.7264 8.52376C71.7264 8.12517 71.7264 7.71913 71.7264 7.28756C71.2577 7.28756 70.8537 7.28756 70.4113 7.28756C70.4113 9.38395 70.4113 11.4818 70.4113 13.624C70.7165 13.624 71.0173 13.624 71.3569 13.624C71.3569 14.2449 71.3569 14.8227 71.3569 15.428C70.0033 15.428 68.6636 15.428 67.2957 15.428C67.2957 14.8384 67.2957 14.2693 67.2957 13.6541C67.5998 13.6541 67.8993 13.6541 68.2331 13.6541C68.2331 11.5108 68.2331 9.41347 68.2331 7.28799C67.8477 7.28799 67.4967 7.28799 67.1013 7.28799C67.1013 7.68038 67.1013 8.0743 67.1013 8.54261C66.8473 8.54743 66.6342 8.55148 66.3715 8.55553Z" fill="#060419"/>
<path d="M80.6125 9.72127C80.6125 8.89343 80.6125 8.11211 80.6125 7.29524C80.1934 7.29524 79.8304 7.29524 79.4207 7.29524C79.4207 7.71054 79.4207 8.10423 79.4207 8.52567C78.7188 8.52567 78.0632 8.52567 77.377 8.52567C77.377 7.53288 77.377 6.56578 77.377 5.56897C80.2809 5.56897 83.1769 5.56897 86.1117 5.56897C86.1117 6.5386 86.1117 7.50596 86.1117 8.47548C85.7609 8.57465 84.6811 8.59247 84.0633 8.50012C84.0633 8.11611 84.0633 7.72226 84.0633 7.29446C83.6027 7.29446 83.1873 7.29446 82.7409 7.29446C82.7409 9.39163 82.7409 11.4761 82.7409 13.6065C83.0568 13.6232 83.3711 13.6399 83.7086 13.6577C83.7086 14.2568 83.7086 14.8244 83.7086 15.4234C82.3532 15.4234 81.0136 15.4234 79.6413 15.4234C79.6413 14.8405 79.6413 14.2729 79.6413 13.6605C79.9446 13.6429 80.2583 13.6248 80.6124 13.6042C80.6124 12.3045 80.6124 11.0361 80.6125 9.72127Z" fill="#060419"/>
<path d="M31.7419 52.7471C31.7451 52.5233 31.7799 52.2998 31.8411 52.0842C31.9764 51.6076 31.8158 51.1786 31.5697 50.8124C31.4258 50.5981 31.1268 50.4924 30.8879 50.3313C30.8879 50.0714 30.8884 49.7478 30.8875 49.4242C30.8873 49.3372 30.906 49.2408 30.8763 49.1648C30.7764 48.9096 30.7105 48.6083 30.5319 48.4269C30.3771 48.2697 30.0868 48.2514 29.8479 48.1687C30.0451 47.4197 30.0877 46.6627 29.4663 45.986C30.0533 45.8463 30.6571 45.7437 31.2586 45.6279C31.4567 45.5897 31.6485 45.5175 31.893 45.4671C31.9635 45.451 31.9842 45.4286 32.0048 45.4062C32.0048 45.4062 32.0099 45.4159 32.0494 45.419C32.4072 45.4595 32.7261 45.4931 33.0439 45.5353C33.6043 45.6098 34.0449 46.2732 33.8853 46.8392C33.8112 47.1021 33.6674 47.3445 33.5337 47.6443C33.9042 47.6443 34.2528 47.6443 34.6013 47.6443C34.6013 49.0494 34.6013 50.4545 34.6013 51.9197C35.142 51.9309 35.6281 51.9411 36.1586 51.9655C34.7304 52.2368 33.2579 52.4939 31.7419 52.7471Z" fill="#060419"/>
<path d="M21.3702 47.2448C21.5699 47.2261 21.7696 47.2074 22.0177 47.2017C21.8657 48.0016 21.8543 48.7561 22.4662 49.3926C21.7511 49.7193 21.5197 50.4058 21.8553 51.1651C21.9571 51.3955 22.1088 51.603 22.2387 51.8228C21.5761 52.1008 21.3768 52.5485 21.5924 53.3381C21.6784 53.6527 21.8329 53.9478 21.9601 54.2903C21.207 54.4575 20.45 54.586 19.6431 54.6816C19.1157 54.2822 18.9191 53.7945 18.9878 53.1914C19.0454 52.6853 19.2913 52.4267 19.7913 52.3318C19.9114 52.309 20.0255 52.2531 20.165 52.2046C19.4999 51.6061 19.4559 51.5015 19.4981 50.6795C19.5243 50.1692 19.7809 49.8924 20.285 49.8224C20.3871 49.8082 20.4867 49.7744 20.611 49.7439C20.5539 49.6713 20.5363 49.6408 20.5115 49.6186C19.8183 48.9986 19.7416 48.4664 20.2208 47.655C20.2413 47.6203 20.1952 47.5447 20.2167 47.4683C20.6256 47.3805 20.9979 47.3126 21.3702 47.2448Z" fill="#060419"/>
<path d="M20.18 47.4882C20.1951 47.5447 20.2412 47.6203 20.2207 47.655C19.7415 48.4665 19.8182 48.9986 20.5114 49.6187C20.5361 49.6408 20.5537 49.6713 20.6109 49.7439C20.4866 49.7745 20.387 49.8083 20.2848 49.8225C19.7807 49.8925 19.5242 50.1693 19.498 50.6796C19.4558 51.5015 19.4998 51.6061 20.1649 52.2046C20.0254 52.2531 19.9113 52.309 19.7911 52.3318C19.2911 52.4268 19.0453 52.6853 18.9877 53.1914C18.919 53.7946 19.1156 54.2822 19.6029 54.6806C19.0279 54.8217 18.4444 54.9397 17.8575 55.0373C17.4286 55.1087 17.0237 55.0012 16.7317 54.6746C16.3618 54.2608 16.4825 53.42 16.9358 53.0752C17.2562 52.8315 17.5777 52.5778 18.0706 52.6079C17.3675 52.0796 17.1635 51.7098 17.3678 51.1035C17.5925 50.4371 18.1235 50.1151 18.9051 50.1013C18.8013 50.0066 18.7664 49.9576 18.7192 49.9343C17.9238 49.5415 17.8532 48.5009 18.559 47.9429C18.8924 47.6792 19.2646 47.6292 19.7143 47.536C19.9132 47.4975 20.0466 47.4928 20.18 47.4882Z" fill="#060419"/>
<path d="M204.052 8.02859C204.397 6.93313 204.733 5.87829 205.082 4.7804C205.728 5.01134 206.345 5.23228 207.017 5.47269C206.412 6.65909 205.826 7.809 205.21 9.01613C204.776 8.84327 204.36 8.67709 203.92 8.50178C203.969 8.32984 204.006 8.19953 204.052 8.02859Z" fill="#060419"/>
<path d="M20.2169 47.4683C20.0469 47.4928 19.9135 47.4975 19.7395 47.5047C19.2727 47.3703 18.9305 47.1487 18.7977 46.6719C18.6217 46.0401 18.929 45.4198 19.5451 45.2188C19.7067 45.166 19.878 45.1444 20.0438 45.1041C22.2407 44.5704 23.9075 42.3818 23.5379 39.8789C23.4977 39.6068 23.4558 39.3349 23.4131 39.0528C23.0639 38.9904 22.7474 38.9339 22.3987 38.8544C22.486 38.8178 22.6055 38.804 22.7503 38.7647C23.0704 38.8199 23.3651 38.9007 23.6635 38.9824C24.0051 40.2747 23.9893 41.5418 23.4883 42.7771C23.0686 43.8118 22.3823 44.6239 21.2773 44.8497C20.4124 45.0264 20.1958 46.114 20.6596 46.7667C20.8193 46.9915 21.0026 47.2092 21.3405 47.2371C20.9981 47.3127 20.6258 47.3805 20.2169 47.4683Z" fill="#060419"/>
<path d="M32.3201 19.6363C32.2872 19.401 32.2451 19.1666 32.2233 18.9303C32.1826 18.4892 32.1536 18.0469 32.1196 17.5633C32.8066 17.1171 33.5328 16.8329 34.335 16.8084C34.6221 16.7996 34.9103 16.8293 35.2382 16.8489C34.751 17.2487 34.5652 17.792 34.5604 18.481C33.6223 18.5685 32.9137 18.9842 32.3201 19.6363Z" fill="#060419"/>
<path d="M69.2462 28.876C69.1602 28.5965 69.1084 28.3218 69.0566 28.047C69.3015 28.2539 69.3138 28.5333 69.3549 28.8427C69.3265 28.8834 69.3034 28.8821 69.2462 28.876Z" fill="#060419"/>
<path d="M192.872 46.8912C192.925 46.9698 192.977 47.0487 193.03 47.1277C193.007 47.1413 192.984 47.1549 192.961 47.1685C192.931 47.0983 192.901 47.0281 192.871 46.9251C192.871 46.8922 192.872 46.8915 192.872 46.8912Z" fill="#060419"/>
<path d="M14.4291 18.2109C14.3837 18.2498 14.3051 18.2823 14.1938 18.3089C14.2394 18.2702 14.3177 18.2374 14.4291 18.2109Z" fill="#060419"/>
<path d="M193.113 47.4432C193.115 47.4161 193.129 47.4014 193.143 47.3867C193.137 47.4096 193.131 47.4325 193.113 47.4432Z" fill="#060419"/>
<path d="M188.667 32.0203C188.712 32.0332 188.757 32.0468 188.801 32.0604C188.764 32.0623 188.727 32.0641 188.678 32.0441C188.665 32.0223 188.666 32.0209 188.667 32.0203Z" fill="#060419"/>
<path d="M160.864 41.1322C160.807 41.1146 160.75 41.097 160.676 41.0532C160.659 41.0271 160.66 41.0267 160.66 41.0267C160.717 41.0443 160.774 41.062 160.848 41.1057C160.865 41.1318 160.864 41.1322 160.864 41.1322Z" fill="#060419"/>
<path d="M160.455 40.9219C160.512 40.9396 160.569 40.9572 160.643 41.0008C160.66 41.0267 160.66 41.0271 160.66 41.0273C160.602 41.0099 160.545 40.9923 160.471 40.9486C160.455 40.9223 160.455 40.9219 160.455 40.9219Z" fill="#060419"/>
<path d="M160.454 40.9226C160.409 40.9097 160.364 40.8966 160.32 40.8834C160.356 40.8817 160.393 40.88 160.442 40.9001C160.455 40.9219 160.454 40.9223 160.454 40.9226Z" fill="#060419"/>
<path d="M154.811 20.8166C154.754 20.7989 154.697 20.7813 154.623 20.7376C154.606 20.7116 154.607 20.7112 154.607 20.7109C154.664 20.7283 154.721 20.746 154.795 20.7898C154.812 20.8159 154.811 20.8166 154.811 20.8166Z" fill="#060419"/>
<path d="M171.334 49.1053C171.341 49.1056 171.354 49.1208 171.367 49.1361C171.358 49.1308 171.349 49.1255 171.334 49.1053Z" fill="#060419"/>
<path d="M154.812 20.8156C154.825 20.8306 154.838 20.8459 154.85 20.8612C154.841 20.8562 154.832 20.8511 154.817 20.8313C154.811 20.8166 154.812 20.8159 154.812 20.8156Z" fill="#060419"/>
<path d="M155.065 20.9678C155.074 20.9628 155.057 20.9729 155.065 20.9678Z" fill="#060419"/>
<path d="M198.411 18.8251C198.421 18.821 198.432 18.8181 198.428 18.8217C198.414 18.8282 198.412 18.8262 198.411 18.8251Z" fill="#060419"/>
<path d="M215.59 27.7845C215.595 27.7935 215.585 27.7755 215.59 27.7845Z" fill="#060419"/>
</svg>