<?xml version="1.0" encoding="utf-8"?>
<svg xmlns="http://www.w3.org/2000/svg" fill="none" height="78" viewBox="0 0 129 78" width="129">
<path d="M114.107 35.237C113.1 36.18 112.205 37.294 111.065 38.033C107.921 40.0712 105.399 38.7091 105.202 34.9756C105.175 34.4645 105.198 33.9508 105.198 33.3338C104.021 34.5699 102.973 35.7843 101.801 36.8645C100.915 37.6806 99.9338 38.4418 98.8804 39.0207C96.9681 40.0716 95.6216 39.3925 95.1097 37.265C95.0109 36.8543 94.9362 36.4379 94.8268 35.9101C93.7933 36.7719 92.8925 37.5792 91.9329 38.3103C90.415 39.4667 88.7156 40.1912 86.7694 40.2404C84.0762 40.3084 82.7208 39.182 82.3862 36.5172C82.2982 35.816 82.3729 35.0946 82.3729 34.6869C81.2775 35.6344 80.1052 36.6488 78.9322 37.6623C78.7678 37.8043 78.6026 37.9457 78.4325 38.0808C75.2431 40.6149 73.6594 40.0124 72.9903 35.792C72.154 36.6501 71.4526 37.4585 70.6591 38.1645C69.185 39.4761 67.5724 40.566 65.5412 40.8423C63.1105 41.1729 61.3284 39.8892 61.0709 37.4556C60.9263 36.0898 61.0449 34.6964 61.0449 33.0634C60.6201 33.5452 60.2989 33.9537 59.9326 34.3173C58.4578 35.7816 57.1033 37.409 55.4548 38.647C52.8324 40.6165 50.591 39.4719 50.3765 36.2073C50.3044 35.1095 50.3651 34.0031 50.3651 32.7076C49.7002 33.4262 49.1805 34.0485 48.5979 34.6057C47.1873 35.9549 45.8248 37.372 44.2906 38.5684C43.3606 39.2936 42.1964 39.8548 41.0495 40.1415C39.0272 40.647 37.9061 39.5171 38.5554 37.5793C39.2655 35.4604 40.1766 33.386 41.216 31.4044C42.3774 29.19 43.7814 27.1017 45.2601 24.6607C42.7683 25.162 40.4916 25.62 38.3367 26.0535C38.6212 23.7467 38.8353 21.527 39.183 19.3282C39.5294 17.137 40.7906 15.5011 42.7464 14.4824C44.4389 13.6009 45.3923 14.2753 45.1946 16.157C45.1097 16.9647 44.856 17.7548 44.6481 18.692C47.2039 18.771 49.4989 17.9123 52.0793 16.9629C51.9444 18.6776 51.8847 20.21 51.6675 21.7199C51.6039 22.1617 51.138 22.5857 50.7787 22.9396C48.2812 25.3993 46.3715 28.1821 45.8117 31.7208C45.7377 32.1891 45.7251 32.6691 45.7136 33.1444C45.7078 33.3866 45.7678 33.6304 45.835 34.17C46.5107 33.6924 47.0773 33.3975 47.5098 32.9686C49.8556 30.642 52.0696 28.2216 53.6028 25.2394C54.5712 23.3557 55.704 21.5497 56.8588 19.7704C57.2013 19.2428 57.8086 18.7302 58.3997 18.5474C60.005 18.0509 61.6667 17.7347 63.6037 17.2767C62.5374 19.2532 61.5357 20.9177 60.7189 22.6678C59.3688 25.5605 58.0856 28.4876 56.9 31.45C56.654 32.0647 56.9567 32.8969 57.0065 33.6288C57.6349 33.309 58.4469 33.1399 58.8593 32.6426C60.4581 30.715 61.955 28.7014 63.4419 26.6848C65.0581 24.4929 66.4268 22.0858 68.2542 20.0909C70.784 17.3294 73.9629 16.0141 77.9075 17.4995C78.5058 16.2673 79.0975 15.0803 79.6617 13.8805C81.2636 10.474 82.8412 7.05602 84.4677 3.66124C84.6492 3.28235 85.0448 2.80968 85.4072 2.7445C87.3656 2.39224 89.3448 2.15472 91.5573 1.84387C91.1956 2.50909 90.9527 2.95452 90.711 3.40056C86.8318 10.5581 82.9497 17.7194 80.359 25.4687C79.7462 27.3017 79.408 29.2365 79.0798 31.1477C78.941 31.9554 79.1544 32.8231 79.2354 34.0987C80.1308 33.445 80.8178 33.1325 81.2312 32.6069C82.569 30.906 83.7706 29.0996 85.0913 27.3848C86.7791 25.1934 88.3489 22.869 90.301 20.9329C92.9462 18.3092 96.158 16.887 100.038 18.1117C100.226 18.1709 100.538 18.2057 100.643 18.102C102.469 16.3081 104.891 17.4946 106.888 16.6029C106.945 16.6986 107.002 16.7942 107.06 16.8898C106.59 17.837 106.051 18.757 105.662 19.7361C104.166 23.5061 102.672 27.2785 101.294 31.0921C101.05 31.7695 101.366 32.6476 101.424 33.433C102.104 33.069 103.005 32.8692 103.424 32.3108C104.788 30.4888 106.07 28.5896 107.209 26.62C108.615 24.1881 109.813 21.6378 111.182 19.1831C111.439 18.7207 112.025 18.2947 112.544 18.1474C114.245 17.6646 115.985 17.3179 117.711 16.9188C117.788 17.0201 117.865 17.1214 117.942 17.2226C117.6 17.8376 117.24 18.443 116.92 19.0692C115.35 22.1492 113.729 25.2064 112.262 28.3348C111.8 29.322 111.613 30.4987 111.563 31.6005C111.502 32.9553 112.395 33.4773 113.636 32.9363C115.047 32.3213 116.071 31.2783 116.686 29.8719C118.368 26.0273 120.004 22.1624 121.738 18.3413C121.979 17.8101 122.604 17.2636 123.163 17.0979C124.968 16.5628 126.826 16.2021 128.87 15.726C127.339 19.1405 125.9 22.1818 124.602 25.2816C122.029 31.4247 119.628 37.6409 116.972 43.7475C115.223 47.7697 112.86 51.465 109.952 54.7937C104.684 60.8247 97.9935 64.0944 90.0441 64.6229C85.6671 64.9138 81.2526 64.9079 76.8659 64.7458C63.3827 64.2475 50.173 65.4007 37.5726 70.6405C36.3318 71.1564 35.1065 71.725 33.9244 72.3618C31.7256 73.5462 29.7239 74.9753 28.4173 77.5C27.7506 76.3457 27.2279 75.3252 26.5973 74.3757C25.6196 72.9032 24.7337 71.3192 23.5126 70.069C21.2574 67.7602 18.7864 67.8405 16.3732 70.0146C16.2584 70.118 16.1387 70.216 15.8286 70.4814C16.1755 66.5 17.0846 62.9237 18.661 59.5343C23.1048 49.9802 30.8113 44.779 41.0802 43.1002C47.1598 42.1063 53.2558 42.7683 59.3235 43.2298C69.9994 44.0418 80.6579 45.0799 91.3298 45.949C94.965 46.2451 98.6249 46.5374 102.262 46.4342C106.504 46.3138 109.822 44.3027 111.852 40.4749C112.704 38.8699 113.482 37.2262 114.364 35.4383C114.413 35.1364 114.392 34.9964 114.372 34.8564C114.283 34.9832 114.195 35.1101 114.107 35.237ZM37.4016 66.9576C38.6561 66.4706 40.0609 66.1898 41.1153 65.4285C41.894 64.8662 42.8351 63.4852 42.6219 62.8047C42.0464 60.9679 41.9324 58.6963 40.1658 58.0051C39.9458 56.6499 39.8343 55.6387 39.6037 54.6553C39.4472 53.9881 39.1276 53.3582 38.8736 52.7144C38.4751 51.7046 36.8347 50.7989 35.8267 51.1518C33.8695 51.8369 31.9448 52.6139 29.9024 53.3926C31.7474 58.1879 33.5567 62.8904 35.3965 67.6722C36.0758 67.4263 36.6409 67.2218 37.4016 66.9576ZM71.9292 59.5217C72.176 60.2583 72.3815 61.0125 72.689 61.723C72.82 62.0257 73.1409 62.4199 73.4162 62.4549C74.1981 62.5541 75.0009 62.4897 75.9117 62.4897C75.2886 60.6221 74.6587 58.8793 74.1504 57.102C74.0317 56.6869 74.1643 55.9136 74.4581 55.719C75.6616 54.9221 75.981 53.836 75.9431 52.505C75.9174 51.5988 76.0021 50.6899 76.0244 49.7819C76.0484 48.8067 75.0155 47.2987 74.0813 47.2186C71.9328 47.0345 69.7726 46.9851 67.5115 46.876C67.2758 52.0433 67.0477 57.0418 66.8141 62.164C67.8006 62.2201 68.6842 62.2702 69.6366 62.3243C69.7529 60.1585 69.861 58.1456 69.9921 55.7032C70.5127 56.2328 70.8699 56.4455 70.9947 56.752C71.3357 57.5894 71.5787 58.4663 71.9292 59.5217ZM81.6009 56.5872C82.8464 56.5872 84.092 56.5872 85.3219 56.5872C85.3219 57.8353 85.3219 58.8947 85.3219 59.9732C84.3775 59.9732 83.5177 59.9732 82.5948 59.9732C82.5427 59.5787 82.4953 59.2191 82.4427 58.8209C81.5055 58.8209 80.6531 58.8209 79.8101 58.8209C79.3591 61.6812 80.3287 62.852 83.0966 62.8584C83.7497 62.8599 84.4028 62.8607 85.0559 62.8613C87.2052 62.8635 88.2447 61.8174 88.2521 59.6456C88.2552 58.7357 88.2595 57.8258 88.2615 56.9159C88.2661 54.8869 87.1572 53.776 85.1198 53.7699C84.271 53.7674 83.4223 53.7695 82.5444 53.7695C82.5444 53.0513 82.5444 52.5332 82.5444 52.0151C82.5444 51.4725 82.5444 50.9299 82.5444 50.4211C83.5985 50.4211 84.4586 50.4211 85.3412 50.4211C85.4053 50.795 85.4606 51.117 85.5174 51.4484C86.4411 51.4484 87.2952 51.4484 88.1382 51.4484C88.5705 48.7078 87.5643 47.5278 84.8543 47.5229C84.1577 47.5216 83.4611 47.5188 82.7644 47.5185C80.8331 47.5176 79.6995 48.6571 79.6926 50.6052C79.69 51.3417 79.7906 52.0964 79.664 52.8113C79.3682 54.4817 80.0417 55.6318 81.6009 56.5872ZM58.5959 62.249C60.2777 62.1646 61.9595 62.0803 63.7386 61.991C63.69 61.0133 63.6464 60.1354 63.6046 59.2952C62.0124 59.2952 60.5865 59.2952 59.0512 59.2952C59.0512 58.247 59.0512 57.1828 59.0512 55.9916C60.2576 55.9132 61.4858 55.8334 62.6471 55.7579C62.6471 54.7821 62.6471 53.9298 62.6471 53.0432C61.3232 53.0432 60.0893 53.0432 58.7716 53.0432C58.7716 51.9179 58.7716 50.8598 58.7716 49.5952C60.2522 49.5952 61.6646 49.5952 63.1929 49.5952C63.1143 48.5067 63.0512 47.6337 62.9826 46.6836C60.4515 46.8061 58.0831 46.9207 55.6766 47.0372C55.8954 52.2183 56.1079 57.2495 56.3196 62.2622C57.1399 62.2622 57.7469 62.2622 58.5959 62.249ZM43.6771 50.9615C44.4915 55.2492 45.3058 59.537 46.1484 63.9735C48.5863 63.5207 50.9493 63.0818 53.4106 62.6247C53.2295 61.6399 53.0766 60.8086 52.9081 59.8925C51.3662 60.1487 49.926 60.3879 48.4108 60.6397C48.1962 59.484 48.0027 58.442 47.8017 57.3594C49.1253 57.0801 50.3378 56.8242 51.5901 56.5599C51.402 55.5785 51.2423 54.7451 51.0713 53.8531C49.7584 54.0809 48.5714 54.2869 47.2625 54.514C47.0552 53.3885 46.8572 52.3136 46.652 51.1999C48.2049 50.8858 49.5944 50.6047 51.047 50.3109C50.8678 49.3537 50.7111 48.5173 50.536 47.5818C48.108 48.0292 45.7734 48.4594 43.3554 48.905C43.4576 49.57 43.5477 50.1564 43.6771 50.9615ZM98.2341 22.7058C98.6645 21.8286 99.0949 20.9514 99.5486 20.0267C97.536 19.2842 96.1589 20.2641 94.9844 21.5323C92.3559 24.3704 90.5282 27.6975 89.4484 31.3918C89.1707 32.3417 89.1885 33.4582 89.3929 34.431C89.4888 34.8877 90.3213 35.4442 90.8698 35.5043C92.3174 35.6628 94.7368 33.4922 95.1613 32.0944C96.0989 29.0066 97.1557 25.9546 98.2341 22.7058ZM67.4113 34.2142C67.98 35.7035 68.705 36.0561 70.0714 35.3056C71.7304 34.3944 73.2562 33.3289 73.2422 31.1071C73.2384 30.5134 73.3927 29.9025 73.5654 29.3265C74.5525 26.0325 75.567 22.7466 76.6049 19.3511C75.2467 18.8692 74.0033 19.524 73.0705 20.5599C69.6384 24.3714 67.6191 28.8147 67.4113 34.2142Z" fill="#060419"/>
<path d="M14.5885 42.2928C11.2713 43.299 7.95444 44.3063 4.63656 45.3103C4.07265 45.4809 3.50434 45.6371 2.80573 45.8381C2.96183 44.2776 3.62497 43.0701 4.66871 42.2586C6.36792 40.9375 8.16094 39.6877 10.0611 38.6826C12.5871 37.3465 15.2766 36.32 17.8441 35.0563C18.4826 34.742 19.0788 34.1132 19.4276 33.4827C21.5432 29.6581 23.6965 25.8463 25.6019 21.9173C26.7258 19.5999 27.5376 17.1096 28.2673 14.6322C29.0148 12.0946 27.8109 10.436 25.1391 10.3456C23.3829 10.2862 21.5415 10.4124 19.8608 10.8862C15.0423 12.2446 11.353 15.163 9.02579 19.613C7.52175 22.489 7.46021 25.4138 9.22412 28.2657C10.0229 29.557 11.1302 30.0521 12.6439 29.8559C13.1859 29.7857 13.7656 30.0027 14.328 30.0885C14.0766 30.6478 13.9551 31.3321 13.5528 31.7462C10.6831 34.7007 5.97156 34.8514 3.5629 32.0366C2.05829 30.2783 1.5628 28.1291 1.69932 25.8475C1.8778 22.8645 3.20294 20.3249 5.11938 18.1457C11.1366 11.3035 18.5674 6.8203 27.6886 5.50959C30.5575 5.09732 33.5103 5.26671 36.4244 5.16114C45.3314 4.83846 54.1095 3.79859 62.4827 0.510481C62.5539 0.482534 62.6502 0.518004 62.8212 0.52986C62.6497 4.05803 61.2739 6.95152 58.4102 9.08657C55.3637 11.3579 51.8064 12.345 48.132 12.8976C45.2547 13.3303 42.338 13.4989 39.4474 13.8539C38.9794 13.9114 38.3275 14.2199 38.1465 14.5962C35.672 19.7424 33.2647 24.9206 30.8459 30.0933C30.7796 30.235 30.7696 30.4029 30.6706 30.8285C34.0778 29.5649 37.3018 28.3692 40.889 27.0388C39.2588 29.8935 37.7105 32.3646 36.4133 34.9601C35.536 36.7155 34.437 37.7275 32.4042 38.0681C29.9767 38.4748 27.6143 39.2917 25.2479 40.0098C24.823 40.1387 24.3987 40.5848 24.1709 40.9932C21.4081 45.9447 18.6906 50.9211 15.9431 55.8811C14.6636 58.191 13.4042 60.5158 12.0128 62.7583C11.4876 63.6048 10.7155 64.3862 9.88363 64.9417C7.15534 66.7633 4.06742 67.7693 0.870361 68.6563C5.50359 59.9114 10.0856 51.263 14.7299 42.4799C14.7702 42.2769 14.7483 42.2085 14.7264 42.1401C14.6804 42.191 14.6344 42.2419 14.5885 42.2928Z" fill="#060419"/>
<path d="M61.1439 15.2416C59.4774 15.2329 59.0432 13.7411 59.3817 12.6141C60.1248 10.1407 61.7162 8.38533 64.2247 7.62093C66.0514 7.0643 67.3044 8.30367 66.718 10.1259C65.8586 12.7959 64.1654 14.6954 61.1439 15.2416Z" fill="#060419"/>
<path d="M114.166 35.2841C114.195 35.1101 114.283 34.9832 114.372 34.8563C114.392 34.9964 114.413 35.1364 114.39 35.3482C114.306 35.3904 114.265 35.3608 114.166 35.2841Z" fill="#060419"/>
<path d="M33.9587 56.0688C33.5549 55.3203 33.6016 54.8728 34.4502 54.6632C35.0313 54.5196 35.5802 54.2468 36.298 53.9728C36.6968 55.0125 37.0873 56.0303 37.5184 57.1541C36.5773 57.5232 35.7459 57.8494 34.8249 58.2106C34.5352 57.5027 34.2615 56.834 33.9587 56.0688Z" fill="#060419"/>
<path d="M37.142 63.8997C36.6475 62.9211 36.2498 61.98 35.7966 60.9077C36.7249 60.5356 37.576 60.1945 38.523 59.8149C38.949 60.8942 39.3375 61.8785 39.7805 63.0008C38.8958 63.3268 38.0673 63.6321 37.142 63.8997Z" fill="#060419"/>
<path d="M73.1475 50.447C73.1484 51.4256 73.1484 52.2823 73.1484 53.2312C72.0483 53.2312 71.1258 53.2312 70.0701 53.2312C70.1352 52.0773 70.1948 51.0236 70.2727 49.6432C71.299 49.8867 72.2229 50.106 73.1475 50.447Z" fill="#060419"/>
</svg>