<?xml version="1.0" encoding="utf-8"?>
<svg xmlns="http://www.w3.org/2000/svg" fill="none" height="38" viewBox="0 0 222 38" width="222">
<path d="M208.24 25.045V9.13502C210.86 9.16502 213.46 8.97502 216 9.27502C218.99 9.62502 220.51 11.985 220.14 15.005C219.96 16.475 219.3 17.635 218.04 18.475C214.85 20.605 211.68 22.765 208.5 24.915C208.44 24.955 208.37 24.985 208.24 25.055V25.045Z" fill="#060419"/>
<path d="M195.1 9.09503H205.78C205.79 9.23503 205.82 9.37503 205.82 9.50503C205.82 12.115 205.82 14.735 205.82 17.345C205.82 17.745 205.68 17.965 205.34 18.195C202.26 20.235 199.2 22.315 196.14 24.375C195.82 24.595 195.5 24.815 195.11 25.085V9.09503H195.1Z" fill="#060419"/>
<path d="M193.3 9.11499C191.08 14.415 188.87 19.675 186.61 25.055C184.35 19.675 182.14 14.415 179.92 9.11499H193.31H193.3Z" fill="#060419"/>
<path d="M111.48 9.17502C113.94 9.17502 116.36 9.05502 118.77 9.20502C121.09 9.35502 122.63 10.775 123.03 12.885C123.39 14.795 123.13 16.585 121.55 17.955C120.68 18.705 119.63 19.055 118.51 19.135C117.41 19.225 116.3 19.225 115.19 19.235C114.84 19.235 114.74 19.345 114.74 19.685C114.74 21.225 114.73 22.765 114.72 24.305C114.72 24.425 114.71 24.545 114.7 24.705H111.48V9.16502V9.17502ZM114.75 14.075C114.75 14.725 114.73 15.385 114.76 16.035C114.76 16.175 114.93 16.425 115.02 16.425C116.08 16.405 117.15 16.465 118.18 16.265C119.34 16.035 119.88 15.125 119.78 13.975C119.68 12.745 119.07 12.025 117.86 11.875C116.94 11.765 115.99 11.815 115.06 11.775C114.8 11.775 114.75 11.895 114.75 12.115C114.75 12.765 114.75 13.425 114.75 14.075Z" fill="#060419"/>
<path d="M24.8097 24.745C24.8097 22.605 24.8097 20.515 24.8097 18.435C24.8097 18.035 24.7297 17.635 24.6497 17.245C24.4997 16.465 24.0497 15.945 23.2397 15.825C22.4197 15.705 21.7197 15.965 21.2297 16.655C20.8097 17.245 20.6697 17.935 20.6697 18.645C20.6697 20.495 20.6697 22.345 20.6697 24.195C20.6697 24.365 20.6697 24.535 20.6697 24.745C19.6697 24.745 18.6997 24.745 17.7397 24.725C17.6597 24.725 17.5197 24.495 17.5197 24.375C17.4997 23.615 17.5197 22.855 17.5097 22.085C17.5097 17.855 17.4997 13.625 17.4897 9.39504C17.4897 9.30504 17.4997 9.21504 17.5097 9.10504H20.6597V14.775C20.8997 14.545 21.0497 14.395 21.1997 14.265C22.7997 12.805 25.6497 12.995 27.0097 14.665C27.7197 15.535 27.9397 16.595 27.9597 17.685C27.9897 19.925 27.9697 22.165 27.9797 24.405C27.9797 24.615 27.9497 24.765 27.6797 24.765C26.7397 24.765 25.8097 24.765 24.8097 24.765V24.745Z" fill="#060419"/>
<path d="M54.0597 9.10504C54.0597 9.89504 54.0397 10.635 54.0597 11.385C54.0697 11.755 53.9497 11.865 53.5897 11.865C51.5397 11.855 49.4997 11.865 47.4497 11.865C46.8397 11.865 46.8397 11.865 46.8397 12.465C46.8397 13.505 46.8597 14.545 46.8397 15.585C46.8397 15.965 46.9697 16.065 47.3297 16.065C49.2197 16.065 51.1097 16.085 52.9997 16.065C53.3897 16.065 53.5197 16.175 53.4997 16.565C53.4697 17.215 53.4797 17.875 53.4997 18.525C53.4997 18.855 53.3797 18.955 53.0597 18.945C51.1697 18.945 49.2797 18.955 47.3897 18.945C46.9797 18.945 46.8197 19.025 46.8297 19.475C46.8597 21.195 46.8397 22.925 46.8397 24.695H43.5797V9.10504H54.0597Z" fill="#060419"/>
<path d="M153.7 26.365C154.11 26.395 154.48 26.435 154.85 26.435C156.34 26.415 157.19 25.375 156.79 23.955C156.36 22.465 155.82 21.005 155.32 19.545C154.69 17.725 154.05 15.915 153.41 14.095C153.36 13.935 153.32 13.775 153.27 13.575C154.33 13.575 155.32 13.565 156.32 13.595C156.44 13.595 156.62 13.785 156.66 13.925C157.39 16.425 158.11 18.935 158.83 21.435C158.86 21.555 158.9 21.665 159.03 21.785C159.09 21.585 159.15 21.395 159.2 21.195C159.93 18.775 160.66 16.355 161.4 13.935C161.44 13.795 161.63 13.585 161.75 13.585C162.71 13.555 163.68 13.565 164.7 13.565C164.53 14.065 164.39 14.505 164.23 14.935C163.02 18.305 161.81 21.685 160.59 25.055C160.23 26.055 159.77 26.995 158.99 27.755C158.3 28.435 157.47 28.805 156.53 28.875C155.71 28.935 154.88 28.875 154.06 28.855C153.94 28.855 153.72 28.685 153.71 28.585C153.68 27.845 153.69 27.105 153.69 26.365H153.7Z" fill="#060419"/>
<path d="M127.59 17.115C126.69 17.115 125.82 17.115 124.95 17.115C124.86 17.115 124.77 17.105 124.62 17.095C124.62 16.905 124.62 16.725 124.65 16.555C124.97 14.935 125.96 13.915 127.55 13.465C128.89 13.085 130.24 13.105 131.57 13.485C133.14 13.935 134.16 15.185 134.25 16.825C134.33 18.315 134.32 19.805 134.35 21.305C134.38 22.435 134.43 23.565 134.47 24.725H131.75C131.72 24.345 131.68 23.945 131.64 23.465C131.48 23.585 131.34 23.665 131.24 23.775C129.83 25.235 127.13 25.455 125.45 24.325C123.79 23.215 123.5 19.905 125.89 18.805C127.18 18.215 128.55 18.035 129.93 17.865C130.19 17.835 130.46 17.805 130.72 17.785C131.32 17.745 131.32 17.745 131.27 17.135C131.14 15.715 129.81 14.975 128.5 15.595C128.06 15.805 127.82 16.175 127.69 16.625C127.65 16.775 127.63 16.925 127.59 17.125V17.115ZM130.68 19.655C129.85 19.805 129.01 19.905 128.2 20.115C127.42 20.315 127.12 20.995 127.36 21.765C127.56 22.415 128.09 22.775 128.86 22.805C130.34 22.855 131.23 21.915 131.27 20.285C131.27 19.855 131.2 19.605 130.69 19.665L130.68 19.655Z" fill="#060419"/>
<path d="M40.9997 21.305C40.7397 22.415 40.2097 23.235 39.4097 23.885C37.2597 25.635 33.2697 25.605 31.3897 23.355C30.2397 21.985 29.9197 20.375 30.0097 18.645C30.1097 16.775 30.7697 15.175 32.3697 14.105C35.1497 12.245 40.3197 13.015 40.9997 17.995C41.0597 18.455 41.0797 18.925 41.1497 19.385C41.1997 19.715 41.0797 19.805 40.7797 19.795C39.9097 19.795 39.0297 19.795 38.1597 19.795C36.6297 19.795 35.0997 19.805 33.5697 19.795C33.1897 19.795 33.0697 19.925 33.1197 20.285C33.3297 21.855 34.1997 22.905 35.6497 22.885C36.5297 22.875 37.2997 22.555 37.6597 21.635C37.7097 21.505 37.8797 21.325 37.9997 21.325C38.9597 21.295 39.9297 21.315 40.9897 21.315L40.9997 21.305ZM37.8897 17.815C37.9697 16.875 37.3397 15.905 36.4497 15.585C35.2297 15.155 33.7397 15.465 33.2597 17.305C33.1597 17.675 33.2097 17.845 33.6497 17.845C34.9897 17.845 36.3297 17.855 37.6797 17.865C37.7497 17.865 37.8297 17.835 37.8997 17.825L37.8897 17.815Z" fill="#060419"/>
<path d="M100.85 19.795C100.75 21.305 101.58 22.585 102.86 22.815C104.03 23.025 104.88 22.665 105.36 21.665C105.51 21.345 105.69 21.285 106 21.295C106.73 21.325 107.47 21.315 108.2 21.325C108.35 21.325 108.5 21.345 108.72 21.365C108.53 22.125 108.19 22.755 107.72 23.315C105.69 25.715 100.75 25.845 98.7797 22.935C97.3997 20.905 97.0997 16.715 99.4997 14.585C101.22 13.065 103.23 12.835 105.33 13.545C107.24 14.195 108.28 15.665 108.66 17.595C108.77 18.125 108.78 18.675 108.84 19.215C108.89 19.645 108.75 19.805 108.28 19.795C105.95 19.775 103.62 19.795 101.3 19.795C101.16 19.795 101.02 19.795 100.86 19.795H100.85ZM100.89 17.785C100.89 17.785 100.94 17.835 100.97 17.835C102.47 17.835 103.97 17.855 105.46 17.835C105.54 17.835 105.69 17.635 105.68 17.545C105.54 16.275 104.42 15.335 103.16 15.395C101.89 15.455 100.95 16.445 100.89 17.775V17.785Z" fill="#060419"/>
<path d="M7.56968 11.865H2.69968V9.11499H15.8797C15.8797 9.95499 15.8897 10.795 15.8597 11.625C15.8597 11.715 15.6097 11.855 15.4697 11.865C14.1297 11.885 12.7797 11.865 11.4397 11.865C11.2897 11.865 11.1297 11.865 10.9297 11.865V24.715H7.56968V11.855V11.865Z" fill="#060419"/>
<path d="M55.9997 13.585H59.1197C59.1197 13.805 59.1197 14.005 59.1197 14.195C59.1197 16.065 59.0997 17.925 59.1397 19.795C59.1497 20.385 59.2697 21.015 59.4997 21.555C59.9597 22.625 61.5097 22.865 62.3497 22.045C62.9697 21.435 63.2497 20.665 63.2597 19.815C63.2797 17.905 63.2597 15.985 63.2597 14.075C63.2597 13.925 63.2597 13.775 63.2597 13.585H66.3997V24.705H63.4597V23.425C63.2697 23.605 63.1597 23.695 63.0697 23.795C61.7697 25.095 60.1997 25.315 58.5297 24.775C56.8897 24.235 56.1497 22.905 56.0697 21.305C55.9497 18.775 55.9797 16.235 55.9597 13.705C55.9597 13.675 55.9797 13.645 55.9997 13.595V13.585Z" fill="#060419"/>
<path d="M84.4597 13.595H87.6297C87.6297 13.945 87.6297 14.265 87.6297 14.595C87.6297 17.815 87.6197 21.035 87.6297 24.255C87.6297 24.685 87.4997 24.785 87.0997 24.765C86.4097 24.735 85.7197 24.745 85.0397 24.765C84.7497 24.765 84.6497 24.655 84.6597 24.375C84.6697 24.095 84.6597 23.815 84.6597 23.385C83.6897 24.535 82.5797 25.035 81.2397 25.025C78.9897 25.025 77.3797 23.615 77.2497 21.365C77.1397 19.535 77.1797 17.695 77.1597 15.865C77.1597 15.125 77.1597 14.375 77.1597 13.605H80.3197C80.3197 13.755 80.3197 13.925 80.3197 14.085C80.3197 16.185 80.3197 18.285 80.3197 20.385C80.3197 21.955 81.4997 22.845 82.9797 22.425C83.8897 22.175 84.1497 21.415 84.3397 20.635C84.4297 20.275 84.4397 19.895 84.4397 19.525C84.4397 17.565 84.4397 15.605 84.4397 13.605L84.4597 13.595Z" fill="#060419"/>
<path d="M69.8297 15.875C69.3097 15.875 68.8397 15.885 68.3797 15.865C68.2697 15.865 68.0697 15.725 68.0697 15.635C68.0397 14.955 68.0597 14.275 68.0597 13.565H69.8197V10.595H72.9897V13.535H75.1597C75.1597 14.265 75.1697 14.945 75.1397 15.625C75.1397 15.715 74.9297 15.865 74.7997 15.865C74.3297 15.895 73.8597 15.895 73.3997 15.875C73.1097 15.875 72.9897 15.945 72.9997 16.265C73.0197 17.645 73.0097 19.035 73.0097 20.415C73.0097 20.555 73.0097 20.695 73.0097 20.835C73.0997 22.015 73.6797 22.505 74.8597 22.355C75.1797 22.315 75.2397 22.445 75.2397 22.705C75.2397 23.245 75.2297 23.795 75.2397 24.335C75.2397 24.625 75.1097 24.805 74.8397 24.805C73.9697 24.815 73.0797 24.915 72.2297 24.775C70.7797 24.535 70.0197 23.645 69.9297 22.075C69.8197 20.205 69.8497 18.315 69.8197 16.435C69.8197 16.255 69.8197 16.075 69.8197 15.865L69.8297 15.875Z" fill="#060419"/>
<path d="M144.78 13.555H146.53V10.615H149.72V13.565C150.28 13.565 150.81 13.595 151.33 13.565C151.79 13.535 151.93 13.705 151.9 14.145C151.87 14.565 151.88 14.985 151.9 15.405C151.92 15.765 151.8 15.905 151.42 15.885C150.88 15.855 150.34 15.885 149.74 15.885C149.74 16.395 149.74 16.885 149.74 17.375C149.76 18.635 149.73 19.895 149.82 21.145C149.9 22.105 150.6 22.555 151.56 22.415C151.68 22.395 151.8 22.385 151.98 22.365C151.98 23.115 151.99 23.825 151.97 24.535C151.97 24.635 151.79 24.785 151.68 24.805C150.63 24.995 149.57 25.035 148.53 24.705C147.31 24.325 146.77 23.395 146.66 22.215C146.56 21.135 146.59 20.045 146.57 18.955C146.56 18.085 146.55 17.215 146.57 16.345C146.57 16.025 146.5 15.885 146.16 15.905C145.82 15.925 145.47 15.925 145.13 15.885C145.01 15.875 144.81 15.715 144.81 15.625C144.78 14.965 144.8 14.295 144.8 13.565L144.78 13.555Z" fill="#060419"/>
<path d="M136.62 24.745V13.565C137.52 13.565 138.4 13.565 139.28 13.575C139.35 13.575 139.47 13.785 139.48 13.905C139.51 14.235 139.48 14.575 139.48 14.905C139.72 14.695 139.95 14.535 140.13 14.345C140.97 13.455 142.04 13.305 143.19 13.405C143.49 13.435 143.62 13.595 143.62 13.905C143.61 14.635 143.62 15.365 143.62 16.155C143.27 16.155 142.95 16.155 142.63 16.155C140.87 16.155 139.79 17.195 139.77 18.955C139.75 20.725 139.76 22.495 139.77 24.265C139.77 24.625 139.68 24.755 139.3 24.745C138.41 24.715 137.53 24.745 136.61 24.745H136.62Z" fill="#060419"/>
<path d="M93.1297 24.725H90.0897V13.565C90.9397 13.565 91.7897 13.565 92.6397 13.575C92.7197 13.575 92.8597 13.765 92.8697 13.885C92.8997 14.235 92.8797 14.585 92.8797 15.035C93.0197 14.885 93.1097 14.775 93.1997 14.675C94.1097 13.605 95.2897 13.245 96.6397 13.415C96.7697 13.435 96.9697 13.665 96.9797 13.805C97.0097 14.575 96.9997 15.355 96.9997 16.165C96.6897 16.165 96.4097 16.165 96.1397 16.165C94.3597 16.165 93.2697 17.115 93.1797 18.895C93.0897 20.635 93.1397 22.375 93.1297 24.115C93.1297 24.315 93.1297 24.505 93.1297 24.725Z" fill="#060419"/>
<path d="M170.59 22.305C170.57 23.335 170.27 24.265 169.32 24.795C168.32 25.355 167.24 25.365 166.24 24.755C165.13 24.085 164.92 22.995 165.06 21.825C165.19 20.665 165.93 19.895 167.02 19.585C168.94 19.035 170.61 20.325 170.59 22.295V22.305ZM165.49 22.325C165.49 23.785 166.42 24.775 167.8 24.765C169.21 24.765 170.18 23.775 170.19 22.335C170.19 20.925 169.18 19.885 167.8 19.905C166.39 19.915 165.49 20.855 165.49 22.325Z" fill="#060419"/>
<path d="M169.34 24.035C168.78 24.195 168.53 24.035 168.42 23.585C168.33 23.225 168.27 22.845 167.82 22.715C167.41 22.605 167.29 22.695 167.27 23.125C167.27 23.345 167.29 23.565 167.24 23.775C167.21 23.905 167.02 24.105 166.96 24.095C166.8 24.045 166.56 23.895 166.56 23.775C166.53 22.765 166.53 21.755 166.55 20.755C166.55 20.665 166.73 20.485 166.82 20.495C167.33 20.495 167.85 20.495 168.35 20.595C169.13 20.745 169.37 21.505 168.86 22.115C168.69 22.315 168.69 22.465 168.8 22.695C169 23.125 169.15 23.575 169.34 24.045V24.035ZM167.27 21.555C167.23 21.865 167.31 22.075 167.71 22.065C168.05 22.045 168.38 21.975 168.37 21.595C168.36 21.175 167.96 21.165 167.64 21.125C167.31 21.085 167.25 21.285 167.27 21.565V21.555Z" fill="#060419"/>
</svg>