<?xml version="1.0" encoding="utf-8"?>
<svg xmlns="http://www.w3.org/2000/svg" fill="none" height="42" viewBox="0 0 201 42" width="201">
<g clip-path="url(#clip0_35_2)">
<path d="M53.5213 30.6064V10.462H57.4183V30.6064H53.5213ZM56.3868 22.3538V18.8865H66.5305V22.3538H56.3868ZM56.3868 13.9006V10.462H67.0176V13.9006H56.3868Z" fill="#060419"/>
<path d="M74.7293 30.893C73.5068 30.893 72.4179 30.6351 71.4627 30.1193C70.5266 29.6035 69.7912 28.8872 69.2562 27.9702C68.7214 27.0532 68.4539 25.993 68.4539 24.7895V16.7661H72.2363V24.7035C72.2363 25.2766 72.3319 25.7734 72.5229 26.1936C72.7139 26.5948 73.0004 26.9004 73.3825 27.1106C73.7646 27.3207 74.2135 27.4258 74.7293 27.4258C75.5126 27.4258 76.1238 27.1869 76.5632 26.7094C77.0025 26.2318 77.2223 25.5632 77.2223 24.7035V16.7661H80.9761V24.7895C80.9761 26.0121 80.7086 27.0819 80.1738 27.9989C79.658 28.9158 78.9224 29.6322 77.9673 30.148C77.0312 30.6447 75.9519 30.893 74.7293 30.893Z" fill="#060419"/>
<path d="M85.1402 30.6064V11.0064H88.8939V30.6064H85.1402ZM81.9022 20.0614V16.7661H92.1319V20.0614H81.9022Z" fill="#060419"/>
<path d="M99.2862 30.893C98.0636 30.893 96.9747 30.6351 96.0195 30.1193C95.0835 29.6035 94.348 28.8872 93.8132 27.9702C93.2782 27.0532 93.0108 25.993 93.0108 24.7895V16.7661H96.7932V24.7035C96.7932 25.2766 96.8887 25.7734 97.0797 26.1936C97.2708 26.5948 97.5574 26.9004 97.9394 27.1106C98.3215 27.3207 98.7704 27.4258 99.2862 27.4258C100.069 27.4258 100.681 27.1869 101.12 26.7094C101.559 26.2318 101.779 25.5632 101.779 24.7035V16.7661H105.533V24.7895C105.533 26.0121 105.265 27.0819 104.731 27.9989C104.215 28.9158 103.479 29.6322 102.524 30.148C101.588 30.6447 100.509 30.893 99.2862 30.893Z" fill="#060419"/>
<path d="M107.663 30.6065V16.7661H111.416V30.6065H107.663ZM111.416 22.9556L109.955 21.9813C110.127 20.2811 110.624 18.9439 111.445 17.9696C112.266 16.9763 113.451 16.4796 114.998 16.4796C115.667 16.4796 116.269 16.5942 116.803 16.8234C117.338 17.0336 117.825 17.3869 118.265 17.8836L115.915 20.5772C115.705 20.348 115.447 20.176 115.141 20.0614C114.855 19.9468 114.521 19.8895 114.139 19.8895C113.336 19.8895 112.677 20.1474 112.161 20.6632C111.665 21.1599 111.416 21.924 111.416 22.9556Z" fill="#060419"/>
<path d="M124.952 30.893C123.499 30.893 122.21 30.5874 121.083 29.976C119.955 29.3456 119.058 28.486 118.389 27.3971C117.74 26.3082 117.415 25.0664 117.415 23.6719C117.415 22.2965 117.73 21.0739 118.361 20.0041C119.01 18.9152 119.889 18.0555 120.997 17.4251C122.105 16.7757 123.336 16.4509 124.693 16.4509C126.03 16.4509 127.205 16.7565 128.218 17.3678C129.25 17.96 130.052 18.7815 130.625 19.8322C131.217 20.8637 131.513 22.0386 131.513 23.3567C131.513 23.605 131.494 23.8629 131.456 24.1304C131.437 24.3787 131.389 24.6653 131.313 24.99L119.679 25.0187V22.2105L129.565 22.1819L128.046 23.3567C128.008 22.5353 127.855 21.8476 127.588 21.2936C127.339 20.7395 126.967 20.3193 126.47 20.0327C125.993 19.7271 125.4 19.5743 124.693 19.5743C123.948 19.5743 123.299 19.7462 122.745 20.09C122.19 20.4148 121.761 20.8828 121.456 21.4941C121.169 22.0863 121.025 22.7932 121.025 23.6146C121.025 24.4552 121.179 25.1906 121.484 25.821C121.809 26.4324 122.267 26.9099 122.859 27.2538C123.451 27.5786 124.139 27.7409 124.922 27.7409C125.629 27.7409 126.27 27.6263 126.843 27.3971C127.416 27.1488 127.912 26.7857 128.333 26.3082L130.539 28.5146C129.87 29.2979 129.049 29.89 128.074 30.2912C127.119 30.6924 126.078 30.893 124.952 30.893Z" fill="#060419"/>
<path d="M140.655 30.893C139.662 30.893 138.763 30.6924 137.961 30.2912C137.159 29.871 136.519 29.3074 136.041 28.6006C135.563 27.8938 135.306 27.0819 135.267 26.1649V21.2649C135.306 20.348 135.563 19.536 136.041 18.8293C136.538 18.1033 137.177 17.5302 137.961 17.11C138.763 16.6897 139.662 16.4796 140.655 16.4796C141.934 16.4796 143.08 16.7948 144.093 17.4252C145.105 18.0556 145.898 18.9152 146.471 20.0041C147.064 21.093 147.36 22.3252 147.36 23.7006C147.36 25.057 147.064 26.2796 146.471 27.3684C145.898 28.4573 145.105 29.317 144.093 29.9474C143.08 30.5778 141.934 30.893 140.655 30.893ZM139.995 27.4258C140.683 27.4258 141.294 27.2729 141.829 26.9673C142.365 26.6425 142.775 26.2032 143.062 25.6491C143.367 25.076 143.52 24.417 143.52 23.672C143.52 22.946 143.367 22.3061 143.062 21.7521C142.775 21.179 142.365 20.7396 141.829 20.4339C141.294 20.1091 140.683 19.9468 139.995 19.9468C139.327 19.9468 138.725 20.1091 138.19 20.4339C137.656 20.7396 137.235 21.179 136.929 21.7521C136.643 22.3061 136.499 22.946 136.499 23.672C136.499 24.417 136.643 25.076 136.929 25.6491C137.235 26.2032 137.645 26.6425 138.161 26.9673C138.697 27.2729 139.307 27.4258 139.995 27.4258ZM132.975 36.3948V16.7661H136.728V20.4053L136.098 23.7579L136.7 27.1105V36.3948H132.975Z" fill="#060419"/>
<path d="M155.581 30.893C154.128 30.893 152.839 30.5874 151.712 29.976C150.584 29.3456 149.687 28.486 149.018 27.3971C148.369 26.3082 148.044 25.0664 148.044 23.6719C148.044 22.2965 148.36 21.0739 148.99 20.0041C149.639 18.9152 150.518 18.0555 151.627 17.4251C152.734 16.7757 153.966 16.4509 155.322 16.4509C156.659 16.4509 157.835 16.7565 158.848 17.3678C159.879 17.96 160.681 18.7815 161.255 19.8322C161.846 20.8637 162.142 22.0386 162.142 23.3567C162.142 23.605 162.124 23.8629 162.085 24.1304C162.066 24.3787 162.018 24.6653 161.942 24.99L150.308 25.0187V22.2105L160.194 22.1819L158.676 23.3567C158.637 22.5353 158.484 21.8476 158.217 21.2936C157.968 20.7395 157.596 20.3193 157.099 20.0327C156.622 19.7271 156.029 19.5743 155.322 19.5743C154.577 19.5743 153.928 19.7462 153.374 20.09C152.819 20.4148 152.39 20.8828 152.085 21.4941C151.798 22.0863 151.655 22.7932 151.655 23.6146C151.655 24.4552 151.808 25.1906 152.113 25.821C152.438 26.4324 152.897 26.9099 153.488 27.2538C154.08 27.5786 154.768 27.7409 155.552 27.7409C156.258 27.7409 156.899 27.6263 157.472 27.3971C158.045 27.1488 158.541 26.7857 158.962 26.3082L161.168 28.5146C160.499 29.2979 159.678 29.89 158.704 30.2912C157.748 30.6924 156.707 30.893 155.581 30.893Z" fill="#060419"/>
<path d="M169.45 30.893C168.17 30.893 167.024 30.5778 166.011 29.9474C164.998 29.317 164.196 28.4573 163.604 27.3684C163.031 26.2796 162.745 25.057 162.745 23.7006C162.745 22.3252 163.031 21.093 163.604 20.0041C164.196 18.9152 164.989 18.0556 165.982 17.4252C166.995 16.7948 168.15 16.4796 169.45 16.4796C170.443 16.4796 171.332 16.6801 172.114 17.0813C172.917 17.4825 173.556 18.046 174.035 18.772C174.531 19.4787 174.798 20.2811 174.837 21.179V26.1076C174.798 27.0055 174.541 27.8173 174.063 28.5433C173.586 29.2693 172.946 29.8424 172.143 30.2626C171.341 30.6828 170.443 30.893 169.45 30.893ZM170.08 27.4258C170.787 27.4258 171.398 27.2729 171.914 26.9673C172.449 26.6425 172.859 26.2032 173.146 25.6492C173.452 25.0761 173.604 24.417 173.604 23.672C173.604 22.946 173.452 22.3061 173.146 21.7521C172.859 21.179 172.449 20.7396 171.914 20.4339C171.398 20.1092 170.796 19.9468 170.108 19.9468C169.402 19.9468 168.781 20.1092 168.246 20.4339C167.731 20.7587 167.32 21.198 167.014 21.7521C166.727 22.3061 166.584 22.946 166.584 23.672C166.584 24.417 166.727 25.0761 167.014 25.6492C167.32 26.2032 167.74 26.6425 168.274 26.9673C168.81 27.2729 169.411 27.4258 170.08 27.4258ZM177.129 30.6065H173.404V26.8813L174.005 23.5L173.375 20.1761V9.88892H177.129V30.6065Z" fill="#060419"/>
<path d="M179.59 30.6065V16.7661H183.373V30.6065H179.59Z" fill="#060419"/>
<path d="M191.627 30.893C190.366 30.893 189.229 30.5778 188.217 29.9474C187.204 29.317 186.411 28.4573 185.838 27.3684C185.265 26.2796 184.979 25.057 184.979 23.7006C184.979 22.3252 185.265 21.093 185.838 20.0041C186.411 18.9152 187.204 18.0556 188.217 17.4252C189.229 16.7948 190.366 16.4796 191.627 16.4796C192.62 16.4796 193.508 16.6801 194.292 17.0813C195.074 17.4825 195.696 18.046 196.154 18.772C196.631 19.4787 196.89 20.2811 196.928 21.179V26.1649C196.89 27.0819 196.631 27.8938 196.154 28.6006C195.696 29.3074 195.074 29.871 194.292 30.2912C193.508 30.6924 192.62 30.893 191.627 30.893ZM192.314 27.4258C193.365 27.4258 194.215 27.0819 194.865 26.3942C195.514 25.6874 195.839 24.7799 195.839 23.672C195.839 22.946 195.686 22.3061 195.381 21.7521C195.094 21.179 194.683 20.7396 194.148 20.4339C193.632 20.1091 193.021 19.9468 192.314 19.9468C191.627 19.9468 191.015 20.1091 190.48 20.4339C189.965 20.7396 189.554 21.179 189.249 21.7521C188.962 22.3061 188.818 22.946 188.818 23.672C188.818 24.417 188.962 25.076 189.249 25.6491C189.554 26.2032 189.965 26.6425 190.48 26.9673C191.015 27.2729 191.627 27.4258 192.314 27.4258ZM195.638 30.6065V26.8813L196.241 23.5L195.638 20.176V16.7661H199.363V30.6065H195.638Z" fill="#060419"/>
<path d="M21.3573 41.4678C32.6612 41.4678 41.8249 32.3041 41.8249 21C41.8249 9.69593 32.6612 0.532166 21.3573 0.532166C10.0533 0.532166 0.889679 9.69593 0.889679 21C0.889679 32.3041 10.0533 41.4678 21.3573 41.4678Z" fill="#060419"/>
<path d="M13.8556 24.7121C13.8556 25.1213 14.1873 25.453 14.5965 25.453C17.3242 25.453 19.5354 23.2417 19.5354 20.514V15.5749V10.1422C19.5354 9.7331 19.2037 9.40143 18.7946 9.40143C16.0669 9.40143 13.8556 11.6126 13.8556 14.3403V24.7121Z" fill="white"/>
<path d="M13.8556 14.3404C13.8556 11.6127 16.0669 9.40146 18.7946 9.40146L28.0549 9.40131C29.7597 9.40131 31.1417 10.7833 31.1417 12.4881C31.1417 14.193 29.7597 15.575 28.0549 15.575H19.5354H16.6955H15.0903C14.4084 15.575 13.8556 15.0222 13.8556 14.3404Z" fill="white"/>
<path d="M13.8556 24.2184C13.8556 21.4906 16.0669 19.2794 18.7946 19.2794H23.8569C25.5617 19.2794 26.9437 20.6614 26.9437 22.3662C26.9437 24.0711 25.5617 25.4531 23.8569 25.4531H13.8556V24.2184Z" fill="white"/>
<path d="M13.8556 29.5275C13.8556 31.2323 15.2377 32.6142 16.9425 32.6142C18.6473 32.6142 20.0293 31.2323 20.0293 29.5275C20.0293 27.8227 18.6472 26.4407 16.9424 26.4407H13.8556V29.5275Z" fill="white"/>
<path d="M183.945 12.2281C183.945 13.52 182.898 14.5673 181.605 14.5673C180.314 14.5673 179.266 13.52 179.266 12.2281C179.266 10.9362 180.314 9.88892 181.605 9.88892C182.898 9.88892 183.945 10.9362 183.945 12.2281Z" fill="#060419"/>
<path d="M181.605 14.5673C180.314 14.5673 179.266 13.52 179.266 12.2281V14.5673H181.605Z" fill="#060419"/>
</g>
<defs>
<clipPath id="clip0_35_2">
<rect fill="white" height="40.9357" transform="translate(0.889679 0.532166)" width="200"/>
</clipPath>
</defs>
</svg>