<?xml version="1.0" encoding="utf-8"?>
<svg xmlns="http://www.w3.org/2000/svg" fill="none" height="72" viewBox="0 0 125 72" width="125">
<path d="M21.2693 57.5743C16.201 57.5743 11.1373 57.5649 6.06893 57.5837C5.35219 57.5837 5.04968 57.2878 4.97521 56.588C4.90074 55.8741 5.26377 55.6768 5.86415 55.6205C7.19058 55.5031 7.89335 54.5872 8.38203 53.4741C9.04757 51.9524 9.31286 50.3179 9.31751 48.6694C9.34078 40.4032 9.34544 32.1323 9.31751 23.8661C9.31286 22.3866 9.14531 20.9025 8.7404 19.4606C8.2843 17.8402 7.36743 16.6708 5.67333 16.2903C5.13345 16.1682 4.9659 15.8441 5.02175 15.3275C5.07295 14.8156 5.31031 14.4868 5.84088 14.4727C6.50642 14.4586 7.17661 14.4821 7.84681 14.4821C17.1039 14.4821 26.3609 14.4821 35.618 14.4821C36.9817 14.4821 37.0654 14.5713 37.1771 15.9803C37.4145 18.9393 37.6612 21.8982 37.8985 24.8571C37.9218 25.1671 37.9171 25.4818 37.8985 25.7917C37.866 26.2849 37.6519 26.6372 37.1073 26.6747C36.5954 26.7123 36.2696 26.4587 36.1207 25.9796C35.9205 25.3362 35.7576 24.6739 35.5575 24.0305C34.2171 19.7377 30.5869 16.8164 26.1329 16.4077C23.9501 16.2058 21.7673 16.2434 19.5845 16.3983C18.6723 16.4641 18.3558 16.7553 18.2209 17.6712C18.1836 17.9295 18.1836 18.1925 18.179 18.4508C18.179 23.171 18.1697 27.8912 18.1743 32.6114C18.1743 33.7667 18.435 34.1566 19.5566 34.1002C21.3205 34.011 23.0891 34.3538 24.8483 33.8936C26.3935 33.4896 27.5059 32.7006 27.9852 31.1178C28.1342 30.62 28.2645 30.1926 28.9766 30.3569C29.6421 30.5119 29.819 30.8266 29.8003 31.4982C29.7491 33.5836 29.7771 35.6689 29.7724 37.7589C29.7724 38.022 29.7724 38.2803 29.7724 38.5433C29.7724 39.1257 29.5676 39.586 28.9626 39.7081C28.3576 39.8302 28.055 39.4216 27.8921 38.919C27.5152 37.7542 26.7658 36.9229 25.6582 36.4814C24.8716 36.1715 24.0199 36.0165 23.1682 35.9977C21.9349 35.9695 20.7015 35.9789 19.4635 35.9977C18.5327 36.0118 18.1976 36.3264 18.1929 37.2799C18.179 41.2956 18.1417 45.3112 18.2116 49.3269C18.2395 50.8721 18.6351 52.3845 19.5054 53.6948C20.2035 54.7469 21.1064 55.4655 22.4654 55.5453C24.2666 55.6534 26.0631 55.7191 27.841 55.3763C31.043 54.761 33.2397 52.7132 34.9199 50.0361C36.1625 48.0588 36.9444 45.8795 37.3773 43.5828C37.489 42.977 37.7822 42.6999 38.3639 42.7421C38.9876 42.7891 39.1877 43.2259 39.1551 43.7801C39.0714 45.2361 38.9643 46.6921 38.8573 48.1433C38.6665 50.7171 38.4896 53.2862 38.2662 55.8553C38.1312 57.3911 37.9451 57.5461 36.3859 57.5508C32.2205 57.5602 28.055 57.5508 23.8896 57.5508C23.0146 57.5508 22.1396 57.5508 21.2647 57.5508C21.2647 57.5555 21.2647 57.5649 21.2647 57.5696L21.2693 57.5743Z" fill="#060419"/>
<path d="M116.595 32.926C116.595 37.7495 116.595 42.573 116.595 47.3966C116.595 49.1202 116.721 50.8298 117.093 52.5207C117.266 53.3003 117.591 54.0001 118.057 54.6342C118.48 55.2119 118.978 55.6627 119.765 55.6862C120.295 55.7003 120.798 55.8412 120.775 56.5786C120.752 57.2596 120.333 57.4616 119.77 57.5179C119.49 57.5461 119.206 57.5649 118.922 57.5649C114.45 57.5696 109.977 57.5696 105.505 57.5743C105.146 57.5743 104.783 57.5884 104.443 57.4287C104.071 57.2549 103.922 56.9543 103.927 56.5504C103.932 56.1277 104.113 55.813 104.532 55.7708C106.957 55.5125 107.366 53.5915 107.785 51.7081C108.092 50.332 108.125 48.923 108.12 47.5093C108.102 41.4881 108.125 35.4622 108.083 29.4411C108.069 27.7737 107.864 26.1205 107.138 24.5753C106.673 23.5843 105.928 22.9831 104.914 22.6825C104.453 22.5463 103.899 22.504 103.941 21.7995C103.987 21.0716 104.49 20.879 105.095 20.771C108.716 20.1416 111.699 18.324 114.25 15.7079C114.501 15.4496 114.683 15.1255 114.925 14.8531C115.19 14.5525 115.511 14.3083 115.939 14.4633C116.325 14.6042 116.442 14.9518 116.488 15.3369C116.577 16.0602 116.633 16.7835 116.633 17.5162C116.623 22.6543 116.628 27.7878 116.628 32.926C116.619 32.926 116.614 32.926 116.605 32.926H116.595Z" fill="#060419"/>
<path d="M45.8339 32.8039C47.7096 32.8039 49.5898 32.8039 51.4654 32.8039C51.6935 32.8039 51.9309 32.8133 52.1543 32.8556C52.494 32.926 52.6848 33.1609 52.7174 33.5131C52.7546 33.8794 52.5685 34.0814 52.2427 34.2223C51.0605 34.7249 50.9535 34.955 51.5864 36.0916C52.1031 37.0215 52.7314 37.8857 53.3038 38.7828C53.8902 39.7034 54.4767 40.6239 55.0491 41.5492C55.2679 41.9014 55.4959 42.2114 55.845 41.7182C57.1062 39.9429 58.4559 38.2239 59.424 36.256C59.5497 36.0024 59.6427 35.7253 59.7312 35.4575C59.8987 34.9268 59.7917 34.5417 59.196 34.3867C58.9772 34.3303 58.7585 34.2223 58.5816 34.0814C58.3722 33.917 58.2605 33.6634 58.3117 33.3863C58.3675 33.081 58.6142 32.9871 58.8841 32.9542C61.039 32.7147 63.1985 32.8039 65.3534 32.8603C65.6792 32.8697 65.9584 33.0153 66.0049 33.4051C66.0515 33.7808 65.9351 34.119 65.5675 34.227C62.5376 35.1147 60.9133 37.712 58.926 39.849C58.1348 40.6991 57.5065 41.6995 56.7805 42.6106C56.3849 43.1085 56.3476 43.5828 56.72 44.1042C58.6747 46.8517 60.3129 49.8247 62.3561 52.5113C63.5848 54.1269 64.8926 55.6815 67.0195 56.1465C67.3128 56.2123 67.6618 56.3344 67.6385 56.7336C67.6153 57.1469 67.35 57.3911 66.9404 57.4428C66.5588 57.4898 66.1772 57.5555 65.7909 57.5555C62.2444 57.5696 58.6933 57.5743 55.1469 57.579C54.9421 57.579 54.7326 57.5696 54.5372 57.5273C54.2067 57.4522 53.9926 57.2361 53.9601 56.8792C53.9321 56.5504 54.1043 56.3438 54.3789 56.1982C54.7047 56.0244 55.1887 56.0667 55.2958 55.5876C55.4261 54.9911 55.2306 54.4416 54.9374 53.9437C54.4208 53.0702 53.8763 52.2201 53.3224 51.37C52.629 50.3038 51.9262 49.2423 51.2048 48.1997C50.7161 47.4952 50.4881 47.4717 49.9715 48.1011C48.3751 50.0549 46.9416 52.1167 45.7781 54.3665C45.2149 55.4514 45.3639 55.7849 46.4809 56.2169C46.7275 56.3109 46.9975 56.3954 46.9928 56.7195C46.9882 57.0295 46.8113 57.2831 46.5274 57.3864C46.2435 57.4898 45.927 57.5602 45.6292 57.5602C43.9583 57.579 42.2875 57.5743 40.6167 57.5696C40.3886 57.5696 40.1559 57.5226 39.9278 57.4851C39.5322 57.4193 39.2577 57.1986 39.2204 56.7759C39.1832 56.3297 39.4671 56.0667 39.8487 56.015C42.1572 55.6956 43.4371 53.9203 44.8566 52.3704C46.5414 50.5339 47.8585 48.3969 49.3944 46.4431C49.6829 46.0768 49.655 45.7527 49.4176 45.377C47.6723 42.6106 45.8479 39.8959 43.8373 37.3221C42.7762 35.9601 41.6266 34.6074 39.751 34.3256C39.2949 34.2599 39.0901 33.9734 39.1273 33.499C39.1692 32.9448 39.5229 32.8274 39.9837 32.8274C41.9384 32.8274 43.8932 32.8274 45.8479 32.8274V32.8133L45.8339 32.8039Z" fill="#060419"/>
<path d="M84.6306 44.804C84.5701 42.6951 85.0867 40.3092 86.2456 38.1675C87.1951 36.411 88.5773 34.9456 90.3459 33.917C93.7295 31.9491 97.2573 31.6062 100.86 33.0951C102.935 33.9546 104.643 35.3401 105.216 37.726C105.858 40.3985 104.615 42.8689 102.046 43.9398C100.664 44.5175 99.226 44.912 97.7646 45.2314C96.5312 45.5038 95.3165 45.8419 94.26 46.5887C92.5706 47.7817 92.4077 49.1907 93.79 50.7218C95.9867 53.1547 98.6861 53.9484 101.837 53.2251C102.847 52.995 103.647 52.3844 104.397 51.694C104.606 51.5015 104.792 51.2807 105.016 51.1116C105.281 50.9097 105.602 50.8627 105.881 51.06C106.203 51.2901 106.105 51.6095 105.961 51.9054C105.5 52.8259 104.82 53.5774 104.094 54.2819C99.5378 58.7156 92.9848 58.2741 88.5354 54.4087C85.743 51.9805 84.6027 48.8337 84.6213 44.8087L84.6306 44.804ZM91.1557 42.4415C91.2721 43.6674 91.3233 44.865 91.556 46.0439C91.677 46.6639 91.9795 46.7437 92.3658 46.3022C93.3478 45.1844 94.6324 44.541 95.8797 43.813C98.1741 42.4697 100.022 40.7413 100.431 37.8716C100.808 35.2415 98.8397 33.3158 96.266 33.856C95.0047 34.119 94.004 34.8141 93.1803 35.7957C91.5513 37.726 91.3931 40.1073 91.1557 42.4462V42.4415Z" fill="#060419"/>
<path d="M69.542 42.2349C69.6025 44.8228 69.7841 47.2181 71.1244 49.3175C72.9396 52.159 75.4016 53.6948 78.8829 53.3567C80.5165 53.197 81.8615 52.6662 82.932 51.4122C83.0809 51.2384 83.2764 51.0975 83.4672 50.966C83.7651 50.7641 84.0676 50.8392 84.3236 51.0506C84.5749 51.2572 84.4818 51.5296 84.3654 51.7645C84.2026 52.0885 84.0397 52.422 83.8256 52.7085C81.6521 55.6205 78.7339 57.2408 75.1735 57.5038C73.3677 57.6353 71.6224 57.0623 69.9423 56.3578C66.4238 54.8831 64.1712 52.2388 63.3474 48.5378C62.2583 43.658 63.0914 39.121 66.6472 35.4247C68.3785 33.6211 70.6125 32.6348 73.0885 32.3483C75.2294 32.0994 77.3191 32.2638 79.3623 33.1045C82.3642 34.3397 84.2305 37.5992 83.4579 40.5628C83.1507 41.7464 82.4107 42.6106 81.1913 42.8877C80.079 43.1413 79.1156 42.6576 78.4407 41.845C77.6588 40.9057 77.6868 39.7221 78.0312 38.5761C78.2639 37.8059 78.6316 37.0826 78.6223 36.2466C78.6083 35.1335 77.8217 34.1518 76.7234 33.9405C73.8657 33.391 71.5992 34.7389 70.3426 37.7401C69.7189 39.2337 69.6305 40.8165 69.5467 42.2302L69.542 42.2349Z" fill="#060419"/>
<path d="M39.8907 22.3772C39.8907 20.4234 39.8767 18.4696 39.9 16.5111C39.9046 16.0273 39.7697 15.4073 40.5143 15.2711C41.3753 15.1161 41.7756 15.3322 42.0921 16.1353C42.3899 16.8915 42.4644 16.915 42.9996 16.2387C43.5488 15.5482 44.1585 14.9893 45.0661 14.8531C46.3227 14.6653 47.3978 14.9001 48.175 16.0508C48.8732 17.0794 48.9011 17.0559 49.7528 16.1776C50.3857 15.5248 51.0187 14.8954 52.0054 14.8062C54.379 14.5948 55.7799 15.8911 55.8171 18.4931C55.8637 21.4896 55.8357 24.4861 55.8404 27.4873C55.8404 27.7456 55.8404 28.0086 55.8311 28.2669C55.8171 29.1969 55.6263 29.3988 54.7746 29.4176C53.867 29.4364 53.6204 29.225 53.6157 28.281C53.5971 25.416 53.6064 22.5463 53.6064 19.6813C53.6064 19.207 53.5878 18.742 53.4342 18.2911C53.0386 17.1029 51.8844 16.6661 50.9163 17.4363C49.7947 18.3287 48.9988 19.4418 49.0174 21.0058C49.0407 23.171 49.0221 25.3315 49.0174 27.4966C49.0174 27.8066 49.0174 28.126 48.9755 28.4313C48.8545 29.3284 48.6451 29.4364 47.584 29.4176C46.7648 29.4035 46.6904 28.8963 46.695 28.2669C46.6997 25.5804 46.7043 22.8986 46.695 20.2121C46.695 19.6391 46.709 19.0567 46.5973 18.4978C46.318 17.1029 44.959 16.5909 43.8932 17.5021C42.8135 18.4226 42.1247 19.6156 42.106 21.0857C42.0735 23.4575 42.106 25.8293 42.0967 28.2012C42.0967 29.2955 41.892 29.4552 40.8169 29.4082C40.142 29.38 39.8581 29.0888 39.8674 28.389C39.8907 26.3835 39.8767 24.3733 39.8767 22.3679L39.8907 22.3772Z" fill="#060419"/>
<path d="M79.1435 14.8015C81.4333 14.731 83.4206 15.4167 85.2264 16.6707C85.9339 17.1592 86.013 17.6101 85.5615 18.3099C85.1799 18.9017 84.7657 18.9956 84.0536 18.4978C82.043 17.0934 79.8509 16.6426 77.4587 17.0465C76.2114 17.2578 75.5133 17.8543 75.3643 18.8641C75.2899 19.376 75.4574 19.7048 75.8623 19.9866C76.8769 20.6958 78.0777 20.8273 79.2273 21.0152C80.6468 21.25 82.0523 21.5506 83.4625 21.8371C85.1613 22.1847 86.3481 23.4293 86.5203 24.9369C86.6925 26.4681 85.6918 28.2105 84.1746 28.9197C80.8236 30.4837 77.5332 30.1456 74.2985 28.544C73.8145 28.3045 73.3491 28.018 72.9209 27.6939C72.3531 27.2618 72.409 26.9424 72.9861 26.0923C73.3537 25.5475 73.6982 25.4207 74.238 25.8481C76.0811 27.3135 78.208 27.8818 80.5165 27.7784C81.545 27.7315 82.5643 27.5718 83.4718 27.0035C84.4864 26.3694 84.4957 24.9322 83.4904 24.2794C82.8202 23.8426 82.0384 23.7815 81.2844 23.6359C79.5717 23.3025 77.8357 23.0536 76.1602 22.5463C75.746 22.4195 75.3364 22.2457 74.9501 22.0485C73.7819 21.4567 73.0838 20.5408 73.0652 19.1553C73.0466 17.6946 73.6283 16.5862 74.871 15.8582C76.216 15.0692 77.6774 14.7216 79.1528 14.8015H79.1435Z" fill="#060419"/>
<path d="M95.2329 14.8108C97.4436 14.7545 99.4402 15.3885 101.213 16.7318C101.916 17.2625 101.991 17.6664 101.507 18.3756C101.106 18.9627 100.683 19.0379 99.9987 18.54C97.9881 17.0746 95.7727 16.5486 93.3526 17.0652C92.5335 17.239 91.6957 17.5114 91.3281 18.4414C91.0721 19.0895 91.2117 19.6015 91.7702 20.0195C92.352 20.4516 93.0315 20.5878 93.7063 20.7428C95.5866 21.1702 97.5274 21.2735 99.3844 21.8324C100.176 22.0719 100.981 22.3021 101.553 22.9408C103.187 24.7678 102.61 27.6422 100.352 28.8352C98.1417 30.0046 95.8007 30.1972 93.3852 29.6618C91.84 29.3189 90.3646 28.8164 89.0755 27.8583C88.4146 27.3651 88.3634 26.825 88.8753 26.1252C89.3268 25.5052 89.7782 25.4207 90.4577 25.9561C92.6591 27.6939 95.1537 28.0461 97.8299 27.6422C98.5699 27.5295 99.2028 27.1866 99.7753 26.7545C100.608 26.1252 100.287 24.5659 99.2215 24.1291C98.0952 23.6641 96.8758 23.5608 95.6936 23.3259C94.209 23.03 92.6964 22.8657 91.2908 22.2222C89.8387 21.5553 89.001 20.5126 89.0941 18.8171C89.1872 17.1545 90.1319 16.1306 91.5468 15.5247C92.7103 15.0269 93.9437 14.731 95.2329 14.8249V14.8108Z" fill="#060419"/>
<path d="M64.2456 15.257C65.7116 15.257 67.1777 15.2711 68.6391 15.2523C69.3558 15.2429 69.5745 15.6046 69.5838 16.2668C69.5932 16.9713 69.3046 17.2578 68.6111 17.2249C67.9177 17.1921 67.2242 17.1968 66.5307 17.2343C65.6046 17.2813 65.2276 17.6711 65.2229 18.6058C65.209 21.1326 65.2183 23.6547 65.2136 26.1815C65.2136 26.8954 65.5348 27.2712 66.2561 27.3698C67.052 27.4825 67.8479 27.4543 68.6437 27.4637C69.2813 27.4684 69.5792 27.7221 69.5838 28.3937C69.5838 29.0277 69.3698 29.4223 68.7135 29.4035C66.7123 29.3424 64.7156 29.6477 62.705 29.4645C61.6858 29.3753 60.6479 29.4035 59.624 29.427C58.8887 29.441 58.6048 29.0747 58.5861 28.3843C58.5675 27.6751 58.9259 27.4262 59.6007 27.4543C60.3175 27.4872 61.0435 27.4825 61.7603 27.4309C62.733 27.3604 63.0401 27.0222 63.0401 26.0453C63.0495 23.5702 63.0262 21.0903 63.0401 18.6152C63.0448 17.8167 62.7004 17.441 61.9325 17.3048C61.2623 17.1874 60.5967 17.2672 59.9358 17.1921C59.0655 17.0887 58.7351 16.6378 58.9305 15.9005C59.0702 15.3556 59.4565 15.257 59.9312 15.257C61.3693 15.257 62.8121 15.257 64.2502 15.257V15.2476L64.2456 15.257Z" fill="#060419"/>
</svg>