<?xml version="1.0" encoding="utf-8"?>
<svg xmlns="http://www.w3.org/2000/svg" fill="none" height="38" viewBox="0 0 163 38" width="163">
<g clip-path="url(#clip0_24_102)">
<path d="M102.57 15.6195C100.348 14.4455 97.2093 14.7804 95.4456 16.4447C93.4168 18.3583 93.0104 20.7447 93.8372 23.2916C94.6676 25.8473 96.651 27.0318 99.2625 27.2062C101.316 27.344 103.198 26.8224 104.96 25.6153C104.548 24.8843 104.168 24.2075 103.791 23.5359C99.9777 25.3553 97.0086 24.7884 96.6702 22.1961H105.277C105.277 22.1961 105.394 21.9118 105.431 21.6152C105.745 19.0962 104.621 16.7028 102.57 15.6195ZM96.6632 19.8777C96.8447 18.4386 98.0728 17.4442 99.6323 17.4512C101.124 17.4582 102.268 18.4473 102.413 19.8777H96.6615H96.6632Z" fill="#060419"/>
<path d="M73.593 14.9286C69.968 14.9356 67.3007 17.5331 67.2938 21.0621C67.2885 24.6417 69.961 27.2759 73.6017 27.2776C77.2023 27.2776 79.8887 24.5964 79.873 21.0168C79.8591 17.561 77.136 14.9216 73.593 14.9286ZM73.6 24.4603C71.7596 24.483 70.3204 22.9688 70.3413 21.029C70.3605 19.1886 71.791 17.7476 73.5947 17.7511C75.3758 17.7546 76.8272 19.2374 76.8342 21.0586C76.8394 22.9391 75.4177 24.4359 73.6017 24.4586L73.6 24.4603Z" fill="#060419"/>
<path d="M140.844 14.9287C137.217 14.913 134.522 17.5035 134.503 21.0203C134.484 24.6139 137.132 27.2602 140.767 27.2777C144.38 27.2951 147.058 24.6575 147.082 21.0587C147.107 17.6169 144.385 14.9444 140.844 14.9287ZM140.745 24.4604C138.92 24.4325 137.533 22.9514 137.547 21.0447C137.563 19.2026 138.985 17.7564 140.787 17.7529C142.597 17.7494 144.063 19.2671 144.038 21.1232C144.014 23.0003 142.545 24.49 140.745 24.4621V24.4604Z" fill="#060419"/>
<path d="M156.676 15.1969C154.852 14.5218 152.922 15.0068 151.619 16.418C151.549 16.4948 151.453 16.5489 151.335 16.6396C151.31 16.1372 151.291 15.715 151.27 15.2789H148.408V26.9196H151.401C151.401 26.5638 151.401 26.2602 151.401 25.9567C151.41 24.0343 151.37 22.1102 151.446 20.1913C151.506 18.6893 152.671 17.6932 154.147 17.7264C155.535 17.7578 156.43 18.691 156.519 20.214C156.538 20.521 156.542 20.828 156.542 21.1368C156.542 22.8027 156.542 24.4687 156.542 26.1346V26.9162H159.579C159.579 24.3239 159.651 21.7857 159.556 19.2545C159.483 17.3408 158.55 15.8877 156.676 15.1952V15.1969Z" fill="#060419"/>
<path d="M89.4378 15.1969C87.6131 14.5218 85.684 15.0068 84.3809 16.418C84.3111 16.4948 84.2152 16.5489 84.0966 16.6396C84.0721 16.1372 84.053 15.715 84.032 15.2789H81.1694V26.9196H84.1629C84.1629 26.5638 84.1629 26.2602 84.1629 25.9567C84.1716 24.0343 84.1315 22.1102 84.2082 20.1913C84.2675 18.6893 85.4328 17.6932 86.9069 17.7264C88.2952 17.7578 89.1901 18.691 89.2808 20.214C89.2983 20.521 89.3035 20.828 89.3035 21.1368C89.3035 22.8027 89.3035 24.4687 89.3035 26.1346V26.9162H92.3406C92.3406 24.3239 92.4121 21.7857 92.3179 19.2545C92.2447 17.3408 91.3114 15.8877 89.4378 15.1952V15.1969Z" fill="#060419"/>
<path d="M121.855 11.1041H118.743V26.9263H129.044V23.877H121.855V11.1041Z" fill="#060419"/>
<path d="M133.239 15.2914H130.276V26.9322H133.239V15.2914Z" fill="#060419"/>
<path d="M131.775 10.2029C130.688 10.2099 129.864 11.0438 129.899 12.1044C129.932 13.1476 130.745 13.9186 131.799 13.9029C132.861 13.889 133.62 13.1109 133.618 12.0398C133.618 10.9827 132.828 10.1959 131.775 10.2029Z" fill="#060419"/>
<path d="M57.703 19.4908L51.8539 11.0547H49.4029V26.8524H52.4365V17.5301L57.703 25.1272L62.9695 17.5301V26.8524H66.0031V11.0547H63.5504L57.703 19.4908Z" fill="#060419"/>
<path d="M111.712 22.8501C111.712 22.8501 109.806 18.093 108.675 15.2932H105.179C106.434 18.1314 109.605 25.2732 109.896 25.9343C110.045 26.271 110.195 26.6199 110.198 26.9862C110.2 27.3526 110.053 27.7067 109.846 28.0085C109.089 29.1145 107.459 29.5105 106.28 28.8755C106.109 29.7058 105.94 30.5345 105.769 31.3648C106.983 32.0382 108.511 32.1917 109.778 31.623C110.713 31.2026 111.453 30.428 111.999 29.5593C112.545 28.6906 112.916 27.7259 113.281 26.7682C114.446 23.7259 116.798 17.615 117.692 15.2932H114.301L111.714 22.8501H111.712Z" fill="#060419"/>
<path d="M159.914 10.2182C158.857 10.2182 158.014 11.0381 158.014 12.0621C158.014 13.0861 158.857 13.9287 159.914 13.9287C160.971 13.9287 161.803 13.1088 161.803 12.0621C161.803 11.0154 160.983 10.2182 159.914 10.2182ZM159.926 13.5344C159.094 13.5344 158.487 12.882 158.487 12.0621C158.487 11.2422 159.094 10.5898 159.915 10.5898C160.737 10.5898 161.332 11.2527 161.332 12.0743C161.332 12.896 160.735 13.5362 159.926 13.5362V13.5344Z" fill="#060419"/>
<path d="M160.263 12.2267C160.356 12.19 160.436 12.1394 160.495 12.0644C160.57 11.9685 160.609 11.8516 160.609 11.7155C160.609 11.6353 160.595 11.5603 160.567 11.4905C160.539 11.4207 160.499 11.3597 160.448 11.3073C160.398 11.255 160.335 11.2131 160.26 11.1835C160.187 11.1538 160.103 11.1399 160.014 11.1399H159.292V13.0047H159.653V12.2877H159.836C159.846 12.2877 159.853 12.2877 159.864 12.2877L160.246 13.0047H160.652L160.232 12.2389C160.242 12.2336 160.251 12.2284 160.262 12.2249L160.263 12.2267ZM159.96 11.9685H159.654V11.4643H159.96C160.049 11.4643 160.118 11.487 160.171 11.5341C160.221 11.5795 160.248 11.6405 160.248 11.719C160.248 11.7975 160.223 11.8551 160.171 11.9004C160.12 11.9458 160.049 11.9702 159.96 11.9702V11.9685Z" fill="#060419"/>
<path clip-rule="evenodd" d="M34.772 13.9126C34.4754 13.4172 34.1981 12.9514 34.0376 12.5677C33.8631 12.1473 33.7183 11.5977 33.5648 11.0168C33.1793 9.5515 32.7013 7.73026 31.2726 6.30853C29.8439 4.8868 28.014 4.40882 26.5451 4.02678C25.9607 3.87327 25.4077 3.73023 24.9856 3.55578C24.6001 3.39704 24.1325 3.11967 23.6354 2.8266C22.3166 2.04683 20.6733 1.07516 18.5834 1.07516C16.4936 1.07516 14.8503 2.04683 13.5297 2.8266C13.0343 3.11967 12.5651 3.39704 12.1795 3.55578C11.7574 3.73023 11.2061 3.87327 10.6217 4.02678C9.15116 4.41056 7.32122 4.8868 5.89252 6.30853C4.46381 7.73026 3.98583 9.5515 3.6003 11.0168C3.44853 11.5977 3.30374 12.149 3.12755 12.5694C2.96881 12.9514 2.69144 13.4172 2.39663 13.9109C1.61162 15.2262 0.636475 16.8608 0.636475 18.9437C0.636475 21.0265 1.61162 22.6593 2.39488 23.9729C2.68969 24.4666 2.96881 24.9341 3.12755 25.3161C3.30374 25.7366 3.44679 26.2878 3.6003 26.8687C3.98583 28.3323 4.46381 30.1535 5.89252 31.5753C7.32122 32.997 9.15116 33.4732 10.62 33.857C11.2079 34.0105 11.7591 34.1536 12.1795 34.328C12.5651 34.4868 13.0326 34.7641 13.5297 35.0572C14.8486 35.837 16.4918 36.8086 18.5834 36.8086C20.675 36.8086 22.3166 35.837 23.6371 35.0572C24.136 34.7624 24.6035 34.485 24.9856 34.328C25.4077 34.1536 25.959 34.0105 26.5416 33.8587C28.0157 33.475 29.8456 32.9987 31.2743 31.5753C32.7031 30.1535 33.1828 28.3323 33.5666 26.8687C33.7201 26.2861 33.8649 25.7366 34.0393 25.3161C34.1998 24.9324 34.4772 24.4666 34.772 23.9729C35.5552 22.6593 36.5304 21.0248 36.5304 18.9419C36.5304 16.859 35.5552 15.2262 34.7737 13.9126H34.772ZM33.5073 23.2245C33.1863 23.7653 32.881 24.2765 32.6804 24.7562C32.4658 25.269 32.3088 25.8657 32.1448 26.4989C31.7872 27.8578 31.3825 29.3999 30.2346 30.5425C29.0885 31.6852 27.5395 32.0881 26.1736 32.444C25.5386 32.6097 24.9402 32.765 24.4239 32.9778C23.9424 33.1767 23.4295 33.4802 22.887 33.8012C21.6624 34.5251 20.2721 35.3468 18.5852 35.3468C16.8983 35.3468 15.508 34.5251 14.2816 33.8012C13.7391 33.4802 13.2262 33.1767 12.7447 32.9778C12.2284 32.765 11.63 32.608 10.995 32.444C9.62914 32.0881 8.08006 31.6852 6.93396 30.5425C5.7861 29.3999 5.38139 27.8596 5.02378 26.4989C4.85805 25.8674 4.70105 25.269 4.48648 24.7562C4.28762 24.2765 3.98234 23.7653 3.65961 23.2263C2.93217 22.0052 2.10705 20.6236 2.10705 18.9437C2.10705 17.2637 2.93217 15.8804 3.65961 14.661C3.98234 14.122 4.28762 13.6109 4.48648 13.1311C4.70105 12.6165 4.85805 12.0199 5.02378 11.3884C5.38139 10.0295 5.7861 8.48736 6.93396 7.34474C8.08181 6.20387 9.62914 5.79915 10.995 5.44328C11.63 5.27756 12.2301 5.1223 12.7447 4.90948C13.2262 4.71061 13.7391 4.40708 14.2833 4.0861C15.508 3.36215 16.8983 2.54051 18.5852 2.54051C20.2721 2.54051 21.6624 3.36215 22.887 4.0861C23.4295 4.40708 23.9424 4.71061 24.4239 4.90948C24.9402 5.1223 25.5386 5.2793 26.1736 5.44503C27.5395 5.8009 29.0885 6.20387 30.2346 7.34648C31.3808 8.48736 31.7872 10.0295 32.1448 11.3902C32.3106 12.0217 32.4676 12.6183 32.6821 13.1329C32.8827 13.6126 33.188 14.1237 33.509 14.6628C34.2364 15.8839 35.0616 17.2655 35.0616 18.9454C35.0616 20.6253 34.2364 22.0087 33.509 23.228L33.5073 23.2245Z" fill="#060419" fill-rule="evenodd"/>
<path clip-rule="evenodd" d="M15.2576 12.8956C16.4333 12.8276 17.6195 12.7351 18.7814 12.92C18.9732 12.9514 19.1634 12.9898 19.3535 13.0369C20.3147 13.2794 21.2236 13.7504 21.8394 14.5127C22.4116 15.2192 22.7168 16.1473 23.4321 16.709C23.9223 17.0945 24.559 17.2602 25.1835 17.2847C25.808 17.3091 26.429 17.2062 27.0448 17.1015C27.1774 17.0788 27.3205 17.0509 27.4059 16.948C27.5106 16.8224 27.4844 16.6357 27.4356 16.4805C27.064 15.3012 25.7138 14.6052 25.419 13.405C25.3684 13.1992 25.3719 12.9427 25.5464 12.8241C25.6859 12.7299 25.8534 12.77 26.0261 12.8084C26.136 12.8346 26.2494 12.859 26.3575 12.8485C26.6785 12.8189 26.8896 12.456 26.8495 12.1368C26.8093 11.8175 26.5843 11.5524 26.3331 11.3483C25.8185 10.9314 25.1748 10.7081 24.5311 10.5511C23.2611 10.2406 21.9475 10.1603 20.6375 10.1603C20.4735 10.1603 20.3078 10.1603 20.142 10.1638C17.4311 10.2004 14.7185 10.4935 12.0826 11.1285C11.5558 11.2558 10.2963 11.7321 11.0674 12.4176C11.254 12.5834 11.5 12.6619 11.7407 12.7212C12.8833 13.0038 14.0783 12.9619 15.2541 12.8956H15.2576Z" fill="#060419" fill-rule="evenodd"/>
<path clip-rule="evenodd" d="M21.0191 17.5751C21.033 17.5211 21.0365 17.467 21.033 17.4129C21.0261 17.3082 20.9947 17.2036 20.9633 17.1041C20.7888 16.5529 20.5865 15.9633 20.1137 15.6266C19.7073 15.3388 19.1787 15.2969 18.678 15.2864C18.5646 15.2847 18.4513 15.2829 18.3396 15.2829C17.2423 15.2829 16.1451 15.3893 15.0688 15.6004C14.4006 15.7313 13.6139 15.9301 13.1516 16.4709C12.7382 16.9541 12.5445 17.9205 12.9894 18.4421C13.2179 18.7073 13.5703 18.8242 13.9087 18.9166C15.0688 19.2341 16.2794 19.4173 17.4761 19.2987C18.6728 19.18 19.859 18.7439 20.7539 17.9432C20.8673 17.8403 20.9825 17.7252 21.0208 17.5769L21.0191 17.5751Z" fill="#060419" fill-rule="evenodd"/>
<path clip-rule="evenodd" d="M24.5615 22.63C25.0046 22.3841 25.2611 22.016 25.2384 21.4891C25.2262 21.1821 25.2175 20.8716 25.2105 20.5628C25.1983 20.029 24.907 19.7063 24.4237 19.5354C24.0173 19.3906 23.6091 19.251 23.1991 19.1167C22.9881 19.0469 22.7787 19.0138 22.5729 19.0138C22.2641 19.0138 21.9623 19.0888 21.6658 19.2318C21.1075 19.5022 20.5493 19.7674 20.0033 20.0587C19.78 20.1773 19.5742 20.3413 19.3857 20.514C19.2061 20.6762 19.1328 20.9013 19.1415 21.1507C19.1485 21.3287 19.1415 21.5066 19.1415 21.6741C19.1311 21.8625 19.1241 22.0386 19.1119 22.2166C19.0962 22.4556 19.1782 22.6649 19.3718 22.7905C19.5689 22.9179 19.7887 23.026 20.0138 23.094C20.5336 23.251 21.0622 23.3871 21.5925 23.511C21.8228 23.565 22.0652 23.5842 22.3025 23.586C22.6374 23.586 22.9497 23.4848 23.2445 23.3295C23.6841 23.0975 24.1289 22.8725 24.5633 22.6318L24.5615 22.63Z" fill="#060419" fill-rule="evenodd"/>
<path clip-rule="evenodd" d="M27.5788 24.0738C27.366 23.9203 27.1532 23.765 26.9473 23.6028C26.7694 23.4633 26.5862 23.4005 26.4013 23.4005C26.2408 23.4005 26.0786 23.4476 25.9163 23.5348C25.3529 23.8348 24.7964 24.1471 24.2469 24.4715C23.8998 24.6774 23.6381 24.9722 23.5247 25.3717C23.3939 25.8305 23.2683 26.291 23.1462 26.7516C23.0397 27.1528 23.181 27.4563 23.5526 27.6499C23.9277 27.8453 24.294 28.0547 24.6726 28.2413C24.833 28.3198 25.0145 28.3582 25.1854 28.414C25.4419 28.3826 25.6704 28.3163 25.8832 28.1995C26.2827 27.9814 26.6804 27.7598 27.0782 27.5383C27.4741 27.3168 27.6957 26.9696 27.7707 26.5317C27.8527 26.0573 27.926 25.581 27.9853 25.103C28.0359 24.6948 27.9399 24.3302 27.5806 24.0738H27.5788Z" fill="#060419" fill-rule="evenodd"/>
<path clip-rule="evenodd" d="M28.5612 18.8338C28.4949 18.7815 28.4181 18.7327 28.3362 18.7327C28.3274 18.7327 28.317 18.7327 28.3082 18.7327C28.2437 18.7414 28.1879 18.7815 28.1373 18.8234C27.2197 19.5805 27.1639 21.2656 27.7762 22.2425C27.989 22.5809 28.303 22.8426 28.631 23.0711C28.6903 23.113 28.7531 23.1531 28.8229 23.1618C28.8926 23.1706 28.9642 23.1496 29.027 23.12C29.3654 22.963 29.5782 22.6088 29.6532 22.246C29.6724 22.1553 29.6829 22.0628 29.6881 21.9704C29.7038 21.6948 29.6672 21.4122 29.6253 21.1365C29.491 20.28 29.2502 19.3624 28.5612 18.8304V18.8338Z" fill="#060419" fill-rule="evenodd"/>
</g>
<defs>
<clipPath id="clip0_24_102">
<rect fill="white" height="36.6336" transform="translate(0.101562 0.625793)" width="162.234"/>
</clipPath>
</defs>
</svg>