<?xml version="1.0" encoding="utf-8"?>
<svg xmlns="http://www.w3.org/2000/svg" fill="none" height="80" viewBox="0 0 110 80" width="110">
<path d="M34.5621 26.6156C34.5621 23.7138 34.5498 20.8121 34.5649 17.9104C34.5978 11.3183 38.5666 5.61704 44.7112 3.32991C46.2968 2.74017 47.94 2.39213 49.6341 2.38246C52.9658 2.36313 56.299 2.32308 59.6294 2.38799C67.2649 2.53577 73.6264 8.34337 74.5503 15.9575C74.6437 16.7254 74.6917 17.5043 74.6931 18.2791C74.7041 23.9321 74.7137 29.5864 74.6931 35.2393C74.6807 38.8053 73.7074 42.0786 71.4807 44.8947C68.4826 48.6872 64.5042 50.6139 59.7296 50.77C56.3333 50.8805 52.9301 50.8487 49.5325 50.7796C43.1531 50.6484 37.6495 46.6763 35.497 40.7292C34.8559 38.9586 34.5731 37.1204 34.5663 35.2393C34.5566 32.3652 34.5635 29.4897 34.5635 26.6156H34.5621ZM71.2982 26.6432C71.3078 26.6432 71.3188 26.6432 71.3284 26.6432C71.3284 23.8506 71.3366 21.0566 71.3229 18.264C71.3187 17.5844 71.2927 16.898 71.1856 16.2296C70.2411 10.3626 65.656 6.19297 59.7392 5.97475C56.3045 5.84769 52.856 5.84217 49.4213 5.98028C42.9293 6.24269 37.9969 11.4274 37.9461 17.9601C37.9008 23.7235 37.9282 29.4855 37.9406 35.249C37.9447 37.485 38.4458 39.6078 39.6305 41.5165C41.886 45.1488 45.2397 46.994 49.4226 47.1818C52.7613 47.3324 56.1123 47.2412 59.4578 47.215C60.2636 47.2094 61.0791 47.0907 61.8725 46.9318C67.2663 45.8449 71.0867 41.4267 71.2789 35.9174C71.3874 32.8292 71.2982 29.7328 71.2982 26.6404V26.6432Z" fill="#060419"/>
<path d="M84.746 70.1609C85.2704 69.1817 85.7633 68.2618 86.2547 67.3406C87.2404 65.4941 88.2219 63.6434 89.2186 61.8023C89.2886 61.6725 89.4602 61.5137 89.5879 61.5123C90.7781 61.4902 91.9697 61.4985 93.197 61.4985V64.0052H91.7995V75.1191H93.197V77.6148H87.8733V75.1329C88.2261 75.1329 88.5857 75.1232 88.944 75.137C89.1747 75.1453 89.2872 75.0887 89.2859 74.8235C89.2776 72.372 89.2817 69.9206 89.279 67.4677C89.279 67.4083 89.2584 67.3475 89.2296 67.1818C88.8589 67.8793 88.5349 68.4856 88.2165 69.0933C87.3379 70.7658 86.4538 72.437 85.5889 74.1178C85.4448 74.3982 85.2704 74.4658 84.9657 74.5003C84.3095 74.5749 83.9718 74.3388 83.6698 73.7324C82.6553 71.687 81.5625 69.6789 80.4986 67.6583C80.4313 67.5312 80.3558 67.4097 80.2268 67.1887C80.2076 67.4124 80.1911 67.5257 80.1911 67.639C80.1897 69.9951 80.1966 72.3513 80.1829 74.7089C80.1815 75.0487 80.279 75.1661 80.618 75.1426C81.0189 75.115 81.4225 75.1357 81.8508 75.1357V77.6092H76.2759V75.1453H77.6693V64.0439H76.2773V61.5468C76.3212 61.5344 76.383 61.504 76.4447 61.504C77.6363 61.5013 78.8279 61.5109 80.0195 61.4957C80.2941 61.4916 80.3572 61.6698 80.4492 61.8465C81.7822 64.4334 83.1138 67.0202 84.4468 69.607C84.5319 69.7742 84.6239 69.9371 84.746 70.1636V70.1609Z" fill="#060419"/>
<path d="M52.5279 69.7769C52.8588 70.6926 53.1773 71.5723 53.4944 72.4521C53.7758 73.2325 54.071 74.0086 54.3345 74.7959C54.4251 75.0652 54.5597 75.1564 54.8342 75.1384C55.198 75.1149 55.5632 75.1329 55.9613 75.1329V77.6134H50.6239V75.1425H51.9212C51.3528 73.6357 50.8078 72.1925 50.2436 70.6953C50.0404 70.7893 49.862 70.8707 49.6849 70.9536C48.7418 71.3997 47.7959 71.8403 46.8583 72.2974C46.743 72.3527 46.5892 72.4894 46.5865 72.5916C46.5645 73.4189 46.5741 74.2476 46.5741 75.1218H48.0032V77.6023H42.6548V75.1508H44.0413V64.0397H42.6589V61.5206C42.7852 61.5123 42.9142 61.4971 43.0433 61.4971C45.9413 61.4971 48.8406 61.4943 51.7386 61.4999C52.0488 61.4999 52.3605 61.5275 52.6693 61.5661C53.7621 61.7029 54.3826 62.2539 54.4444 63.3478C54.5185 64.6502 54.5405 65.965 54.4402 67.2633C54.351 68.4234 53.6907 69.2866 52.5279 69.7755V69.7769ZM46.592 69.5449C46.6496 69.5449 46.6949 69.5573 46.7279 69.5435C48.4356 68.7908 50.1448 68.0394 51.8457 67.2715C51.9431 67.2274 52.0282 67.0464 52.0324 66.9249C52.0516 66.3683 52.0406 65.8103 52.0406 65.2524C52.0406 64.8504 52.0406 64.4485 52.0406 64.0535H46.592V69.5449Z" fill="#060419"/>
<path d="M94.6479 61.5206H106.501V65.9347H104.039V64.0439H98.5837V68.2784H101.359V66.8876H103.85V72.2602H101.368V70.828C100.47 70.828 99.6201 70.8211 98.7704 70.8404C98.6976 70.8418 98.5672 71.0089 98.5658 71.1C98.5521 72.3527 98.5521 73.6068 98.5672 74.8595C98.5672 74.9506 98.7251 75.1191 98.8116 75.1191C100.529 75.1343 102.248 75.1302 104.016 75.1302V73.2132H106.472V77.6148H94.6287V75.1453H96.0344V64.0439H94.6465V61.5192L94.6479 61.5206Z" fill="#060419"/>
<path d="M40.9745 61.5261V65.9402H38.5254V64.0466H33.0589C33.0493 64.1737 33.0328 64.2925 33.0315 64.4113C33.0301 65.57 33.0424 66.7274 33.0218 67.8848C33.0164 68.2328 33.1289 68.324 33.4598 68.3143C34.2409 68.2922 35.0234 68.3074 35.8457 68.3074V66.8945H38.3208V72.2602H35.8718V70.8252C35.4517 70.8252 35.0783 70.8197 34.7035 70.8266C34.1654 70.8376 33.6272 70.8569 33.0891 70.8721C33.0685 71.4246 33.0369 71.9784 33.0315 72.5309C33.0218 73.3347 33.0315 74.1385 33.0342 74.9423C33.0342 74.981 33.052 75.0196 33.0685 75.0942H38.4938V73.2131H40.9497V77.6134H29.1094V75.1329H30.4986V64.0232H29.1204V61.5247H40.9717L40.9745 61.5261Z" fill="#060419"/>
<path d="M2.72149 69.6623C2.72149 67.9732 2.71737 66.2841 2.72561 64.595C2.72698 64.2552 2.74483 63.9113 2.80248 63.5785C3.02762 62.2747 3.9268 61.533 5.37373 61.5082C7.06639 61.4805 8.75904 61.4778 10.4517 61.5068C11.8272 61.5303 12.9653 62.7001 13.1726 64.2414C13.211 64.5231 13.2316 64.8104 13.233 65.0949C13.2371 68.1044 13.2591 71.1152 13.2165 74.1247C13.2069 74.7876 13.0628 75.4878 12.806 76.0969C12.3764 77.1134 11.5005 77.6134 10.4091 77.6258C8.67668 77.6465 6.94146 77.6603 5.21174 77.5982C3.68656 77.5429 2.8519 76.6922 2.78876 75.1329C2.71737 73.3927 2.74071 71.6483 2.72286 69.9054C2.72286 69.8239 2.72286 69.7424 2.72286 69.6595L2.72149 69.6623ZM10.6741 75.1094V64.0522H5.25155V75.1094H10.6741Z" fill="#060419"/>
<path d="M20.9605 73.7905C21.7814 70.5504 22.6023 67.3116 23.4343 64.0273H22.0985V61.5317H27.6762V64.0204C27.3001 64.0204 26.9129 64.0329 26.5285 64.0163C26.2856 64.0052 26.1716 64.0812 26.1098 64.3312C25.0597 68.6127 23.9971 72.8914 22.9538 77.1742C22.8673 77.5319 22.7396 77.6604 22.3662 77.6493C21.4465 77.6203 20.5239 77.6272 19.6042 77.6466C19.2994 77.6535 19.1923 77.543 19.1168 77.2557C17.9898 72.9659 16.8503 68.679 15.7123 64.392C15.6807 64.2759 15.6409 64.1613 15.5942 64.0135H14.1157V61.5234H19.7167V64.0066H18.3686C19.2061 67.3116 20.0284 70.5559 20.8507 73.8001C20.8877 73.7974 20.9248 73.7946 20.9619 73.7919L20.9605 73.7905Z" fill="#060419"/>
<path d="M60.4845 64.0342H58.45V65.954H55.957V61.522H67.5709V65.9416H65.1273V64.0549H63.0448V75.1122H64.6715V77.6161H58.8495V75.1412H60.4845V64.0356V64.0342Z" fill="#060419"/>
<path d="M74.8315 61.5234V64.0094H73.2034V75.1067H74.8233V77.6134H69.0054V75.144H70.6363V64.0273H69.0081V61.5234H74.8329H74.8315Z" fill="#060419"/>
<path d="M40.4803 26.6253C40.4803 23.7235 40.4363 20.8204 40.4912 17.9201C40.5558 14.5377 41.9025 11.7755 44.6796 9.79632C46.2487 8.679 48.0265 8.13208 49.9429 8.1155C53.0166 8.08926 56.0917 8.0934 59.1654 8.10998C63.8741 8.13484 67.766 11.4385 68.5924 16.1053C68.6967 16.6922 68.7681 17.2944 68.7695 17.8897C68.7818 23.707 68.7969 29.5242 68.7681 35.3401C68.7544 38.0333 67.8881 40.4268 65.9443 42.3424C64.183 44.0785 62.0235 44.9776 59.58 45.0273C56.2908 45.095 52.996 45.1281 49.7082 45.0273C44.3653 44.8629 40.5311 40.7831 40.4857 35.3291C40.461 32.4273 40.4816 29.5256 40.4816 26.6239L40.4803 26.6253ZM43.8505 26.6253C43.8505 29.3502 43.8477 32.0752 43.8532 34.8001C43.8532 35.2089 43.8669 35.6177 43.9054 36.0238C44.1992 39.0636 46.511 41.3632 49.5448 41.4391C52.9288 41.5248 56.3182 41.5317 59.7008 41.4322C61.7613 41.3715 63.4403 40.4005 64.5426 38.5816C65.2043 37.4891 65.4061 36.2751 65.4061 35.0156C65.4061 29.4165 65.4061 23.8161 65.4061 18.217C65.4061 18.0402 65.3992 17.8634 65.3896 17.6867C65.1974 14.2408 62.6331 11.7271 59.2066 11.6885C56.159 11.6539 53.1114 11.6733 50.0637 11.6843C48.831 11.6885 47.6737 12.0103 46.6469 12.705C44.7236 14.0046 43.8642 15.8746 43.8546 18.1659C43.8436 20.9861 43.8518 23.8064 43.8518 26.6266L43.8505 26.6253Z" fill="#060419"/>
</svg>