<?xml version="1.0" encoding="utf-8"?>
<svg xmlns="http://www.w3.org/2000/svg" fill="none" height="42" viewBox="0 0 87 42" width="87">
<path d="M61.5146 0.996994C59.3385 1.78711 57.4863 4.52011 55.9061 9.3385C55.0512 11.9161 54.5849 13.9496 54.3777 15.9314C54.0409 19.4675 53.2249 21.0607 49.9479 24.6485C48.9116 25.7884 48.005 26.5008 47.4091 26.6562C47.176 26.708 47.0335 26.6562 46.8522 26.436C46.5284 26.0345 46.5284 24.0657 46.8522 23.1331C46.9817 22.7704 47.9013 20.9959 48.9116 19.1825C51.7483 14.0403 52.5643 12.2917 53.2767 9.81775C54.002 7.33084 53.9891 5.02527 53.2637 4.26106C52.914 3.88544 52.8622 3.87248 52.0462 3.93725C49.9867 4.07973 48.3417 5.82833 46.5931 9.74004C45.3108 12.6155 44.5984 15.2708 44.0285 19.2343C43.5881 22.3948 42.9146 24.1304 41.1012 26.8894C40.1945 28.2753 39.0935 29.4151 38.6531 29.4151C38.2775 29.4151 38.1609 29.0265 38.2257 27.9515C38.2775 27.0448 38.4589 26.3583 39.5339 23.1201C40.5701 19.9985 40.7774 19.2861 40.6738 19.0141C40.5183 18.6126 40.1686 18.4054 39.6375 18.4054C39.3137 18.4054 39.1583 18.509 38.8345 18.9494C38.6143 19.2602 38.3552 19.5581 38.2516 19.61C38.148 19.6618 37.7206 19.6488 37.2802 19.5581C34.9228 19.0919 31.8919 21.0736 29.9231 24.3377C29.1848 25.5682 28.4335 27.7572 28.2392 29.2208C27.8377 32.2517 29.1848 34.2724 31.4644 34.0522C32.41 33.9615 33.0058 33.5859 34.4565 32.174C35.2077 31.4357 35.9072 30.8399 35.9978 30.8399C36.1015 30.8399 36.4382 31.086 36.7491 31.3969C37.2802 31.915 37.3449 31.9409 38.0444 31.9279C39.5857 31.915 41.1919 30.6845 42.7203 28.34C43.6917 26.8634 44.0155 26.436 44.171 26.436C44.3135 26.436 44.3135 26.436 44.6114 27.5111C44.7538 28.0421 44.974 28.4437 45.3238 28.8063C45.7771 29.3115 45.8807 29.3504 46.4636 29.3374C47.7459 29.3244 48.3417 28.897 51.4245 25.7495C53.3415 23.7937 54.287 22.9129 54.4165 22.9647C54.5331 23.0165 54.6497 23.2885 54.7015 23.6123C54.9605 25.335 55.6211 26.3065 56.5408 26.3065C57.1754 26.3065 58.2894 25.892 58.9888 25.3868C59.3126 25.1537 59.9344 24.519 60.3877 23.988C61.7477 22.33 61.7607 22.3171 62.4472 22.9258C63.5741 23.8973 64.7009 24.0268 66.2941 23.3403C66.8252 23.1201 67.2656 22.9517 67.2785 22.9647C67.3821 23.0683 65.5947 27.6277 65.0895 28.5861C61.5016 35.3345 53.9243 38.8965 43.1866 38.8835C36.218 38.8835 30.9593 37.4458 24.2368 33.7284C23.0063 33.0419 21.3095 32.1999 20.4806 31.8502C18.4859 30.9953 18.3434 30.8011 19.4573 30.2441C20.351 29.7907 22.0737 28.6639 23.369 27.6924C25.299 26.2288 28.291 23.0036 29.2754 21.3197C30.3375 19.5063 30.7261 16.5402 30.1821 14.403C29.5215 11.7606 28.0838 9.93433 25.8559 8.88516C24.5866 8.27639 24.2109 7.95257 24.2109 7.43446C24.2109 7.00703 23.6928 6.48892 23.1747 6.41121C22.5141 6.30758 22.0608 6.52778 21.5945 7.20132C21.1023 7.90076 20.8432 7.99143 18.8097 8.09505C16.0508 8.25048 14.0302 8.79449 11.1935 10.1675C5.4814 12.9393 1.64741 17.0065 0.300337 21.7471C-0.308438 23.8973 0.0153786 25.8143 1.20702 26.993C1.82875 27.6147 2.48934 27.9385 3.49964 28.1328C5.59797 28.5214 8.42165 27.3038 9.25062 25.6459C9.69101 24.804 9.66511 24.3118 9.19881 23.8325C8.70661 23.3403 8.34394 23.3533 7.9165 23.8714C6.80257 25.2185 5.9995 25.7625 4.63948 26.0345C1.76399 26.6303 1.42722 23.2626 3.96594 19.2214C6.84143 14.6232 11.0769 11.8384 17.2295 10.4524C18.9392 10.0768 20.0402 10.012 20.1438 10.297C20.2345 10.5172 17.0611 18.0038 15.4031 21.514C14.7814 22.8352 13.7581 24.9853 13.1364 26.2935C11.4267 29.9203 9.31538 34.5703 9.03043 35.3604C8.78433 36.0598 8.78433 36.0728 9.03043 36.3966C9.15995 36.5779 9.50967 36.8111 9.79463 36.9147C10.6236 37.2126 10.8438 36.9795 11.9707 34.7257C12.5017 33.6636 13.0587 32.6792 13.2271 32.5367C13.6157 32.1611 14.5742 32.187 16.2191 32.6015C18.3175 33.1325 19.7682 33.7413 23.369 35.5806C28.5242 38.2229 30.9981 39.2203 34.3788 40.0492C39.2231 41.2279 44.7538 41.3834 49.7277 40.4767C56.748 39.1944 62.3176 36.2023 65.4781 32.0186C66.592 30.542 67.5505 28.5602 68.522 25.7236C68.9624 24.4413 69.7525 22.4207 70.2706 21.229C70.8016 20.0374 71.8638 17.3303 72.6539 15.2061C73.444 13.0818 74.2341 10.9835 74.4154 10.5301C74.817 9.49393 74.8299 8.8204 74.4413 8.45772C73.8196 7.88781 72.8223 7.99143 72.4725 8.67792C72.3689 8.85926 71.9156 10.0639 71.4493 11.3462C69.6488 16.2682 68.2888 18.781 66.3459 20.698C65.4392 21.5917 64.9729 21.7731 64.3901 21.4622C63.9108 21.2161 63.7165 20.685 63.7165 19.6359C63.7165 18.6385 63.9108 18.0038 65.0377 15.1802C65.5429 13.8978 65.9185 12.7839 65.8926 12.5896C65.8408 12.1751 65.3097 11.8643 64.8434 11.9808C64.3512 12.0974 63.8461 12.9134 62.8617 15.1802C60.9835 19.5193 59.8307 21.514 58.3671 22.8999C57.4863 23.7419 57.2532 23.8455 56.9812 23.5217C56.7351 23.2237 56.8775 20.7239 57.2013 19.8949C57.3438 19.5322 58.2246 17.8484 59.1831 16.1386C62.2529 10.6338 63.4575 7.8619 63.9108 5.27137C64.131 3.96315 64.1569 2.61608 63.9756 1.94254C63.7036 0.958138 62.7062 0.569557 61.5146 0.996994ZM61.7607 3.71705C62.0456 3.92429 62.0586 4.00201 61.9938 4.80507C61.8513 6.45006 60.3488 9.86956 57.9915 13.846C57.0848 15.3744 56.7739 15.8019 56.748 15.5817C56.6703 15.0377 57.3827 11.7736 57.9656 9.98614C58.8334 7.33084 60.8022 3.50981 61.2944 3.50981C61.3851 3.50981 61.5923 3.60048 61.7607 3.71705ZM51.541 6.81274C51.6576 6.94226 51.6835 7.31789 51.6447 8.01733C51.5669 9.18307 50.9582 10.8151 49.4686 13.7295C48.6267 15.4003 46.7226 18.7162 46.4636 18.9882C46.2952 19.1566 46.4377 17.952 46.7745 16.2682C47.5387 12.4083 50.1292 6.61845 51.0877 6.61845C51.2561 6.61845 51.4504 6.70911 51.541 6.81274ZM25.286 10.9446C25.8948 11.1907 26.7497 11.9808 27.1382 12.6414C27.7988 13.7683 28.0061 14.6102 28.019 16.1386C28.032 19.0141 27.0605 20.7887 23.6669 24.1304C21.4261 26.3324 18.6024 28.2364 16.1803 29.1431C15.3254 29.4669 14.6519 29.4928 14.5353 29.2208C14.4964 29.1043 15.986 25.7884 18.0584 21.3586C20.0272 17.149 21.9054 13.1207 22.2292 12.3953C22.8639 10.9576 23.0711 10.6726 23.4856 10.6079C23.8612 10.5431 24.742 10.7115 25.286 10.9446ZM36.9693 21.8378C37.1506 22.0062 37.2931 22.2523 37.2931 22.3818C37.2931 22.7445 36.3087 25.5552 35.8165 26.6303C34.7803 28.8841 32.3452 31.8761 31.568 31.8761C30.5448 31.8761 30.0914 31.1508 30.2339 29.7519C30.3894 28.0162 30.9204 26.5655 31.9566 25.0501C32.954 23.5735 35.5186 21.514 36.3605 21.514C36.516 21.514 36.8009 21.6565 36.9693 21.8378Z" fill="#060419"/>
<path d="M71.3327 23.7418C70.9182 24.0656 70.8405 24.6096 70.8405 27.2261C70.8405 30.2829 70.9441 30.7103 71.6435 30.7103C72.2264 30.7103 72.3948 30.5161 72.3948 29.8166C72.3948 28.9876 72.5243 28.8452 73.0942 28.9488C73.4698 29.0265 73.69 29.1949 74.1563 29.7907C74.9594 30.8269 75.62 31.0989 76.0604 30.6067C76.3842 30.257 76.3324 30.0498 75.7625 29.2856L75.2444 28.5991L75.5293 28.1328C76.1122 27.1743 76.2806 26.7598 76.2806 26.3064C76.2676 25.3739 75.5034 24.2599 74.5967 23.8713C73.962 23.5993 71.6306 23.5087 71.3327 23.7418ZM73.6253 25.322C74.6615 25.7624 74.5708 27.2002 73.4957 27.3945C72.6279 27.5629 72.5243 27.4463 72.5243 26.3712C72.5243 25.594 72.5632 25.3868 72.7574 25.2832C73.0554 25.1018 73.1072 25.1148 73.6253 25.322Z" fill="#060419"/>
<path d="M78.0939 23.8325C77.8348 23.9103 77.7571 24.0268 77.6794 24.4931C77.5369 25.4257 77.5628 29.5576 77.7053 30.0887C77.8996 30.7493 78.2105 30.8917 79.5316 30.8788C81.4098 30.8658 82.5626 30.3736 83.3009 29.2727C83.7153 28.6509 83.9744 27.4981 83.8578 26.8376C83.6247 25.5293 82.5626 24.1175 81.63 23.8585C81.086 23.703 78.612 23.6901 78.0939 23.8325ZM81.345 25.5682C81.9538 25.9697 82.3035 26.98 82.0963 27.7831C81.9408 28.4048 81.345 29.1172 80.8917 29.2338C80.7362 29.2727 80.2829 29.2856 79.8943 29.2597L79.1949 29.2209L79.156 27.4463C79.1172 25.361 79.156 25.2703 80.2181 25.2703C80.7233 25.2703 81.0212 25.348 81.345 25.5682Z" fill="#060419"/>
<path d="M84.8294 29.4929C84.5704 29.7908 84.6222 30.4643 84.8942 30.6586C85.4123 31.0472 86.2542 30.6716 86.2542 30.0628C86.2542 29.4411 85.205 29.0266 84.8294 29.4929Z" fill="#060419"/>
</svg>