<?xml version="1.0" encoding="utf-8"?>
<svg xmlns="http://www.w3.org/2000/svg" fill="none" height="64" viewBox="0 0 103 64" width="103">
<path d="M67.8718 22.8421C67.8305 22.838 67.7851 22.8298 67.7438 22.8257C66.9178 22.6981 66.0876 22.5746 65.2616 22.4471C64.9312 22.4059 64.6049 22.3607 64.2745 22.3195C64.0804 22.2537 63.8863 22.1837 63.6922 22.1179C61.9245 21.9409 60.1569 21.764 58.3892 21.5871C58.5957 21.5541 58.8063 21.5171 59.2524 21.443C57.8729 21.085 56.7165 20.7888 55.5601 20.4884C55.5684 20.4554 55.5766 20.4225 55.5849 20.3896C56.0062 20.4266 56.4233 20.4637 56.8446 20.5007C57.1171 20.5007 57.3856 20.5007 57.6582 20.5007H60.0577C59.5621 20.3279 59.0665 20.1551 58.5709 19.9822C58.5874 19.9287 58.6081 19.8752 58.6246 19.8217C59.1161 19.8752 59.6076 19.9246 60.099 19.9781C60.5492 20.0234 60.9953 20.0686 61.4454 20.1139C62.193 20.1551 62.9446 20.1921 63.6922 20.2332C64.1052 20.2826 64.5182 20.3361 64.9312 20.3855C65.3194 20.4184 65.7118 20.4554 66.1 20.4884C66.1867 20.5336 66.2693 20.6118 66.3602 20.6242C67.5662 20.7888 68.768 20.9451 69.974 21.1056C70.928 21.2291 71.8862 21.3525 72.8403 21.476C73.0344 21.443 73.3772 21.4389 73.3937 21.369C73.5052 20.8258 73.5548 20.2703 73.625 19.7189C73.6332 19.7024 73.6374 19.6818 73.6332 19.6654C73.6539 19.4884 73.6704 19.3115 73.6911 19.1345C73.6911 19.0769 73.6952 19.0193 73.6993 18.9617C73.7613 18.3033 73.8232 17.6449 73.8893 16.9865C73.8893 16.9495 73.8976 16.9083 73.8976 16.8713C74.0504 15.7603 74.199 14.6492 74.3725 13.3654C72.8072 14.5464 71.3989 15.6245 69.9575 16.6615C69.8171 16.7602 69.3504 16.6779 69.2595 16.5339C68.1361 14.785 67.0623 13.0074 65.9678 11.242C65.263 10.1036 64.4893 10.0803 63.6468 11.1721C63.6468 11.1721 63.6385 11.1927 63.6302 11.2009L63.6261 11.205C62.2714 12.7193 60.9209 14.2336 59.5663 15.7479C59.525 15.7932 59.4837 15.8385 59.4382 15.8837C59.0128 16.5051 58.7031 16.4516 58.3768 15.7685C58.1703 15.3364 57.8275 14.9743 57.5425 14.5793C57.5343 14.5587 57.526 14.5381 57.5178 14.5134C56.6133 13.1678 55.7088 11.8223 54.8043 10.4767C54.5565 10.094 54.3128 9.71539 54.065 9.3327C53.8998 9.19279 53.7305 9.057 53.5653 8.91709C53.4951 8.48502 53.4249 8.05295 53.3505 7.62088C53.4125 7.44805 53.4744 7.27522 53.5364 7.10651L54.0155 7.7361C54.4946 8.23812 54.9736 8.73603 55.4527 9.23806C56.5637 10.7935 57.6747 12.3531 58.8022 13.9003C58.8641 13.9867 59.1946 14.0114 59.2524 13.9415C61.115 11.7029 62.9612 9.44792 64.8156 7.20527C64.9106 7.09005 65.0716 7.02009 65.1997 6.92957C65.2368 6.92957 65.274 6.92957 65.3112 6.92957L65.592 7.29991C65.6209 7.41513 65.6168 7.54681 65.6787 7.64145C66.8723 9.50142 68.1609 11.3079 69.2389 13.2296C69.8749 14.3653 70.3664 14.3735 71.1263 13.4765C71.6012 13.1102 72.0721 12.7399 72.547 12.3737C72.5759 12.3449 72.6048 12.3202 72.6379 12.2914C73.8976 11.349 75.1531 10.4026 76.4169 9.4685C76.4706 9.43146 76.6027 9.49319 76.6936 9.51376C76.6936 9.61664 76.6853 9.71951 76.6853 9.8265C76.6647 10.1351 76.644 10.4437 76.6275 10.7524C76.6027 10.9869 76.5738 11.2174 76.5491 11.4519C76.5119 11.7811 76.4747 12.1144 76.4375 12.4436C76.388 12.9827 76.3384 13.5176 76.2889 14.0567C76.2476 14.6245 76.2021 15.1965 76.1608 15.7644C76.1195 15.9537 76.0741 16.1388 76.0328 16.3281C75.9915 16.8137 75.9543 17.2952 75.913 17.7766C75.8635 18.1428 75.818 18.5091 75.7685 18.8794C75.7065 19.2045 75.6446 19.5337 75.5826 19.8588C75.5578 20.1592 75.5372 20.4596 75.5124 20.76C75.4959 21.0727 75.4752 21.3813 75.4587 21.694C75.3596 22.2331 75.3183 22.7886 75.1407 23.2989C75.0664 23.5129 74.6823 23.7886 74.4716 23.7639C72.704 23.5622 70.9446 23.2989 69.181 23.0561C69.1439 23.052 69.1026 23.0479 69.0654 23.0396C68.6689 22.9779 68.2724 22.9162 67.8759 22.8586L67.8718 22.8421Z" fill="#060419"/>
<path d="M72.8403 21.4678C71.8862 21.3443 70.9281 21.2209 69.974 21.0974C68.7681 20.9411 67.5621 20.7806 66.3602 20.616C66.2694 20.6036 66.1868 20.5254 66.1 20.4802C66.3602 20.0522 66.6204 19.6201 66.8765 19.1922C67.4919 18.6943 68.1072 18.2005 68.7226 17.7026C68.8961 17.8384 69.053 18.0071 69.2471 18.1017C70.0442 18.4885 70.8496 18.8506 71.6508 19.221C71.6674 19.2375 71.6839 19.2539 71.7004 19.2704C72.0804 20.0028 72.4603 20.7394 72.8403 21.4719V21.4678Z" fill="#060419"/>
<path d="M53.619 12.8016C53.4951 13.4436 53.3753 14.0814 53.2514 14.7233C53.2101 14.7192 53.1688 14.711 53.1275 14.7069C53.2514 13.3613 53.3794 12.0198 53.5033 10.6742C53.5033 10.6372 53.5033 10.6042 53.5033 10.5672C53.5199 10.2133 53.5364 9.85944 53.5529 9.50555C53.5529 9.33273 53.5529 9.15578 53.5529 8.98295C53.5612 8.96238 53.5694 8.93769 53.5735 8.91711C53.7388 9.05702 53.9081 9.19282 54.0733 9.33273C54.0155 9.56316 53.9576 9.7936 53.8998 10.024C53.875 10.308 53.8503 10.5878 53.8255 10.8717C53.7594 11.4807 53.6975 12.0856 53.6314 12.6946C53.6314 12.7317 53.6272 12.7687 53.6231 12.8058L53.619 12.8016Z" fill="#060419"/>
<path d="M77.2636 39.6765C77.2305 39.8287 77.1934 39.981 77.1603 40.1332C77.1562 40.3884 77.1521 40.6435 77.1479 40.9027C76.9538 41.3183 76.7597 41.7339 76.5656 42.1537C76.6647 41.3883 76.7556 40.6229 76.863 39.8575C76.8836 39.7135 76.9662 39.5777 77.0199 39.4296C77.0943 39.5036 77.181 39.5942 77.2636 39.6806V39.6765Z" fill="#060419"/>
<path d="M51.1286 24.3276C51.0914 24.4799 51.0501 24.6321 51.013 24.7803C50.9014 24.9531 50.7858 25.1259 50.6743 25.2946C50.5256 25.4222 50.3728 25.5498 50.2241 25.6773C50.1167 25.7679 50.0093 25.8625 49.902 25.953C49.7863 25.7391 49.5344 25.3769 49.5757 25.3399C49.8235 25.1218 50.1415 24.9901 50.4265 24.8091C50.6702 24.6568 50.8973 24.484 51.1286 24.3194V24.3276Z" fill="#060419"/>
<path d="M53.301 6.96664C53.3836 7.0119 53.462 7.05717 53.5446 7.10243C53.4827 7.27526 53.4207 7.44809 53.3588 7.6168C53.3423 7.6168 53.3257 7.61269 53.3092 7.60857C53.3092 7.3946 53.301 7.1765 53.301 6.96252V6.96664Z" fill="#060419"/>
<path d="M50.6536 23.945C50.5793 24.0273 50.5297 24.0849 50.4843 24.1384C50.4182 24.0396 50.3232 23.9491 50.2943 23.838C50.2778 23.7763 50.3686 23.6857 50.4141 23.6075C50.4884 23.7104 50.5627 23.8133 50.6577 23.9409L50.6536 23.945Z" fill="#060419"/>
<path d="M71.6591 24.7186C71.8532 24.5252 72.0514 24.3277 72.2455 24.1343C72.3323 24.2207 72.419 24.3071 72.5057 24.3935C72.419 24.5252 72.3323 24.6528 72.2455 24.7844C72.0184 24.9861 71.8119 25.233 71.5517 25.377C71.4071 25.4552 71.1676 25.3605 70.9694 25.3441C70.9735 25.2865 70.9694 25.1795 70.99 25.1712C71.1883 25.126 71.3906 25.0889 71.593 25.0601C71.6756 25.0478 71.7582 25.0601 71.8821 25.0601C71.7912 24.9244 71.7252 24.8174 71.6591 24.7145V24.7186Z" fill="#060419"/>
<path d="M72.5099 24.3935C72.4232 24.3071 72.3364 24.2207 72.2497 24.1343C72.6668 24.1919 73.0881 24.2207 73.4928 24.3236C73.625 24.3565 73.7117 24.5828 73.815 24.7186C73.5754 24.7392 73.3359 24.7639 73.0964 24.7844L72.5099 24.3935Z" fill="#060419"/>
<path d="M72.5099 24.3935L73.0963 24.7844H72.2455C72.3323 24.6527 72.419 24.5252 72.5057 24.3935H72.5099Z" fill="#060419"/>
<path d="M67.8718 22.8422C68.2683 22.9039 68.6648 22.9656 69.0613 23.0232C68.9043 23.0685 68.7474 23.1138 68.5905 23.159C68.3509 23.052 68.1114 22.945 67.8718 22.8422Z" fill="#060419"/>
<path d="M73.5176 25.3152C73.6044 25.4716 73.687 25.6321 73.7737 25.7885C73.72 25.8132 73.6374 25.8749 73.6167 25.8584C73.497 25.7679 73.3896 25.6609 73.2781 25.558C73.3607 25.4757 73.4391 25.3975 73.5217 25.3152H73.5176Z" fill="#060419"/>
<path d="M68.5905 23.159C68.7474 23.1137 68.9043 23.0685 69.0613 23.0232C69.0985 23.0273 69.1398 23.0314 69.1769 23.0397C68.9828 23.1014 68.7846 23.1631 68.5905 23.2248V23.159Z" fill="#060419"/>
<path d="M71.783 23.7845C71.4195 23.8997 71.0561 24.0108 70.6968 24.126C70.6802 24.0684 70.6596 24.0108 70.6431 23.9532C70.9941 23.8133 71.3452 23.6693 71.6962 23.5294C71.7251 23.6158 71.7541 23.7022 71.7871 23.7886L71.783 23.7845Z" fill="#060419"/>
<path d="M95.8777 38.9317C95.8364 38.9152 95.919 38.5654 95.9892 38.0264C94.9815 39.1456 94.1637 40.0509 93.3501 40.9603C93.3006 41.0097 93.2551 41.0591 93.2056 41.1085C91.8798 43.1001 90.5541 45.0918 89.0342 47.3714C89.0342 46.3839 89.0342 45.7296 89.0342 45.0712C89.0342 45.03 89.0301 44.9889 89.026 44.9477C89.092 44.2976 89.1622 43.6433 89.2283 42.9931C89.2201 42.9726 89.2201 42.952 89.2283 42.9314C88.9475 42.5199 88.6625 42.1084 88.3817 41.6969C87.9934 41.6969 87.6052 41.6969 87.217 41.6969C86.9072 41.7175 86.6016 41.7422 86.2919 41.7628C86.1019 41.7874 85.9119 41.808 85.7219 41.8327C85.4122 41.8944 85.0983 41.9562 84.7885 42.0179C83.9625 42.2154 83.1365 42.4088 82.3105 42.6063C81.9594 42.6927 81.6084 42.775 81.2614 42.8614C81.0632 42.9067 80.8691 42.9479 80.6708 42.9931C79.7251 43.5404 78.7834 44.0918 77.8376 44.6391C77.8665 44.705 77.8954 44.7667 77.9244 44.8325C78.4943 44.6556 79.0643 44.4786 79.6342 44.3058C79.6631 44.384 79.692 44.4581 79.7209 44.5362C78.9899 44.8243 78.2548 45.1164 77.5237 45.4045C77.5527 45.495 77.5857 45.5856 77.6146 45.6761C78.5232 45.458 79.436 45.2358 80.3446 45.0177L80.3735 45.0095H80.4024C80.7576 44.9848 81.1128 44.956 81.4679 44.9272C81.4803 44.9272 81.4927 44.9313 81.5051 44.9354C81.7157 44.9066 81.9264 44.8778 82.137 44.849C82.0957 45.0053 82.0709 45.1699 82.0049 45.314C81.1582 47.1698 80.3033 49.0174 79.4525 50.8692C79.5764 51.1119 79.6962 51.3547 79.8201 51.5975C80.3735 52.2024 80.7163 51.9843 81.0673 51.3547C81.5216 50.5359 82.0627 49.7622 82.5665 48.9722C82.6161 48.8693 82.6657 48.7623 82.7152 48.6594C83.5082 47.1822 84.297 45.7049 85.1107 44.2358C85.1643 44.1371 85.4163 44.1494 85.5774 44.1083C85.7673 44.1042 85.9573 44.0959 86.1514 44.0918C86.4488 44.0383 86.742 43.9807 87.0394 43.9272C87.0807 44.1412 87.1633 44.3552 87.1509 44.565C87.1096 45.1741 87.027 45.779 86.9609 46.388C86.9651 46.4085 86.9609 46.425 86.9568 46.4456C86.8948 47.0381 86.8288 47.6307 86.7668 48.2232C86.7668 48.7993 86.7668 49.3754 86.7668 49.9556C87.3161 50.4412 87.7993 51.1161 88.4395 51.3342C88.7699 51.4453 89.4885 50.8321 89.8437 50.3959C90.4591 49.6388 90.9258 48.7623 91.4586 47.9352C91.4792 47.894 91.4999 47.8488 91.5246 47.8076C93.0238 45.2893 94.552 42.7874 95.981 40.2361C96.1173 39.9892 96.8772 39.2979 95.8901 38.9399L95.8777 38.9317Z" fill="#060419"/>
<path d="M96.5468 22.0521C96.3774 21.7023 96.2081 21.3567 96.0388 21.0069L95.7827 20.6859C95.7745 20.6653 95.7621 20.6448 95.7538 20.6242C95.7538 20.6036 95.7538 20.583 95.7538 20.5625C95.7208 20.5172 95.6836 20.4719 95.6506 20.4267C94.8658 19.8218 94.077 19.2169 93.2923 18.612C93.0941 18.5256 92.8917 18.4392 92.6934 18.3527C92.1317 18.1593 91.5701 17.9659 91.0042 17.7684C90.9175 17.7849 90.8308 17.8013 90.7399 17.8137L90.7482 17.8343C90.4839 17.7643 90.2237 17.6985 89.9593 17.6285C89.8065 17.6038 89.6537 17.5791 89.5009 17.5544C89.154 17.5586 88.8029 17.5627 88.456 17.5709C88.3693 17.5709 88.2825 17.5627 88.1958 17.5627C88.138 17.5668 88.0802 17.575 88.0223 17.5791C87.9934 17.5956 87.9645 17.6162 87.9356 17.6326L86.4323 17.6861C86.0193 17.7355 85.6063 17.789 85.1891 17.8384C83.5784 18.2005 81.9636 18.5585 80.3528 18.9206C79.502 18.8342 78.6389 18.7066 78.2011 19.7189C78.2011 19.7436 78.1969 19.7601 78.1763 19.7765C77.8128 20.1222 77.4494 20.4678 77.086 20.8135L76.5036 21.081C76.1567 21.2785 75.8056 21.476 75.4587 21.6776C75.3596 22.2167 75.3183 22.7722 75.1407 23.2825C75.0664 23.4964 74.6823 23.7721 74.4716 23.7475C72.704 23.5458 70.9446 23.2825 69.181 23.0397C68.9869 23.1014 68.7887 23.1631 68.5946 23.2249V23.159L67.8759 22.8422C67.8346 22.838 67.7892 22.8298 67.7479 22.8257C66.9219 22.6981 66.0917 22.5747 65.2657 22.4471C64.9353 22.406 64.6091 22.3607 64.2787 22.3196L63.6963 22.1179C61.9286 21.941 60.161 21.764 58.3933 21.5871C58.1579 21.6365 57.9225 21.6817 57.683 21.7311C57.6664 21.7435 57.6499 21.7476 57.6293 21.7394C57.1915 21.9698 56.7496 22.2002 56.3118 22.4348C56.1135 22.5253 55.9153 22.62 55.717 22.7105C55.4569 22.8586 55.2008 23.0026 54.9406 23.1508L54.3004 23.4964L53.5033 24.2742C52.8714 24.8585 52.2395 25.4387 51.6076 26.023C51.4342 26.1835 51.2607 26.344 51.0914 26.5004C51.0542 26.5168 51.0129 26.5333 50.9757 26.5497C50.666 27.0024 50.3562 27.4592 50.0424 27.9118C49.9267 28.0846 49.8111 28.2575 49.6954 28.4262C49.3568 28.7142 49.0181 29.0023 48.6753 29.2903C48.6753 29.3068 48.6753 29.3232 48.6629 29.3356C48.5101 29.5701 48.3614 29.8006 48.2086 30.0351C47.6841 30.9733 47.1637 31.9115 46.6392 32.8498C46.6392 32.9362 46.6474 33.0226 46.6516 33.109C46.6309 33.2818 46.6103 33.4588 46.5938 33.6316C46.5855 33.8456 46.5772 34.0637 46.569 34.2776C46.8044 35.7097 47.0439 37.1417 47.2793 38.5737C47.2835 38.5942 47.2876 38.6189 47.2959 38.6395C47.7997 40.3596 49.1833 41.3266 50.4925 42.3635C50.5462 42.45 50.5958 42.5323 50.699 42.7051C50.4182 42.6269 50.2323 42.5775 50.0465 42.524L48.0599 41.5735C47.9154 41.5282 47.7667 41.4829 47.6221 41.4336C47.49 41.3718 47.3619 41.3142 47.2298 41.2525C47.1637 41.2072 47.0976 41.162 47.0357 41.1167L46.9035 41.0838C46.4286 40.8657 45.9495 40.6517 45.4745 40.4336C45.1689 40.2896 44.8591 40.1456 44.5535 40.0016C44.5081 39.9851 44.4626 39.9686 44.4172 39.9522C44.3305 39.9275 44.2479 39.9028 44.1612 39.874C43.9423 39.7629 43.7234 39.6559 43.5003 39.5448C43.4797 39.5448 43.459 39.553 43.4425 39.5571C43.3764 39.5119 43.3104 39.4707 43.2402 39.4255C42.823 39.2279 42.41 39.0304 41.9929 38.8329C41.8401 38.7712 41.6914 38.7095 41.5386 38.6518L39.2959 37.6025C39.1514 37.5408 39.0027 37.4832 38.8582 37.4256C38.3832 37.1787 37.9041 36.9318 37.4292 36.6849C37.4044 36.6684 37.3796 36.652 37.3589 36.6355C37.0988 36.5203 36.8386 36.4092 36.5742 36.294C36.5329 36.2899 36.4875 36.2816 36.4462 36.2775C35.6615 35.936 34.8768 35.5944 34.0921 35.257C33.7286 35.0718 33.3611 34.8867 32.7705 34.5821C33.8814 34.1542 34.7653 33.8127 35.6532 33.4711C35.6945 33.4546 35.74 33.4423 35.7813 33.4258C36.1943 33.2695 36.6114 33.109 37.0244 32.9526C37.1153 32.9156 37.202 32.8786 37.2929 32.8415C37.6852 32.6522 38.0776 32.4629 38.4699 32.2737C38.5567 32.249 38.6434 32.2243 38.7301 32.1955C38.7756 32.1914 38.8169 32.1831 38.8623 32.179C39.077 32.0926 39.2959 32.0021 39.5107 31.9157C39.7296 31.8539 39.9485 31.7922 40.1715 31.7305C40.2376 31.6893 40.3037 31.6482 40.3698 31.607C40.7373 31.4507 41.1132 31.3066 41.4725 31.1297C41.7244 31.0062 41.9557 30.8334 42.1952 30.6853C42.3481 30.6441 42.5009 30.5989 42.6537 30.5577C42.7363 30.496 42.8189 30.4343 42.8974 30.3725C42.9469 30.3314 42.9965 30.2902 43.0502 30.245C43.0708 30.1997 43.0956 30.1545 43.1162 30.1133C43.393 29.9364 43.6738 29.7635 43.9505 29.5866C44.5865 29.245 45.2226 28.9035 45.8586 28.562C45.9453 28.5208 46.0321 28.4797 46.1188 28.4426C46.2262 28.3768 46.3377 28.3109 46.4451 28.2492C46.8787 28.0229 47.3124 27.7966 47.746 27.5703C47.7915 27.5085 47.8369 27.4468 47.8865 27.3851C48.0806 27.3192 48.2747 27.2493 48.4647 27.1834C48.5555 27.13 48.6423 27.0723 48.7331 27.0189C49.0594 26.8131 49.3815 26.6074 49.7078 26.4016C49.7739 26.2535 49.84 26.1053 49.9061 25.9572C49.7904 25.7432 49.5385 25.3811 49.5798 25.3441C49.8276 25.126 50.1456 24.9943 50.4306 24.8132C50.6742 24.661 50.9014 24.4881 51.1327 24.3236C51.1575 24.2371 51.1864 24.1507 51.2112 24.0643C51.4507 22.9944 51.6902 21.9204 51.9257 20.8505C51.7109 20.3403 51.492 19.8259 51.2772 19.3156C50.8395 18.7807 50.4017 18.2458 49.9598 17.7108C49.2989 17.2499 48.6381 16.7932 47.9773 16.3323C47.8121 16.2747 47.6428 16.213 47.4776 16.1553C47.0852 15.999 46.697 15.8426 46.3046 15.6862C45.8503 15.6204 45.3919 15.5505 44.9376 15.4846C44.7641 15.4435 44.5865 15.4023 44.4131 15.3612C44.1075 15.3118 43.806 15.2665 43.5003 15.2171C43.3682 15.2171 43.2402 15.2213 43.108 15.2254C43.046 15.2171 42.98 15.2089 42.918 15.1966C42.8024 15.1719 42.6909 15.1472 42.5752 15.1184C42.5835 15.1102 42.5876 15.0978 42.5876 15.0855C42.1622 15.0649 41.7327 15.0484 41.3073 15.0279C41.1462 15.0279 40.9851 15.0279 40.8241 15.0279C40.3656 15.0484 39.9031 15.0731 39.4446 15.0937L39.3207 15.0772C39.1473 15.0855 38.9738 15.0937 38.7962 15.1019C38.0321 15.1595 37.2722 15.2213 36.5082 15.2789C36.2025 15.2583 35.8969 15.2336 35.5954 15.213C34.3564 15.3488 33.1174 15.4805 31.8784 15.6163C31.6058 15.5751 31.3332 15.534 31.0647 15.4928C31.0028 15.2994 30.9408 15.1101 30.8789 14.9167C30.8624 14.9085 30.8458 14.9044 30.8293 14.8962C30.7591 14.6781 30.6889 14.4641 30.6146 14.246C30.565 14.1184 30.5196 13.9909 30.47 13.8633C30.4328 13.6493 30.3915 13.4395 30.3544 13.2255C30.0281 12.7852 29.7018 12.349 29.3797 11.9087C28.9667 11.6495 28.5537 11.3902 28.1407 11.131C27.8392 11.1927 27.5335 11.2544 27.232 11.3203C27.0792 11.3696 26.9264 11.419 26.8108 11.4561C26.6704 11.6988 26.5299 11.9457 26.3895 12.1885C26.1871 12.6371 25.9848 13.0856 25.7865 13.53C25.6172 13.9497 25.4479 14.3695 25.2785 14.7892C25.1835 14.9126 25.0886 15.0361 24.9977 15.1554C24.8738 15.5258 24.7458 15.8961 24.6219 16.2665C24.1552 17.5215 22.8212 16.9825 22.0034 17.5174C21.9827 17.5174 21.958 17.5174 21.9373 17.5133C21.7432 17.575 21.5491 17.6409 21.355 17.7026C21.0907 17.7849 20.8305 17.8672 20.5661 17.9454C20.3059 18.0318 20.0416 18.1182 19.7814 18.2046C19.4552 18.3116 19.1289 18.4227 18.8026 18.5297C17.7371 18.8136 16.6715 19.0975 15.6018 19.3815C15.449 19.4062 15.2921 19.435 15.1392 19.4597C14.2885 19.6901 13.4418 19.9205 12.591 20.1551C12.3515 20.2621 12.1119 20.3691 11.8724 20.4761C11.5915 20.5872 11.3066 20.6983 11.0257 20.8094C10.8068 20.9122 10.5879 21.011 10.369 21.1139L9.61736 21.4719C9.39021 21.5953 9.15892 21.7147 8.93177 21.8381C8.2627 22.1714 7.5895 22.5006 6.92043 22.8339C6.72219 22.8998 6.52395 22.9697 6.32571 23.0356C6.30093 23.0973 6.27614 23.159 6.25136 23.2207C6.07377 23.4594 5.90031 23.6981 5.72272 23.9367C5.72272 24.196 5.72685 24.4552 5.73098 24.7186C5.85901 26.2164 6.90804 25.2124 7.49451 25.3688C7.44908 25.6815 7.40778 25.9901 7.36648 26.3028C7.42843 26.2946 7.49038 26.2823 7.5482 26.274C7.98599 26.0971 8.42377 25.9202 8.86569 25.7432C8.91112 25.7268 8.95655 25.7144 9.00611 25.6979C9.15892 25.6527 9.31174 25.6074 9.46455 25.5663C9.81147 25.4634 10.1625 25.3605 10.5095 25.2535C10.5714 25.2247 10.6334 25.2 10.6994 25.1712C10.7696 25.1342 10.8357 25.093 10.9059 25.056C11.0588 24.9861 11.2074 24.9161 11.3602 24.842C11.4015 24.8173 11.447 24.7927 11.4883 24.7721C11.5337 24.7556 11.5791 24.7392 11.6246 24.7227C12.591 24.377 13.5574 24.0273 14.5321 23.6981C14.6189 23.6693 14.7469 23.7763 14.8584 23.8174C14.7799 23.9162 14.7221 24.0602 14.6189 24.1055C14.3339 24.2371 14.0283 24.3277 13.7846 24.5993C13.9374 24.5787 14.0861 24.5581 14.2389 24.5375C14.3421 24.5087 14.4413 24.4799 14.5445 24.447L15.416 24.2701C15.449 24.2413 15.4862 24.2124 15.5192 24.1836C15.5275 24.1672 15.5357 24.1507 15.5481 24.1343C15.7216 24.089 15.895 24.0478 16.0685 24.0026C16.2378 23.9738 16.4113 23.9491 16.5806 23.9203C16.845 23.8421 17.1093 23.768 17.3736 23.6898C17.4273 23.6816 17.481 23.6734 17.5388 23.6652C18.53 23.6364 19.5212 23.6117 20.5124 23.5829C20.5124 23.7968 20.5207 24.0108 20.5248 24.2248C20.4133 24.4964 20.2977 24.768 20.1862 25.0396L19.8599 26.0148C19.2858 27.5744 18.7117 29.1339 18.1418 30.6976C17.8238 30.7882 17.5016 30.8622 17.1919 30.9774C17.0391 31.0351 16.9234 31.1791 16.7871 31.2819C16.7004 31.2819 16.6137 31.2737 16.5269 31.2696C16.2668 31.2943 16.0024 31.319 15.7422 31.3437C15.6349 31.4301 15.5233 31.5124 15.416 31.5988L14.8295 31.858L14.5693 31.9239C14.4578 32.179 14.3504 32.4341 14.2389 32.6934C14.2182 32.9156 14.1935 33.1378 14.1728 33.36C14.1976 33.7715 14.2224 34.183 14.2472 34.5945C14.5528 35.257 14.9575 35.8907 15.131 36.582C15.3334 37.3886 15.3334 38.2445 15.4201 39.0798C15.226 39.5777 15.0319 40.0756 14.8378 40.5735C14.7097 41.0303 14.5858 41.4912 14.4578 41.9479C14.4578 41.9726 14.4537 41.9891 14.433 42.0055C14.3463 42.4006 14.2637 42.7915 14.1769 43.1865C14.1852 43.2071 14.1811 43.2236 14.1687 43.24C14.1109 43.4581 14.053 43.6762 13.9952 43.8984C13.8135 44.6762 13.6318 45.4539 13.4501 46.2357C13.4088 46.6061 13.3716 46.9764 13.3303 47.3468C13.2642 48.4989 13.2022 49.6553 13.1362 50.8116C13.1362 50.8692 13.1362 50.9268 13.132 50.9844L13.5781 52.7415C13.5863 52.7991 13.5905 52.8526 13.5987 52.9102L14.0117 53.4781C14.0696 53.4369 14.1315 53.3999 14.1893 53.3587C14.1604 53.2846 14.1315 53.2106 14.1026 53.1365C14.1274 53.0254 14.1522 52.9184 14.1769 52.8114C14.3008 52.6715 14.4289 52.5357 14.5528 52.3958C14.495 52.3259 14.4371 52.2518 14.2017 51.9555C14.2017 51.972 14.1522 51.6716 14.0985 51.3712L14.2472 51.2436C14.3091 51.363 14.3587 51.4946 14.4413 51.5975C14.6932 51.9144 14.9493 52.5234 15.2384 51.614C15.2631 51.5399 15.4531 51.5152 15.5688 51.4658C15.6018 51.5605 15.639 51.651 15.6679 51.7457C15.7546 52.0543 15.8372 52.3629 15.924 52.6715C16.0479 51.9555 16.1718 51.2395 16.2915 50.5235C16.3741 50.5112 16.4567 50.4988 16.5393 50.4865L16.7087 51.0585C16.688 51.1901 16.6674 51.3259 16.6137 51.6675C17.0473 50.9926 17.3695 50.4906 17.6916 49.9886C17.7825 49.824 17.8775 49.6594 17.9601 49.4907C18.7902 47.7583 19.6162 46.0217 20.4422 44.2893C20.5537 44.1165 20.6611 43.9437 20.7726 43.7667C20.8594 43.6145 20.942 43.4622 21.0287 43.31C21.2063 43.0713 21.3839 42.8326 21.5574 42.5981C21.9332 41.5364 22.309 40.4748 22.6849 39.4172C23.0442 37.8865 23.833 39.1127 24.436 39.1456C24.6962 39.1991 24.9564 39.2526 25.2166 39.3061C25.5883 39.4872 25.9641 39.6682 26.3358 39.8493C26.5093 39.8987 26.6786 39.9481 26.8521 39.9974C27.1453 40.1044 27.4386 40.2114 27.7359 40.3184H27.7566L27.769 40.3308C28.2893 40.5694 28.8139 40.804 29.3342 41.0426C29.4003 41.0673 29.4664 41.092 29.5325 41.1167L30.5815 41.5611C30.6228 41.5858 30.6641 41.6105 30.7054 41.6352C32.1716 42.3018 33.6336 42.9726 35.0998 43.6392C35.2031 43.6844 35.3063 43.7297 35.4096 43.7709C35.7937 43.8984 36.1901 43.9972 36.5577 44.1535C37.7967 44.6844 39.0275 45.2358 40.2624 45.779C40.283 45.779 40.2995 45.779 40.3119 45.7954C41.617 46.3797 42.9221 46.96 44.2314 47.5443C44.2974 47.569 44.3635 47.5937 44.4296 47.6183C45.9784 48.285 47.5271 48.9516 49.0718 49.6223C49.1131 49.647 49.1544 49.6717 49.1998 49.6964C49.5137 49.8404 49.8276 49.9886 50.1415 50.1326C50.1786 50.1491 50.2158 50.1655 50.2571 50.182C50.4264 50.2355 50.5999 50.2848 50.7692 50.3383C51.1616 50.5112 51.554 50.684 51.9463 50.8568C51.9463 50.8774 51.9463 50.898 51.9546 50.9185C52.0413 50.9597 52.1239 51.0009 52.2106 51.042C52.2313 51.042 52.2519 51.0338 52.2726 51.0338C52.3139 51.042 52.3593 51.0502 52.4006 51.0585C52.6443 51.1819 52.8838 51.3012 53.1275 51.4247C53.2142 51.4576 53.2968 51.4864 53.3836 51.5193C53.4042 51.5193 53.4249 51.5111 53.4496 51.5111C53.714 51.6592 53.9783 51.8033 54.2426 51.9514C54.3707 51.9802 54.4987 52.009 54.6267 52.0378L56.3159 52.7703C56.5802 52.869 56.8446 52.9719 57.1089 53.0707C57.431 53.1859 57.7573 53.3011 58.0794 53.4163C58.4222 53.5439 58.765 53.6715 59.1078 53.7949C59.2689 53.8566 59.43 53.9142 59.591 53.976C59.6778 53.9965 59.7645 54.0171 59.8512 54.0418C61.3587 54.6796 62.8703 55.3216 64.3778 55.9594C64.5884 56.0499 64.799 56.1322 65.0964 56.0787C64.8279 55.8812 64.5636 55.6878 64.2952 55.4903C64.3323 55.4203 64.3695 55.3504 64.4067 55.2804C65.2616 55.7166 66.1165 56.1528 66.9714 56.589C67.0375 56.6095 67.1036 56.6342 67.1697 56.6548C67.1903 56.6548 67.2151 56.6548 67.2358 56.6548C67.3514 56.6795 67.4671 56.6918 67.5786 56.7248C67.8677 56.8153 68.1485 56.9182 68.4335 57.0169C68.3509 56.77 68.2683 56.5231 68.1816 56.2557C68.5202 56.3585 68.8548 56.4655 69.1934 56.5725C69.6271 56.6219 70.0607 56.6754 70.4944 56.7248C70.5398 56.7412 70.5811 56.7577 70.6265 56.7741C70.6968 56.8647 70.7628 56.9552 70.8496 57.0663C70.9776 56.9099 71.0891 56.7741 71.2006 56.6425C71.3245 56.5807 71.4484 56.519 71.5682 56.4573C71.626 56.4326 71.6838 56.412 71.7417 56.3873C71.7169 56.1898 71.6921 55.9964 71.6632 55.7989L71.7293 55.5396C71.7375 55.5191 71.7458 55.4944 71.7499 55.4738C71.7706 55.2351 71.7871 54.9965 71.8077 54.7578C71.8284 54.7331 71.849 54.7084 71.8697 54.6879C71.8697 54.6261 71.8656 54.5603 71.8614 54.4986C71.8862 54.4533 71.911 54.408 71.9358 54.3669C71.9853 54.2187 72.039 54.0665 72.0886 53.9142C72.1918 53.7208 72.2951 53.5233 72.4025 53.3299C72.4562 53.1324 72.5057 52.9349 72.5594 52.7332C72.6503 52.6263 72.7453 52.5234 72.8361 52.4164C72.7164 52.4493 72.6007 52.4781 72.4768 52.511C72.5966 52.4781 72.7164 52.4493 72.8361 52.4164C72.8444 52.3752 72.8485 52.3341 72.8568 52.2929C72.8692 52.2847 72.8857 52.2806 72.9022 52.2765C72.9559 52.0172 73.0096 51.7621 73.0633 51.5029C73.1872 51.2601 73.3152 51.0214 73.4391 50.7786C73.6745 50.1532 73.9099 49.5277 74.1412 48.9022C74.1701 48.8775 74.1949 48.8487 74.2238 48.824C74.4427 48.3961 74.6616 47.9681 74.8805 47.5402C75.0085 47.1204 75.1366 46.7007 75.2646 46.281C75.3802 45.9189 75.4918 45.5568 75.6074 45.1987C75.6487 45.1329 75.6859 45.0712 75.7272 45.0054C75.7891 44.6391 75.8552 44.2688 75.9172 43.9025C75.9874 43.7091 76.0576 43.5157 76.1278 43.3223L76.3302 42.9232C76.4169 42.6639 76.4995 42.4047 76.5862 42.1454C76.6853 41.3801 76.7762 40.6147 76.8836 39.8493C76.9042 39.7053 76.9868 39.5695 77.0405 39.4213C77.1149 39.4954 77.2016 39.5859 77.2842 39.6724C77.3585 39.4584 77.4287 39.2485 77.5031 39.0345C77.5196 38.9852 77.5403 38.9399 77.5568 38.8905C77.627 38.6601 77.6972 38.4296 77.7674 38.1951C77.8954 37.8412 78.0276 37.4873 78.1556 37.1334C78.2424 36.94 78.325 36.7466 78.4117 36.5532C78.453 36.3763 78.4984 36.2034 78.5397 36.0265L78.1185 35.2735C78.2589 35.5245 78.3993 35.7755 78.5397 36.0265C78.6306 35.8742 78.7215 35.7261 78.8082 35.5739L79.1179 35.1788C79.1056 35.006 79.089 34.829 79.0766 34.6562C79.1097 34.5245 79.1469 34.3929 79.1799 34.2612C79.3781 33.6357 79.5723 33.0061 79.7705 32.3806C79.8242 32.1872 79.8779 31.9938 79.9274 31.7963C80.0266 31.4918 80.1298 31.1873 80.2289 30.8828C80.3033 30.6236 80.3776 30.3643 80.4561 30.1092C80.6874 29.4343 80.9186 28.7595 81.1541 28.0887C81.2201 27.8953 81.2862 27.6978 81.3564 27.5044C81.406 27.3563 81.4597 27.2081 81.5092 27.06C81.5671 26.9036 81.6249 26.7514 81.6786 26.595C81.8686 26.1629 82.0627 25.7268 82.2527 25.2947C82.3229 25.1013 82.3931 24.9079 82.4633 24.7104C82.6781 24.5087 82.8639 24.2042 83.12 24.1219C84.0286 23.8256 84.962 23.6034 85.8871 23.3565C86.6429 23.3277 87.3946 23.2989 88.1504 23.2701C88.5427 23.336 88.931 23.4059 89.3233 23.4718C89.2366 23.5623 89.154 23.6487 89.0672 23.7392C88.6047 24.3647 88.1421 24.9902 87.6796 25.6156C87.6382 25.6815 87.6011 25.7473 87.5598 25.8173C87.1633 26.5539 86.7709 27.2904 86.3745 28.027L83.2563 32.3395C83.0828 32.5123 82.9052 32.6852 82.7317 32.858C82.3105 33.2654 81.8933 33.6686 81.4721 34.076L81.2821 34.3353L81.1541 34.4628C81.088 34.504 81.026 34.5451 80.96 34.5863C80.8526 34.685 80.7493 34.7797 80.6419 34.8784C80.4437 35.0636 80.2413 35.2447 80.0431 35.4298C79.8283 35.6315 79.6177 35.8331 79.4029 36.0347C79.2914 36.1664 79.1758 36.2981 79.0642 36.4257C78.9734 36.5532 78.8867 36.6808 78.7958 36.8083C78.6223 37.224 78.4282 37.6355 78.2754 38.0552C78.1185 38.4831 77.7922 38.9934 77.912 39.3473C78.23 40.2978 79.1427 40.1044 79.9109 40.1003C79.9729 40.1003 80.0389 40.0797 80.1009 40.0715C80.2083 40.0468 80.3198 40.018 80.4272 39.9933C80.6419 40.0756 80.8608 40.1579 81.0756 40.2443L81.406 39.7341C81.4927 39.7341 81.5795 39.7423 81.6662 39.7464C81.7529 39.6929 81.8396 39.6436 81.9305 39.5901C81.9677 39.5901 82.0049 39.5942 82.042 39.5983C82.1577 39.5736 82.2692 39.5448 82.3187 39.5366C82.3063 39.5366 82.2898 39.5448 82.265 39.5489C82.74 39.6518 82.8267 39.6682 82.9135 39.6888C83.4339 39.3555 83.9542 39.0222 84.4746 38.6889C84.6068 38.6066 84.7431 38.5243 84.8752 38.442C85.1478 38.2198 85.4204 37.9935 85.6971 37.7671C85.5856 37.6272 85.5195 37.5408 85.4534 37.4585C85.3874 37.4338 85.3213 37.4091 85.2552 37.3803C85.2139 37.3803 85.1726 37.3803 85.1313 37.3803C85.0694 37.2363 85.0074 37.0882 84.9454 36.9441C85.2469 36.7384 85.5443 36.5368 85.8458 36.331C85.9325 36.2734 86.0193 36.2158 86.106 36.1582C86.1514 36.1376 86.1927 36.1129 86.2382 36.0923C86.3455 36.0224 86.4571 35.9524 86.5644 35.8825C86.581 35.8907 86.6016 35.8948 86.6181 35.8907C86.9072 35.6109 87.1963 35.3311 87.4854 35.0513C87.6135 34.9443 87.7456 34.8332 87.8737 34.7262C88.1752 34.4381 88.4808 34.1501 88.7823 33.862C88.9557 33.7386 89.1292 33.611 89.3027 33.4876C89.3233 33.4876 89.3481 33.4835 89.3687 33.4793C89.4803 33.397 89.5876 33.3106 89.6991 33.2283C89.7404 33.1419 89.7859 33.0555 89.8272 32.9691L90.4137 32.7016C90.4384 32.6399 90.4632 32.5782 90.488 32.5164C90.5954 32.43 90.7028 32.3477 90.8101 32.2613C90.9588 32.1296 91.1075 31.9938 91.2562 31.8622C91.3388 31.7099 91.4214 31.5618 91.504 31.4095C91.7064 31.2408 91.9087 31.0721 92.1111 30.8993C92.1772 30.7882 92.2474 30.677 92.3135 30.5659C92.458 30.3479 92.6067 30.1298 92.7513 29.9117C92.933 29.673 93.1106 29.4384 93.2923 29.1998C93.3501 29.1751 93.4079 29.1504 93.4699 29.1257C93.7507 28.6936 94.0316 28.2616 94.3166 27.8295C94.3455 27.7883 94.3744 27.7431 94.3991 27.7019C94.5065 27.5703 94.6139 27.4386 94.7213 27.311C94.9154 27.0477 95.1136 26.7843 95.3078 26.5209C95.3078 26.5045 95.2995 26.4839 95.2954 26.4674C95.4317 26.2535 95.5721 26.0395 95.7084 25.8255C95.7538 25.8008 95.7992 25.7761 95.8447 25.7514L96.1214 25.307C96.1833 25.1753 96.2412 25.0437 96.3031 24.912C96.3196 24.912 96.3361 24.9038 96.3527 24.8955C96.394 24.6816 96.4353 24.4676 96.4766 24.2577C96.4766 24.233 96.4807 24.2124 96.4848 24.1878C96.5261 23.9079 96.5674 23.6281 96.6046 23.3483C96.5839 22.9162 96.5592 22.48 96.5385 22.048L96.5468 22.0521ZM50.4099 23.6075C50.4843 23.7104 50.5586 23.8133 50.6536 23.9409C50.5793 24.0232 50.5297 24.0808 50.4843 24.1343C50.4182 24.0355 50.3232 23.945 50.2943 23.8339C50.2778 23.7721 50.3686 23.6816 50.4141 23.6034L50.4099 23.6075ZM20.0045 26.4263C20.0251 26.3728 20.1077 26.3399 20.182 26.3028C20.182 26.3028 20.182 26.3111 20.182 26.3152C20.0953 26.3481 20.021 26.3769 20.0045 26.4263ZM20.2894 26.2782C20.2853 26.2782 20.2812 26.2782 20.277 26.2782C20.2812 26.2782 20.2853 26.2782 20.2894 26.274C20.2894 26.274 20.2564 26.2782 20.2192 26.2823C20.2233 26.2823 20.2275 26.2782 20.2357 26.274C20.4092 26.0107 20.5372 25.6033 20.7726 25.5251C20.5372 25.6033 20.4092 26.0148 20.2894 26.2782ZM27.579 25.8461C27.579 25.8461 27.5459 25.8461 27.5294 25.8461C27.5459 25.8461 27.5625 25.8461 27.579 25.8461ZM29.1773 27.0847C28.7891 27.2987 28.3224 27.3604 27.7648 27.5291C27.9383 27.2328 28.0085 27.1053 28.0828 26.9818C28.1283 26.595 28.1737 26.2123 28.215 25.8255C28.5908 23.5787 29.9207 22.3566 32.1964 22.1509C33.2743 22.0521 34.3523 21.9533 35.4302 21.8546C36.4462 21.764 37.4622 21.6776 38.4741 21.5871C38.5071 21.6817 38.5401 21.7805 38.5732 21.8751C37.3796 22.5418 36.1901 23.2084 34.9966 23.875C34.9098 23.8956 34.8231 23.9203 34.7364 23.9409C34.2944 24.196 33.8567 24.4552 33.4147 24.7104L33.1669 24.7844C31.8371 25.5539 30.5154 26.344 29.169 27.0847H29.1773ZM73.4969 24.3194C73.6291 24.3524 73.7158 24.5787 73.8191 24.7145L73.1005 24.7803H72.2497C72.0225 24.9819 71.816 25.2288 71.5558 25.3729C71.4113 25.451 71.1717 25.3564 70.9735 25.3399C70.9776 25.2823 70.9735 25.1753 70.9941 25.1671C71.1924 25.1219 71.3947 25.0848 71.5971 25.056C71.6797 25.0437 71.7623 25.056 71.8862 25.056C71.7954 24.9202 71.7293 24.8132 71.6632 24.7104L72.2497 24.126C72.6668 24.1836 73.0881 24.2124 73.4928 24.3153L73.4969 24.3194ZM73.7737 25.7844C73.72 25.8091 73.6374 25.8708 73.6167 25.8543C73.4969 25.7638 73.3896 25.6568 73.278 25.5539C73.3606 25.4716 73.4391 25.3934 73.5217 25.3111C73.6084 25.4675 73.6911 25.628 73.7778 25.7844H73.7737ZM71.6962 23.5211C71.7251 23.6075 71.7541 23.694 71.7871 23.7804C71.4236 23.8956 71.0602 24.0067 70.7009 24.1219C70.6844 24.0643 70.6637 24.0067 70.6472 23.9491C70.9983 23.8092 71.3493 23.6652 71.7004 23.5252L71.6962 23.5211ZM59.1119 29.2574C59.1119 29.2574 59.1119 29.2615 59.1202 29.2656C59.1202 29.2615 59.1119 29.2574 59.1119 29.2574C58.9591 28.9981 58.8063 28.7348 58.6576 28.4755C58.8105 28.7348 58.9633 28.9981 59.1119 29.2574ZM58.129 23.1508C58.0794 23.2783 58.0216 23.4265 57.9431 23.624C58.0175 23.4265 58.0794 23.2783 58.129 23.1508ZM53.1069 34.6644C53.1069 34.6644 53.1069 34.6274 53.1069 34.6068C53.6933 34.0349 54.2798 33.4588 54.8663 32.8868C55.0893 32.6563 55.3123 32.43 55.5395 32.1996C55.6634 32.0679 55.7914 31.9403 55.9153 31.8087C56.1342 31.6111 56.3531 31.4177 56.572 31.2202C56.7 31.1091 56.828 30.998 56.9561 30.8828C57.0882 30.7717 57.2204 30.6647 57.3526 30.5536C57.4434 30.496 57.5384 30.4343 57.6293 30.3767C57.6499 30.3767 57.6664 30.3725 57.6788 30.3561C57.7697 30.3067 57.8605 30.2532 57.9514 30.2038C57.9225 30.1627 57.8936 30.1174 57.8647 30.0722C57.8936 30.1174 57.9225 30.1586 57.9514 30.2038L58.2653 30.0433C58.3314 29.961 58.3975 29.8746 58.4635 29.7923C58.5709 29.7018 58.6783 29.6154 58.7857 29.5249C58.8972 29.4384 59.0087 29.3561 59.1202 29.2697C59.335 29.1298 59.5456 28.9858 59.7604 28.8459C59.7604 28.8294 59.7645 28.8171 59.7851 28.8089C59.8925 28.7224 59.9958 28.636 60.1032 28.5496L61.1439 28.0188C61.1728 27.9776 61.2059 27.9365 61.2348 27.8953C61.2348 27.8789 61.2348 27.8583 61.2348 27.8418C61.4661 27.7019 61.6974 27.5661 61.9286 27.4262C62.2343 27.2328 62.5358 27.0394 62.8414 26.846C62.8414 26.8296 62.8455 26.809 62.8497 26.7925C62.891 26.7802 62.9364 26.7637 62.9777 26.7514C63.0644 26.7226 63.147 26.6897 63.2337 26.6608C63.2379 26.8789 63.242 27.1011 63.2503 27.3192C63.1966 27.5126 63.1429 27.706 63.0892 27.8995C63.0066 28.1957 62.924 28.4961 62.8414 28.7924C62.6927 30.3026 61.338 30.533 60.3303 31.1215C58.5255 32.1708 56.7083 33.2036 54.8993 34.2447C54.4367 34.5122 53.9824 34.7879 53.524 35.0595C53.0903 35.2776 52.6567 35.4957 52.223 35.7138C52.1693 35.652 52.1198 35.5944 52.0661 35.5327C52.413 35.2405 52.7558 34.9484 53.1027 34.6562L53.1069 34.6644ZM57.3567 34.2118C57.1171 34.2982 56.8776 34.3846 56.6381 34.471L57.3567 34.2118ZM54.6019 35.2241C54.5606 35.257 54.5276 35.2858 54.4904 35.3146C54.5235 35.2858 54.5606 35.257 54.6019 35.2241ZM75.3307 28.0435C74.959 29.0804 74.5873 30.1174 74.2156 31.1544C73.9099 31.8046 73.6043 32.4547 73.2946 33.1049C72.8774 34.1995 72.3901 35.2693 72.0597 36.3886C70.9033 40.2978 69.7881 44.2235 68.6854 48.1492C68.5326 48.6882 68.5285 49.2726 68.4541 49.8322C68.3096 50.1902 68.165 50.5441 68.0205 50.9021C66.926 50.3466 65.8316 49.791 64.7371 49.2314C64.4108 49.0792 64.0845 48.9228 63.7541 48.7705C60.574 47.3015 57.3938 45.8325 54.2137 44.3675L52.8425 43.6515C52.6649 43.6104 52.4873 43.5733 52.3139 43.5322C51.9752 43.3758 51.6366 43.2195 51.302 43.0631C51.4961 42.8779 51.6902 42.6969 52.1363 42.273C52.0702 42.273 52.0289 42.2771 51.9959 42.2771C52.446 42.2277 52.9003 42.1743 53.3505 42.1249C53.4414 41.9562 53.5364 41.7916 53.6272 41.6229C53.6685 41.5982 53.714 41.5694 53.7553 41.5447C53.9287 41.4953 54.1022 41.4459 54.2757 41.4006C54.3004 41.3883 54.3211 41.3718 54.3459 41.3595L56.3035 40.1703C56.3944 40.1127 56.4852 40.0509 56.572 39.9933C56.2953 39.8781 56.0227 39.7629 55.746 39.6435C56.0227 39.7588 56.2953 39.874 56.572 39.9933C56.8528 39.7958 57.1337 39.5942 57.4145 39.3967C58.0836 38.944 58.7485 38.4914 59.4176 38.0387C59.496 37.9564 59.5786 37.87 59.6571 37.7877C59.7356 37.6972 59.8099 37.6066 59.8884 37.5161C60.0453 37.3844 60.1982 37.2486 60.3551 37.117C60.4873 37.0552 60.6153 36.9935 60.7475 36.9318C60.9663 36.7754 61.1852 36.6191 61.4 36.4627C61.6024 36.3104 61.8048 36.1541 62.0402 35.9771C62.0484 36.117 62.0526 36.1993 62.0567 36.2816C62.0402 36.2981 62.0402 36.3145 62.0484 36.331C62.0484 37.3433 62.0484 38.3515 62.0484 39.3637C62.036 39.3761 62.0402 39.3925 62.0526 39.4008C62.1393 40.1415 62.226 40.8863 62.3086 41.627C62.3127 41.6887 62.321 41.7463 62.3251 41.808C62.862 42.4911 63.399 43.1701 63.9359 43.849C63.9524 43.8696 64.0061 43.849 64.0267 43.8696C64.32 44.1535 64.6132 44.4375 64.894 44.7338C64.989 44.8366 65.0138 44.9971 65.1088 45.1C65.1377 45.1329 65.3236 45.1082 65.3566 45.0547C65.9802 44.0836 66.5915 43.1042 67.2069 42.129C67.2316 42.0014 67.2564 41.8739 67.2812 41.7422C67.5207 40.8945 67.7603 40.0468 67.9957 39.2033C68.0205 39.0963 68.0411 38.9893 68.0659 38.8864C68.1444 38.623 68.227 38.3597 68.3055 38.1004L68.5409 37.3268C68.6606 36.8906 68.7804 36.4545 68.9002 36.0183C68.925 35.9483 68.9497 35.8784 68.9787 35.8084C69.1067 35.508 69.2347 35.2117 69.3628 34.9113C69.371 34.8249 69.3751 34.7385 69.3834 34.6562C69.4867 34.3723 69.594 34.0884 69.6973 33.8085L69.0654 33.8168C69.276 33.8168 69.4867 33.8127 69.6973 33.8085C69.7179 33.7633 69.7386 33.7221 69.7592 33.6769C69.9327 33.2242 70.1103 32.7675 70.2838 32.3107C70.4985 31.7017 70.7174 31.0968 70.9322 30.4878C70.957 30.3602 70.9776 30.2285 71.0024 30.101C71.0685 29.8623 71.1345 29.6236 71.1965 29.385L71.5021 28.529C71.6178 28.3109 71.7293 28.0887 71.8449 27.8706C71.8697 27.7678 71.8986 27.6649 71.9234 27.562C71.9193 27.5415 71.911 27.5209 71.9069 27.4962C71.9564 27.2822 72.006 27.0723 72.0555 26.8584C72.1175 26.8748 72.1795 26.8954 72.2455 26.9119L72.3116 26.9736C72.5759 27.167 72.8444 27.3604 73.1087 27.5538H73.1376L73.1624 27.562H75.5413C75.5124 27.6238 75.4174 27.8254 75.3224 28.0229L75.3307 28.0435ZM76.5325 38.8905C76.5325 38.8905 76.5036 38.9152 76.4912 38.9276C76.5077 38.9152 76.5243 38.9029 76.5325 38.8905ZM86.139 18.8424C86.1514 18.7272 86.1597 18.6038 86.1721 18.4556C86.1597 18.6038 86.1473 18.7313 86.139 18.8424ZM79.4442 36.8125C79.3781 36.833 79.3121 36.8577 79.2501 36.8783C79.2997 36.8618 79.3492 36.8454 79.4607 36.7219C79.4731 36.7384 79.4896 36.759 79.5062 36.7754C79.4814 36.8495 79.4938 36.8618 79.5062 36.8742C79.4855 36.8536 79.4607 36.8289 79.4401 36.8083L79.4442 36.8125ZM83.9295 33.0843C83.8303 33.1501 83.628 33.43 83.4215 33.7098C83.5908 33.4752 83.7601 33.2407 83.9336 33.0061C83.9336 33.0308 83.9336 33.0514 83.9295 33.0843C83.9295 33.2201 84.0327 33.1419 84.2351 32.9814C84.0988 33.0884 84.0079 33.1584 83.9336 33.216C83.9336 33.1748 83.9253 33.1378 83.9336 33.0843H83.9295Z" fill="#060419"/>
</svg>