<?xml version="1.0" encoding="utf-8"?>
<svg xmlns="http://www.w3.org/2000/svg" fill="none" height="23" viewBox="0 0 93 23" width="93">
<g clip-path="url(#clip0_24_67)">
<path clip-rule="evenodd" d="M69.5722 15.3274C69.5722 19.7133 67.0135 22.7323 62.6723 22.7323C60.8898 22.7323 59.2511 21.9917 58.5323 20.8525V22.5043H54.91V2.34036H58.5323V9.74522C59.3661 8.66298 60.9185 7.92249 62.7297 7.92249C67.0135 7.92249 69.5722 10.9414 69.5722 15.3274ZM58.3024 15.3274C58.3024 17.9191 59.8261 19.6278 62.1548 19.6278C64.4548 19.6278 65.9785 17.9191 65.9785 15.3274C65.9785 12.7357 64.4548 11.0268 62.1548 11.0268C59.8261 11.0268 58.3024 12.7357 58.3024 15.3274Z" fill="#060419" fill-rule="evenodd"/>
<path clip-rule="evenodd" d="M17.9209 22.5043L13.4961 13.59C15.4797 12.6217 16.6585 10.7136 16.6585 8.46361C16.6585 4.8751 14.0998 2.56821 10.1611 2.56821H0.553558L0.582308 22.5043H4.49223V14.3306H9.4999L13.3785 22.5043H17.9209ZM4.49223 5.90039H9.5574C11.5698 5.90039 12.7198 6.86872 12.7198 8.46361C12.7198 10.0585 11.5698 10.9984 9.5574 10.9984H4.49223V5.90039Z" fill="#060419" fill-rule="evenodd"/>
<path clip-rule="evenodd" d="M29.8185 8.15033H33.4409V22.5043H29.8185V20.8525C29.0997 21.9917 27.4897 22.7322 25.6785 22.7322C21.3374 22.7322 18.7787 19.7133 18.7787 15.3274C18.7787 10.9414 21.3374 7.92249 25.6211 7.92249C27.4322 7.92249 28.9847 8.66297 29.8185 9.74522V8.15033ZM22.3724 15.3274C22.3724 17.9191 23.896 19.6278 26.196 19.6278C28.5248 19.6278 30.0484 17.9191 30.0484 15.3274C30.0484 12.7357 28.5248 11.0268 26.196 11.0268C23.896 11.0268 22.3724 12.7357 22.3724 15.3274Z" fill="#060419" fill-rule="evenodd"/>
<path d="M46.2478 8.15033L46.0178 11.6249C45.5003 11.3971 44.8104 11.2832 44.1779 11.2832C42.1366 11.2832 40.2967 12.9635 40.2967 17.2355V22.5043H36.6743V8.15033H40.2967V10.7705C41.0154 9.14714 42.9128 7.92249 44.6666 7.92249C45.184 7.92249 45.8166 8.00792 46.2478 8.15033Z" fill="#060419"/>
<path d="M51.6886 22.5043H48.0663V8.15033H51.6886V22.5043Z" fill="#060419"/>
<path d="M72.0293 22.5043H75.6517V2.34036H72.0293V22.5043Z" fill="#060419"/>
<path clip-rule="evenodd" d="M92.529 14.8432C92.529 11.511 90.1428 7.92249 85.2554 7.92249C80.4543 7.92249 78.0967 11.5964 78.0967 15.3274C78.0967 19.0582 80.6555 22.7322 85.4566 22.7322C88.8491 22.7322 91.379 21.1374 92.184 18.4317L88.7915 17.5203C88.4179 18.9158 87.2103 19.7133 85.5142 19.7133C83.4441 19.7133 82.0354 18.4317 81.7192 16.2672H92.4714C92.5002 15.9824 92.529 15.3559 92.529 14.8432ZM81.8054 13.647C82.2079 11.7103 83.4729 10.6566 85.2554 10.6566C87.3541 10.6566 88.4753 11.9382 88.6478 13.647H81.8054Z" fill="#060419" fill-rule="evenodd"/>
<path d="M47.6371 3.08027C47.6371 2.169 48.3807 1.43027 49.2979 1.43027H50.4862C51.4033 1.43027 52.1469 2.169 52.1469 3.08027V4.26083C52.1469 5.17211 51.4033 5.91083 50.4862 5.91083H49.2979C48.3807 5.91083 47.6371 5.17211 47.6371 4.26083V3.08027Z" fill="#060419"/>
</g>
<defs>
<clipPath id="clip0_24_67">
<rect fill="white" height="22" transform="translate(0 0.942566)" width="93"/>
</clipPath>
</defs>
</svg>