<?xml version="1.0" encoding="utf-8"?>
<svg xmlns="http://www.w3.org/2000/svg" fill="none" height="138" viewBox="0 0 139 138" width="139">
<path d="M100.872 53.1604C100.872 55.993 100.872 58.7714 100.872 61.5783C99.6475 61.5783 98.4796 61.5783 97.233 61.5783C97.2226 59.7998 97.276 58.0197 97.2847 56.2398C97.2934 54.4575 97.2866 52.6752 97.2111 50.8671C95.9018 54.4289 94.5925 57.9907 93.2743 61.5768C92.4242 61.5768 91.5808 61.5768 90.6551 61.5768C89.3877 58.0357 88.1057 54.4533 86.8236 50.8709C86.7876 50.8799 86.7515 50.8889 86.7155 50.8979C86.7459 54.4457 86.7763 57.9935 86.8069 61.5743C85.6281 61.5743 84.5002 61.5743 83.3406 61.5743C83.3406 56.4723 83.3406 51.3843 83.3406 46.2613C85.0705 46.2613 86.7972 46.2613 88.5898 46.2613C89.7356 49.4887 90.8917 52.7454 92.0479 56.002C92.5763 54.966 92.8929 53.8735 93.269 52.8037C93.652 51.7143 94.0124 50.6169 94.3831 49.5231C94.7532 48.4312 95.124 47.3396 95.4961 46.2428C97.2787 46.2428 99.0296 46.2428 100.775 46.2428C100.794 46.2626 100.807 46.275 100.818 46.2883C100.83 46.3017 100.851 46.3158 100.851 46.3297C100.859 48.5885 100.866 50.8473 100.872 53.1604Z" fill="#060419"/>
<path d="M32.7656 61.6074C31.9165 61.6074 31.1216 61.6074 30.293 61.6074C29.1882 59.582 28.0833 57.5565 26.9776 55.5297C26.5572 55.5297 26.1649 55.5297 25.7197 55.5297C25.7197 57.548 25.7197 59.5456 25.7197 61.5749C24.4844 61.5749 23.3017 61.5749 22.0845 61.5749C22.0845 56.474 22.0845 51.3867 22.0845 46.2625C22.2099 46.25 22.3297 46.2277 22.4496 46.2277C24.3656 46.2272 26.2818 46.2159 28.1977 46.2371C29.1768 46.248 30.1445 46.3895 31.0595 46.7622C32.4129 47.3136 33.3582 48.2455 33.6809 49.7108C33.8417 50.4409 33.857 51.1841 33.6957 51.9174C33.3874 53.3185 32.4909 54.2234 31.2144 54.7947C31.0664 54.8609 30.9134 54.916 30.7645 54.9803C30.733 54.9939 30.7094 55.0256 30.6519 55.0748C31.9597 57.2204 33.2708 59.3715 34.6336 61.6074C33.9608 61.6074 33.3903 61.6074 32.7656 61.6074ZM30.0399 50.3409C29.8129 49.794 29.3806 49.4647 28.8231 49.3772C28.2044 49.28 27.5709 49.2705 26.943 49.2417C26.5369 49.223 26.1293 49.2382 25.6969 49.2382C25.6969 49.8853 25.6951 50.4603 25.6974 51.0352C25.6998 51.6207 25.687 52.2073 25.7071 52.8147C26.2158 52.8147 26.6479 52.8353 27.0772 52.8095C27.6146 52.7773 28.1573 52.7466 28.6842 52.6449C29.7215 52.4447 30.3678 51.5819 30.0399 50.3409Z" fill="#060419"/>
<path d="M66.3627 58.1778C66.1088 57.4692 65.9698 56.7799 65.9683 56.07C65.9614 52.8696 65.9617 49.6692 65.9604 46.4689C65.9604 46.4154 65.9728 46.3619 65.9793 46.3098C66.3571 46.2071 68.8157 46.1789 69.6508 46.2757C69.6508 46.4576 69.6508 46.6496 69.6508 46.8415C69.6508 49.6622 69.6528 52.4829 69.6497 55.3035C69.6488 56.0939 69.7646 56.852 70.2063 57.5292C70.285 57.6498 70.3669 57.7729 70.4685 57.8732C71.319 58.713 72.3594 58.8148 73.4433 58.5451C74.4666 58.2904 75.0753 57.5721 75.2831 56.5488C75.3758 56.0928 75.4052 55.6174 75.4071 55.1506C75.418 52.4023 75.4123 49.6539 75.4123 46.9055C75.4123 46.7078 75.4123 46.5101 75.4123 46.3203C75.822 46.2031 77.9663 46.1697 79.0786 46.2601C79.0924 46.3881 79.1198 46.5241 79.1199 46.6603C79.1221 49.6798 79.117 52.6994 79.1235 55.719C79.1258 56.803 78.9433 57.8421 78.4384 58.8089C77.7444 60.1377 76.6609 61.0301 75.2644 61.5312C73.4483 62.183 71.6102 62.189 69.794 61.5466C68.156 60.9673 66.9972 59.8604 66.3627 58.1778Z" fill="#060419"/>
<path d="M46.6496 55.2351C44.8438 55.2351 43.092 55.2351 41.2994 55.2351C41.2994 56.3014 41.2994 57.3369 41.2994 58.4248C43.6643 58.4248 46.008 58.4248 48.3769 58.4248C48.3769 59.4991 48.3769 60.5213 48.3769 61.5754C44.8251 61.5754 41.29 61.5754 37.7549 61.5754C37.6508 61.1832 37.6057 47.4021 37.705 46.3131C38.0769 46.2062 47.3149 46.1766 47.9928 46.2851C47.9928 47.2848 47.9928 48.2898 47.9928 49.3485C45.7735 49.3485 43.5603 49.3485 41.2882 49.3485C41.2321 49.8571 41.2659 50.3221 41.2599 50.784C41.2538 51.2519 41.2585 51.7198 41.2585 52.2655C41.9864 52.2776 42.6832 52.2702 43.3796 52.2715C44.0846 52.2728 44.7896 52.2718 45.4946 52.2718C46.1946 52.2718 46.8946 52.2718 47.6184 52.2718C47.6184 53.2722 47.6184 54.2215 47.6184 55.2351C47.3057 55.2351 47.0046 55.2351 46.6496 55.2351Z" fill="#060419"/>
<path d="M114.242 58.4291C114.837 58.4291 115.377 58.4291 115.954 58.4291C115.954 59.484 115.954 60.5042 115.954 61.5282C115.594 61.6271 105.983 61.6546 105.294 61.5505C105.294 56.4677 105.294 51.3801 105.294 46.2594C108.721 46.2594 112.129 46.2594 115.575 46.2594C115.575 47.2779 115.575 48.2978 115.575 49.3697C113.347 49.3697 111.132 49.3697 108.883 49.3697C108.883 50.3496 108.883 51.2783 108.883 52.2553C110.988 52.2553 113.077 52.2553 115.199 52.2553C115.199 53.2518 115.199 54.2016 115.199 55.2269C114.52 55.2442 113.823 55.2326 113.127 55.2347C112.422 55.2368 111.717 55.2352 111.012 55.2352C110.312 55.2352 109.611 55.2352 108.88 55.2352C108.88 56.3086 108.88 57.3296 108.88 58.4291C110.66 58.4291 112.424 58.4291 114.242 58.4291Z" fill="#060419"/>
<path d="M38.0666 89.7106C37.9107 90.2349 37.7652 90.7167 37.617 91.2077C36.8909 91.2077 36.1889 91.2077 35.4252 91.2077C34.1957 87.0787 32.9636 82.9411 31.7316 78.8034C31.6941 78.803 31.6566 78.8026 31.6192 78.8022C30.3995 82.9243 29.1797 87.0465 27.9524 91.1945C27.228 91.1945 26.5115 91.1945 25.7423 91.1945C24.2548 86.1044 22.7636 81.002 21.2625 75.8653C21.9988 75.8653 22.6814 75.8653 23.4358 75.8653C24.5509 79.9075 25.6712 83.9687 26.7915 88.03C26.8223 88.0298 26.8531 88.0296 26.8839 88.0295C28.0809 83.9752 29.2779 79.921 30.4765 75.8616C31.2898 75.8616 32.0633 75.8616 32.8741 75.8616C34.073 79.9215 35.2714 83.9799 36.4698 88.0383C36.4993 88.0373 36.5287 88.0362 36.5582 88.0351C37.6748 83.9851 38.7915 79.935 39.9124 75.8695C40.6408 75.8695 41.3379 75.8695 42.0851 75.8695C40.7439 80.4869 39.4105 85.0775 38.0666 89.7106Z" fill="#060419"/>
<path d="M60.0844 53.177C60.8234 53.5901 61.4309 54.0894 61.8712 54.7772C62.1797 55.2591 62.357 55.7823 62.4013 56.3515C62.5091 57.7357 62.2501 59.0168 61.317 60.0966C60.5441 60.9911 59.549 61.5202 58.406 61.7605C55.9146 62.2843 53.6002 61.8744 51.5033 60.3913C51.4005 60.3186 51.3026 60.2371 51.2111 60.1505C51.0941 60.0398 50.9859 59.9199 50.8228 59.751C51.6109 58.9471 52.4011 58.1411 53.2133 57.3126C53.3463 57.4395 53.4576 57.5521 53.5757 57.6572C54.5002 58.4804 55.5531 58.9877 56.8196 58.901C57.1553 58.878 57.5018 58.7949 57.8125 58.6655C58.7426 58.2783 59.0604 56.8233 58.1028 56.1698C57.6909 55.8887 57.2245 55.6723 56.7583 55.4893C55.9025 55.1533 55.0121 54.9028 54.166 54.546C52.8829 54.005 51.9443 53.0968 51.6661 51.6889C51.2065 49.3631 52.1635 47.417 54.26 46.5285C57.1132 45.3192 59.8329 45.6565 62.3249 47.5479C62.3815 47.5909 62.4295 47.6452 62.5332 47.7431C61.7501 48.5688 60.9739 49.3872 60.1812 50.2231C59.7025 49.6803 59.1529 49.3153 58.5067 49.0965C57.8185 48.8634 57.1223 48.8424 56.428 49.0442C55.6938 49.2577 55.2885 49.8172 55.3125 50.5126C55.3268 50.9255 55.4952 51.2565 55.8411 51.4641C56.1638 51.6577 56.5067 51.8275 56.8586 51.9608C57.567 52.2291 58.2903 52.4579 59.002 52.7181C59.3572 52.8479 59.7002 53.0109 60.0844 53.177Z" fill="#060419"/>
<path d="M48.656 91.3124C45.0628 90.2318 42.8909 87.2245 42.938 83.4429C42.9676 81.0671 43.7921 79.0313 45.5627 77.4221C46.7909 76.3059 48.2632 75.6922 49.905 75.523C51.5115 75.3575 53.0766 75.5336 54.5498 76.259C56.9294 77.4307 58.3092 79.3713 58.7883 81.9356C59.1826 84.0463 58.8693 86.0752 57.7291 87.9299C56.5136 89.907 54.7315 91.063 52.4592 91.4669C51.1989 91.6909 49.9423 91.633 48.656 91.3124ZM47.2957 88.377C49.5133 90.2541 53.4469 90.1623 55.4554 87.4493C56.8723 85.5356 57.0926 83.3868 56.3015 81.175C54.7539 76.8481 49.387 76.3576 46.7779 79.167C45.8477 80.1687 45.3365 81.3638 45.1999 82.7128C44.9779 84.9055 45.5454 86.8228 47.2957 88.377Z" fill="#060419"/>
<path d="M113.865 77.4023C115.489 78.6792 116.316 80.3652 116.59 82.3308C116.928 84.7548 116.341 86.93 114.634 88.7273C113.273 90.1594 111.561 90.9432 109.609 91.1168C108.352 91.2285 107.083 91.2012 105.819 91.2223C104.991 91.2361 104.163 91.2249 103.301 91.2249C103.301 86.0992 103.301 81.0126 103.301 75.8934C103.385 75.8789 103.486 75.8467 103.586 75.8467C105.393 75.846 107.2 75.8329 109.007 75.8574C110.188 75.8734 111.347 76.0692 112.425 76.5788C112.912 76.809 113.366 77.1097 113.865 77.4023ZM106.92 89.2672C107.878 89.2786 108.836 89.2733 109.78 89.0716C111.378 88.7302 112.735 88.0042 113.636 86.5901C114.476 85.2704 114.613 83.8231 114.345 82.3126C113.916 79.8892 112.099 78.1342 109.649 77.9061C108.375 77.7875 107.086 77.8296 105.804 77.8029C105.665 77.8 105.526 77.822 105.378 77.8331C105.378 81.6517 105.378 85.4375 105.378 89.2672C105.878 89.2672 106.345 89.2672 106.92 89.2672Z" fill="#060419"/>
<path d="M74.6712 91.2243C74.5526 91.179 74.4447 91.1459 74.4279 91.0869C74.3943 90.9691 74.4068 90.8371 74.4068 90.7109C74.4062 85.9202 74.4063 81.1294 74.4064 76.3386C74.4064 76.1964 74.4064 76.0542 74.4064 75.8892C74.5229 75.8711 74.6078 75.8465 74.6926 75.8465C76.5185 75.8466 78.3446 75.8329 80.1702 75.8576C81.4093 75.8744 82.6124 76.112 83.7416 76.6445C85.961 77.6912 87.1731 79.5118 87.652 81.8547C88.0293 83.7008 87.8304 85.492 86.9176 87.1645C85.8323 89.153 84.1198 90.3314 81.9645 90.9107C81.0683 91.1517 80.1482 91.2181 79.2246 91.2227C77.7242 91.2301 76.2236 91.2248 74.6712 91.2243ZM85.5635 84.3923C85.5389 83.7096 85.5829 83.0161 85.4776 82.3461C85.0924 79.8944 83.2525 78.1267 80.7767 77.9064C79.3965 77.7836 78.0005 77.8385 76.6116 77.8163C76.5826 77.8159 76.5531 77.852 76.5182 77.8747C76.5182 81.6547 76.5182 85.4375 76.5182 89.2225C77.6478 89.2225 78.7457 89.2513 79.841 89.2102C80.3762 89.1901 80.9208 89.0895 81.4364 88.94C83.6936 88.2851 85.1535 86.8745 85.5635 84.3923Z" fill="#060419"/>
<path d="M70.9374 82.8678C70.116 83.6678 69.5877 83.9401 68.2751 84.2303C68.7096 85.0324 69.2143 85.7662 69.6753 86.5243C70.1447 87.296 70.6281 88.0592 71.1051 88.8262C71.5807 89.5909 72.056 90.3556 72.5853 91.2069C72.104 91.2419 71.7001 91.2211 71.2984 91.2248C70.8829 91.2287 70.4673 91.2257 70.009 91.2257C69.9127 91.0718 69.8046 90.9101 69.7075 90.742C68.5779 88.7869 67.4418 86.8356 66.3298 84.8707C66.1447 84.5435 65.9428 84.4085 65.5666 84.4292C64.9911 84.461 64.4126 84.4376 63.7755 84.4376C63.7755 86.7004 63.7755 88.9329 63.7755 91.1951C63.0556 91.1951 62.3958 91.1951 61.6992 91.1951C61.6992 86.098 61.6992 81.0093 61.6992 75.8802C61.8208 75.8678 61.9397 75.8453 62.0586 75.8452C63.7761 75.8437 65.4935 75.838 67.2109 75.8492C68.065 75.8548 68.9004 75.9761 69.6905 76.3346C70.9179 76.8916 71.658 77.8266 71.908 79.149C72.1683 80.5256 71.9052 81.7699 70.9374 82.8678ZM66.6636 82.6082C67.3326 82.578 67.9973 82.5285 68.6139 82.2267C69.3718 81.8559 69.7213 81.2282 69.7693 80.4078C69.8216 79.5142 69.6514 78.7127 68.8333 78.1879C68.7129 78.1107 68.5815 78.0333 68.4447 78.0024C67.9374 77.8877 67.4289 77.7297 66.915 77.7032C65.9423 77.6531 64.9656 77.6817 63.9905 77.6813C63.9243 77.6813 63.8581 77.7132 63.7993 77.7284C63.7094 78.8126 63.7467 82.2127 63.8555 82.6164C64.7525 82.6164 65.6548 82.6164 66.6636 82.6082Z" fill="#060419"/>
<path d="M100.644 91.2237C97.2869 91.2246 93.9811 91.2246 90.6829 91.2246C90.5649 90.8323 90.5297 76.6163 90.6419 75.8733C93.8993 75.8733 97.1612 75.8733 100.459 75.8733C100.459 76.5047 100.459 77.1248 100.459 77.7998C97.8748 77.7998 95.3005 77.7998 92.6968 77.7998C92.6968 79.3282 92.6968 80.8026 92.6968 82.3587C93.2731 82.3827 93.8608 82.3663 94.4472 82.3692C95.0617 82.3722 95.6762 82.3699 96.2906 82.3699C96.8871 82.3699 97.4835 82.3699 98.0799 82.3699C98.674 82.3699 99.2682 82.3699 99.9392 82.3699C99.9637 83.0178 99.951 83.6375 99.9457 84.315C97.526 84.315 95.1332 84.315 92.7038 84.315C92.7038 85.9846 92.7038 87.5972 92.7038 89.2582C95.4269 89.2582 98.1296 89.2582 100.886 89.2582C100.886 89.8948 100.891 90.4849 100.878 91.0746C100.877 91.1253 100.759 91.1734 100.644 91.2237Z" fill="#060419"/>
</svg>