<?xml version="1.0" encoding="utf-8"?>
<svg xmlns="http://www.w3.org/2000/svg" fill="none" height="24" viewBox="0 0 113 24" width="113">
<g clip-path="url(#clip0_24_83)">
<path d="M12.6903 18.9025H16.1581C16.4246 20.245 17.2354 20.9675 19.0366 20.9675C20.1127 20.9675 20.748 20.4667 20.748 19.6839C20.748 18.873 19.4196 18.6361 17.8273 18.253C15.6124 17.7368 12.9722 16.9092 12.9722 14.0769C12.9722 11.3021 15.4061 9.38314 18.8598 9.38314C22.6081 9.38314 24.5412 11.2573 24.7474 14.1204H21.3386C21.117 12.7779 20.4675 12.0989 18.8303 12.0989C17.8119 12.0989 17.1778 12.6152 17.1778 13.3979C17.1778 14.3267 18.6382 14.5342 20.3202 14.9031C22.489 15.404 24.9691 16.1573 24.9691 19.0204C24.9691 21.8681 22.7106 23.6692 19.0507 23.6692C15.0667 23.6692 12.9568 21.4851 12.6903 18.9025ZM29.3668 23.4041C27.1968 23.2414 26.7984 22.223 26.7843 20.3193V16.0381H25.6032V13.6477H26.7843V11.6852L30.6364 10.0185V13.6631H32.171V16.0535H30.5761V20.3488C30.5761 20.7024 30.7683 20.8791 31.1372 20.8791H32.1262V23.4028L29.3668 23.4041ZM32.7308 18.5336C32.7308 15.404 34.842 13.412 38.3687 13.412C41.8813 13.412 43.9476 15.3899 43.9476 18.5336C43.9476 21.6619 41.8364 23.6539 38.2803 23.6539C34.7677 23.6539 32.7308 21.6913 32.7308 18.5336ZM39.9623 18.622V18.4298C39.9623 16.6876 39.4012 15.9356 38.3238 15.9356C37.2772 15.9356 36.7161 16.7043 36.7161 18.4298V18.622C36.7161 20.3642 37.2465 21.1008 38.3238 21.1008C39.4012 21.1008 39.9636 20.3488 39.9636 18.622H39.9623ZM44.8482 18.4887C44.8482 15.3758 46.958 13.3979 50.322 13.3979C53.3184 13.3979 54.7057 14.6815 55.3245 16.7619L51.8567 17.5741C51.7094 16.8055 51.3558 16.0689 50.4258 16.0689C49.3779 16.0689 48.8616 16.8798 48.8616 18.4452V18.6066C48.8616 20.2002 49.319 20.9829 50.3963 20.9829C51.3264 20.9829 51.7978 20.3783 51.931 19.4034L55.4282 20.0388C54.9261 22.2524 53.4503 23.6385 50.3669 23.6385C46.8389 23.6539 44.8482 21.7503 44.8482 18.4887ZM60.2846 17.4114L62.9838 13.649H67.0575L63.8997 17.2641L67.1459 23.4028H63.1324L61.2723 19.8313L60.2834 21.0124V23.4028H56.4313V9.59067H60.2834L60.2846 17.4114ZM71.3912 23.4041C69.2224 23.2414 68.824 22.223 68.8099 20.3193V16.0381H67.6288V13.6477H68.8099V11.6852L72.662 10.0185V13.6631H74.1967V16.0535H72.5877V20.3488C72.5877 20.7024 72.7799 20.8791 73.1488 20.8791H74.1378V23.4028L71.3912 23.4041ZM80.0139 18.5925L81.5191 13.6477H84.7217L86.182 18.6361L87.4823 13.649H90.6695L87.5118 23.4028H84.2784L82.6848 18.0019L81.0899 23.4028H77.8438L74.7591 13.649H78.6854L80.0139 18.5925ZM95.0814 12.6152H91.1268V9.69443H95.0814V12.6152ZM95.0519 23.4041H91.1704V13.6503H95.0519V23.4041ZM99.6009 23.4041C97.4321 23.2414 97.0337 22.223 97.0183 20.3193V16.0381H95.8385V13.6477H97.0183V11.6852L100.87 10.0185V13.6631H102.405V16.0535H100.811V20.3488C100.811 20.7024 101.004 20.8791 101.373 20.8791H102.362V23.4028H99.5996L99.6009 23.4041ZM103.062 22.0603L104.804 20.1413C105.586 20.8497 106.618 21.3813 107.682 21.3813C108.316 21.3813 108.728 21.1751 108.728 20.7613C108.728 20.245 107.888 20.0977 106.752 19.8313C105.217 19.4623 103.298 18.7847 103.298 16.6889C103.298 14.7263 105.099 13.339 107.577 13.339C109.792 13.339 111.253 13.9731 112.315 14.9915C112.315 15.0799 110.706 16.8503 110.706 16.8503C109.88 16.1419 108.906 15.6705 107.917 15.6705C107.283 15.6705 106.928 15.8921 106.928 16.2905C106.928 16.8067 107.505 16.9092 108.744 17.1744C110.294 17.5446 112.418 18.1198 112.418 20.3334C112.418 22.3408 110.559 23.6987 108.049 23.6987C105.747 23.7128 104.228 23.0492 103.062 22.0603ZM9.82722 12.733L-0.00088501 7.67296V5.81161L9.78366 0.691315L9.79775 3.99639L4.0869 6.71218L9.81313 9.4126L9.82722 12.733Z" fill="#060419"/>
<path d="M9.82722 16.2016L0.0439512 21.336L0.0285788 18.0463L5.59212 15.3151L0.0144874 12.6442L-0.00088501 9.29428L9.81184 14.3569L9.82722 16.2016Z" fill="#060419"/>
</g>
<defs>
<clipPath id="clip0_24_83">
<rect fill="white" height="23.0586" transform="translate(0 0.692139)" width="112.731"/>
</clipPath>
</defs>
</svg>