<?xml version="1.0" encoding="utf-8"?>
<svg xmlns="http://www.w3.org/2000/svg" fill="none" height="17" viewBox="0 0 278 17" width="278">
<g clip-path="url(#clip0_101_17)">
<path d="M189.718 0.55777H192.009C193.053 0.627564 194.017 0.812585 194.901 1.11283C197.145 1.8753 197.505 3.53654 197.483 5.85752C197.463 8.22394 197.458 10.3553 197.467 12.2516C197.475 13.7568 196.916 15.0822 195.494 15.7657C194.564 16.2134 193.41 16.4774 192.033 16.5578H189.615C188.444 16.4722 187.399 16.2516 186.478 15.896C184.699 15.2086 184.197 13.7706 184.217 11.9138C184.24 9.75547 184.24 7.58855 184.215 5.41308C184.191 3.38839 184.665 1.87728 186.654 1.16024C187.58 0.82707 188.601 0.626247 189.718 0.55777ZM192.635 5.75481C192.635 5.48605 192.529 5.22831 192.339 5.03827C192.149 4.84824 191.891 4.74147 191.622 4.74147H190.081C189.813 4.74147 189.555 4.84824 189.365 5.03827C189.175 5.22831 189.068 5.48605 189.068 5.75481V11.416C189.068 11.6848 189.175 11.9425 189.365 12.1326C189.555 12.3226 189.813 12.4294 190.081 12.4294H191.622C191.891 12.4294 192.149 12.3226 192.339 12.1326C192.529 11.9425 192.635 11.6848 192.635 11.416V5.75481Z" fill="#060419"/>
<path d="M0.876343 4.48862V1.37751C0.98696 1.05092 1.2668 0.886973 1.71585 0.885656C5.48869 0.875121 9.2668 0.874462 13.0502 0.88368C13.2149 0.884203 13.3726 0.949989 13.4889 1.06662C13.6051 1.18325 13.6704 1.34122 13.6704 1.5059V4.35627C13.6704 4.52654 13.6028 4.68982 13.4824 4.81022C13.362 4.93061 13.1987 4.99825 13.0284 4.99825H9.86795C9.84228 4.99825 9.81766 5.00865 9.79951 5.02718C9.78136 5.0457 9.77116 5.07082 9.77116 5.09701V15.5069C9.76984 15.9955 9.52556 16.2397 9.03832 16.2397H5.49857C5.01922 16.2397 4.77955 16.0001 4.77955 15.5207V5.09109C4.77955 5.06542 4.76915 5.0408 4.75063 5.02265C4.7321 5.0045 4.70698 4.9943 4.68079 4.9943C3.68918 5.00352 2.70153 5.00352 1.71782 4.9943C1.2556 4.98903 0.975108 4.82047 0.876343 4.48862Z" fill="#060419"/>
<path d="M176.228 5.07924L176.23 7.0743C176.23 7.10049 176.241 7.12561 176.26 7.14414C176.279 7.16266 176.304 7.17306 176.331 7.17306H180.072C180.24 7.17306 180.4 7.23945 180.518 7.35762C180.636 7.47579 180.703 7.63607 180.703 7.80319L180.704 10.5429C180.704 11.0289 180.462 11.2718 179.978 11.2718L176.333 11.2699C176.263 11.2699 176.228 11.3048 176.228 11.3745V15.5089C176.228 15.9961 175.985 16.2397 175.498 16.2397H172.063C171.616 16.2397 171.393 16.0159 171.393 15.5681L171.391 1.58492C171.391 1.11479 171.626 0.87973 172.096 0.87973H181.664C182.179 0.87973 182.437 1.13718 182.437 1.65208L182.433 4.32269C182.433 4.48981 182.366 4.65009 182.248 4.76826C182.13 4.88643 181.97 4.95282 181.803 4.95282H176.355C176.271 4.95282 176.228 4.99496 176.228 5.07924Z" fill="#060419"/>
<path d="M228.62 5.10493V15.5148C228.62 15.9994 228.378 16.2417 227.895 16.2417L224.244 16.2397C224.082 16.2397 223.927 16.1754 223.813 16.061C223.698 15.9465 223.634 15.7913 223.634 15.6294L223.63 5.11085C223.63 5.08047 223.618 5.05133 223.597 5.02984C223.576 5.00836 223.547 4.99629 223.517 4.99629C222.531 4.99892 221.508 4.99958 220.448 4.99826C219.971 4.99695 219.731 4.76518 219.727 4.30295C219.719 3.33505 219.719 2.3981 219.729 1.49209C219.73 1.32914 219.796 1.1734 219.912 1.05873C220.028 0.944062 220.184 0.879737 220.347 0.879744L231.774 0.875793C232.275 0.875793 232.525 1.12666 232.525 1.62839V4.21407C232.525 4.73818 232.263 5.00024 231.739 5.00024L228.724 4.99826C228.654 4.99826 228.62 5.03382 228.62 5.10493Z" fill="#060419"/>
<path d="M20.582 10.8788V15.657C20.582 15.811 20.5206 15.9588 20.4114 16.0677C20.3021 16.1766 20.1539 16.2378 19.9993 16.2378L16.3489 16.2397C16.1886 16.2397 16.0349 16.1761 15.9215 16.0627C15.8082 15.9493 15.7445 15.7956 15.7445 15.6353V1.63233C15.7432 1.13192 15.9927 0.881714 16.4931 0.881714H19.9519C20.119 0.881714 20.2793 0.947894 20.3975 1.06569C20.5156 1.18349 20.582 1.34327 20.582 1.50986V6.13406C20.582 6.23019 20.6301 6.27826 20.7262 6.27826H23.9934C24.0908 6.27826 24.1396 6.22953 24.1396 6.13208V1.63233C24.1396 1.13192 24.3891 0.881714 24.8882 0.881714H28.3351C28.4204 0.881714 28.5048 0.898488 28.5835 0.931072C28.6622 0.963657 28.7338 1.01141 28.7939 1.0716C28.8541 1.13179 28.9018 1.20323 28.9343 1.28182C28.9667 1.36042 28.9833 1.44463 28.983 1.52962C28.9817 6.07283 28.983 10.535 28.987 14.9163C28.987 15.416 29.1035 16.2318 28.3371 16.2358C27.1005 16.2411 25.9042 16.2411 24.748 16.2358C24.5866 16.2347 24.4321 16.1698 24.3182 16.0552C24.2043 15.9405 24.1401 15.7853 24.1396 15.6234V10.782C24.1396 10.7689 24.1341 10.7563 24.1245 10.747C24.1149 10.7378 24.1018 10.7326 24.0882 10.7326H20.7282C20.6308 10.7326 20.582 10.7813 20.582 10.8788Z" fill="#060419"/>
<path d="M36.7934 4.90937C36.7407 4.90805 36.7144 4.93373 36.7144 4.98641L36.7065 6.45999C36.7065 6.52056 36.7368 6.55085 36.7973 6.55085H40.9889C41.1582 6.55085 41.3204 6.61807 41.4401 6.73772C41.5597 6.85738 41.627 7.01966 41.627 7.18887V9.63431C41.627 10.1295 41.38 10.377 40.8862 10.377L36.8131 10.375C36.7864 10.375 36.7608 10.3855 36.7419 10.404C36.723 10.4225 36.7124 10.4476 36.7124 10.4738L36.7065 12.1015C36.7065 12.1739 36.7427 12.2101 36.8151 12.2101H42.7094C42.7947 12.2098 42.8791 12.2265 42.958 12.259C43.0368 12.2916 43.1085 12.3394 43.1688 12.3998C43.2292 12.4601 43.2771 12.5319 43.3098 12.6108C43.3425 12.6898 43.3593 12.7745 43.3593 12.86V15.6254C43.3593 15.7878 43.2948 15.9436 43.18 16.0584C43.0651 16.1732 42.9094 16.2378 42.747 16.2378H32.5425C32.3817 16.2378 32.2274 16.1739 32.1137 16.0601C32 15.9464 31.9361 15.7922 31.9361 15.6313V1.48813C31.9361 1.40876 31.9517 1.33016 31.982 1.25682C32.0122 1.18349 32.0566 1.11685 32.1126 1.06073C32.1685 1.0046 32.2349 0.960076 32.308 0.9297C32.3811 0.899324 32.4594 0.883689 32.5386 0.883689L42.7252 0.881714C42.8934 0.881714 43.0547 0.948726 43.1736 1.06801C43.2925 1.18729 43.3593 1.34907 43.3593 1.51776L43.3573 4.30887C43.3573 4.46814 43.2939 4.62087 43.1809 4.73349C43.0679 4.8461 42.9146 4.90937 42.7549 4.90937H36.7934Z" fill="#060419"/>
<path d="M56.8842 7.88023C57.9022 8.03826 58.6225 8.57225 59.0452 9.48221C59.2652 9.9576 59.3646 10.7477 59.3435 11.8526C59.3251 12.8323 59.3185 13.8562 59.3238 14.9242C59.3257 15.4239 59.4363 16.2299 58.6996 16.2338C57.4801 16.243 56.2693 16.2424 55.067 16.2318C54.9152 16.2308 54.77 16.1698 54.6631 16.0621C54.5561 15.9544 54.4961 15.8088 54.4961 15.657L54.4941 12.1647C54.4941 11.5813 54.2024 11.289 53.6191 11.2876L50.7963 11.2837C50.7707 11.2837 50.7461 11.2939 50.7279 11.312C50.7098 11.3302 50.6996 11.3548 50.6996 11.3805V15.5128C50.6996 15.9974 50.4566 16.2397 49.9707 16.2397H46.5968C46.1109 16.2397 45.868 15.9968 45.868 15.5109V1.53554C45.8679 1.363 45.9364 1.1975 46.0582 1.07531C46.18 0.953122 46.3453 0.884214 46.5178 0.883691C48.9172 0.881058 51.333 0.877765 53.7652 0.873815C55.7959 0.87184 57.5558 1.44863 57.8798 3.76369C57.9654 4.37735 57.9753 5.11349 57.9094 5.97209C57.8436 6.83069 57.4986 7.44698 56.8744 7.82098C56.8217 7.85126 56.825 7.87102 56.8842 7.88023ZM50.6996 4.78888V7.37653C50.6996 7.39591 50.7073 7.4145 50.721 7.42821C50.7347 7.44192 50.7533 7.44962 50.7726 7.44962H52.3865C52.497 7.44962 52.6064 7.42703 52.7085 7.38316C52.8106 7.33928 52.9033 7.27497 52.9815 7.1939C53.0596 7.11282 53.1216 7.01657 53.1639 6.91065C53.2062 6.80472 53.2279 6.69119 53.2279 6.57653V5.58888C53.2279 5.35732 53.1393 5.13525 52.9815 4.97151C52.8237 4.80778 52.6096 4.71579 52.3865 4.71579H50.7726C50.7533 4.71579 50.7347 4.72349 50.721 4.7372C50.7073 4.7509 50.6996 4.76949 50.6996 4.78888Z" fill="#060419"/>
<path d="M66.5514 4.90739C66.5198 4.90739 66.504 4.92385 66.504 4.95678L66.5 6.48171C66.5 6.52912 66.5237 6.55283 66.5712 6.55283L70.6581 6.55085C71.1756 6.55085 71.4337 6.80962 71.4324 7.32715L71.4265 9.74887C71.4259 9.91565 71.3593 10.0754 71.2412 10.1932C71.1231 10.3109 70.9631 10.377 70.7963 10.377L66.6087 10.3731C66.5376 10.3731 66.502 10.4086 66.502 10.4797L66.5 12.1094C66.5 12.1765 66.5336 12.2101 66.6008 12.2101H72.5129C72.679 12.2101 72.8382 12.2761 72.9557 12.3935C73.0731 12.5109 73.1391 12.6702 73.1391 12.8363V15.6254C73.1391 15.7878 73.0743 15.9436 72.9591 16.0584C72.8439 16.1732 72.6877 16.2378 72.5247 16.2378L62.4447 16.2397C61.9588 16.2397 61.7159 15.9961 61.7159 15.5089V1.60863C61.7159 1.12402 61.9582 0.881714 62.4428 0.881714H72.503C72.6717 0.881714 72.8335 0.948726 72.9528 1.06801C73.072 1.18729 73.1391 1.34907 73.1391 1.51776V4.3069C73.1391 4.38618 73.1234 4.46469 73.093 4.53791C73.0626 4.61114 73.0181 4.67764 72.9619 4.73361C72.9057 4.78958 72.8391 4.83392 72.7658 4.86408C72.6925 4.89424 72.6139 4.90963 72.5346 4.90937L66.5514 4.90739Z" fill="#060419"/>
<path d="M80.5998 1.49802L80.4043 8.30099C80.3996 8.45628 80.3348 8.6037 80.2235 8.71207C80.1122 8.82044 79.9631 8.88128 79.8077 8.88173L76.1672 8.88765C76.0112 8.88771 75.8613 8.82682 75.7495 8.71798C75.6377 8.60913 75.5728 8.46092 75.5687 8.30494L75.3771 1.49407C75.3747 1.41399 75.3884 1.33425 75.4174 1.25957C75.4465 1.18489 75.4902 1.11679 75.546 1.05932C75.6018 1.00184 75.6686 0.95616 75.7424 0.924976C75.8162 0.893792 75.8955 0.877742 75.9756 0.877777L80.0033 0.883703C80.083 0.883939 80.162 0.900122 80.2354 0.931301C80.3088 0.96248 80.3753 1.00803 80.4309 1.06526C80.4865 1.1225 80.53 1.19027 80.559 1.26458C80.5881 1.3389 80.6019 1.41827 80.5998 1.49802Z" fill="#060419"/>
<path d="M87.7247 5.4763L87.7168 5.54741C87.6694 6.00042 87.8722 6.25062 88.3252 6.29803C89.6382 6.43367 90.8398 6.60091 91.9302 6.79976C93.6428 7.11186 94.741 8.11729 94.7825 9.9405C94.8023 10.8452 94.8036 11.7295 94.7865 12.5933C94.7351 15.0961 92.8309 16.2299 90.5356 16.2358C87.9335 16.2424 85.5789 16.2417 83.4719 16.2338C82.8003 16.2299 82.8754 15.5385 82.8734 14.9835C82.8708 14.217 82.874 13.4947 82.8833 12.8165C82.8853 12.655 82.951 12.5008 83.066 12.3873C83.1809 12.2738 83.336 12.2101 83.4976 12.2101H89.3603C89.7159 12.2101 89.9009 12.033 89.9154 11.6788L89.9193 11.5563C89.9364 11.1336 89.735 10.8965 89.3149 10.8452C87.9796 10.6819 86.7845 10.51 85.7297 10.3296C84.2739 10.0807 83.0255 9.18198 82.9228 7.56815C82.8556 6.48437 82.8497 5.35515 82.905 4.1805C83.0077 2.05507 84.8902 0.927166 86.8912 0.899512C88.8573 0.874491 90.9978 0.870541 93.3129 0.88766C93.7856 0.89161 94.022 1.12996 94.022 1.60272L94.0201 4.3563C94.0201 4.43464 94.0046 4.51221 93.9746 4.58459C93.9447 4.65697 93.9007 4.72273 93.8453 4.77812C93.7899 4.83352 93.7242 4.87746 93.6518 4.90744C93.5794 4.93742 93.5018 4.95285 93.4235 4.95285H88.3035C87.9532 4.95285 87.7603 5.12733 87.7247 5.4763Z" fill="#060419"/>
<path d="M109.935 12.5578C109.935 12.5384 109.927 12.5198 109.914 12.5061C109.9 12.4924 109.881 12.4847 109.862 12.4847H106.229C106.21 12.4847 106.191 12.4922 106.178 12.5055C106.164 12.5189 106.156 12.5369 106.156 12.5558L106.158 15.5109C106.158 15.9968 105.915 16.2398 105.429 16.2398L102.21 16.2417C101.733 16.2417 101.493 16.0034 101.489 15.5267C101.473 13.5698 101.471 11.7216 101.483 9.98198C101.489 9.06412 101.697 8.06725 102.105 6.99136C102.77 5.24124 103.463 3.43054 104.183 1.55926C104.356 1.10889 104.692 0.883048 105.192 0.881731C107.265 0.880415 109.236 0.881073 111.105 0.883707C111.307 0.884356 111.505 0.946183 111.673 1.06109C111.84 1.176 111.968 1.33862 112.041 1.52766C112.726 3.3028 113.395 5.05424 114.05 6.78198C114.506 7.98889 114.777 9.15432 114.765 10.4837C114.748 12.2391 114.744 13.9082 114.755 15.4911C114.759 15.9915 114.511 16.2411 114.01 16.2398H110.652C110.169 16.2398 109.928 15.9981 109.929 15.5148L109.935 12.5578ZM107.395 5.2926L106.403 8.48865C106.399 8.50244 106.399 8.51697 106.401 8.53109C106.404 8.54522 106.41 8.55854 106.418 8.57003C106.427 8.58151 106.438 8.59085 106.451 8.59729C106.464 8.60373 106.478 8.60711 106.492 8.60716H109.58C109.596 8.60723 109.611 8.60353 109.626 8.59636C109.64 8.58919 109.653 8.57875 109.662 8.56588C109.672 8.55301 109.678 8.53807 109.681 8.52226C109.684 8.50644 109.683 8.49019 109.678 8.47482C109.357 7.43186 109.032 6.38494 108.705 5.33408C108.572 4.91136 108.1 4.97852 107.76 5.0042C107.678 5.00993 107.599 5.0405 107.533 5.09193C107.468 5.14336 107.42 5.21328 107.395 5.2926Z" fill="#060419"/>
<path d="M125.759 6.07877V1.58691C125.759 1.11679 125.994 0.88173 126.464 0.88173H129.823C130.001 0.88173 130.171 0.952488 130.297 1.07844C130.423 1.20439 130.494 1.37521 130.494 1.55333V15.4872C130.494 15.9876 130.243 16.2384 129.742 16.2398H126.47C125.996 16.2398 125.759 16.0034 125.759 15.5306V12.9726C125.759 12.8962 125.736 12.8284 125.688 12.7691L122.19 8.52815C122.184 8.52067 122.176 8.51526 122.167 8.51267C122.157 8.51009 122.148 8.51046 122.139 8.51374C122.13 8.51702 122.122 8.52304 122.117 8.53094C122.111 8.53885 122.109 8.54824 122.109 8.55778V15.6096C122.109 15.7762 122.043 15.936 121.924 16.0538C121.806 16.1716 121.646 16.2378 121.479 16.2378L118.075 16.2398C117.605 16.2398 117.37 16.0047 117.37 15.5346V1.50395C117.37 1.3422 117.434 1.18692 117.547 1.07162C117.661 0.956321 117.815 0.890248 117.977 0.887655C118.963 0.874487 119.821 0.877121 120.55 0.895557C120.938 0.904775 121.262 1.05753 121.522 1.35383C122.856 2.86955 124.242 4.4544 125.678 6.1084C125.732 6.17161 125.759 6.16173 125.759 6.07877Z" fill="#060419"/>
<path d="M146.247 12.5874C146.247 12.5176 146.212 12.4827 146.143 12.4827L142.526 12.4867C142.484 12.4867 142.463 12.5077 142.463 12.5499V15.6294C142.463 15.7913 142.398 15.9465 142.284 16.061C142.169 16.1755 142.014 16.2398 141.852 16.2398H138.403C138.248 16.2398 138.099 16.1783 137.988 16.0687C137.878 15.9592 137.816 15.8105 137.815 15.6551C137.801 13.6376 137.801 11.6616 137.813 9.72716C137.818 8.94099 138.039 7.9777 138.474 6.83729C139.322 4.61309 140 2.84848 140.507 1.54346C140.678 1.10362 141.006 0.883707 141.491 0.883707C143.533 0.881073 145.501 0.880415 147.393 0.881731C148.001 0.883707 148.234 1.22741 148.456 1.79432C148.901 2.93869 149.329 4.05869 149.742 5.15432C150.555 7.32519 151.081 8.47482 151.071 10.2348C151.06 12.0587 151.056 13.8575 151.057 15.6314C151.057 15.7901 150.994 15.9425 150.882 16.0553C150.77 16.1681 150.618 16.2323 150.459 16.2338C149.413 16.243 148.259 16.2444 146.996 16.2378C146.499 16.2351 146.25 15.9981 146.247 15.5267C146.241 14.5812 146.241 13.6014 146.247 12.5874ZM143.713 5.28272L142.713 8.49852C142.71 8.51086 142.709 8.5239 142.711 8.53658C142.713 8.54927 142.719 8.56126 142.726 8.57161C142.734 8.58196 142.744 8.59038 142.755 8.59621C142.767 8.60204 142.78 8.60511 142.792 8.60519L145.921 8.60914C145.934 8.60906 145.947 8.60599 145.958 8.60016C145.97 8.59433 145.98 8.58591 145.987 8.57556C145.995 8.56521 146 8.55322 146.003 8.54053C146.005 8.52785 146.004 8.51482 146 8.50247L145.015 5.31432C144.986 5.22181 144.929 5.14092 144.85 5.08364C144.772 5.02635 144.677 4.99573 144.58 4.9963L144.094 5.00025C144.009 5.00094 143.926 5.02868 143.857 5.07946C143.789 5.13024 143.738 5.20143 143.713 5.28272Z" fill="#060419"/>
<path d="M161.127 5.14641V12.0679C161.127 12.0936 161.138 12.1182 161.156 12.1363C161.175 12.1545 161.2 12.1647 161.226 12.1647L163.31 12.1607C163.484 12.1607 163.652 12.23 163.775 12.3534C163.898 12.4768 163.968 12.6441 163.968 12.8185V15.6136C163.968 15.7783 163.902 15.9362 163.786 16.0529C163.67 16.1695 163.512 16.2353 163.347 16.2358C160.345 16.2384 157.247 16.2391 154.054 16.2378C153.59 16.2378 153.354 16.008 153.346 15.5484C153.329 14.6898 153.328 13.77 153.343 12.7889C153.345 12.6216 153.413 12.462 153.532 12.3448C153.651 12.2276 153.812 12.1622 153.979 12.1627L156.082 12.1647C156.121 12.1647 156.158 12.1493 156.186 12.1219C156.213 12.0945 156.228 12.0573 156.228 12.0185L156.226 5.11876C156.226 5.10251 156.223 5.08642 156.217 5.07143C156.211 5.05644 156.202 5.04285 156.19 5.03146C156.179 5.02006 156.166 5.01108 156.151 5.00504C156.136 4.999 156.12 4.99603 156.104 4.99629L153.921 5.00024C153.767 5.00024 153.619 4.93891 153.51 4.82969C153.401 4.72046 153.339 4.57225 153.339 4.41753L153.333 1.64419C153.331 1.12798 153.589 0.871846 154.105 0.875797C156.916 0.891599 159.812 0.890941 162.792 0.873822C163.32 0.871846 163.96 0.838266 163.97 1.57111C163.982 2.53637 163.979 3.44238 163.962 4.28913C163.953 4.7632 163.711 5.00024 163.237 5.00024L161.275 4.99827C161.177 4.99695 161.127 5.04633 161.127 5.14641Z" fill="#060419"/>
<path d="M211.221 7.89603C212.243 8.04484 212.965 8.60977 213.388 9.59084C213.57 10.0109 213.653 10.7655 213.637 11.8545C213.617 13.178 213.613 14.433 213.625 15.6195C213.626 15.7004 213.611 15.7807 213.58 15.8556C213.55 15.9306 213.505 15.9988 213.448 16.0563C213.392 16.1138 213.324 16.1594 213.25 16.1906C213.175 16.2217 213.095 16.2378 213.015 16.2378L209.463 16.2397C209.015 16.2397 208.791 16.0159 208.789 15.5681L208.785 12.1232C208.784 11.5675 208.505 11.289 207.948 11.2876L205.076 11.2857C205.065 11.2854 205.053 11.2874 205.043 11.2915C205.032 11.2957 205.023 11.3019 205.014 11.3098C205.006 11.3177 205 11.3272 204.996 11.3376C204.991 11.3481 204.989 11.3593 204.989 11.3706L204.987 15.6234C204.987 15.7852 204.923 15.9403 204.809 16.055C204.695 16.1698 204.54 16.2347 204.379 16.2358C203.188 16.2424 201.984 16.2417 200.766 16.2338C200.163 16.2299 200.165 15.6234 200.165 15.2007C200.168 10.6957 200.169 6.13603 200.167 1.52171C200.167 1.35197 200.235 1.18918 200.355 1.06916C200.476 0.949137 200.639 0.881708 200.809 0.881708C203.265 0.884342 205.639 0.883025 207.93 0.877758C208.819 0.875782 209.836 0.942943 210.621 1.36368C212.317 2.27628 212.341 4.218 212.207 5.9543C212.14 6.84056 211.804 7.45224 211.201 7.78936C211.104 7.84467 211.11 7.88023 211.221 7.89603ZM204.993 4.8106L204.985 7.35084C204.985 7.37704 204.995 7.40216 205.014 7.42068C205.032 7.4392 205.058 7.44961 205.084 7.44961L206.662 7.45554C206.893 7.45601 207.115 7.36097 207.279 7.19132C207.442 7.02166 207.535 6.79128 207.535 6.55084L207.539 5.6264C207.539 5.50732 207.517 5.38936 207.474 5.27924C207.43 5.16913 207.366 5.06903 207.285 4.98465C207.205 4.90027 207.109 4.83327 207.003 4.78748C206.898 4.74169 206.784 4.71799 206.67 4.71776L205.092 4.71183C205.065 4.71183 205.04 4.72224 205.022 4.74076C205.003 4.75928 204.993 4.7844 204.993 4.8106Z" fill="#060419"/>
<path d="M239.436 10.857L239.434 15.4911C239.434 15.9902 239.184 16.2397 238.684 16.2397L235.182 16.2378C235.026 16.2378 234.878 16.1762 234.768 16.0665C234.658 15.9569 234.597 15.8081 234.597 15.6531L234.595 1.49011C234.595 1.32928 234.659 1.17504 234.773 1.06131C234.887 0.947585 235.042 0.883694 235.203 0.883694L238.662 0.881719C239.177 0.880402 239.434 1.13719 239.434 1.65209V6.1795C239.434 6.24534 239.468 6.27826 239.535 6.27826H242.901C242.926 6.27826 242.949 6.26869 242.967 6.25165C242.984 6.23461 242.994 6.2115 242.994 6.1874V1.46443C242.994 1.31041 243.055 1.1627 243.164 1.05379C243.273 0.944879 243.421 0.883694 243.575 0.883694L247.184 0.881719C247.356 0.881719 247.522 0.950188 247.644 1.07206C247.767 1.19394 247.835 1.35924 247.835 1.5316V15.5089C247.835 15.9961 247.592 16.2397 247.106 16.2397L243.602 16.2378C243.441 16.2378 243.286 16.1737 243.172 16.0596C243.058 15.9455 242.994 15.7907 242.994 15.6294V10.8057C242.994 10.7858 242.986 10.7667 242.971 10.7526C242.957 10.7385 242.937 10.7306 242.917 10.7306H239.565C239.479 10.7306 239.436 10.7727 239.436 10.857Z" fill="#060419"/>
<path d="M258.765 12.4847H255.227C255.203 12.4847 255.18 12.4945 255.163 12.5119C255.146 12.5293 255.136 12.5529 255.136 12.5775L255.132 15.5148C255.131 15.9968 254.889 16.2384 254.405 16.2397H251.154C250.693 16.2397 250.462 16.0093 250.461 15.5484C250.453 13.631 250.451 11.7538 250.457 9.91678C250.459 9.07661 250.618 8.23447 250.933 7.39036C251.633 5.50855 252.369 3.57143 253.139 1.579C253.318 1.11678 253.642 0.885006 254.111 0.883689C256.102 0.881055 258.066 0.881055 260.003 0.883689C260.504 0.883689 260.84 1.10624 261.013 1.55134C261.733 3.40418 262.434 5.23727 263.114 7.0506C263.528 8.15546 263.734 9.24056 263.733 10.3059C263.73 12.0336 263.729 13.7851 263.731 15.5602C263.731 15.7399 263.659 15.9123 263.532 16.0393C263.405 16.1664 263.233 16.2378 263.053 16.2378H259.531C259.364 16.2378 259.204 16.1714 259.086 16.0532C258.967 15.935 258.901 15.7748 258.901 15.6076V12.619C258.901 12.5295 258.856 12.4847 258.765 12.4847ZM256.367 5.27678L255.375 8.47283C255.347 8.56106 255.38 8.60517 255.474 8.60517H258.545C258.562 8.60533 258.577 8.60164 258.592 8.59441C258.606 8.58718 258.619 8.57662 258.628 8.56355C258.638 8.55049 258.644 8.5353 258.647 8.5192C258.65 8.5031 258.649 8.48654 258.644 8.47085L257.661 5.29258C257.634 5.20779 257.582 5.13363 257.51 5.08101C257.439 5.02839 257.352 5.00008 257.263 5.00023L256.746 4.99826C256.661 4.99757 256.579 5.02429 256.511 5.07447C256.442 5.12464 256.392 5.19559 256.367 5.27678Z" fill="#060419"/>
<path d="M277.42 1.44665V4.4669C277.312 4.81587 277.032 4.99233 276.58 4.99628C275.574 5.00287 274.572 5.00287 273.576 4.99628C273.567 4.99602 273.559 4.99746 273.552 5.00051C273.544 5.00357 273.537 5.00819 273.531 5.01408C273.525 5.01998 273.52 5.02704 273.517 5.03484C273.514 5.04264 273.512 5.05102 273.512 5.05949L273.51 15.5108C273.51 15.9955 273.268 16.2378 272.784 16.2378L269.226 16.2397C268.748 16.2397 268.509 16.0007 268.509 15.5227L268.507 5.11283C268.507 5.03645 268.469 4.99892 268.394 5.00023H265.315C264.853 5.00023 264.622 4.76846 264.622 4.30492V1.49406C264.622 1.33218 264.686 1.17693 264.8 1.06246C264.915 0.947996 265.07 0.883689 265.232 0.883689C269.013 0.881055 272.762 0.881055 276.481 0.883689C277.003 0.883689 277.316 1.07134 277.42 1.44665Z" fill="#060419"/>
</g>
<defs>
<clipPath id="clip0_101_17">
<rect fill="white" height="16" transform="translate(0.876343 0.55777)" width="276.543"/>
</clipPath>
</defs>
</svg>