<?xml version="1.0" encoding="utf-8"?>
<svg xmlns="http://www.w3.org/2000/svg" fill="none" height="61" viewBox="0 0 121 61" width="121">
<path d="M71.6635 26.3031C70.8262 26.3031 70.0422 27.0058 69.9342 27.8431L68.8529 36.7324L61.7742 26.8431H57.1809L55.5435 40.2178C55.0355 40.8738 54.1649 41.6231 53.7502 41.6231C53.4795 41.6231 53.2102 41.5151 53.0475 41.3258L54.8315 26.8431H49.1849L47.5662 39.8751C47.0622 40.6538 46.1742 41.6231 45.7542 41.6231C45.4836 41.6231 45.2142 41.5151 45.0515 41.3258L45.5382 37.3271C45.7809 35.2738 44.3222 33.5978 42.2689 33.5978C41.9982 33.5978 41.7289 33.6244 41.4849 33.6791L46.8075 28.9231C47.4835 28.3284 47.6182 27.3284 47.0782 26.7351C46.5649 26.1671 45.5649 26.1404 44.8889 26.7351L35.8369 34.8138L36.8102 26.8431H31.2729H31.1609H19.9476C17.0022 26.8431 14.2729 29.2484 13.9222 32.1924C13.5716 35.1378 15.6782 37.5418 18.6236 37.5418H21.0009C21.8649 37.5418 22.4876 38.2178 22.3782 39.0818C22.2702 39.9471 21.4862 40.6484 20.6222 40.6484H13.9129C13.0756 40.6484 12.2916 41.3511 12.1836 42.1884C12.0756 43.0258 12.6969 43.7284 13.5342 43.7284H22.5929C25.5382 43.7284 28.2129 41.3231 28.5915 38.3791C28.9702 35.4338 26.8622 33.0298 23.9169 33.0298H21.5396C20.6756 33.0298 20.0529 32.3538 20.1622 31.4898C20.2702 30.6258 21.0542 29.9231 21.9182 29.9231H30.7796L29.0782 43.7298H34.7249L35.2929 39.1898L38.5889 36.2444C39.3995 36.2444 39.9396 36.8924 39.8316 37.7311L39.4809 40.5418C39.2382 42.5951 40.7235 44.2711 42.7769 44.2711C44.4182 44.2711 46.5715 42.2711 47.4942 40.4204L47.4796 40.5431C47.2369 42.5964 48.7222 44.2724 50.7756 44.2724C52.4009 44.2724 54.5289 42.5618 55.4662 40.8311L55.2329 42.7324C55.1249 43.5698 55.7462 44.2724 56.5835 44.2724C57.4209 44.2724 58.2049 43.5698 58.3129 42.7324L59.3942 33.8151L66.5009 43.7311H71.0675L73.0129 27.8431C73.1235 27.0058 72.5022 26.3031 71.6635 26.3031Z" fill="black"/>
<path d="M107.304 26.3031C106.466 26.3031 105.682 27.0058 105.574 27.8431L105.006 32.4098C104.79 34.2738 103.088 35.7871 101.224 35.7871C99.3595 35.7871 98.0355 34.2738 98.2515 32.4098L98.5489 30.0324C98.8195 27.9791 97.3329 26.3031 95.2795 26.3031C93.2462 26.3031 91.3995 27.9458 91.1009 29.9711L91.3609 27.8431C91.4689 27.0058 90.8475 26.3031 90.0102 26.3031C89.1729 26.3031 88.3889 27.0058 88.2809 27.8431L87.1995 36.7324L80.1209 26.8431H75.5275L73.5822 42.7311C73.4742 43.5684 74.0955 44.2711 74.9329 44.2711C75.7702 44.2711 76.5542 43.5684 76.6622 42.7311L77.7435 33.8138L84.8502 43.7298H89.4169L91.0982 29.9978C91.1942 29.4178 91.7249 28.9498 92.3075 28.9498C92.5782 28.9498 92.8475 29.0578 93.0102 29.2471L92.7395 31.4084C92.3342 34.6778 94.0369 37.4884 96.7649 38.6231L96.1435 43.7298H101.79L102.412 38.5964C105.41 37.4618 107.816 34.6791 108.221 31.4084L108.653 27.8418C108.764 27.0058 108.142 26.3031 107.304 26.3031Z" fill="black"/>
<path d="M28.2515 20.1058H26.5582L26.9195 17.3671H24.5329H24.4982H18.0915L17.8755 19.0098H19.8849L19.1569 24.5404H21.5782L22.3075 19.0098H24.2822L23.5542 24.5404H25.9755L26.3449 21.7298H28.0369L27.6675 24.5404H30.0889L31.0329 17.3671H28.6115L28.2515 20.1058Z" fill="black"/>
<path d="M37.6929 19.0098L37.9102 17.3671H32.4556L31.5116 24.5404H36.9649L37.1809 22.8964H34.1489L34.3009 21.7391H37.3342L37.5489 20.1058H34.5169L34.6609 19.0098H37.6929Z" fill="black"/>
<path d="M53.0969 16.8431C50.0929 16.8431 47.6569 18.6178 47.6569 20.8071C47.6569 21.9551 48.3275 22.9884 49.3969 23.7124C49.0475 24.7671 47.6142 25.5871 47.6142 25.5871C49.0702 25.7191 50.5262 24.8644 51.0862 24.4911C51.7089 24.6711 52.3862 24.7724 53.0969 24.7724C56.1009 24.7724 58.5369 22.9978 58.5369 20.8084C58.5369 18.6178 56.1009 16.8431 53.0969 16.8431Z" fill="black"/>
</svg>