<?xml version="1.0" encoding="utf-8"?>
<svg xmlns="http://www.w3.org/2000/svg" fill="none" height="66" viewBox="0 0 121 66" width="121">
<path d="M69.3487 60.076C69.3065 59.3885 69.2264 58.7011 69.2222 58.0179C69.2179 52.8874 69.2222 47.7527 69.2348 42.6223C69.2348 41.5699 69.2685 40.5132 69.277 39.4608C69.277 39.3377 69.2348 39.2147 69.2095 39.0874C69.1758 39.0874 69.1378 39.0874 69.1041 39.0831C69.0451 39.4099 68.9734 39.7324 68.9312 40.0591C68.771 41.3067 68.6234 42.5586 68.4674 43.8062C68.2312 45.6946 67.9993 47.583 67.7463 49.4671C67.4638 51.5804 67.1686 53.6894 66.8734 55.8027C66.7006 57.0631 66.515 58.3192 66.3463 59.5837C66.3084 59.8808 66.2072 59.9275 65.8994 59.902C65.1319 59.8341 64.3603 59.8384 63.5886 59.8426C62.8085 59.8468 62.0242 59.885 61.2441 59.9232C61.008 59.936 60.9574 59.7874 60.9321 59.6092C60.8098 58.8199 60.6917 58.0306 60.5778 57.2371C60.2995 55.3062 60.0212 53.3754 59.7514 51.4446C59.5152 49.7514 59.2791 48.0625 59.0514 46.3693C58.752 44.1499 58.4653 41.9263 58.1743 39.7027C58.1617 39.6136 58.1237 39.5287 58.0942 39.4396C58.0562 39.4396 58.0183 39.4353 57.9761 39.4311C57.9466 39.6051 57.896 39.7833 57.896 39.9573C57.896 41.485 57.9129 43.0127 57.9129 44.5403C57.9086 49.4671 57.896 54.3939 57.8876 59.3164C57.8876 59.919 57.8833 59.8765 57.2761 59.8681C55.7202 59.8384 54.16 59.8426 52.604 59.8468C51.9673 59.8468 51.3263 59.902 50.6896 59.9105C50.5926 59.9105 50.4239 59.7832 50.4071 59.6898C50.3565 59.431 50.3607 59.1594 50.3607 58.892C50.3691 49.3695 50.3818 39.8427 50.3902 30.3202C50.3902 29.3484 50.3818 28.3809 50.3775 27.4091C50.3775 26.9975 50.4239 26.9635 50.833 26.9678C54.219 26.9932 57.6008 27.0187 60.9869 27.0357C61.5519 27.0357 61.573 27.0484 61.6489 27.6001C61.9862 30.0486 62.332 32.4971 62.6693 34.9457C62.9645 37.0844 63.247 39.2189 63.538 41.3577C63.5591 41.4977 63.5928 41.6377 63.7024 41.7863C63.791 41.2686 63.8922 40.7551 63.9639 40.2331C64.1536 38.8412 64.3392 37.4494 64.5121 36.0532C64.7777 33.9357 65.0307 31.8224 65.2922 29.7049C65.3891 28.9113 65.4861 28.1178 65.5705 27.3242C65.5958 27.0908 65.7096 27.0314 65.9289 27.0314C69.4456 27.0399 72.9666 27.0442 76.4834 27.0314C76.8039 27.0314 76.8292 27.1884 76.8292 27.4388C76.8292 29.9977 76.8292 32.5565 76.8292 35.1196C76.8249 38.7352 76.8123 42.3507 76.8039 45.9662C76.7954 49.8618 76.7912 53.7531 76.7743 57.6487C76.7743 58.4592 76.7153 59.2697 76.6816 60.0802H69.3529L69.3487 60.076ZM75.1846 59.9529C74.4467 59.7238 69.842 59.8044 69.6649 59.9529H75.1846Z" fill="#060419"/>
<path d="M80.156 60.076C80.1391 58.3786 80.1096 56.6854 80.1096 54.988C80.1096 50.6087 80.1265 46.2293 80.1349 41.8542C80.1434 37.0632 80.156 32.2723 80.1518 27.4813C80.1518 27.1121 80.2825 27.0357 80.6114 27.0357C85.1191 27.0569 89.6268 27.0697 94.1387 27.0781C94.4086 27.0781 94.5267 27.1503 94.5224 27.4516C94.5014 29.4291 94.4971 31.4066 94.4929 33.3841C94.4929 33.6429 94.3959 33.7363 94.1261 33.732C92.4352 33.7151 90.74 33.7193 89.0491 33.7108C88.8256 33.7108 88.7624 33.7745 88.7624 33.9994C88.7708 35.8199 88.7708 37.6361 88.7582 39.4566C88.7582 39.7918 88.8594 39.8937 89.1967 39.8894C90.6852 39.8767 92.1695 39.8979 93.658 39.8894C94.0249 39.8894 94.1261 40.0083 94.1218 40.3732C94.105 42.181 94.105 43.9887 94.1218 45.7965C94.1218 46.1402 94.0333 46.2633 93.6749 46.259C92.1273 46.2293 90.5798 46.2335 89.0365 46.2123C88.8298 46.2123 88.7539 46.2717 88.7539 46.4797C88.7539 48.6524 88.7539 50.8208 88.7455 52.9935C88.7455 53.2778 88.813 53.3754 89.1419 53.367C90.9804 53.3373 92.8147 53.3542 94.6532 53.3457C94.9736 53.3457 95.0116 53.5282 95.0074 53.7956C94.9863 55.8919 94.9778 57.9924 94.9652 60.0888H80.1644L80.156 60.076Z" fill="#060419"/>
<path d="M119.334 31.3175C119.245 31.4066 119.136 31.483 119.068 31.5848C118.798 31.9964 118.288 32.2213 117.854 32.0983C117.432 31.9795 117.015 31.4236 117.015 30.9737C117.015 30.5579 117.432 30.0147 117.854 29.8874C118.313 29.7474 118.739 29.9171 119.043 30.3499C119.123 30.4645 119.233 30.5621 119.33 30.664V31.3175H119.334ZM117.71 31.5636C117.778 31.6315 117.837 31.7376 117.913 31.7546C118.086 31.7885 118.267 31.7715 118.444 31.78C118.444 31.6442 118.448 31.5127 118.453 31.3769C118.292 31.3854 118.128 31.3769 117.972 31.4108C117.875 31.432 117.791 31.5212 117.702 31.5763C117.74 31.3175 117.774 31.0586 117.812 30.7955C117.85 30.5069 118.081 30.3839 118.33 30.5282C118.44 30.5918 118.537 30.6852 118.554 30.6979C118.533 30.9271 118.474 31.0883 118.52 31.2114C118.545 31.2835 118.739 31.292 118.857 31.3302C118.904 31.1774 119.039 30.9568 118.984 30.8804C118.777 30.613 118.541 30.2905 118.25 30.2014C118.048 30.1378 117.689 30.3627 117.487 30.5494C117.124 30.8931 117.251 31.3472 117.71 31.5593V31.5636Z" fill="#060419"/>
<path d="M3.45359 26.8829C3.61382 26.8829 3.74454 26.8829 3.87526 26.8829C7.24865 26.8829 10.622 26.8914 13.9954 26.8745C14.3665 26.8745 14.5225 27.0102 14.5731 27.3497C14.7629 28.5846 14.9695 29.8152 15.1424 31.0501C15.446 33.2355 15.7201 35.421 16.0153 37.6064C16.1839 38.854 16.361 40.1016 16.5381 41.3492C16.555 41.4553 16.5887 41.5571 16.614 41.6632C16.6478 41.6632 16.6815 41.6717 16.7152 41.676C16.7954 41.1837 16.8966 40.6957 16.9556 40.2035C17.1959 38.2684 17.4194 36.3291 17.664 34.394C17.9592 32.0643 18.267 29.7346 18.5664 27.4007C18.6296 26.9084 18.6507 26.8957 19.1525 26.8957C22.5006 26.8957 25.8487 26.8957 29.201 26.8914C29.8082 26.8914 29.804 26.8702 29.804 27.477C29.804 34.3092 29.7998 41.137 29.7913 47.9692C29.7913 51.7544 29.7787 55.5397 29.766 59.3249C29.766 59.8936 29.7534 59.8766 29.1968 59.8681C27.0589 59.8511 24.921 59.8384 22.7789 59.8384C22.2307 59.8384 22.2012 59.8384 22.2054 59.2825C22.2139 55.4124 22.2307 51.5422 22.2434 47.6721C22.2518 45.6564 22.2603 43.645 22.2645 41.6293C22.2645 40.7806 22.2645 39.9319 22.256 39.0874C22.256 38.9474 22.2139 38.8116 22.1211 38.6715C22.1 38.7437 22.0621 38.8158 22.0536 38.888C21.847 40.5854 21.6573 42.2828 21.4422 43.976C21.0458 47.0653 20.641 50.1503 20.2278 53.2354C19.9621 55.2044 19.6712 57.1692 19.3844 59.134C19.2748 59.8766 19.2664 59.8384 18.5242 59.8257C17.255 59.8044 15.9857 59.8129 14.7165 59.8384C13.9912 59.8511 13.9659 59.8511 13.8689 59.1594C13.6834 57.8651 13.4979 56.5708 13.3123 55.2766C13.0129 53.1887 12.7178 51.1009 12.4184 49.0173C12.1316 47.0271 11.828 45.0369 11.5582 43.0466C11.4106 41.956 11.3052 40.857 11.1829 39.7621C11.1702 39.6603 11.1491 39.5584 11.0395 39.4354C11.0058 39.5457 10.951 39.656 10.9425 39.7664C10.913 40.4326 10.8751 41.0988 10.8751 41.7651C10.8751 47.6382 10.8751 53.507 10.8751 59.3801C10.8751 59.8214 10.8371 59.8384 10.3943 59.8384C8.17212 59.8299 5.94568 59.8172 3.72346 59.8341C3.36503 59.8341 3.39455 59.6474 3.39455 59.4268C3.38612 57.1437 3.36925 54.8649 3.37347 52.5819C3.37769 45.4952 3.39034 38.4127 3.39877 31.3259C3.39877 30.1632 3.39877 28.9962 3.40299 27.8335C3.40299 27.5322 3.4325 27.2309 3.44937 26.8914L3.45359 26.8829Z" fill="#060419"/>
<path d="M47.0673 46.1189H41.7289C41.7204 46.225 41.6993 46.3184 41.6993 46.4117C41.6993 48.5463 41.7078 50.6808 41.6993 52.8153C41.6993 53.1463 41.7963 53.2481 42.1294 53.2481C43.9426 53.2354 45.7558 53.2481 47.569 53.2396C47.9064 53.2396 48.0118 53.3457 48.0076 53.681C47.9823 55.599 47.9781 57.5129 47.9612 59.431C47.9612 59.8893 47.9401 59.8723 47.4805 59.8681C45.5703 59.8511 43.6601 59.8511 41.7542 59.8511C39.0217 59.8511 36.2935 59.8553 33.561 59.8765C33.211 59.8765 33.1267 59.7408 33.1267 59.431C33.1309 56.9909 33.1267 54.5551 33.1267 52.1151C33.1309 45.3466 33.1351 38.5781 33.1478 31.8097C33.1478 30.3329 33.1773 28.8519 33.1984 27.3752C33.2068 26.8914 33.2363 26.8871 33.7255 26.8999C34.3917 26.9211 35.0538 26.9211 35.72 26.9253C39.5024 26.9466 43.2848 26.9678 47.0715 26.9805C47.3624 26.9805 47.4931 27.0739 47.4889 27.3709C47.4763 29.3484 47.4678 31.3259 47.4678 33.3034C47.4678 33.5368 47.3751 33.6259 47.1474 33.6259C45.5661 33.6259 43.9806 33.6344 42.3993 33.6302C41.7752 33.6302 41.7626 33.6217 41.7626 34.237C41.7584 35.9599 41.7626 37.6828 41.7542 39.4056C41.7542 39.673 41.8343 39.7663 42.1084 39.7621C43.6306 39.7366 45.1529 39.7281 46.6751 39.7154C46.8733 39.7154 47.0715 39.69 47.0715 39.9912C47.0715 42.0154 47.0715 44.0396 47.0715 46.1232L47.0673 46.1189Z" fill="#060419"/>
<path d="M102.218 50.1673C102.218 49.4162 102.172 48.7033 102.231 47.9946C102.315 46.9337 102.437 45.8728 102.614 44.8247C102.796 43.7383 103.336 42.7962 104.019 41.9518C104.698 41.1158 105.431 40.3265 106.144 39.516C106.296 39.342 106.443 39.1638 106.608 39.0025C107.928 37.7337 108.265 36.1169 108.185 34.377C108.159 33.8169 108.054 33.2398 107.856 32.7221C107.569 31.9582 106.869 31.7503 106.123 31.6951C105.44 31.6399 104.98 31.9667 104.647 32.5438C104.221 33.2864 104.179 34.1182 104.103 34.9329C104.04 35.6077 104.04 36.2866 104.01 36.9656C104.006 37.0844 103.985 37.2032 103.968 37.3518C103.837 37.3518 103.732 37.3518 103.622 37.3518C101.303 37.3518 98.9796 37.3518 96.6604 37.3518C96.4201 37.3518 96.2683 37.3263 96.2767 37.0293C96.3315 35.056 96.5128 33.1209 97.3014 31.2708C98.3176 28.8901 100.063 27.4176 102.547 26.7853C103.96 26.4246 105.398 26.2464 106.848 26.3016C108.455 26.361 110.053 26.5647 111.546 27.2266C113.797 28.2239 115.155 30.0062 115.813 32.3444C116.45 34.6147 116.285 36.8807 115.657 39.1256C115.307 40.3859 114.506 41.3789 113.662 42.3379C112.848 43.2673 112.056 44.2178 111.196 45.1047C110.154 46.1826 109.783 47.4981 109.678 48.9324C109.669 49.0512 109.669 49.1743 109.669 49.2974C109.658 49.8773 109.37 50.1673 108.805 50.1673C106.751 50.1673 104.693 50.1673 102.64 50.1673C102.509 50.1673 102.383 50.1673 102.218 50.1673Z" fill="#060419"/>
<path d="M14.8093 16.9955C14.8261 16.8724 14.843 16.7493 14.8557 16.6263C14.9906 15.0943 15.1002 13.5582 15.2605 12.0305C15.4544 10.1888 15.6906 8.34709 15.8972 6.50539C15.9267 6.22956 16.0321 6.1362 16.3062 6.14045C17.5291 6.15318 18.7477 6.14469 19.9706 6.15318C20.0886 6.15318 20.2025 6.18712 20.3669 6.21683C20.27 6.98067 20.173 7.72329 20.0844 8.46167C19.8862 10.0954 19.6923 11.7335 19.5025 13.3715C19.1357 16.5626 18.773 19.7495 18.4104 22.9407C18.3766 23.2335 18.3007 23.399 17.9339 23.3947C16.3147 23.3693 14.6954 23.3778 13.0762 23.3862C12.8316 23.3862 12.7136 23.3438 12.6756 23.0637C12.4816 21.71 12.2539 20.3606 12.0515 19.0069C11.8702 17.7975 11.7058 16.5881 11.5329 15.3744C11.516 15.2598 11.4823 15.1453 11.3726 15.0222C11.3347 15.1622 11.2841 15.298 11.2672 15.4381C11.0353 17.2416 10.8202 19.0451 10.5799 20.8486C10.4829 21.5785 10.3353 22.3041 10.2215 23.034C10.1793 23.3014 10.0486 23.3862 9.78292 23.382C8.17634 23.3693 6.56976 23.3693 4.96319 23.382C4.7397 23.382 4.65115 23.2886 4.63006 23.0977C4.56681 22.5927 4.50778 22.0877 4.44874 21.5827C4.18731 19.2361 3.93852 16.8851 3.66865 14.5384C3.36083 11.8777 3.04035 9.22127 2.7241 6.56056C2.71145 6.45447 2.70723 6.34414 2.69458 6.19985C2.83373 6.17864 2.95602 6.14469 3.08252 6.14469C4.28007 6.14045 5.47763 6.14469 6.67097 6.1362C6.95349 6.1362 7.06312 6.21683 7.08421 6.52661C7.25709 8.79691 7.45528 11.0672 7.63238 13.3418C7.7125 14.3432 7.7631 15.349 7.83057 16.3547C7.839 16.4693 7.86009 16.5796 7.87695 16.6899H7.98237C8.02454 16.2868 8.05827 15.8836 8.10466 15.4848C8.36188 13.1381 8.61488 10.7871 8.88054 8.44045C8.95644 7.77846 9.06186 7.12071 9.14198 6.45871C9.17149 6.21259 9.28956 6.13196 9.5257 6.13196C10.854 6.14469 12.1865 6.14893 13.5147 6.14893C13.7593 6.14893 13.8479 6.24229 13.8647 6.49266C13.9701 8.04156 14.0882 9.58621 14.2147 11.1351C14.3539 12.8368 14.5015 14.5384 14.6448 16.2401C14.6659 16.4947 14.6828 16.7451 14.6996 16.9997C14.7376 16.9997 14.7755 16.9997 14.8177 16.9997L14.8093 16.9955Z" fill="#060419"/>
<path d="M26.8271 12.3233C26.8693 10.2609 26.9114 8.26645 26.9494 6.23803H31.4529C31.4529 6.46718 31.4529 6.70482 31.4529 6.94246C31.4529 12.039 31.4529 17.1312 31.4529 22.2277C31.4529 22.5418 31.436 22.86 31.3938 23.1698C31.3812 23.2547 31.2715 23.3523 31.183 23.3862C31.0776 23.4329 30.9469 23.4329 30.8246 23.4329C29.6903 23.4329 28.5517 23.4329 27.4174 23.4244C26.903 23.4244 26.8566 23.3905 26.8566 22.8643C26.8566 20.7043 26.865 18.5486 26.8693 16.3886C26.8693 16.3292 26.8566 16.274 26.8397 16.1807C26.4982 16.1807 26.1609 16.1637 25.8319 16.1934C25.7603 16.2019 25.6506 16.3886 25.6464 16.4947C25.6253 17.8399 25.6169 19.1851 25.6127 20.5346C25.6127 21.3705 25.6127 22.2065 25.6127 23.0467C25.6127 23.1528 25.6 23.2589 25.5916 23.3905C25.4187 23.4074 25.2627 23.4414 25.1109 23.4414C23.9386 23.4414 22.7664 23.4414 21.5941 23.4372C21.1598 23.4372 21.105 23.3777 21.105 22.9534C21.105 20.1866 21.105 17.4198 21.1176 14.6572C21.1261 11.9753 21.1556 9.29763 21.1598 6.6157C21.1598 6.27622 21.2357 6.14467 21.5983 6.15315C22.9266 6.17013 24.2549 6.16164 25.6253 6.16164C25.638 6.38655 25.6548 6.53932 25.6548 6.68784C25.6591 8.41073 25.6591 10.1336 25.6675 11.8565C25.6675 12.336 25.6759 12.336 26.1609 12.336C26.3843 12.336 26.6078 12.336 26.8271 12.336V12.3233Z" fill="#060419"/>
<path d="M56.6268 6.17865C58.3725 6.22533 60.055 6.25079 61.7291 6.32293C62.5471 6.35688 63.3651 6.44599 64.1748 6.5733C65.8109 6.82791 66.7132 8.07552 66.8777 9.52257C66.9325 10.0148 66.9578 10.5156 66.9578 11.0078C66.962 13.7619 66.962 16.5159 66.9494 19.27C66.9494 19.7665 66.9367 20.2715 66.844 20.7553C66.5235 22.4399 66.0554 22.911 64.3434 23.2844C63.4917 23.4669 62.5935 23.4711 61.7122 23.4881C60.1393 23.5221 58.5707 23.5008 56.9979 23.5178C56.7027 23.5178 56.5931 23.4287 56.5973 23.1232C56.6142 17.9078 56.6184 12.6883 56.631 7.47293C56.631 7.06131 56.631 6.65393 56.631 6.17865H56.6268ZM61.1176 14.8652H61.0923C61.0923 15.8964 61.0923 16.9276 61.0923 17.9588C61.0923 18.6844 61.105 19.4143 61.0965 20.1399C61.0965 20.4455 61.2273 20.5219 61.5056 20.454C61.9652 20.3394 62.3025 20.1272 62.332 19.5925C62.3489 19.2658 62.4333 18.9433 62.4333 18.6165C62.4459 16.011 62.4501 13.4012 62.4459 10.7956C62.4459 10.5071 62.4164 10.2143 62.3573 9.92995C62.273 9.51833 61.7333 9.17884 61.3285 9.2722C61.2526 9.28918 61.1598 9.39951 61.1387 9.48438C61.105 9.63715 61.1134 9.7984 61.1134 9.95541C61.1134 11.5934 61.1134 13.2314 61.1134 14.8694L61.1176 14.8652Z" fill="#060419"/>
<path d="M106.076 13.3842C106.076 11.1775 106.076 8.96663 106.076 6.75999C106.076 6.47991 106.148 6.33563 106.464 6.33987C107.675 6.36109 108.881 6.36109 110.091 6.37382C110.626 6.38231 110.626 6.3908 110.626 6.92973C110.626 8.52106 110.635 10.1082 110.626 11.6995C110.614 14.148 110.58 16.6008 110.576 19.0493C110.576 19.5204 110.639 19.9914 110.698 20.4582C110.732 20.7128 110.854 20.9292 111.162 20.9207C111.457 20.9122 111.6 20.7043 111.638 20.4539C111.71 19.9871 111.777 19.5161 111.777 19.0451C111.777 14.967 111.765 10.8932 111.739 6.81515C111.739 6.46294 111.845 6.34836 112.191 6.3526C113.435 6.36958 114.683 6.36534 115.927 6.36534C116.188 6.36534 116.315 6.44172 116.315 6.74301C116.294 10.9653 116.294 15.1877 116.264 19.4058C116.251 21.0862 115.581 22.4272 114.084 23.2971C113.489 23.6408 112.849 23.7809 112.182 23.836C110.715 23.9549 109.298 23.853 107.991 23.0383C106.793 22.2956 106.178 21.222 106.148 19.8556C106.102 17.6999 106.135 15.5399 106.135 13.3799C106.114 13.3799 106.093 13.3799 106.076 13.3799V13.3842Z" fill="#060419"/>
<path d="M94.1851 14.8185C94.2357 13.4648 94.2821 11.7801 94.3664 10.0997C94.4676 8.05855 95.5977 6.82368 97.4995 6.26777C98.9711 5.83493 100.443 5.87736 101.86 6.48419C103.449 7.16316 104.301 8.41077 104.449 10.1294C104.52 10.9357 104.563 11.7504 104.567 12.561C104.571 14.5597 104.563 16.5626 104.52 18.5613C104.508 19.2106 104.419 19.8684 104.301 20.5091C104.124 21.4597 103.61 22.2193 102.851 22.8261C101.674 23.7597 100.308 23.9422 98.8826 23.8615C98.1446 23.8191 97.4194 23.7003 96.7447 23.3608C95.1971 22.5842 94.4002 21.3069 94.3158 19.5968C94.2442 18.12 94.2315 16.639 94.1809 14.8313L94.1851 14.8185ZM98.794 14.9968C98.794 14.9968 98.7729 14.9968 98.7603 14.9968C98.7603 16.5499 98.7519 18.0988 98.7687 19.6519C98.7687 19.9745 98.8067 20.3139 98.9247 20.6067C98.9838 20.751 99.2579 20.8911 99.4307 20.8868C99.5783 20.8826 99.785 20.6916 99.844 20.5346C99.9368 20.28 99.9663 19.9914 99.9663 19.7156C99.9916 16.7239 100.008 13.7279 100.017 10.7362C100.017 10.3034 99.9789 9.86206 99.8819 9.44195C99.8398 9.26372 99.5994 9.02608 99.4392 9.01759C99.2705 9.00911 99.0428 9.2128 98.9332 9.38678C98.8278 9.55653 98.8025 9.80265 98.8025 10.0191C98.794 11.6783 98.7982 13.3375 98.7982 15.001L98.794 14.9968Z" fill="#060419"/>
<path d="M68.4799 14.9585C68.4799 13.5157 68.4462 12.0729 68.4884 10.6301C68.5643 7.96517 70.1034 6.31443 72.7431 5.98343C73.8225 5.84764 74.8683 5.96221 75.8719 6.35686C77.5459 7.01037 78.5706 8.24525 78.6338 10.0488C78.7308 12.8198 78.6971 15.5993 78.6971 18.3746C78.6971 18.956 78.6549 19.5373 78.579 20.1145C78.2965 22.2278 76.4538 23.5475 74.6785 23.7342C73.9533 23.8106 73.1985 23.8233 72.4774 23.7342C70.2004 23.4414 68.6359 21.901 68.4968 19.5501C68.404 18.0266 68.4799 16.4947 68.4799 14.9713V14.9585ZM72.9708 14.9416C72.9708 14.9416 72.9665 14.9416 72.9623 14.9416C72.9623 16.6008 72.9623 18.2643 72.9623 19.9235C72.9623 20.1145 72.9581 20.3479 73.0593 20.4837C73.1858 20.6576 73.4135 20.8316 73.6117 20.8486C73.7551 20.8613 73.9912 20.6449 74.0629 20.4794C74.1683 20.2333 74.2105 19.9405 74.2105 19.6646C74.2189 16.4056 74.2189 13.1423 74.2105 9.88326C74.2105 9.71776 74.2189 9.51407 74.1346 9.39101C74.0207 9.21702 73.8394 9.0303 73.6496 8.98362C73.3882 8.91997 73.1521 9.07698 73.0593 9.35281C73.0003 9.53529 72.9665 9.73049 72.9665 9.92145C72.9581 11.5934 72.9665 13.2654 72.9665 14.9373L72.9708 14.9416Z" fill="#060419"/>
<path d="M32.0938 23.3438C32.1907 22.6351 32.2919 21.9434 32.3847 21.2475C32.7136 18.8117 33.0425 16.3759 33.3714 13.9401C33.6244 12.056 33.8732 10.1718 34.122 8.28769C34.2021 7.68935 34.2949 7.09101 34.375 6.48842C34.4045 6.25927 34.5184 6.19986 34.7376 6.19986C36.6605 6.20835 38.5791 6.21259 40.5019 6.19562C40.8182 6.19562 40.8604 6.36536 40.8941 6.58602C41.1091 8.07127 41.3115 9.55651 41.535 11.0418C41.7501 12.4676 41.9989 13.8849 42.2055 15.3108C42.4838 17.2161 42.7326 19.1257 43.0025 21.0311C43.0994 21.7016 43.2133 22.3678 43.3398 23.034C43.3946 23.3099 43.3145 23.4287 43.0446 23.4287C42.5386 23.4287 42.0284 23.4244 41.5224 23.4244C40.7845 23.4244 40.0465 23.4287 39.3128 23.4287C38.7562 23.4287 38.7225 23.4032 38.6845 22.8431C38.6339 22.1429 38.5917 21.4385 38.5707 20.7383C38.5622 20.3861 38.461 20.2248 38.0773 20.2927C37.8412 20.3351 37.5924 20.3139 37.3562 20.2927C37.1032 20.2715 37.0189 20.3691 36.9978 20.6152C36.9304 21.4342 36.8376 22.2532 36.7659 23.0722C36.7448 23.2929 36.6689 23.4032 36.437 23.4032C35.0834 23.4032 33.7298 23.4032 32.3763 23.4032C32.2962 23.4032 32.216 23.3693 32.0938 23.3438ZM37.896 10.7362C37.8496 10.7362 37.799 10.732 37.7526 10.7277C37.7147 10.855 37.6598 10.9823 37.643 11.1139C37.5502 11.8353 37.4617 12.5525 37.3858 13.2739C37.255 14.4748 37.1328 15.68 37.0231 16.8851C37.0147 16.9827 37.1328 17.1822 37.2044 17.1864C37.5839 17.2161 37.9677 17.1992 38.364 17.1992C38.208 15.018 38.052 12.875 37.9002 10.7362H37.896Z" fill="#060419"/>
<path d="M93.6623 6.429C93.2828 7.70206 92.9118 8.95391 92.5365 10.2058C91.8534 12.4633 91.1534 14.7167 90.4914 16.9827C90.3902 17.3349 90.4112 17.7296 90.4112 18.103C90.4112 19.7538 90.4281 21.4003 90.4365 23.051C90.4365 23.5051 90.4112 23.5305 89.9727 23.5263C88.8468 23.5263 87.7252 23.5135 86.5993 23.5348C86.2746 23.539 86.1903 23.4329 86.1987 23.1189C86.2282 21.4469 86.2156 19.7707 86.262 18.0988C86.2915 17.0379 85.9246 16.0704 85.6505 15.0858C84.8704 12.2766 84.0355 9.48436 83.2259 6.68361C83.1669 6.47992 83.0783 6.27623 83.4494 6.28896C84.571 6.32291 85.6969 6.35686 86.8186 6.35261C87.1896 6.35261 87.3414 6.47567 87.3963 6.82789C87.6619 8.58897 87.9402 10.3458 88.2185 12.1026C88.2354 12.2045 88.2607 12.3021 88.2776 12.3997H88.3788C88.4673 11.9456 88.5643 11.4916 88.6486 11.0333C88.9143 9.56923 89.1757 8.10096 89.454 6.64117C89.4751 6.53084 89.6438 6.36959 89.745 6.36959C90.9763 6.35261 92.2118 6.35686 93.4431 6.3611C93.519 6.3611 93.5949 6.40778 93.6708 6.43324L93.6623 6.429Z" fill="#060419"/>
<path d="M44.7355 9.6923H42.1633V6.2041C42.2772 6.2041 42.391 6.2041 42.5049 6.2041C45.5156 6.2041 48.5264 6.20835 51.5329 6.2041C51.7817 6.2041 51.8956 6.28049 51.8956 6.52237C51.8914 7.50263 51.8829 8.48713 51.8787 9.46739C51.8787 9.67109 51.7691 9.73898 51.5793 9.73898C50.9384 9.73898 50.2974 9.76869 49.6565 9.7305C49.3487 9.71352 49.2854 9.80264 49.2896 10.0827C49.2938 12.022 49.2981 13.9656 49.2812 15.9049C49.2601 18.2685 49.2179 20.6322 49.2011 23.0001C49.2011 23.3311 49.1083 23.4372 48.7667 23.4287C47.5565 23.4117 46.3506 23.4287 45.1404 23.4372C44.6765 23.4372 44.6723 23.4372 44.6723 22.9789C44.6892 18.8669 44.706 14.7549 44.7271 10.6429C44.7271 10.3416 44.7271 10.0403 44.7271 9.6923H44.7355Z" fill="#060419"/>
<path d="M105.908 52.34C107.08 52.34 108.252 52.3485 109.424 52.3358C109.711 52.3358 109.808 52.4334 109.808 52.7092C109.795 54.9031 109.779 57.0971 109.783 59.291C109.783 59.6686 109.564 59.6602 109.315 59.6602C107.864 59.6644 106.418 59.6686 104.967 59.6729C104.111 59.6729 103.251 59.6729 102.395 59.6899C102.142 59.6941 102.049 59.5965 102.049 59.3504C102.049 57.1183 102.049 54.8904 102.049 52.6583C102.049 52.4291 102.113 52.3103 102.387 52.3146C103.559 52.3315 104.731 52.3231 105.903 52.3231C105.903 52.3273 105.903 52.3315 105.903 52.34H105.908Z" fill="#060419"/>
</svg>