<?xml version="1.0" encoding="utf-8"?>
<svg xmlns="http://www.w3.org/2000/svg" fill="none" height="56" viewBox="0 0 132 56" width="132">
<g clip-path="url(#clip0_1_316)">
<mask height="56" id="mask0_1_316" maskUnits="userSpaceOnUse" style="mask-type:luminance" width="131" x="1" y="0">
<path d="M131.508 0.374512H1.50629V55.6253H131.508V0.374512Z" fill="white"/>
</mask>
<g mask="url(#mask0_1_316)">
<mask height="56" id="mask1_1_316" maskUnits="userSpaceOnUse" style="mask-type:luminance" width="131" x="1" y="0">
<path d="M1.50629 0.374512H131.509V55.6253H1.50629V0.374512Z" fill="white"/>
</mask>
<g mask="url(#mask1_1_316)">
<path d="M126.781 7.73606C126.765 7.67569 126.767 7.61198 126.787 7.55279C126.747 7.3803 126.688 7.11887 126.629 6.85946C126.456 6.30695 126.09 5.74636 125.459 5.46808C125.117 5.31809 124.747 5.24587 124.374 5.25651C124.14 5.262 123.907 5.28952 123.677 5.33871L120.557 5.98286L120.71 26.3623L123.786 25.7256C124.554 25.5672 125.102 25.2728 125.494 24.9197C125.944 24.599 126.181 24.1873 126.418 23.7763C126.802 22.9698 126.85 22.1451 126.866 22.0042L126.781 7.73606ZM130.222 2.8969C131.176 4.37789 131.207 5.95995 131.17 6.01183L131.305 21.9497C131.315 21.9921 131.286 22.9065 130.901 24.1193C130.406 25.7351 129.447 27.1652 128.144 28.2267C127.052 29.042 125.648 29.74 123.84 30.1133L116.606 31.6091C116.55 31.5754 116.505 31.5849 116.45 31.5512C116.393 31.5108 116.382 31.4663 116.365 31.3875C116.31 31.3524 116.3 31.31 116.336 31.2567L116.126 2.95417C116.151 2.85782 116.14 2.81335 116.176 2.76147C116.202 2.66579 116.237 2.61256 116.282 2.60313C116.351 2.50568 116.453 2.43678 116.568 2.40907L123.668 0.94021C124.307 0.804051 124.958 0.728037 125.61 0.713143C126.524 0.697646 127.299 0.829709 127.954 1.05273C129.043 1.46307 129.773 2.17257 130.222 2.8969ZM105.619 24.1482L108.241 23.6065L106.864 16.9515L105.619 24.1482ZM114.453 31.5296L114.474 31.6172C114.458 31.7553 114.432 31.8517 114.352 31.9137C114.326 32.01 114.156 32.0902 114.02 32.1178L110.493 32.8476C110.461 32.8541 110.429 32.8578 110.396 32.8583C110.22 32.8617 110.094 32.7606 110.052 32.576L109.064 27.8366L104.769 28.7246L103.856 33.8562C103.836 33.9634 103.786 34.0626 103.712 34.1421C103.638 34.2216 103.543 34.2781 103.439 34.305L99.8651 35.0441C99.8392 35.0496 99.8129 35.0528 99.7864 35.0535C99.7031 35.0549 99.6518 35.0226 99.5658 34.97C99.5098 34.9363 99.4444 34.8581 99.4604 34.7193L99.4857 34.6237L104.611 5.21743C104.653 4.98093 104.804 4.81316 105.03 4.76667L108.558 4.03897C108.584 4.03329 108.61 4.03013 108.637 4.02954C108.804 4.02684 108.994 4.11578 108.998 4.30984L114.453 31.5296ZM93.377 28.8021L93.287 14.3075C93.2483 14.133 93.199 13.9167 93.1383 13.6567C92.9203 13.1129 92.601 12.5436 91.9696 12.266C91.8596 12.1986 91.7596 12.1736 91.6483 12.1063C91.4345 12.0555 91.2152 12.0326 90.9956 12.0382C90.7239 12.0455 90.4534 12.0782 90.1876 12.1359C89.4183 12.2943 88.8703 12.5894 88.4682 12.8993C88.0749 13.2524 87.7929 13.6742 87.5556 14.0852C87.1602 14.8479 87.1222 15.7171 87.1062 15.8559L87.2316 30.2986C87.2249 30.4819 87.2842 30.7413 87.3896 30.9919C87.5536 31.5033 87.8822 32.1145 88.5136 32.3921C88.7809 32.51 89.0956 32.5814 89.4983 32.574C89.7289 32.5706 89.9889 32.5417 90.2856 32.4797C91.0543 32.3207 91.6023 32.0262 92.0056 31.7169C92.4436 31.3531 92.6903 30.9852 92.9277 30.5735C93.3137 29.7677 93.361 28.9429 93.377 28.8021ZM96.733 9.6941C97.6771 11.1326 97.7157 12.7571 97.6804 12.809L97.8044 28.7031C97.8144 28.7469 97.7871 29.6599 97.4097 30.9171C97.0244 32.1306 96.2104 33.7504 94.645 34.9808C94.3677 35.22 94.081 35.4147 93.7943 35.6101C93.2874 35.8991 92.7576 36.145 92.2103 36.3452C91.6523 36.5972 91.029 36.771 90.3503 36.9112C89.7323 37.0392 89.2063 37.1153 88.7096 37.1234C88.6254 37.1249 88.5411 37.1242 88.4569 37.1214C87.9284 37.1558 87.3978 37.1285 86.8756 37.0399C86.5749 36.9658 86.2735 36.8916 86.0082 36.7663C84.9202 36.356 84.1995 35.6883 83.7502 34.9646C82.7962 33.4843 82.7582 31.8591 82.7928 31.8059L82.6688 15.9118C82.7042 15.8586 82.6868 14.9551 83.0622 13.6991C83.5778 12.1036 84.5383 10.6926 85.8282 9.63548C86.9102 8.77639 88.3142 8.07767 90.1683 7.69496C90.7958 7.56077 91.4344 7.48566 92.0756 7.47059C93.0057 7.45509 93.795 7.59726 94.465 7.84993C94.731 7.97593 94.9863 8.05881 95.2077 8.19559L95.5377 8.39907C96.053 8.79122 96.4337 9.21166 96.733 9.6941ZM76.2934 19.582C76.2914 17.4959 75.5007 16.525 74.484 16.0089C73.8434 15.7097 73.1147 15.6113 72.46 15.6214C72.1168 15.6267 71.7747 15.6634 71.438 15.7313L70.1266 16.0028L70.1713 25.7445L71.4827 25.4749C72.2973 25.3058 73.5594 24.8173 74.5407 23.9347C75.5127 23.0082 76.3067 21.7105 76.2934 19.582ZM80.7255 18.6656C80.7661 22.7845 79.1188 25.5282 77.2701 27.181C76.9134 27.4801 76.6361 27.7193 76.3141 27.9673L81.0035 37.9293C81.0575 37.963 81.0675 38.0074 81.0875 38.093C81.0652 38.1986 81.0243 38.2992 80.9668 38.3902C80.9408 38.4858 80.7788 38.6112 80.5988 38.6482L76.8454 39.4231C76.8174 39.4293 76.7888 39.4329 76.7601 39.4339C76.6287 39.4359 76.5394 39.3665 76.4694 39.229L71.954 29.8209L70.1913 30.1854L70.2807 40.3273C70.2647 40.4661 70.2393 40.5625 70.1226 40.6763C70.0526 40.7814 69.9266 40.8529 69.7913 40.8818L66.2646 41.6115C66.2385 41.6171 66.2119 41.6202 66.1853 41.621C66.1019 41.6223 66.0493 41.59 65.9633 41.5374C65.8979 41.4593 65.8339 41.3818 65.8486 41.2423L65.6392 12.9384C65.6646 12.8427 65.7252 12.6945 65.7952 12.5894C65.8652 12.4843 65.9913 12.4128 66.1266 12.3845L72.322 11.1043C72.6727 11.0316 73.202 10.9561 73.8267 10.946C74.812 10.9298 76.0361 11.074 77.1801 11.6427C79.0401 12.5274 80.6948 14.5905 80.7255 18.6656ZM63.2512 13.4229C63.4179 13.4148 63.5139 13.4788 63.6179 13.5745C63.6372 13.662 63.6565 13.7476 63.6772 13.8345C63.6865 13.877 63.6519 13.9302 63.6612 13.9733L56.7231 29.422L63.7939 41.9309C63.8472 41.9646 63.8672 42.0515 63.8319 42.1048C63.8491 42.1854 63.8343 42.2696 63.7906 42.3392C63.6852 42.4976 63.5239 42.6216 63.3885 42.6492L59.6352 43.4247C59.6073 43.4306 59.579 43.434 59.5505 43.4348C59.4178 43.4368 59.3305 43.3674 59.2598 43.23L53.1577 32.4723L53.2511 44.2905C53.2351 44.43 53.2097 44.5264 53.0951 44.6409C53.0137 44.7494 52.8945 44.8224 52.7617 44.8451L49.235 45.5748C49.1292 45.5844 49.0233 45.5583 48.9337 45.5007C48.8697 45.4232 48.8043 45.3464 48.8203 45.2076L48.6097 16.9037C48.635 16.8073 48.6957 16.6584 48.7657 16.5533C48.8377 16.4482 49.0083 16.3673 49.099 16.3478L52.6257 15.6201C52.7884 15.608 52.8404 15.641 52.9257 15.6942C53.0371 15.7616 53.0657 15.8909 53.0404 15.9866L53.1351 27.8049L59.0598 14.5616C59.1665 14.4032 59.3178 14.2368 59.4985 14.1991L63.2512 13.4229ZM29.4867 20.5078C29.5252 20.5047 29.5638 20.5108 29.5995 20.5257C29.6352 20.5406 29.6669 20.5637 29.692 20.5933C29.8034 20.6607 29.8227 20.7476 29.8527 20.877L30.0174 49.1897C30.0221 49.4161 29.7894 49.6458 29.5634 49.693L26.0367 50.4207C26.0053 50.4276 25.9734 50.4314 25.9413 50.4321C25.8527 50.4342 25.784 50.4052 25.7367 50.3472C25.6367 50.3223 25.606 50.1923 25.5867 50.1053L25.4207 21.7927C25.4367 21.6539 25.462 21.5568 25.532 21.4524C25.6487 21.3379 25.7287 21.2759 25.8653 21.2469L29.392 20.5192C29.4234 20.5124 29.4546 20.5085 29.4867 20.5078ZM23.1573 21.6775C23.3106 21.6687 23.4086 21.6916 23.4586 21.7516C23.5686 21.819 23.5986 21.949 23.5733 22.0453L23.784 50.3493C23.768 50.4881 23.6966 50.5932 23.6266 50.6996C23.5574 50.7973 23.4556 50.8665 23.34 50.8944L19.8126 51.6221C19.7537 51.6357 19.6926 51.6372 19.6331 51.6263C19.5737 51.6154 19.517 51.5924 19.4666 51.5587C19.4012 51.4812 19.3359 51.4044 19.3519 51.2643L19.2326 35.5966L14.9058 52.3201C14.9152 52.3625 14.8792 52.4158 14.8445 52.469L14.7732 52.5741C14.7378 52.626 14.6932 52.6368 14.6472 52.6455C14.6118 52.6974 14.5672 52.7062 14.4765 52.7264L10.9498 53.4541L10.5944 53.3463C10.5844 53.3038 10.5291 53.2701 10.5191 53.2263L5.98369 38.3349L6.10302 54.0026C6.08702 54.1427 6.06169 54.2384 5.99169 54.3442C5.87502 54.4587 5.79502 54.52 5.65968 54.549L2.13296 55.2767C2.10164 55.2838 2.06972 55.2879 2.03763 55.2888C1.99908 55.2916 1.96042 55.2853 1.92468 55.2705C1.88893 55.2556 1.85708 55.2326 1.83162 55.2032C1.72162 55.1359 1.70096 55.0483 1.67162 54.9189L1.50629 26.6062C1.53162 26.5099 1.54762 26.3711 1.61762 26.266C1.73429 26.1501 1.81362 26.0881 1.95096 26.0605L6.38169 25.1441C6.6017 25.1347 6.7337 25.2357 6.77703 25.4258L12.6931 44.7042L18.3079 23.0419C18.3284 22.9347 18.3787 22.8356 18.4528 22.7561C18.5269 22.6767 18.6219 22.6201 18.7266 22.5931L23.1573 21.6775ZM35.6755 19.0881C35.8275 19.0793 35.9261 19.1016 35.9755 19.1622C36.0408 19.2383 36.1155 19.3589 36.0901 19.4553L36.2441 43.7798L46.419 41.6762C46.5716 41.6681 46.6696 41.6904 46.7196 41.7503C46.8296 41.8177 46.8596 41.9491 46.835 42.0434L46.8816 45.5728C46.8656 45.7116 46.8403 45.8079 46.7256 45.9218C46.6942 45.973 46.6524 46.0169 46.603 46.0507C46.5536 46.0845 46.4977 46.1074 46.439 46.1179L32.3308 49.034C32.2715 49.0471 32.2103 49.048 32.1507 49.0369C32.091 49.0258 32.0342 49.0029 31.9834 48.9693C31.9194 48.8912 31.8541 48.8144 31.8701 48.6742L31.7034 20.3629C31.6847 20.2753 31.7454 20.1264 31.8154 20.0213C31.897 19.9128 32.016 19.8394 32.1488 19.8158L35.6755 19.0881Z" fill="#060419"/>
</g>
</g>
</g>
<defs>
<clipPath id="clip0_1_316">
<rect fill="white" height="56" transform="translate(0.989685)" width="131"/>
</clipPath>
</defs>
</svg>