<svg width="1280" height="516" viewBox="0 0 1280 516" fill="none" xmlns="http://www.w3.org/2000/svg">
<g clip-path="url(#clip0_41_799)">
<rect width="1280" height="516" fill="#3843D0"/>
<g opacity="0.05">
<rect x="-79.9458" y="-22.0303" width="79.2919" height="79.2919" rx="9" stroke="#D7D9F6" stroke-width="2"/>
<rect opacity="0.5" x="0.0810547" y="-22.0303" width="79.2919" height="79.2919" rx="9" stroke="#D7D9F6" stroke-width="2"/>
<rect opacity="0.5" x="80.1079" y="-22.0303" width="79.2919" height="79.2919" rx="9" stroke="#D7D9F6" stroke-width="2"/>
<rect opacity="0.5" x="160.135" y="-22.0303" width="79.2919" height="79.2919" rx="9" stroke="#D7D9F6" stroke-width="2"/>
<rect opacity="0.5" x="240.162" y="-22.0303" width="79.2919" height="79.2919" rx="9" stroke="#D7D9F6" stroke-width="2"/>
<rect opacity="0.5" x="320.189" y="-22.0303" width="79.2919" height="79.2919" rx="9" stroke="#D7D9F6" stroke-width="2"/>
<rect opacity="0.5" x="400.216" y="-22.0303" width="79.2919" height="79.2919" rx="9" stroke="#D7D9F6" stroke-width="2"/>
<rect opacity="0.5" x="480.243" y="-22.0303" width="79.2919" height="79.2919" rx="9" stroke="#D7D9F6" stroke-width="2"/>
<rect opacity="0.5" x="560.27" y="-22.0303" width="79.2919" height="79.2919" rx="9" stroke="#D7D9F6" stroke-width="2"/>
<rect opacity="0.5" x="640.297" y="-22.0303" width="79.2919" height="79.2919" rx="9" stroke="#D7D9F6" stroke-width="2"/>
<rect x="720.324" y="-22.0303" width="79.2919" height="79.2919" rx="9" stroke="#D7D9F6" stroke-width="2"/>
<rect x="800.351" y="-22.0303" width="79.2919" height="79.2919" rx="9" stroke="#D7D9F6" stroke-width="2"/>
<rect x="880.378" y="-22.0303" width="79.2919" height="79.2919" rx="9" stroke="#D7D9F6" stroke-width="2"/>
<rect x="960.405" y="-22.0303" width="79.2919" height="79.2919" rx="9" stroke="#D7D9F6" stroke-width="2"/>
<rect x="1040.43" y="-22.0303" width="79.2919" height="79.2919" rx="9" stroke="#D7D9F6" stroke-width="2"/>
<rect x="1120.46" y="-22.0303" width="79.2919" height="79.2919" rx="9" stroke="#D7D9F6" stroke-width="2"/>
<rect x="1200.49" y="-22.0303" width="79.2919" height="79.2919" rx="9" stroke="#D7D9F6" stroke-width="2"/>
<rect x="1280.51" y="-22.0303" width="79.2919" height="79.2919" rx="9" stroke="#D7D9F6" stroke-width="2"/>
<rect x="-79.9458" y="57.9395" width="79.2919" height="79.2919" rx="9" stroke="#D7D9F6" stroke-width="2"/>
<rect opacity="0.5" x="0.0810547" y="57.9395" width="79.2919" height="79.2919" rx="9" stroke="#D7D9F6" stroke-width="2"/>
<rect opacity="0.4" x="80.1079" y="57.9395" width="79.2919" height="79.2919" rx="9" stroke="#D7D9F6" stroke-width="2"/>
<rect opacity="0.4" x="160.135" y="57.9395" width="79.2919" height="79.2919" rx="9" stroke="#D7D9F6" stroke-width="2"/>
<rect opacity="0.4" x="240.162" y="57.9395" width="79.2919" height="79.2919" rx="9" stroke="#D7D9F6" stroke-width="2"/>
<rect opacity="0.4" x="320.189" y="57.9395" width="79.2919" height="79.2919" rx="9" stroke="#D7D9F6" stroke-width="2"/>
<rect opacity="0.4" x="400.216" y="57.9395" width="79.2919" height="79.2919" rx="9" stroke="#D7D9F6" stroke-width="2"/>
<rect opacity="0.4" x="480.243" y="57.9395" width="79.2919" height="79.2919" rx="9" stroke="#D7D9F6" stroke-width="2"/>
<rect opacity="0.5" x="560.27" y="57.9395" width="79.2919" height="79.2919" rx="9" stroke="#D7D9F6" stroke-width="2"/>
<rect opacity="0.5" x="640.297" y="57.9395" width="79.2919" height="79.2919" rx="9" stroke="#D7D9F6" stroke-width="2"/>
<rect x="720.324" y="57.9395" width="79.2919" height="79.2919" rx="9" stroke="#D7D9F6" stroke-width="2"/>
<rect x="800.351" y="57.9395" width="79.2919" height="79.2919" rx="9" stroke="#D7D9F6" stroke-width="2"/>
<rect x="880.378" y="57.9395" width="79.2919" height="79.2919" rx="9" stroke="#D7D9F6" stroke-width="2"/>
<rect x="960.405" y="57.9395" width="79.2919" height="79.2919" rx="9" stroke="#D7D9F6" stroke-width="2"/>
<rect x="1040.43" y="57.9395" width="79.2919" height="79.2919" rx="9" stroke="#D7D9F6" stroke-width="2"/>
<rect x="1120.46" y="57.9395" width="79.2919" height="79.2919" rx="9" stroke="#D7D9F6" stroke-width="2"/>
<rect x="1200.49" y="57.9395" width="79.2919" height="79.2919" rx="9" stroke="#D7D9F6" stroke-width="2"/>
<rect x="1280.51" y="57.9395" width="79.2919" height="79.2919" rx="9" stroke="#D7D9F6" stroke-width="2"/>
<rect x="-79.9458" y="137.909" width="79.2919" height="79.2919" rx="9" stroke="#D7D9F6" stroke-width="2"/>
<rect opacity="0.5" x="0.0810547" y="137.909" width="79.2919" height="79.2919" rx="9" stroke="#D7D9F6" stroke-width="2"/>
<rect opacity="0.4" x="80.1079" y="137.909" width="79.2919" height="79.2919" rx="9" stroke="#D7D9F6" stroke-width="2"/>
<rect opacity="0.4" x="160.135" y="137.909" width="79.2919" height="79.2919" rx="9" stroke="#D7D9F6" stroke-width="2"/>
<rect opacity="0.4" x="240.162" y="137.909" width="79.2919" height="79.2919" rx="9" stroke="#D7D9F6" stroke-width="2"/>
<rect opacity="0.4" x="320.189" y="137.909" width="79.2919" height="79.2919" rx="9" stroke="#D7D9F6" stroke-width="2"/>
<rect opacity="0.4" x="400.216" y="137.909" width="79.2919" height="79.2919" rx="9" stroke="#D7D9F6" stroke-width="2"/>
<rect opacity="0.4" x="480.243" y="137.909" width="79.2919" height="79.2919" rx="9" stroke="#D7D9F6" stroke-width="2"/>
<rect opacity="0.5" x="560.27" y="137.909" width="79.2919" height="79.2919" rx="9" stroke="#D7D9F6" stroke-width="2"/>
<rect opacity="0.5" x="640.297" y="137.909" width="79.2919" height="79.2919" rx="9" stroke="#D7D9F6" stroke-width="2"/>
<rect x="720.324" y="137.909" width="79.2919" height="79.2919" rx="9" stroke="#D7D9F6" stroke-width="2"/>
<rect x="800.351" y="137.909" width="79.2919" height="79.2919" rx="9" stroke="#D7D9F6" stroke-width="2"/>
<rect x="880.378" y="137.909" width="79.2919" height="79.2919" rx="9" stroke="#D7D9F6" stroke-width="2"/>
<rect x="960.405" y="137.909" width="79.2919" height="79.2919" rx="9" stroke="#D7D9F6" stroke-width="2"/>
<rect x="1040.43" y="137.909" width="79.2919" height="79.2919" rx="9" stroke="#D7D9F6" stroke-width="2"/>
<rect x="1120.46" y="137.909" width="79.2919" height="79.2919" rx="9" stroke="#D7D9F6" stroke-width="2"/>
<rect x="1200.49" y="137.909" width="79.2919" height="79.2919" rx="9" stroke="#D7D9F6" stroke-width="2"/>
<rect x="1280.51" y="137.909" width="79.2919" height="79.2919" rx="9" stroke="#D7D9F6" stroke-width="2"/>
<rect x="-79.9458" y="217.879" width="79.2919" height="79.2919" rx="9" stroke="#D7D9F6" stroke-width="2"/>
<rect opacity="0.5" x="0.0810547" y="217.879" width="79.2919" height="79.2919" rx="9" stroke="#D7D9F6" stroke-width="2"/>
<rect opacity="0.4" x="80.1079" y="217.879" width="79.2919" height="79.2919" rx="9" stroke="#D7D9F6" stroke-width="2"/>
<rect opacity="0.4" x="160.135" y="217.879" width="79.2919" height="79.2919" rx="9" stroke="#D7D9F6" stroke-width="2"/>
<rect opacity="0.4" x="240.162" y="217.879" width="79.2919" height="79.2919" rx="9" stroke="#D7D9F6" stroke-width="2"/>
<rect opacity="0.4" x="320.189" y="217.879" width="79.2919" height="79.2919" rx="9" stroke="#D7D9F6" stroke-width="2"/>
<rect opacity="0.4" x="400.216" y="217.879" width="79.2919" height="79.2919" rx="9" stroke="#D7D9F6" stroke-width="2"/>
<rect opacity="0.4" x="480.243" y="217.879" width="79.2919" height="79.2919" rx="9" stroke="#D7D9F6" stroke-width="2"/>
<rect opacity="0.5" x="560.27" y="217.879" width="79.2919" height="79.2919" rx="9" stroke="#D7D9F6" stroke-width="2"/>
<rect opacity="0.5" x="640.297" y="217.879" width="79.2919" height="79.2919" rx="9" stroke="#D7D9F6" stroke-width="2"/>
<rect x="720.324" y="217.879" width="79.2919" height="79.2919" rx="9" stroke="#D7D9F6" stroke-width="2"/>
<rect x="800.351" y="217.879" width="79.2919" height="79.2919" rx="9" stroke="#D7D9F6" stroke-width="2"/>
<rect x="880.378" y="217.879" width="79.2919" height="79.2919" rx="9" stroke="#D7D9F6" stroke-width="2"/>
<rect x="960.405" y="217.879" width="79.2919" height="79.2919" rx="9" stroke="#D7D9F6" stroke-width="2"/>
<rect x="1040.43" y="217.879" width="79.2919" height="79.2919" rx="9" stroke="#D7D9F6" stroke-width="2"/>
<rect x="1120.46" y="217.879" width="79.2919" height="79.2919" rx="9" stroke="#D7D9F6" stroke-width="2"/>
<rect x="1200.49" y="217.879" width="79.2919" height="79.2919" rx="9" stroke="#D7D9F6" stroke-width="2"/>
<rect x="-79.9458" y="297.849" width="79.2919" height="79.2919" rx="9" stroke="#D7D9F6" stroke-width="2"/>
<rect opacity="0.5" x="0.0810547" y="297.849" width="79.2919" height="79.2919" rx="9" stroke="#D7D9F6" stroke-width="2"/>
<rect opacity="0.4" x="80.1079" y="297.849" width="79.2919" height="79.2919" rx="9" stroke="#D7D9F6" stroke-width="2"/>
<rect opacity="0.4" x="160.135" y="297.849" width="79.2919" height="79.2919" rx="9" stroke="#D7D9F6" stroke-width="2"/>
<rect opacity="0.4" x="240.162" y="297.849" width="79.2919" height="79.2919" rx="9" stroke="#D7D9F6" stroke-width="2"/>
<rect opacity="0.4" x="320.189" y="297.849" width="79.2919" height="79.2919" rx="9" stroke="#D7D9F6" stroke-width="2"/>
<rect opacity="0.4" x="400.216" y="297.849" width="79.2919" height="79.2919" rx="9" stroke="#D7D9F6" stroke-width="2"/>
<rect opacity="0.4" x="480.243" y="297.849" width="79.2919" height="79.2919" rx="9" stroke="#D7D9F6" stroke-width="2"/>
<rect opacity="0.5" x="560.27" y="297.849" width="79.2919" height="79.2919" rx="9" stroke="#D7D9F6" stroke-width="2"/>
<rect opacity="0.5" x="640.297" y="297.849" width="79.2919" height="79.2919" rx="9" stroke="#D7D9F6" stroke-width="2"/>
<rect x="720.324" y="297.849" width="79.2919" height="79.2919" rx="9" stroke="#D7D9F6" stroke-width="2"/>
<rect x="800.351" y="297.849" width="79.2919" height="79.2919" rx="9" stroke="#D7D9F6" stroke-width="2"/>
<rect x="880.378" y="297.849" width="79.2919" height="79.2919" rx="9" stroke="#D7D9F6" stroke-width="2"/>
<rect x="960.405" y="297.849" width="79.2919" height="79.2919" rx="9" stroke="#D7D9F6" stroke-width="2"/>
<rect x="1040.43" y="297.849" width="79.2919" height="79.2919" rx="9" stroke="#D7D9F6" stroke-width="2"/>
<rect x="1120.46" y="297.849" width="79.2919" height="79.2919" rx="9" stroke="#D7D9F6" stroke-width="2"/>
<rect x="1200.49" y="297.849" width="79.2919" height="79.2919" rx="9" stroke="#D7D9F6" stroke-width="2"/>
<rect x="1280.51" y="297.849" width="79.2919" height="79.2919" rx="9" stroke="#D7D9F6" stroke-width="2"/>
<rect x="-79.9458" y="377.818" width="79.2919" height="79.2919" rx="9" stroke="#D7D9F6" stroke-width="2"/>
<rect opacity="0.5" x="0.0810547" y="377.818" width="79.2919" height="79.2919" rx="9" stroke="#D7D9F6" stroke-width="2"/>
<rect opacity="0.4" x="80.1079" y="377.818" width="79.2919" height="79.2919" rx="9" stroke="#D7D9F6" stroke-width="2"/>
<rect opacity="0.4" x="160.135" y="377.818" width="79.2919" height="79.2919" rx="9" stroke="#D7D9F6" stroke-width="2"/>
<rect opacity="0.4" x="240.162" y="377.818" width="79.2919" height="79.2919" rx="9" stroke="#D7D9F6" stroke-width="2"/>
<rect opacity="0.4" x="320.189" y="377.818" width="79.2919" height="79.2919" rx="9" stroke="#D7D9F6" stroke-width="2"/>
<rect opacity="0.4" x="400.216" y="377.818" width="79.2919" height="79.2919" rx="9" stroke="#D7D9F6" stroke-width="2"/>
<rect opacity="0.4" x="480.243" y="377.818" width="79.2919" height="79.2919" rx="9" stroke="#D7D9F6" stroke-width="2"/>
<rect opacity="0.5" x="560.27" y="377.818" width="79.2919" height="79.2919" rx="9" stroke="#D7D9F6" stroke-width="2"/>
<rect opacity="0.5" x="640.297" y="377.818" width="79.2919" height="79.2919" rx="9" stroke="#D7D9F6" stroke-width="2"/>
<rect x="720.324" y="377.818" width="79.2919" height="79.2919" rx="9" stroke="#D7D9F6" stroke-width="2"/>
<rect x="800.351" y="377.818" width="79.2919" height="79.2919" rx="9" stroke="#D7D9F6" stroke-width="2"/>
<rect x="880.378" y="377.818" width="79.2919" height="79.2919" rx="9" stroke="#D7D9F6" stroke-width="2"/>
<rect x="960.405" y="377.818" width="79.2919" height="79.2919" rx="9" stroke="#D7D9F6" stroke-width="2"/>
<rect x="1040.43" y="377.818" width="79.2919" height="79.2919" rx="9" stroke="#D7D9F6" stroke-width="2"/>
<rect x="1120.46" y="377.818" width="79.2919" height="79.2919" rx="9" stroke="#D7D9F6" stroke-width="2"/>
<rect x="1200.49" y="377.818" width="79.2919" height="79.2919" rx="9" stroke="#D7D9F6" stroke-width="2"/>
<rect x="1280.51" y="377.818" width="79.2919" height="79.2919" rx="9" stroke="#D7D9F6" stroke-width="2"/>
<rect x="-79.9458" y="457.788" width="79.2919" height="79.2919" rx="9" stroke="#D7D9F6" stroke-width="2"/>
<rect opacity="0.5" x="0.0810547" y="457.788" width="79.2919" height="79.2919" rx="9" stroke="#D7D9F6" stroke-width="2"/>
<rect opacity="0.5" x="80.1079" y="457.788" width="79.2919" height="79.2919" rx="9" stroke="#D7D9F6" stroke-width="2"/>
<rect opacity="0.5" x="160.135" y="457.788" width="79.2919" height="79.2919" rx="9" stroke="#D7D9F6" stroke-width="2"/>
<rect opacity="0.5" x="240.162" y="457.788" width="79.2919" height="79.2919" rx="9" stroke="#D7D9F6" stroke-width="2"/>
<rect opacity="0.5" x="320.189" y="457.788" width="79.2919" height="79.2919" rx="9" stroke="#D7D9F6" stroke-width="2"/>
<rect opacity="0.5" x="400.216" y="457.788" width="79.2919" height="79.2919" rx="9" stroke="#D7D9F6" stroke-width="2"/>
<rect opacity="0.5" x="480.243" y="457.788" width="79.2919" height="79.2919" rx="9" stroke="#D7D9F6" stroke-width="2"/>
<rect opacity="0.5" x="560.27" y="457.788" width="79.2919" height="79.2919" rx="9" stroke="#D7D9F6" stroke-width="2"/>
<rect opacity="0.5" x="640.297" y="457.788" width="79.2919" height="79.2919" rx="9" stroke="#D7D9F6" stroke-width="2"/>
<rect x="720.324" y="457.788" width="79.2919" height="79.2919" rx="9" stroke="#D7D9F6" stroke-width="2"/>
<rect x="800.351" y="457.788" width="79.2919" height="79.2919" rx="9" stroke="#D7D9F6" stroke-width="2"/>
<rect x="880.378" y="457.788" width="79.2919" height="79.2919" rx="9" stroke="#D7D9F6" stroke-width="2"/>
<rect x="960.405" y="457.788" width="79.2919" height="79.2919" rx="9" stroke="#D7D9F6" stroke-width="2"/>
<rect x="1040.43" y="457.788" width="79.2919" height="79.2919" rx="9" stroke="#D7D9F6" stroke-width="2"/>
<rect x="1120.46" y="457.788" width="79.2919" height="79.2919" rx="9" stroke="#D7D9F6" stroke-width="2"/>
<rect x="1200.49" y="457.788" width="79.2919" height="79.2919" rx="9" stroke="#D7D9F6" stroke-width="2"/>
<rect x="1280.51" y="457.788" width="79.2919" height="79.2919" rx="9" stroke="#D7D9F6" stroke-width="2"/>
</g>
</g>
<defs>
<clipPath id="clip0_41_799">
<rect width="1280" height="516" fill="white"/>
</clipPath>
</defs>
</svg>
